<?xml version="1.0" encoding="utf-8"?>
<!-- Generator: Adobe Illustrator 22.0.1, SVG Export Plug-In . SVG Version: 6.00 Build 0)  -->
<svg version="1.1" id="Layer_1" xmlns="http://www.w3.org/2000/svg" xmlns:xlink="http://www.w3.org/1999/xlink" x="0px" y="0px"
	 viewBox="0 0 132.3 185.7" style="enable-background:new 0 0 132.3 185.7;" xml:space="preserve">
<style type="text/css">
	.st0{fill:none;stroke:#FFFFFF;stroke-width:1.5;stroke-linecap:round;stroke-linejoin:round;stroke-miterlimit:10;}
</style>
<g id="XMLID_1350_">
	<polygon id="XMLID_1363_" class="st0" points="20.2,171 29.5,141.7 18.5,148.3 	"/>
	<polygon id="XMLID_1362_" class="st0" points="31,101.8 18.5,148.3 29.5,141.7 58,129.4 	"/>
	<polygon id="XMLID_1361_" class="st0" points="14.4,114.3 22.7,112.5 28.5,111.2 31,101.8 	"/>
	<polygon id="XMLID_1360_" class="st0" points="12.1,125.1 22.7,112.5 14.4,114.3 	"/>
	<polygon id="XMLID_1359_" class="st0" points="31,101.8 85.6,95.7 58,129.4 	"/>
	<polygon id="XMLID_1358_" class="st0" points="100.2,130.9 58,129.4 107.4,100.1 	"/>
	<polygon id="XMLID_1357_" class="st0" points="85.6,95.7 107.4,100.1 58,129.4 	"/>
	<polygon id="XMLID_1356_" class="st0" points="100.2,130.9 98.1,171 85.6,130.4 	"/>
	<polygon id="XMLID_1355_" class="st0" points="20.2,171 24,171 24,159.1 	"/>
	<polygon id="XMLID_1354_" class="st0" points="111.2,42.8 107.4,100.1 85.6,95.7 	"/>
	<polygon id="XMLID_1353_" class="st0" points="100.9,11.4 111.2,42.8 102.7,60.5 	"/>
	<polygon id="XMLID_1352_" class="st0" points="120.1,17.2 117.9,22.2 104.4,22.2 100.9,11.4 	"/>
	<polygon id="XMLID_1351_" class="st0" points="98.1,171 103.7,171 98.9,156.3 	"/>
</g>
<g>
</g>
<g>
</g>
<g>
</g>
<g>
</g>
<g>
</g>
<g>
</g>
</svg>
