<?xml version="1.0" encoding="utf-8"?>
<!-- Generator: Adobe Illustrator 22.0.1, SVG Export Plug-In . SVG Version: 6.00 Build 0)  -->
<svg version="1.1" id="Layer_1" xmlns="http://www.w3.org/2000/svg" xmlns:xlink="http://www.w3.org/1999/xlink" x="0px" y="0px"
	 viewBox="0 0 35.1 35.4" style="enable-background:new 0 0 35.1 35.4;" xml:space="preserve">
<style type="text/css">
	.st0{fill:#DF101C;}
</style>
<g>
	<g>
		<g>
			<path class="st0" d="M22.9,24.7L10.7,12.5c-0.4-0.4-0.4-1.1,0-1.5l0,0c0.4-0.4,1.1-0.4,1.5,0l12.2,12.2c0.4,0.4,0.4,1.1,0,1.5
				l0,0C24,25.1,23.3,25.1,22.9,24.7z"/>
			<path class="st0" d="M24.5,12.5L12.2,24.7c-0.4,0.4-1.1,0.4-1.5,0l0,0c-0.4-0.4-0.4-1.1,0-1.5L22.9,11c0.4-0.4,1.1-0.4,1.5,0l0,0
				C24.9,11.4,24.9,12.1,24.5,12.5z"/>
		</g>
		<g>
			<path class="st0" d="M17.6,0.6c4.7,0,9,1.9,12.1,5c3.1,3.1,5,7.4,5,12.1c0,4.7-1.9,9-5,12.1c-3.1,3.1-7.4,5-12.1,5
				c-4.7,0-9-1.9-12.1-5c-3.1-3.1-5-7.4-5-12.1c0-4.7,1.9-9,5-12.1C8.5,2.5,12.8,0.6,17.6,0.6L17.6,0.6z M28.7,6.5
				c-2.9-2.9-6.8-4.6-11.2-4.6c-4.4,0-8.3,1.8-11.2,4.6c-2.9,2.9-4.6,6.8-4.6,11.2c0,4.4,1.8,8.3,4.6,11.2c2.9,2.9,6.8,4.6,11.2,4.6
				c4.4,0,8.3-1.8,11.2-4.6c2.9-2.9,4.6-6.8,4.6-11.2C33.4,13.3,31.6,9.4,28.7,6.5L28.7,6.5z"/>
		</g>
	</g>
</g>
<g>
</g>
<g>
</g>
<g>
</g>
<g>
</g>
<g>
</g>
<g>
</g>
</svg>
