<?xml version="1.0" encoding="utf-8"?>
<!-- Generator: Adobe Illustrator 22.0.1, SVG Export Plug-In . SVG Version: 6.00 Build 0)  -->
<svg version="1.1" id="Layer_1" xmlns="http://www.w3.org/2000/svg" xmlns:xlink="http://www.w3.org/1999/xlink" x="0px" y="0px"
	 viewBox="0 0 36.8 36.8" style="enable-background:new 0 0 36.8 36.8;" xml:space="preserve">
<style type="text/css">
	.st0{fill:#FFFFFF;}
	.st1{fill:#DF101D;}
</style>
<g>
	<g>
		<circle class="st0" cx="18.4" cy="18.4" r="17.6"/>
	</g>
	<g>
		<g>
			<path class="st1" d="M23.8,24.5L12,12.7c-0.4-0.4-0.4-1.1,0-1.5l0,0c0.4-0.4,1.1-0.4,1.5,0l11.8,11.8c0.4,0.4,0.4,1.1,0,1.5h0
				C24.9,25,24.2,25,23.8,24.5z"/>
			<path class="st1" d="M25.3,12.7L13.5,24.5c-0.4,0.4-1.1,0.4-1.5,0h0c-0.4-0.4-0.4-1.1,0-1.5l11.8-11.8c0.4-0.4,1.1-0.4,1.5,0l0,0
				C25.7,11.7,25.7,12.3,25.3,12.7z"/>
		</g>
	</g>
</g>
<g>
</g>
<g>
</g>
<g>
</g>
<g>
</g>
<g>
</g>
<g>
</g>
</svg>
