<?xml version="1.0" encoding="utf-8"?>
<!-- Generator: Adobe Illustrator 22.0.1, SVG Export Plug-In . SVG Version: 6.00 Build 0)  -->
<svg version="1.1" id="Layer_1" xmlns="http://www.w3.org/2000/svg" xmlns:xlink="http://www.w3.org/1999/xlink" x="0px" y="0px"
	 viewBox="0 0 22.6 22.7" style="enable-background:new 0 0 22.6 22.7;" xml:space="preserve">
<style type="text/css">
	.st0{fill:#FFFFFF;}
</style>
<g>
	<path class="st0" d="M19.4,21.8L0.8,3.2c-0.6-0.6-0.6-1.7,0-2.3l0,0c0.6-0.6,1.7-0.6,2.3,0l18.6,18.6c0.6,0.6,0.6,1.7,0,2.3l0,0
		C21.1,22.4,20.1,22.4,19.4,21.8z"/>
	<path class="st0" d="M21.7,3.2L3.2,21.8c-0.6,0.6-1.7,0.6-2.3,0l0,0c-0.6-0.6-0.6-1.7,0-2.3L19.4,0.9c0.6-0.6,1.7-0.6,2.3,0l0,0
		C22.4,1.5,22.4,2.6,21.7,3.2z"/>
</g>
<g>
</g>
<g>
</g>
<g>
</g>
<g>
</g>
<g>
</g>
<g>
</g>
</svg>
