<?xml version="1.0" encoding="utf-8"?>
<!-- Generator: Adobe Illustrator 22.0.1, SVG Export Plug-In . SVG Version: 6.00 Build 0)  -->
<svg version="1.1" id="Layer_1" xmlns="http://www.w3.org/2000/svg" xmlns:xlink="http://www.w3.org/1999/xlink" x="0px" y="0px"
	 viewBox="0 0 182.7 120" style="enable-background:new 0 0 182.7 120;" xml:space="preserve">
<style type="text/css">
	.st0{fill-rule:evenodd;clip-rule:evenodd;fill:#545558;}
</style>
<g>
	<g>
		<path class="st0" d="M120.6,52.1H107c0,0,0.2-13.8,0-17.3c-0.4-8-6.3-14.2-14-15c-7.4-0.8-14.6,4.3-16.7,12.1
			C75,37,75.8,52.1,75.8,52.1H62.1c0,0-0.3-16.3,0.8-21.9C65.6,15.2,79.2,4.8,93.4,6c16,1.4,27.1,13.6,27.2,30
			C120.6,37.5,120.6,52.1,120.6,52.1z"/>
	</g>
	<rect x="52" y="59" class="st0" width="78.8" height="14.7"/>
	<rect x="52.2" y="79.8" class="st0" width="78.3" height="13.9"/>
	<rect x="52.2" y="100.2" class="st0" width="78.3" height="13.9"/>
</g>
<g>
</g>
<g>
</g>
<g>
</g>
<g>
</g>
<g>
</g>
<g>
</g>
</svg>
