<?xml version="1.0" encoding="utf-8"?>
<!-- Generator: Adobe Illustrator 22.0.1, SVG Export Plug-In . SVG Version: 6.00 Build 0)  -->
<svg version="1.1" id="Layer_1" xmlns="http://www.w3.org/2000/svg" xmlns:xlink="http://www.w3.org/1999/xlink" x="0px" y="0px"
	 viewBox="0 0 134.9 185.7" style="enable-background:new 0 0 134.9 185.7;" xml:space="preserve">
<style type="text/css">
	.st0{fill:none;stroke:#FFFFFF;stroke-width:1.5;stroke-linecap:round;stroke-linejoin:round;stroke-miterlimit:10;}
</style>
<g id="XMLID_1337_">
	<polygon id="XMLID_1349_" class="st0" points="8.7,87.8 60.8,72.3 40.9,95.7 	"/>
	<polygon id="XMLID_1348_" class="st0" points="40.9,95.7 66.8,120.9 60.8,72.3 	"/>
	<polygon id="XMLID_1347_" class="st0" points="60.8,72.3 66.8,120.9 112.1,90.9 	"/>
	<polygon id="XMLID_1346_" class="st0" points="66.7,74.4 76.1,62 98.4,81.5 95.5,84.9 	"/>
	<polygon id="XMLID_1345_" class="st0" points="95.5,84.9 105.9,72.8 112.1,90.9 	"/>
	<polygon id="XMLID_1344_" class="st0" points="105.9,72.8 117.1,71 112.1,90.9 	"/>
	<polygon id="XMLID_1343_" class="st0" points="117.1,71 115,79.2 126.2,76.1 	"/>
	<polygon id="XMLID_1342_" class="st0" points="76.1,62 92.4,62.7 83.4,68.4 	"/>
	<polygon id="XMLID_1341_" class="st0" points="66.8,120.9 112.1,90.9 105.7,114 	"/>
	<path id="XMLID_1340_" class="st0" d="M66.8,120.9c0.1,0.4-6.3,39.3-6.3,39.3l45.1-46.1L66.8,120.9z"/>
	<polygon id="XMLID_1339_" class="st0" points="66.9,120.9 38.2,157.5 58.2,174.3 	"/>
	<polygon id="XMLID_1338_" class="st0" points="33.8,146.1 40.9,154.1 60.4,129.2 	"/>
</g>
<g>
</g>
<g>
</g>
<g>
</g>
<g>
</g>
<g>
</g>
<g>
</g>
</svg>
