<?xml version="1.0" encoding="utf-8"?>
<!-- Generator: Adobe Illustrator 22.0.1, SVG Export Plug-In . SVG Version: 6.00 Build 0)  -->
<svg version="1.1" id="Layer_1" xmlns="http://www.w3.org/2000/svg" xmlns:xlink="http://www.w3.org/1999/xlink" x="0px" y="0px"
	 viewBox="0 0 240 300.2" style="enable-background:new 0 0 240 300.2;" xml:space="preserve">
<style type="text/css">
	.st0{fill:#FFFFFF;}
	.st1{fill:none;stroke:#FFFFFF;stroke-width:2;stroke-linecap:round;stroke-linejoin:round;stroke-miterlimit:10;}
</style>
<g>
	<g>
		<path class="st0" d="M38.7,25.2c-0.5-0.8-1.1-1.5-1.9-2.1c-0.7-0.6-1.6-1.1-2.5-1.4c-0.9-0.3-1.9-0.5-2.9-0.5
			c-1.9,0-3.5,0.4-4.8,1.1c-1.3,0.7-2.4,1.7-3.2,2.9c-0.8,1.2-1.4,2.6-1.8,4.2c-0.4,1.6-0.6,3.2-0.6,4.8c0,1.6,0.2,3.1,0.6,4.6
			c0.4,1.5,1,2.9,1.8,4.1c0.8,1.2,1.9,2.2,3.2,2.9c1.3,0.7,2.9,1.1,4.8,1.1c2.5,0,4.5-0.8,6-2.3c1.4-1.6,2.3-3.6,2.6-6.2H48
			c-0.2,2.4-0.8,4.5-1.6,6.4c-0.9,1.9-2.1,3.5-3.5,4.9c-1.5,1.3-3.1,2.4-5.1,3.1c-1.9,0.7-4.1,1.1-6.4,1.1c-2.9,0-5.5-0.5-7.8-1.5
			c-2.3-1-4.3-2.4-5.9-4.2c-1.6-1.8-2.8-3.8-3.7-6.2c-0.8-2.4-1.3-5-1.3-7.7c0-2.8,0.4-5.5,1.3-7.9c0.8-2.4,2.1-4.5,3.7-6.3
			c1.6-1.8,3.5-3.2,5.9-4.2c2.3-1,4.9-1.5,7.8-1.5c2.1,0,4.1,0.3,5.9,0.9c1.9,0.6,3.5,1.5,5,2.6c1.5,1.2,2.7,2.6,3.6,4.3
			c1,1.7,1.6,3.6,1.8,5.8h-8.1C39.5,26.9,39.2,26,38.7,25.2z"/>
		<path class="st0" d="M52,33.3c0.7-1.8,1.6-3.3,2.9-4.6c1.2-1.3,2.7-2.2,4.5-2.9c1.7-0.7,3.7-1,5.8-1c2.2,0,4.1,0.3,5.9,1
			c1.8,0.7,3.2,1.7,4.5,2.9c1.2,1.3,2.2,2.8,2.9,4.6c0.7,1.8,1,3.8,1,6c0,2.2-0.3,4.2-1,5.9c-0.7,1.8-1.6,3.3-2.9,4.5
			C74.3,51,72.8,52,71,52.7c-1.8,0.7-3.7,1-5.9,1c-2.2,0-4.1-0.3-5.8-1c-1.7-0.7-3.2-1.6-4.5-2.9c-1.2-1.3-2.2-2.8-2.9-4.5
			c-0.7-1.8-1-3.8-1-5.9C51,37.1,51.3,35.1,52,33.3z M58.9,42.5c0.2,1,0.6,2,1.1,2.8c0.5,0.8,1.2,1.5,2,2c0.8,0.5,1.9,0.7,3.2,0.7
			s2.3-0.2,3.2-0.7c0.9-0.5,1.6-1.2,2.1-2c0.5-0.8,0.9-1.8,1.1-2.8c0.2-1,0.3-2.1,0.3-3.2c0-1.1-0.1-2.2-0.3-3.2
			c-0.2-1.1-0.6-2-1.1-2.8c-0.5-0.8-1.2-1.5-2.1-2c-0.9-0.5-1.9-0.8-3.2-0.8s-2.3,0.3-3.2,0.8c-0.8,0.5-1.5,1.2-2,2
			c-0.5,0.8-0.9,1.8-1.1,2.8c-0.2,1.1-0.3,2.1-0.3,3.2C58.5,40.4,58.6,41.5,58.9,42.5z"/>
		<path class="st0" d="M90.4,25.5v3.8h0.2c1-1.6,2.2-2.8,3.7-3.5c1.5-0.7,3.1-1.1,4.7-1.1c2,0,3.7,0.3,5,0.8
			c1.3,0.5,2.3,1.3,3.1,2.3c0.7,1,1.3,2.2,1.6,3.6c0.3,1.4,0.5,2.9,0.5,4.6V53h-7.5V37.5c0-2.3-0.4-4-1.1-5.1
			c-0.7-1.1-2-1.7-3.8-1.7c-2.1,0-3.5,0.6-4.5,1.8c-0.9,1.2-1.4,3.2-1.4,6V53h-7.5V25.5H90.4z"/>
		<path class="st0" d="M128.7,25.5v5h-5.5v13.6c0,1.3,0.2,2.1,0.6,2.5c0.4,0.4,1.3,0.6,2.5,0.6c0.4,0,0.8,0,1.2-0.1
			c0.4,0,0.8-0.1,1.1-0.2V53c-0.6,0.1-1.3,0.2-2.1,0.2c-0.8,0-1.5,0.1-2.3,0.1c-1.2,0-2.3-0.1-3.3-0.2c-1-0.2-2-0.5-2.8-0.9
			c-0.8-0.5-1.4-1.1-1.9-2c-0.5-0.8-0.7-2-0.7-3.3V30.6h-4.6v-5h4.6v-8.2h7.5v8.2H128.7z"/>
		<path class="st0" d="M132.3,29.6c0.8-1.2,1.8-2.1,3-2.8c1.2-0.7,2.6-1.2,4.1-1.5c1.5-0.3,3-0.5,4.5-0.5c1.4,0,2.8,0.1,4.2,0.3
			c1.4,0.2,2.7,0.6,3.9,1.1c1.2,0.6,2.1,1.4,2.9,2.4c0.7,1,1.1,2.3,1.1,4v14.3c0,1.2,0.1,2.4,0.2,3.6c0.1,1.1,0.4,2,0.7,2.5h-7.6
			c-0.1-0.4-0.3-0.9-0.3-1.3c-0.1-0.4-0.2-0.9-0.2-1.4c-1.2,1.2-2.6,2.1-4.2,2.6c-1.6,0.5-3.3,0.7-5,0.7c-1.3,0-2.5-0.2-3.7-0.5
			c-1.1-0.3-2.1-0.8-3-1.5c-0.8-0.7-1.5-1.5-2-2.5c-0.5-1-0.7-2.2-0.7-3.7c0-1.6,0.3-2.8,0.8-3.8c0.5-1,1.3-1.8,2.1-2.4
			c0.9-0.6,1.9-1.1,3-1.4c1.1-0.3,2.2-0.5,3.4-0.7c1.1-0.2,2.2-0.3,3.3-0.4c1.1-0.1,2.1-0.3,2.9-0.5c0.8-0.2,1.5-0.5,2-0.9
			c0.5-0.4,0.7-1,0.7-1.8c0-0.8-0.1-1.5-0.4-1.9c-0.3-0.5-0.6-0.8-1.1-1.1c-0.4-0.3-1-0.4-1.5-0.5c-0.6-0.1-1.2-0.1-1.9-0.1
			c-1.5,0-2.7,0.3-3.5,1s-1.3,1.7-1.5,3.2h-7.5C131,32.2,131.5,30.7,132.3,29.6z M147.2,40.2c-0.5,0.2-1,0.3-1.5,0.4
			c-0.5,0.1-1.1,0.2-1.7,0.3c-0.6,0.1-1.2,0.2-1.8,0.3c-0.6,0.1-1.1,0.2-1.7,0.4c-0.5,0.2-1,0.4-1.4,0.7c-0.4,0.3-0.7,0.7-1,1.1
			c-0.2,0.5-0.4,1-0.4,1.8c0,0.7,0.1,1.2,0.4,1.7c0.2,0.5,0.6,0.8,1,1.1c0.4,0.3,0.9,0.5,1.5,0.6c0.6,0.1,1.2,0.2,1.8,0.2
			c1.5,0,2.6-0.2,3.5-0.7c0.8-0.5,1.4-1.1,1.8-1.8c0.4-0.7,0.6-1.4,0.7-2.1c0.1-0.7,0.1-1.3,0.1-1.7v-2.8
			C148,39.8,147.6,40.1,147.2,40.2z"/>
		<path class="st0" d="M173.8,30.5c-1.2,0-2.2,0.3-3,0.8c-0.8,0.5-1.5,1.3-2,2.1c-0.5,0.9-0.9,1.8-1.1,2.9c-0.2,1-0.3,2.1-0.3,3.1
			c0,1,0.1,2,0.3,3c0.2,1,0.6,2,1,2.8c0.5,0.8,1.1,1.5,1.9,2c0.8,0.5,1.8,0.8,3,0.8c1.8,0,3.2-0.5,4.2-1.5c1-1,1.6-2.4,1.8-4.1h7.3
			c-0.5,3.6-1.9,6.4-4.2,8.3s-5.3,2.9-9,2.9c-2.1,0-3.9-0.3-5.7-1c-1.7-0.7-3.2-1.7-4.4-2.9c-1.2-1.2-2.1-2.7-2.8-4.4
			c-0.7-1.7-1-3.6-1-5.7c0-2.1,0.3-4.1,0.9-5.9c0.6-1.8,1.5-3.4,2.7-4.7c1.2-1.3,2.7-2.4,4.4-3.1c1.7-0.7,3.7-1.1,5.9-1.1
			c1.6,0,3.2,0.2,4.7,0.6s2.8,1.1,4,1.9s2.2,1.9,2.9,3.2c0.7,1.3,1.2,2.8,1.3,4.6h-7.4C178.8,32.1,177,30.5,173.8,30.5z"/>
		<path class="st0" d="M205.1,25.5v5h-5.5v13.6c0,1.3,0.2,2.1,0.6,2.5c0.4,0.4,1.3,0.6,2.5,0.6c0.4,0,0.8,0,1.2-0.1
			c0.4,0,0.8-0.1,1.1-0.2V53c-0.6,0.1-1.3,0.2-2.1,0.2c-0.8,0-1.5,0.1-2.3,0.1c-1.2,0-2.3-0.1-3.3-0.2s-2-0.5-2.8-0.9
			c-0.8-0.5-1.4-1.1-1.9-2c-0.5-0.8-0.7-2-0.7-3.3V30.6h-4.6v-5h4.6v-8.2h7.5v8.2H205.1z"/>
		<path class="st0" d="M207.8,33.3c0.7-1.8,1.6-3.3,2.9-4.6c1.2-1.3,2.7-2.2,4.5-2.9c1.7-0.7,3.7-1,5.8-1s4.1,0.3,5.9,1
			s3.2,1.7,4.5,2.9c1.2,1.3,2.2,2.8,2.9,4.6c0.7,1.8,1,3.8,1,6c0,2.2-0.3,4.2-1,5.9c-0.7,1.8-1.6,3.3-2.9,4.5
			c-1.2,1.3-2.7,2.2-4.5,2.9s-3.7,1-5.9,1s-4.1-0.3-5.8-1c-1.7-0.7-3.2-1.6-4.5-2.9c-1.2-1.3-2.2-2.8-2.9-4.5c-0.7-1.8-1-3.8-1-5.9
			C206.8,37.1,207.2,35.1,207.8,33.3z M214.7,42.5c0.2,1,0.6,2,1.1,2.8c0.5,0.8,1.2,1.5,2,2c0.8,0.5,1.9,0.7,3.2,0.7
			s2.3-0.2,3.2-0.7c0.9-0.5,1.6-1.2,2.1-2c0.5-0.8,0.9-1.8,1.1-2.8c0.2-1,0.3-2.1,0.3-3.2c0-1.1-0.1-2.2-0.3-3.2
			c-0.2-1.1-0.6-2-1.1-2.8c-0.5-0.8-1.2-1.5-2.1-2c-0.9-0.5-1.9-0.8-3.2-0.8s-2.3,0.3-3.2,0.8c-0.8,0.5-1.5,1.2-2,2
			c-0.5,0.8-0.9,1.8-1.1,2.8c-0.2,1.1-0.3,2.1-0.3,3.2C214.4,40.4,214.5,41.5,214.7,42.5z"/>
	</g>
	<g>
		<g id="XMLID_463_">
			<polygon id="XMLID_517_" class="st1" points="3.8,126.5 103.9,96.7 65.7,141.6 			"/>
			<polygon id="XMLID_515_" class="st1" points="65.7,141.6 115.4,190.1 103.9,96.7 			"/>
			<polygon id="XMLID_514_" class="st1" points="103.9,96.7 115.4,190.1 202.4,132.5 			"/>
			<polygon id="XMLID_513_" class="st1" points="115.1,100.8 133.2,77 176.1,114.5 170.5,120.9 			"/>
			<polygon id="XMLID_510_" class="st1" points="170.5,120.9 190.5,97.7 202.4,132.5 			"/>
			<polygon id="XMLID_470_" class="st1" points="190.5,97.7 212.1,94.2 202.4,132.5 			"/>
			<polygon id="XMLID_469_" class="st1" points="212.1,94.2 208.1,110 229.5,104.1 			"/>
			<polygon id="XMLID_468_" class="st1" points="133.2,77 164.6,78.2 147.3,89.3 			"/>
			<polygon id="XMLID_467_" class="st1" points="115.4,190.1 202.4,132.5 190.1,176.8 			"/>
			<path id="XMLID_466_" class="st1" d="M115.4,190.1c0.1,0.8-12.1,75.5-12.1,75.5l86.6-88.7L115.4,190.1z"/>
			<polygon id="XMLID_465_" class="st1" points="115.6,190.1 60.4,260.5 98.9,292.7 			"/>
			<polygon id="XMLID_464_" class="st1" points="51.9,238.6 65.6,253.9 103.1,206.1 			"/>
		</g>
	</g>
</g>
<g>
</g>
<g>
</g>
<g>
</g>
<g>
</g>
<g>
</g>
<g>
</g>
</svg>
