<?xml version="1.0" encoding="utf-8"?>
<!-- Generator: Adobe Illustrator 22.1.0, SVG Export Plug-In . SVG Version: 6.00 Build 0)  -->
<svg version="1.1" id="Layer_1" xmlns="http://www.w3.org/2000/svg" xmlns:xlink="http://www.w3.org/1999/xlink" x="0px" y="0px"
	 viewBox="0 0 627.7 179.3" style="enable-background:new 0 0 627.7 179.3;" xml:space="preserve">
<style type="text/css">
	.st0{fill:none;stroke:#FFFFFF;stroke-width:1.4631;stroke-linecap:round;stroke-linejoin:round;stroke-miterlimit:10;}
	.st1{fill:#FFFFFF;}
</style>
<g>
	<g id="XMLID_46_">
		<polygon id="XMLID_90_" class="st0" points="0,56.7 56.5,39.8 35,65.3 		"/>
		<polygon id="XMLID_84_" class="st0" points="35,65.3 63.1,92.6 56.5,39.8 		"/>
		<polygon id="XMLID_81_" class="st0" points="56.5,39.8 63.1,92.6 112.2,60.1 		"/>
		<polygon id="XMLID_80_" class="st0" points="62.9,42.1 73.1,28.7 97.3,49.9 94.1,53.5 		"/>
		<polygon id="XMLID_78_" class="st0" points="94.1,53.5 105.5,40.5 112.2,60.1 		"/>
		<polygon id="XMLID_70_" class="st0" points="105.5,40.5 117.6,38.4 112.2,60.1 		"/>
		<polygon id="XMLID_67_" class="st0" points="117.6,38.4 115.4,47.3 127.5,44 		"/>
		<polygon id="XMLID_66_" class="st0" points="73.1,28.7 90.8,29.4 81.1,35.7 		"/>
		<polygon id="XMLID_65_" class="st0" points="63.1,92.6 112.2,60.1 105.3,85.1 		"/>
		<path id="XMLID_62_" class="st0" d="M63.1,92.6c0.1,0.4-6.9,42.6-6.9,42.6l48.9-50L63.1,92.6z"/>
		<polygon id="XMLID_54_" class="st0" points="63.1,92.6 32,132.4 53.7,150.6 		"/>
		<polygon id="XMLID_53_" class="st0" points="27.1,120 34.9,128.6 56,101.6 		"/>
	</g>
</g>
<g>
	<path class="st1" d="M185.7,78.4c-0.5-0.7-1.2-1.5-1.8-2.1c-0.7-0.6-1.6-1-2.5-1.5c-0.9-0.4-2-0.5-2.9-0.5c-1.8,0-3.6,0.4-4.8,1
		c-1.3,0.7-2.3,1.7-3.1,2.8c-0.7,1.1-1.5,2.6-1.8,4.2c-0.4,1.6-0.5,3.1-0.5,4.8c0,1.6,0.1,3.1,0.5,4.7s0.9,2.8,1.8,4
		c0.7,1.2,1.8,2.2,3.1,2.8c1.3,0.7,2.8,1,4.8,1c2.5,0,4.5-0.7,6-2.3c1.5-1.6,2.3-3.7,2.6-6.1h8.1c-0.2,2.3-0.7,4.5-1.7,6.4
		c-0.9,2-2.1,3.6-3.6,4.8c-1.5,1.3-3.1,2.3-5,3.1c-2,0.6-4,1-6.4,1c-2.8,0-5.4-0.5-7.7-1.6c-2.3-1-4.3-2.3-5.9-4.2
		c-1.6-1.8-2.8-3.8-3.7-6.3c-0.7-2.3-1.3-4.9-1.3-7.6c0-2.8,0.4-5.4,1.3-7.7c0.7-2.5,2.1-4.5,3.7-6.4c1.6-1.8,3.6-3.2,5.9-4.2
		c2.3-1,4.9-1.6,7.7-1.6c2.1,0,4,0.2,5.9,0.9s3.6,1.5,4.9,2.6c1.3,1.1,2.6,2.6,3.7,4.3c0.9,1.7,1.6,3.7,1.8,5.9h-8.1
		C186.4,80,186.2,79.2,185.7,78.4z"/>
	<path class="st1" d="M198.8,86.5c0.6-1.8,1.6-3.2,2.8-4.5s2.7-2.2,4.4-2.8c1.7-0.6,3.7-1,5.9-1s4,0.4,5.9,1
		c1.7,0.6,3.2,1.7,4.4,2.8c1.2,1.3,2.2,2.7,2.8,4.5s1,3.8,1,6s-0.4,4.2-1,5.9c-0.6,1.8-1.6,3.2-2.8,4.5s-2.7,2.2-4.4,2.8
		s-3.7,1-5.9,1s-4-0.4-5.9-1c-1.7-0.6-3.2-1.7-4.4-2.8c-1.2-1.3-2.2-2.7-2.8-4.5s-1-3.8-1-5.9C197.8,90.2,198.2,88.2,198.8,86.5z
		 M205.7,95.6c0.2,1,0.5,2,1,2.8c0.5,0.7,1.2,1.5,2.1,2c0.7,0.5,2,0.7,3.1,0.7c1.3,0,2.3-0.2,3.2-0.7s1.6-1.2,2.1-2
		c0.5-0.7,0.9-1.8,1-2.8c0.2-1,0.2-2.1,0.2-3.2c0-1-0.1-2.2-0.2-3.2c-0.2-1-0.5-2-1-2.8c-0.5-0.7-1.2-1.5-2.1-2s-2-0.7-3.2-0.7
		s-2.3,0.2-3.1,0.7c-0.7,0.5-1.6,1.2-2.1,2c-0.5,0.7-0.9,1.7-1,2.8c-0.2,1-0.2,2.1-0.2,3.2C205.3,93.5,205.4,94.6,205.7,95.6z"/>
	<path class="st1" d="M237.1,78.7v3.8h0.1c0.9-1.6,2.2-2.7,3.7-3.6c1.6-0.7,3.1-1,4.7-1c2,0,3.7,0.2,4.9,0.7
		c1.3,0.5,2.3,1.3,2.9,2.2c0.7,0.9,1.3,2.2,1.6,3.6c0.2,1.5,0.4,2.9,0.4,4.7v16.7h-7.5V90.5c0-2.2-0.4-3.9-1-5
		c-0.6-1.2-2-1.7-3.8-1.7c-2.1,0-3.6,0.6-4.4,1.8c-0.7,1.3-1.3,3.4-1.3,6.1V106h-7.6V78.7H237.1z"/>
	<path class="st1" d="M275.1,78.7v5h-5.4v13.5c0,1.3,0.2,2.1,0.6,2.5s1.3,0.6,2.5,0.6c0.4,0,0.7,0,1.2,0s0.7-0.1,1.2-0.1v5.9
		c-0.6,0.1-1.3,0.1-2.1,0.2c-0.7,0-1.6,0-2.2,0c-1.2,0-2.2-0.1-3.2-0.2s-2-0.5-2.7-0.9c-0.7-0.5-1.5-1.2-1.8-2
		c-0.5-0.7-0.6-2-0.6-3.4v-16h-4.5v-5h4.5v-8.2h7.5v8.2h5V78.7z"/>
	<path class="st1" d="M278.6,82.8c0.7-1.2,1.8-2.1,2.9-2.8c1.2-0.6,2.6-1.2,4-1.6c1.6-0.2,2.9-0.4,4.5-0.4c1.5,0,2.7,0.1,4.2,0.2
		s2.7,0.5,3.9,1.2c1.2,0.5,2.1,1.3,2.8,2.3c0.7,1,1.2,2.3,1.2,4V100c0,1.2,0.1,2.5,0.2,3.6c0.1,1.2,0.4,2,0.7,2.5h-7.5
		c-0.1-0.4-0.2-0.9-0.4-1.3c-0.1-0.4-0.1-0.9-0.1-1.3c-1.2,1.2-2.6,2.1-4.2,2.6s-3.2,0.7-4.9,0.7c-1.3,0-2.5-0.1-3.7-0.5
		c-1.2-0.2-2.1-0.7-2.9-1.5c-0.7-0.6-1.6-1.6-2-2.5c-0.5-1-0.6-2.2-0.6-3.7c0-1.6,0.2-2.8,0.7-3.8s1.3-1.8,2.1-2.3
		c0.9-0.6,1.8-1,2.9-1.3c1.2-0.2,2.2-0.5,3.4-0.6s2.2-0.2,3.4-0.4c1-0.1,2.1-0.2,2.8-0.5c0.7-0.2,1.6-0.5,2-0.9
		c0.5-0.4,0.7-1,0.6-1.8c0-0.7-0.1-1.5-0.4-2c-0.2-0.5-0.6-0.7-1-1.2c-0.4-0.2-0.9-0.4-1.6-0.5c-0.5-0.1-1.2-0.1-1.8-0.1
		c-1.5,0-2.6,0.2-3.6,0.9c-0.7,0.6-1.3,1.7-1.5,3.1h-7.5C277.3,85.4,277.8,83.9,278.6,82.8z M293.4,93.2c-0.5,0.1-1,0.2-1.6,0.4
		c-0.6,0.1-1.2,0.1-1.7,0.2c-0.6,0.1-1.2,0.1-1.8,0.2c-0.5,0.1-1.2,0.2-1.7,0.4c-0.5,0.1-1,0.4-1.5,0.6c-0.4,0.2-0.7,0.6-1,1.2
		c-0.2,0.5-0.4,1-0.4,1.7c0,0.6,0.1,1.2,0.4,1.7c0.2,0.5,0.5,0.7,1,1c0.4,0.2,0.9,0.4,1.5,0.5c0.5,0.1,1.2,0.1,1.7,0.1
		c1.5,0,2.6-0.2,3.4-0.7c0.7-0.5,1.5-1,1.8-1.8c0.4-0.6,0.6-1.5,0.6-2.1c0.1-0.6,0.1-1.3,0.1-1.7v-2.8
		C294.1,92.9,293.8,93.1,293.4,93.2z M285.8,75.3l5-7.5h8.3l-8.2,7.5H285.8z"/>
	<path class="st1" d="M319.8,83.6c-1.2,0-2.2,0.2-2.9,0.7c-0.7,0.5-1.5,1.3-2,2.1c-0.5,0.9-0.9,1.8-1,2.8c-0.2,1-0.2,2.1-0.2,3.1
		s0.1,2,0.2,2.9c0.2,1,0.5,2,1,2.7s1.2,1.6,2,2.1c0.7,0.5,1.8,0.7,2.9,0.7c1.8,0,3.1-0.5,4.2-1.6c0.9-1,1.6-2.3,1.8-4h7.2
		c-0.5,3.7-2,6.4-4.2,8.3c-2.3,2-5.3,2.8-9,2.8c-2.1,0-3.9-0.4-5.5-1c-1.7-0.6-3.1-1.7-4.3-2.8c-1.2-1.2-2.1-2.7-2.8-4.4
		c-0.6-1.7-1-3.7-1-5.5c0-2.1,0.2-4,0.9-5.9c0.6-1.8,1.6-3.4,2.7-4.7c1.2-1.3,2.6-2.3,4.4-3.1c1.7-0.7,3.7-1.2,5.9-1.2
		c1.6,0,3.1,0.2,4.7,0.6s2.8,1,4,2c1.2,0.9,2.1,2,2.8,3.2c0.7,1.3,1.2,2.8,1.3,4.5h-7.1C324.8,85.2,323,83.6,319.8,83.6z"/>
	<path class="st1" d="M351,78.7v5h-5.4v13.5c0,1.3,0.2,2.1,0.6,2.5s1.3,0.6,2.5,0.6c0.4,0,0.7,0,1.2,0c0.4,0,0.7-0.1,1.2-0.1v5.9
		c-0.6,0.1-1.3,0.1-2.1,0.2c-0.7,0-1.6,0-2.2,0c-1.2,0-2.2-0.1-3.2-0.2s-2-0.5-2.7-0.9c-0.7-0.5-1.5-1.2-1.8-2
		c-0.5-0.7-0.6-2-0.6-3.4v-16h-4.8v-5h4.5v-8.2h7.5v8.2h5.3V78.7z"/>
	<path class="st1" d="M354.4,82.8c0.7-1.2,1.8-2.1,2.9-2.8c1.2-0.6,2.6-1.2,4-1.6c1.6-0.2,2.9-0.4,4.5-0.4c1.5,0,2.7,0.1,4.2,0.2
		s2.7,0.5,3.9,1.2c1.2,0.5,2.1,1.3,2.8,2.3c0.7,1,1.2,2.3,1.2,4V100c0,1.2,0.1,2.5,0.2,3.6c0.1,1.2,0.4,2,0.7,2.5h-7.5
		c-0.1-0.4-0.2-0.9-0.4-1.3c-0.1-0.4-0.1-0.9-0.1-1.3c-1.2,1.2-2.6,2.1-4.2,2.6s-3.2,0.7-4.9,0.7c-1.3,0-2.5-0.1-3.7-0.5
		c-1.2-0.2-2.1-0.7-2.9-1.5c-0.7-0.6-1.6-1.6-2-2.5c-0.5-1-0.6-2.2-0.6-3.7c0-1.6,0.2-2.8,0.7-3.8s1.3-1.8,2.1-2.3
		c0.9-0.6,1.8-1,2.9-1.3c1.2-0.2,2.2-0.5,3.4-0.6c1.2-0.1,2.2-0.2,3.4-0.4c1-0.1,2.1-0.2,2.8-0.5c0.7-0.2,1.6-0.5,2-0.9
		c0.5-0.4,0.7-1,0.6-1.8c0-0.7-0.1-1.5-0.4-2c-0.2-0.5-0.6-0.7-1-1.2c-0.4-0.2-0.9-0.4-1.6-0.5c-0.5-0.1-1.2-0.1-1.8-0.1
		c-1.5,0-2.6,0.2-3.6,0.9c-0.7,0.6-1.3,1.7-1.5,3.1H353C353.3,85.4,353.7,83.9,354.4,82.8z M369.2,93.2c-0.5,0.1-1,0.2-1.6,0.4
		c-0.6,0.1-1.2,0.1-1.7,0.2c-0.6,0.1-1.2,0.1-1.8,0.2c-0.5,0.1-1.2,0.2-1.7,0.4c-0.5,0.1-1,0.4-1.5,0.6c-0.4,0.2-0.7,0.6-1,1.2
		c-0.2,0.5-0.4,1-0.4,1.7c0,0.6,0.1,1.2,0.4,1.7c0.2,0.5,0.5,0.7,1,1c0.4,0.2,0.9,0.4,1.5,0.5c0.5,0.1,1.2,0.1,1.7,0.1
		c1.5,0,2.6-0.2,3.4-0.7c0.7-0.5,1.5-1,1.8-1.8c0.4-0.6,0.6-1.5,0.6-2.1c0.1-0.6,0.1-1.3,0.1-1.7v-2.8
		C370.1,92.9,369.7,93.1,369.2,93.2z"/>
	<path class="st1" d="M389.7,78.7v3.8h0.1c0.9-1.6,2.2-2.7,3.7-3.6c1.6-0.7,3.1-1,4.7-1c2,0,3.7,0.2,4.9,0.7
		c1.3,0.5,2.3,1.3,2.9,2.2c0.7,0.9,1.3,2.2,1.6,3.6c0.2,1.5,0.4,2.9,0.4,4.7v16.7h-7.5V90.5c0-2.2-0.4-3.9-1-5
		c-0.6-1.2-2-1.7-3.8-1.7c-2.1,0-3.6,0.6-4.4,1.8c-0.9,1.2-1.5,3.2-1.5,6v14.2h-7.1V78.6L389.7,78.7L389.7,78.7L389.7,78.7z"/>
	<path class="st1" d="M412.9,86.5c0.6-1.8,1.6-3.2,2.8-4.5c1.2-1.3,2.7-2.2,4.4-2.8c1.7-0.6,3.7-1,5.9-1s4,0.4,5.9,1
		c1.7,0.6,3.2,1.7,4.4,2.8c1.2,1.3,2.2,2.7,2.8,4.5c0.6,1.8,1,3.8,1,6s-0.4,4.2-1,5.9c-0.6,1.8-1.6,3.2-2.8,4.5
		c-1.2,1.3-2.7,2.2-4.4,2.8c-1.7,0.6-3.7,1-5.9,1s-4-0.4-5.9-1c-1.7-0.6-3.2-1.7-4.4-2.8c-1.2-1.3-2.2-2.7-2.8-4.5
		c-0.6-1.8-1-3.8-1-5.9C412.1,90.2,412.3,88.2,412.9,86.5z M419.8,95.6c0.2,1,0.5,2,1,2.8c0.5,0.7,1.2,1.5,2.1,2
		c0.7,0.5,2,0.7,3.1,0.7c1.3,0,2.3-0.2,3.2-0.7c0.9-0.5,1.6-1.2,2.1-2c0.5-0.7,0.9-1.8,1-2.8c0.2-1,0.2-2.1,0.2-3.2
		c0-1-0.1-2.2-0.2-3.2c-0.2-1-0.5-2-1-2.8c-0.5-0.7-1.2-1.5-2.1-2s-2-0.7-3.2-0.7s-2.3,0.2-3.1,0.7s-1.6,1.2-2.1,2
		c-0.5,0.7-0.9,1.7-1,2.8c-0.2,1-0.2,2.1-0.2,3.2C419.4,93.5,419.5,94.6,419.8,95.6z"/>
	<path class="st1" d="M450.3,99.2c0.4,0.5,0.7,1,1.3,1.5c0.5,0.4,1.2,0.6,1.8,0.7c0.6,0.1,1.5,0.2,2.1,0.2c0.5,0,1,0,1.7-0.1
		c0.5-0.1,1.2-0.2,1.6-0.5c0.5-0.2,0.9-0.6,1.2-1c0.2-0.4,0.5-1,0.5-1.7c0-1.2-0.7-2-2.2-2.5c-1.6-0.5-3.7-1.2-6.3-1.7
		c-1-0.2-2.2-0.5-3.2-0.9s-2-0.7-2.7-1.3c-0.7-0.5-1.5-1.2-2-2.1c-0.5-0.7-0.7-1.8-0.7-2.9c0-1.8,0.4-3.2,1-4.3
		c0.6-1.2,1.6-2,2.7-2.6c1.2-0.6,2.3-1.2,3.8-1.5c1.5-0.2,2.8-0.4,4.3-0.4s2.8,0.1,4.3,0.4c1.5,0.2,2.6,0.7,3.8,1.5
		c1,0.6,2,1.6,2.7,2.6c0.7,1.2,1.2,2.5,1.3,4.2h-7.1c-0.1-1.5-0.6-2.5-1.7-2.9c-1-0.5-2.2-0.7-3.6-0.7c-0.4,0-0.9,0-1.5,0.1
		c-0.5,0-0.9,0.1-1.3,0.4c-0.4,0.1-0.7,0.4-1,0.7c-0.2,0.4-0.4,0.7-0.4,1.3c0,0.6,0.2,1.2,0.7,1.7c0.5,0.4,1.2,0.7,2,1
		c0.7,0.2,1.7,0.5,2.7,0.6c1,0.2,2.1,0.4,3.1,0.6s2.2,0.5,3.2,0.9s2,0.7,2.7,1.5c0.7,0.5,1.5,1.3,2,2.2s0.7,2,0.7,3.2
		c0,1.8-0.4,3.2-1,4.5c-0.7,1.2-1.7,2.2-2.8,2.9c-1.2,0.7-2.5,1.3-4,1.6s-2.9,0.4-4.5,0.4s-3.1-0.1-4.7-0.5c-1.6-0.2-2.8-0.7-4-1.6
		c-1.2-0.7-2.2-1.7-2.8-2.9c-0.7-1.2-1.2-2.7-1.3-4.5h7.1C449.8,97.9,450,98.6,450.3,99.2z"/>
</g>
</svg>
