<?xml version="1.0" encoding="utf-8"?>
<!-- Generator: Adobe Illustrator 22.0.1, SVG Export Plug-In . SVG Version: 6.00 Build 0)  -->
<svg version="1.1" id="Layer_1" xmlns="http://www.w3.org/2000/svg" xmlns:xlink="http://www.w3.org/1999/xlink" x="0px" y="0px"
	 viewBox="0 0 473 179.3" style="enable-background:new 0 0 473 179.3;" xml:space="preserve">
<style type="text/css">
	.st0{fill:none;stroke:#FFFFFF;stroke-width:2;stroke-linecap:round;stroke-linejoin:round;stroke-miterlimit:10;}
	.st1{fill:#FFFFFF;}
</style>
<g>
	<g id="XMLID_46_">
		<polygon id="XMLID_90_" class="st0" points="4.5,44.6 81.8,21.5 52.3,56.3 		"/>
		<polygon id="XMLID_84_" class="st0" points="52.3,56.3 90.7,93.7 81.8,21.5 		"/>
		<polygon id="XMLID_81_" class="st0" points="81.8,21.5 90.7,93.7 157.9,49.2 		"/>
		<polygon id="XMLID_80_" class="st0" points="90.5,24.7 104.4,6.3 137.5,35.3 133.2,40.3 		"/>
		<polygon id="XMLID_78_" class="st0" points="133.2,40.3 148.7,22.4 157.9,49.2 		"/>
		<polygon id="XMLID_70_" class="st0" points="148.7,22.4 165.3,19.6 157.9,49.2 		"/>
		<polygon id="XMLID_67_" class="st0" points="165.3,19.6 162.3,31.8 178.8,27.3 		"/>
		<polygon id="XMLID_66_" class="st0" points="104.4,6.3 128.6,7.3 115.3,15.9 		"/>
		<polygon id="XMLID_65_" class="st0" points="90.7,93.7 157.9,49.2 148.4,83.4 		"/>
		<path id="XMLID_62_" class="st0" d="M90.7,93.7c0.1,0.6-9.4,58.3-9.4,58.3l66.9-68.5L90.7,93.7z"/>
		<polygon id="XMLID_54_" class="st0" points="90.8,93.7 48.2,148.1 77.9,173 		"/>
		<polygon id="XMLID_53_" class="st0" points="41.6,131.1 52.2,142.9 81.1,106 		"/>
	</g>
</g>
<g>
	<path class="st1" d="M237.1,82.6c-0.4-0.6-1-1.2-1.5-1.7c-0.6-0.5-1.3-0.8-2-1.2c-0.7-0.3-1.6-0.4-2.4-0.4c-1.5,0-2.9,0.3-3.9,0.8
		c-1.1,0.6-1.9,1.4-2.5,2.3s-1.2,2.1-1.5,3.4c-0.3,1.3-0.4,2.5-0.4,3.9c0,1.3,0.1,2.5,0.4,3.8c0.3,1.3,0.7,2.3,1.5,3.3
		c0.6,1,1.5,1.8,2.5,2.3c1.1,0.6,2.3,0.8,3.9,0.8c2,0,3.7-0.6,4.9-1.9s1.9-3,2.1-5h6.6c-0.2,1.9-0.6,3.7-1.4,5.2
		c-0.7,1.6-1.7,2.9-2.9,3.9c-1.2,1.1-2.5,1.9-4.1,2.5c-1.6,0.5-3.3,0.8-5.2,0.8c-2.3,0-4.4-0.4-6.3-1.3c-1.9-0.8-3.5-1.9-4.8-3.4
		c-1.3-1.5-2.3-3.1-3-5.1c-0.6-1.9-1.1-4-1.1-6.2c0-2.3,0.3-4.4,1.1-6.3c0.6-2,1.7-3.7,3-5.2c1.3-1.5,2.9-2.6,4.8-3.4
		c1.9-0.8,4-1.3,6.3-1.3c1.7,0,3.3,0.2,4.8,0.7c1.5,0.5,2.9,1.2,4,2.1s2.1,2.1,3,3.5c0.7,1.4,1.3,3,1.5,4.8h-6.6
		C237.7,83.9,237.5,83.3,237.1,82.6z"/>
	<path class="st1" d="M247.8,89.2c0.5-1.5,1.3-2.6,2.3-3.7c1-1.1,2.2-1.8,3.6-2.3c1.4-0.5,3-0.8,4.8-0.8c1.8,0,3.3,0.3,4.8,0.8
		c1.4,0.5,2.6,1.4,3.6,2.3c1,1.1,1.8,2.2,2.3,3.7c0.5,1.5,0.8,3.1,0.8,4.9s-0.3,3.4-0.8,4.8c-0.5,1.5-1.3,2.6-2.3,3.7
		c-1,1.1-2.2,1.8-3.6,2.3c-1.4,0.5-3,0.8-4.8,0.8c-1.8,0-3.3-0.3-4.8-0.8c-1.4-0.5-2.6-1.4-3.6-2.3c-1-1.1-1.8-2.2-2.3-3.7
		c-0.5-1.5-0.8-3.1-0.8-4.8C247,92.2,247.3,90.6,247.8,89.2z M253.4,96.6c0.2,0.8,0.4,1.6,0.8,2.3c0.4,0.6,1,1.2,1.7,1.6
		c0.6,0.4,1.6,0.6,2.5,0.6c1.1,0,1.9-0.2,2.6-0.6c0.7-0.4,1.3-1,1.7-1.6s0.7-1.5,0.8-2.3c0.2-0.8,0.2-1.7,0.2-2.6
		c0-0.8-0.1-1.8-0.2-2.6c-0.2-0.8-0.4-1.6-0.8-2.3c-0.4-0.6-1-1.2-1.7-1.6c-0.7-0.4-1.6-0.6-2.6-0.6s-1.9,0.2-2.5,0.6
		c-0.6,0.4-1.3,1-1.7,1.6c-0.4,0.6-0.7,1.4-0.8,2.3c-0.2,0.8-0.2,1.7-0.2,2.6C253.1,94.9,253.2,95.8,253.4,96.6z"/>
	<path class="st1" d="M279,82.9v3.1h0.1c0.7-1.3,1.8-2.2,3-2.9c1.3-0.6,2.5-0.8,3.8-0.8c1.6,0,3,0.2,4,0.6c1.1,0.4,1.9,1.1,2.4,1.8
		c0.6,0.7,1.1,1.8,1.3,2.9c0.2,1.2,0.3,2.4,0.3,3.8V105h-6.1V92.5c0-1.8-0.3-3.2-0.8-4.1c-0.5-1-1.6-1.4-3.1-1.4
		c-1.7,0-2.9,0.5-3.6,1.5c-0.6,1.1-1.1,2.8-1.1,5v11.6H273V82.9C273,82.9,279,82.9,279,82.9z"/>
	<path class="st1" d="M310,82.9V87h-4.4v11c0,1.1,0.2,1.7,0.5,2s1.1,0.5,2,0.5c0.3,0,0.6,0,1,0s0.6-0.1,1-0.1v4.8
		c-0.5,0.1-1.1,0.1-1.7,0.2c-0.6,0-1.3,0-1.8,0c-1,0-1.8-0.1-2.6-0.2c-0.8-0.1-1.6-0.4-2.2-0.7c-0.6-0.4-1.2-1-1.5-1.6
		c-0.4-0.6-0.5-1.6-0.5-2.8V87h-3.7v-4.1h3.7v-6.7h6.1v6.7H310z"/>
	<path class="st1" d="M312.8,86.2c0.6-1,1.5-1.7,2.4-2.3c1-0.5,2.1-1,3.3-1.3c1.3-0.2,2.4-0.3,3.7-0.3c1.2,0,2.2,0.1,3.4,0.2
		s2.2,0.4,3.2,1c1,0.4,1.7,1.1,2.3,1.9c0.6,0.8,1,1.9,1,3.3v11.5c0,1,0.1,2,0.2,2.9c0.1,1,0.3,1.6,0.6,2h-6.1
		c-0.1-0.3-0.2-0.7-0.3-1.1c-0.1-0.3-0.1-0.7-0.1-1.1c-1,1-2.1,1.7-3.4,2.1c-1.3,0.4-2.6,0.6-4,0.6c-1.1,0-2-0.1-3-0.4
		c-1-0.2-1.7-0.6-2.4-1.2c-0.6-0.5-1.3-1.3-1.6-2c-0.4-0.8-0.5-1.8-0.5-3c0-1.3,0.2-2.3,0.6-3.1c0.4-0.8,1.1-1.5,1.7-1.9
		c0.7-0.5,1.5-0.8,2.4-1.1c1-0.2,1.8-0.4,2.8-0.5c1-0.1,1.8-0.2,2.8-0.3c0.8-0.1,1.7-0.2,2.3-0.4c0.6-0.2,1.3-0.4,1.6-0.7
		c0.4-0.3,0.6-0.8,0.5-1.5c0-0.6-0.1-1.2-0.3-1.6c-0.2-0.4-0.5-0.6-0.8-1c-0.3-0.2-0.7-0.3-1.3-0.4c-0.4-0.1-1-0.1-1.5-0.1
		c-1.2,0-2.1,0.2-2.9,0.7c-0.6,0.5-1.1,1.4-1.2,2.5h-6.1C311.8,88.3,312.2,87.1,312.8,86.2z M324.9,94.7c-0.4,0.1-0.8,0.2-1.3,0.3
		s-1,0.1-1.4,0.2c-0.5,0.1-1,0.1-1.5,0.2c-0.4,0.1-1,0.2-1.4,0.3c-0.4,0.1-0.8,0.3-1.2,0.5c-0.3,0.2-0.6,0.5-0.8,1
		c-0.2,0.4-0.3,0.8-0.3,1.4c0,0.5,0.1,1,0.3,1.4c0.2,0.4,0.4,0.6,0.8,0.8c0.3,0.2,0.7,0.3,1.2,0.4c0.4,0.1,1,0.1,1.4,0.1
		c1.2,0,2.1-0.2,2.8-0.6c0.6-0.4,1.2-0.8,1.5-1.5c0.3-0.5,0.5-1.2,0.5-1.7c0.1-0.5,0.1-1.1,0.1-1.4v-2.3
		C325.5,94.4,325.2,94.6,324.9,94.7z M318.7,80.1l4.1-6.1h6.8l-6.7,6.1H318.7z"/>
	<path class="st1" d="M346.4,86.9c-1,0-1.8,0.2-2.4,0.6c-0.6,0.4-1.2,1.1-1.6,1.7c-0.4,0.7-0.7,1.5-0.8,2.3
		c-0.2,0.8-0.2,1.7-0.2,2.5s0.1,1.6,0.2,2.4c0.2,0.8,0.4,1.6,0.8,2.2c0.4,0.6,1,1.3,1.6,1.7c0.6,0.4,1.5,0.6,2.4,0.6
		c1.5,0,2.5-0.4,3.4-1.3c0.7-0.8,1.3-1.9,1.5-3.3h5.9c-0.4,3-1.6,5.2-3.4,6.8c-1.9,1.6-4.3,2.3-7.3,2.3c-1.7,0-3.2-0.3-4.5-0.8
		c-1.4-0.5-2.5-1.4-3.5-2.3c-1-1-1.7-2.2-2.3-3.6c-0.5-1.4-0.8-3-0.8-4.5c0-1.7,0.2-3.3,0.7-4.8c0.5-1.5,1.3-2.8,2.2-3.8
		c1-1.1,2.1-1.9,3.6-2.5c1.4-0.6,3-1,4.8-1c1.3,0,2.5,0.2,3.8,0.5c1.3,0.3,2.3,0.8,3.3,1.6c1,0.7,1.7,1.6,2.3,2.6
		c0.6,1.1,1,2.3,1.1,3.7h-5.9C350.5,88.2,349,86.9,346.4,86.9z"/>
	<path class="st1" d="M371.8,82.9V87h-4.4v11c0,1.1,0.2,1.7,0.5,2s1.1,0.5,2,0.5c0.3,0,0.6,0,1,0c0.3,0,0.6-0.1,1-0.1v4.8
		c-0.5,0.1-1.1,0.1-1.7,0.2c-0.6,0-1.3,0-1.8,0c-1,0-1.8-0.1-2.6-0.2c-0.8-0.1-1.6-0.4-2.2-0.7c-0.6-0.4-1.2-1-1.5-1.6
		c-0.4-0.6-0.5-1.6-0.5-2.8V87h-3.9v-4.1h3.7v-6.7h6.1v6.7H371.8z"/>
	<path class="st1" d="M374.6,86.2c0.6-1,1.5-1.7,2.4-2.3c1-0.5,2.1-1,3.3-1.3c1.3-0.2,2.4-0.3,3.7-0.3c1.2,0,2.2,0.1,3.4,0.2
		s2.2,0.4,3.2,1c1,0.4,1.7,1.1,2.3,1.9c0.6,0.8,1,1.9,1,3.3v11.5c0,1,0.1,2,0.2,2.9c0.1,1,0.3,1.6,0.6,2h-6.1
		c-0.1-0.3-0.2-0.7-0.3-1.1c-0.1-0.3-0.1-0.7-0.1-1.1c-1,1-2.1,1.7-3.4,2.1c-1.3,0.4-2.6,0.6-4,0.6c-1.1,0-2-0.1-3-0.4
		c-1-0.2-1.7-0.6-2.4-1.2c-0.6-0.5-1.3-1.3-1.6-2c-0.4-0.8-0.5-1.8-0.5-3c0-1.3,0.2-2.3,0.6-3.1c0.4-0.8,1.1-1.5,1.7-1.9
		c0.7-0.5,1.5-0.8,2.4-1.1c1-0.2,1.8-0.4,2.8-0.5c1-0.1,1.8-0.2,2.8-0.3c0.8-0.1,1.7-0.2,2.3-0.4c0.6-0.2,1.3-0.4,1.6-0.7
		c0.4-0.3,0.6-0.8,0.5-1.5c0-0.6-0.1-1.2-0.3-1.6c-0.2-0.4-0.5-0.6-0.8-1c-0.3-0.2-0.7-0.3-1.3-0.4c-0.4-0.1-1-0.1-1.5-0.1
		c-1.2,0-2.1,0.2-2.9,0.7c-0.6,0.5-1.1,1.4-1.2,2.5h-6.1C373.7,88.3,374,87.1,374.6,86.2z M386.7,94.7c-0.4,0.1-0.8,0.2-1.3,0.3
		s-1,0.1-1.4,0.2c-0.5,0.1-1,0.1-1.5,0.2c-0.4,0.1-1,0.2-1.4,0.3s-0.8,0.3-1.2,0.5c-0.3,0.2-0.6,0.5-0.8,1c-0.2,0.4-0.3,0.8-0.3,1.4
		c0,0.5,0.1,1,0.3,1.4c0.2,0.4,0.4,0.6,0.8,0.8c0.3,0.2,0.7,0.3,1.2,0.4c0.4,0.1,1,0.1,1.4,0.1c1.2,0,2.1-0.2,2.8-0.6
		c0.6-0.4,1.2-0.8,1.5-1.5c0.3-0.5,0.5-1.2,0.5-1.7c0.1-0.5,0.1-1.1,0.1-1.4v-2.3C387.4,94.4,387.1,94.6,386.7,94.7z"/>
	<path class="st1" d="M403.4,82.9v3.1h0.1c0.7-1.3,1.8-2.2,3-2.9c1.3-0.6,2.5-0.8,3.8-0.8c1.6,0,3,0.2,4,0.6
		c1.1,0.4,1.9,1.1,2.4,1.8c0.6,0.7,1.1,1.8,1.3,2.9c0.2,1.2,0.3,2.4,0.3,3.8V105h-6.1V92.5c0-1.8-0.3-3.2-0.8-4.1
		c-0.5-1-1.6-1.4-3.1-1.4c-1.7,0-2.9,0.5-3.6,1.5s-1.2,2.6-1.2,4.9V105h-5.8V82.8h5.7V82.9z"/>
	<path class="st1" d="M422.3,89.2c0.5-1.5,1.3-2.6,2.3-3.7c1-1.1,2.2-1.8,3.6-2.3c1.4-0.5,3-0.8,4.8-0.8c1.8,0,3.3,0.3,4.8,0.8
		c1.4,0.5,2.6,1.4,3.6,2.3c1,1.1,1.8,2.2,2.3,3.7c0.5,1.5,0.8,3.1,0.8,4.9s-0.3,3.4-0.8,4.8c-0.5,1.5-1.3,2.6-2.3,3.7
		c-1,1.1-2.2,1.8-3.6,2.3c-1.4,0.5-3,0.8-4.8,0.8c-1.8,0-3.3-0.3-4.8-0.8c-1.4-0.5-2.6-1.4-3.6-2.3c-1-1.1-1.8-2.2-2.3-3.7
		c-0.5-1.5-0.8-3.1-0.8-4.8C421.6,92.2,421.8,90.6,422.3,89.2z M427.9,96.6c0.2,0.8,0.4,1.6,0.8,2.3c0.4,0.6,1,1.2,1.7,1.6
		c0.6,0.4,1.6,0.6,2.5,0.6c1.1,0,1.9-0.2,2.6-0.6c0.7-0.4,1.3-1,1.7-1.6c0.4-0.6,0.7-1.5,0.8-2.3c0.2-0.8,0.2-1.7,0.2-2.6
		c0-0.8-0.1-1.8-0.2-2.6c-0.2-0.8-0.4-1.6-0.8-2.3c-0.4-0.6-1-1.2-1.7-1.6c-0.7-0.4-1.6-0.6-2.6-0.6s-1.9,0.2-2.5,0.6
		c-0.6,0.4-1.3,1-1.7,1.6c-0.4,0.6-0.7,1.4-0.8,2.3c-0.2,0.8-0.2,1.7-0.2,2.6C427.6,94.9,427.7,95.8,427.9,96.6z"/>
	<path class="st1" d="M452.8,99.6c0.3,0.4,0.6,0.8,1.1,1.2c0.4,0.3,1,0.5,1.5,0.6c0.5,0.1,1.2,0.2,1.7,0.2c0.4,0,0.8,0,1.4-0.1
		c0.4-0.1,1-0.2,1.3-0.4c0.4-0.2,0.7-0.5,1-0.8c0.2-0.3,0.4-0.8,0.4-1.4c0-1-0.6-1.6-1.8-2c-1.3-0.4-3-1-5.1-1.4
		c-0.8-0.2-1.8-0.4-2.6-0.7c-0.8-0.3-1.6-0.6-2.2-1.1c-0.6-0.4-1.2-1-1.6-1.7c-0.4-0.6-0.6-1.5-0.6-2.4c0-1.5,0.3-2.6,0.8-3.5
		c0.5-1,1.3-1.6,2.2-2.1c1-0.5,1.9-1,3.1-1.2s2.3-0.3,3.5-0.3s2.3,0.1,3.5,0.3c1.2,0.2,2.1,0.6,3.1,1.2c0.8,0.5,1.6,1.3,2.2,2.1
		c0.6,1,1,2,1.1,3.4h-5.8c-0.1-1.2-0.5-2-1.4-2.4c-0.8-0.4-1.8-0.6-2.9-0.6c-0.3,0-0.7,0-1.2,0.1c-0.4,0-0.7,0.1-1.1,0.3
		c-0.3,0.1-0.6,0.3-0.8,0.6c-0.2,0.3-0.3,0.6-0.3,1.1c0,0.5,0.2,1,0.6,1.4c0.4,0.3,1,0.6,1.6,0.8s1.4,0.4,2.2,0.5
		c0.8,0.2,1.7,0.3,2.5,0.5s1.8,0.4,2.6,0.7c0.8,0.3,1.6,0.6,2.2,1.2c0.6,0.4,1.2,1.1,1.6,1.8s0.6,1.6,0.6,2.6c0,1.5-0.3,2.6-0.8,3.7
		c-0.6,1-1.4,1.8-2.3,2.4c-1,0.6-2,1.1-3.3,1.3c-1.3,0.2-2.4,0.3-3.7,0.3s-2.5-0.1-3.8-0.4c-1.3-0.2-2.3-0.6-3.3-1.3
		c-1-0.6-1.8-1.4-2.3-2.4c-0.6-1-1-2.2-1.1-3.7h5.8C452.4,98.5,452.5,99.1,452.8,99.6z"/>
</g>
</svg>
