<?xml version="1.0" encoding="utf-8"?>
<!-- Generator: Adobe Illustrator 22.0.1, SVG Export Plug-In . SVG Version: 6.00 Build 0)  -->
<svg version="1.1" id="Layer_1" xmlns="http://www.w3.org/2000/svg" xmlns:xlink="http://www.w3.org/1999/xlink" x="0px" y="0px"
	 viewBox="0 0 240 300.2" style="enable-background:new 0 0 240 300.2;" xml:space="preserve">
<style type="text/css">
	.st0{fill:none;stroke:#FFFFFF;stroke-width:2;stroke-linecap:round;stroke-linejoin:round;stroke-miterlimit:10;}
	.st1{fill:#FFFFFF;}
</style>
<g>
	<g id="XMLID_463_">
		<polygon id="XMLID_517_" class="st0" points="1.4,126.5 101.5,96.7 63.3,141.6 		"/>
		<polygon id="XMLID_515_" class="st0" points="63.3,141.6 113,190.1 101.5,96.7 		"/>
		<polygon id="XMLID_514_" class="st0" points="101.5,96.7 113,190.1 200,132.5 		"/>
		<polygon id="XMLID_513_" class="st0" points="112.7,100.8 130.8,77 173.7,114.5 168.1,120.9 		"/>
		<polygon id="XMLID_510_" class="st0" points="168.1,120.9 188.1,97.7 200,132.5 		"/>
		<polygon id="XMLID_470_" class="st0" points="188.1,97.7 209.7,94.2 200,132.5 		"/>
		<polygon id="XMLID_469_" class="st0" points="209.7,94.2 205.7,110 227.1,104.1 		"/>
		<polygon id="XMLID_468_" class="st0" points="130.8,77 162.2,78.2 144.9,89.3 		"/>
		<polygon id="XMLID_467_" class="st0" points="113,190.1 200,132.5 187.7,176.8 		"/>
		<path id="XMLID_466_" class="st0" d="M113,190.1c0.1,0.8-12.1,75.5-12.1,75.5l86.6-88.7L113,190.1z"/>
		<polygon id="XMLID_465_" class="st0" points="113.2,190.1 58,260.5 96.5,292.7 		"/>
		<polygon id="XMLID_464_" class="st0" points="49.5,238.6 63.2,253.9 100.7,206.1 		"/>
	</g>
</g>
<g>
	<path class="st1" d="M21.2,12.8c-0.4-0.6-0.9-1.1-1.4-1.6c-0.6-0.5-1.2-0.8-1.9-1.1c-0.7-0.3-1.5-0.4-2.3-0.4
		c-1.4,0-2.7,0.3-3.7,0.8c-1,0.6-1.8,1.3-2.4,2.2c-0.6,0.9-1.1,2-1.4,3.2c-0.3,1.2-0.4,2.4-0.4,3.7c0,1.2,0.1,2.4,0.4,3.6
		c0.3,1.2,0.7,2.2,1.4,3.1c0.6,0.9,1.4,1.7,2.4,2.2c1,0.6,2.2,0.8,3.7,0.8c1.9,0,3.5-0.6,4.6-1.8c1.1-1.2,1.8-2.8,2-4.7h6.2
		c-0.2,1.8-0.6,3.5-1.3,4.9c-0.7,1.5-1.6,2.7-2.7,3.7c-1.1,1-2.4,1.8-3.9,2.4c-1.5,0.5-3.1,0.8-4.9,0.8c-2.2,0-4.2-0.4-6-1.2
		c-1.8-0.8-3.3-1.8-4.5-3.2c-1.2-1.4-2.2-2.9-2.8-4.8c-0.6-1.8-1-3.8-1-5.9c0-2.2,0.3-4.2,1-6c0.6-1.9,1.6-3.5,2.8-4.9
		c1.2-1.4,2.7-2.5,4.5-3.2c1.8-0.8,3.8-1.2,6-1.2c1.6,0,3.1,0.2,4.5,0.7c1.4,0.5,2.7,1.1,3.8,2c1.1,0.9,2,2,2.8,3.3
		c0.7,1.3,1.2,2.8,1.4,4.5h-6.2C21.8,14.1,21.6,13.5,21.2,12.8z"/>
	<path class="st1" d="M31.4,19.1c0.5-1.4,1.2-2.5,2.2-3.5c0.9-1,2.1-1.7,3.4-2.2c1.3-0.5,2.8-0.8,4.5-0.8c1.7,0,3.1,0.3,4.5,0.8
		c1.3,0.5,2.5,1.3,3.4,2.2c0.9,1,1.7,2.1,2.2,3.5c0.5,1.4,0.8,2.9,0.8,4.6c0,1.7-0.3,3.2-0.8,4.5c-0.5,1.4-1.2,2.5-2.2,3.5
		c-0.9,1-2.1,1.7-3.4,2.2c-1.3,0.5-2.8,0.8-4.5,0.8c-1.7,0-3.1-0.3-4.5-0.8c-1.3-0.5-2.5-1.3-3.4-2.2c-0.9-1-1.7-2.1-2.2-3.5
		c-0.5-1.4-0.8-2.9-0.8-4.5C30.6,21.9,30.9,20.4,31.4,19.1z M36.6,26.1c0.2,0.8,0.4,1.5,0.8,2.2c0.4,0.6,0.9,1.1,1.6,1.5
		c0.6,0.4,1.5,0.6,2.4,0.6c1,0,1.8-0.2,2.5-0.6c0.7-0.4,1.2-0.9,1.6-1.5c0.4-0.6,0.7-1.4,0.8-2.2c0.2-0.8,0.2-1.6,0.2-2.5
		c0-0.8-0.1-1.7-0.2-2.5c-0.2-0.8-0.4-1.5-0.8-2.2c-0.4-0.6-0.9-1.1-1.6-1.5c-0.7-0.4-1.5-0.6-2.5-0.6c-1,0-1.8,0.2-2.4,0.6
		c-0.6,0.4-1.2,0.9-1.6,1.5c-0.4,0.6-0.7,1.3-0.8,2.2c-0.2,0.8-0.2,1.6-0.2,2.5C36.4,24.5,36.5,25.3,36.6,26.1z"/>
	<path class="st1" d="M60.8,13.1V16h0.1c0.7-1.2,1.7-2.1,2.8-2.7c1.2-0.6,2.4-0.8,3.6-0.8c1.5,0,2.8,0.2,3.8,0.6
		c1,0.4,1.8,1,2.3,1.7c0.6,0.7,1,1.7,1.2,2.7c0.2,1.1,0.3,2.3,0.3,3.6v12.9h-5.8V22.2c0-1.7-0.3-3-0.8-3.9c-0.5-0.9-1.5-1.3-2.9-1.3
		c-1.6,0-2.7,0.5-3.4,1.4C61.4,19.4,61,21,61,23.1v11h-5.8v-21H60.8z"/>
	<path class="st1" d="M90.1,13.1V17h-4.2v10.4c0,1,0.2,1.6,0.5,1.9c0.3,0.3,1,0.5,1.9,0.5c0.3,0,0.6,0,0.9,0c0.3,0,0.6-0.1,0.9-0.1
		v4.5c-0.5,0.1-1,0.1-1.6,0.2c-0.6,0-1.2,0-1.7,0c-0.9,0-1.7-0.1-2.5-0.2c-0.8-0.1-1.5-0.4-2.1-0.7c-0.6-0.4-1.1-0.9-1.4-1.5
		c-0.4-0.6-0.5-1.5-0.5-2.6V17h-3.5v-3.9h3.5V6.8h5.8v6.3H90.1z"/>
	<path class="st1" d="M92.8,16.2c0.6-0.9,1.4-1.6,2.3-2.2c0.9-0.5,2-0.9,3.1-1.2c1.2-0.2,2.3-0.3,3.5-0.3c1.1,0,2.1,0.1,3.2,0.2
		c1.1,0.1,2.1,0.4,3,0.9c0.9,0.4,1.6,1,2.2,1.8c0.6,0.8,0.9,1.8,0.9,3.1v10.9c0,0.9,0.1,1.9,0.2,2.7c0.1,0.9,0.3,1.5,0.6,1.9h-5.8
		c-0.1-0.3-0.2-0.7-0.3-1c-0.1-0.3-0.1-0.7-0.1-1c-0.9,0.9-2,1.6-3.2,2c-1.2,0.4-2.5,0.6-3.8,0.6c-1,0-1.9-0.1-2.8-0.4
		c-0.9-0.2-1.6-0.6-2.3-1.1c-0.6-0.5-1.2-1.2-1.5-1.9c-0.4-0.8-0.5-1.7-0.5-2.8c0-1.2,0.2-2.2,0.6-2.9c0.4-0.8,1-1.4,1.6-1.8
		c0.7-0.5,1.4-0.8,2.3-1c0.9-0.2,1.7-0.4,2.6-0.5c0.9-0.1,1.7-0.2,2.6-0.3c0.8-0.1,1.6-0.2,2.2-0.4c0.6-0.2,1.2-0.4,1.5-0.7
		c0.4-0.3,0.6-0.8,0.5-1.4c0-0.6-0.1-1.1-0.3-1.5c-0.2-0.4-0.5-0.6-0.8-0.9c-0.3-0.2-0.7-0.3-1.2-0.4c-0.4-0.1-0.9-0.1-1.4-0.1
		c-1.1,0-2,0.2-2.7,0.7c-0.6,0.5-1,1.3-1.1,2.4h-5.8C91.8,18.2,92.2,17.1,92.8,16.2z M104.2,24.3c-0.4,0.1-0.8,0.2-1.2,0.3
		c-0.4,0.1-0.9,0.1-1.3,0.2c-0.5,0.1-0.9,0.1-1.4,0.2c-0.4,0.1-0.9,0.2-1.3,0.3c-0.4,0.1-0.8,0.3-1.1,0.5c-0.3,0.2-0.6,0.5-0.8,0.9
		c-0.2,0.4-0.3,0.8-0.3,1.3c0,0.5,0.1,0.9,0.3,1.3c0.2,0.4,0.4,0.6,0.8,0.8c0.3,0.2,0.7,0.3,1.1,0.4c0.4,0.1,0.9,0.1,1.3,0.1
		c1.1,0,2-0.2,2.6-0.6c0.6-0.4,1.1-0.8,1.4-1.4c0.3-0.5,0.5-1.1,0.5-1.6c0.1-0.5,0.1-1,0.1-1.3v-2.2C104.8,24,104.5,24.2,104.2,24.3
		z M98.4,10.5l3.9-5.8h6.4l-6.3,5.8H98.4z"/>
	<path class="st1" d="M124.5,16.9c-0.9,0-1.7,0.2-2.3,0.6c-0.6,0.4-1.1,1-1.5,1.6c-0.4,0.7-0.7,1.4-0.8,2.2
		c-0.2,0.8-0.2,1.6-0.2,2.4c0,0.8,0.1,1.5,0.2,2.3c0.2,0.8,0.4,1.5,0.8,2.1c0.4,0.6,0.9,1.2,1.5,1.6c0.6,0.4,1.4,0.6,2.3,0.6
		c1.4,0,2.4-0.4,3.2-1.2c0.7-0.8,1.2-1.8,1.4-3.1h5.6c-0.4,2.8-1.5,4.9-3.2,6.4c-1.8,1.5-4.1,2.2-6.9,2.2c-1.6,0-3-0.3-4.3-0.8
		c-1.3-0.5-2.4-1.3-3.3-2.2c-0.9-0.9-1.6-2.1-2.2-3.4c-0.5-1.3-0.8-2.8-0.8-4.3c0-1.6,0.2-3.1,0.7-4.5c0.5-1.4,1.2-2.6,2.1-3.6
		c0.9-1,2-1.8,3.4-2.4c1.3-0.6,2.8-0.9,4.5-0.9c1.2,0,2.4,0.2,3.6,0.5c1.2,0.3,2.2,0.8,3.1,1.5c0.9,0.7,1.6,1.5,2.2,2.5
		c0.6,1,0.9,2.2,1,3.5h-5.6C128.4,18.1,127,16.9,124.5,16.9z"/>
	<path class="st1" d="M148.5,13.1V17h-4.2v10.4c0,1,0.2,1.6,0.5,1.9c0.3,0.3,1,0.5,1.9,0.5c0.3,0,0.6,0,0.9,0c0.3,0,0.6-0.1,0.9-0.1
		v4.5c-0.5,0.1-1,0.1-1.6,0.2c-0.6,0-1.2,0-1.7,0c-0.9,0-1.7-0.1-2.5-0.2c-0.8-0.1-1.5-0.4-2.1-0.7c-0.6-0.4-1.1-0.9-1.4-1.5
		c-0.4-0.6-0.5-1.5-0.5-2.6V17H135v-3.9h3.5V6.8h5.8v6.3H148.5z"/>
	<path class="st1" d="M151.2,16.2c0.6-0.9,1.4-1.6,2.3-2.2c0.9-0.5,2-0.9,3.1-1.2c1.2-0.2,2.3-0.3,3.5-0.3c1.1,0,2.1,0.1,3.2,0.2
		c1.1,0.1,2.1,0.4,3,0.9c0.9,0.4,1.6,1,2.2,1.8c0.6,0.8,0.9,1.8,0.9,3.1v10.9c0,0.9,0.1,1.9,0.2,2.7c0.1,0.9,0.3,1.5,0.6,1.9h-5.8
		c-0.1-0.3-0.2-0.7-0.3-1c-0.1-0.3-0.1-0.7-0.1-1c-0.9,0.9-2,1.6-3.2,2c-1.2,0.4-2.5,0.6-3.8,0.6c-1,0-1.9-0.1-2.8-0.4
		c-0.9-0.2-1.6-0.6-2.3-1.1c-0.6-0.5-1.2-1.2-1.5-1.9c-0.4-0.8-0.5-1.7-0.5-2.8c0-1.2,0.2-2.2,0.6-2.9c0.4-0.8,1-1.4,1.6-1.8
		c0.7-0.5,1.4-0.8,2.3-1c0.9-0.2,1.7-0.4,2.6-0.5c0.9-0.1,1.7-0.2,2.6-0.3c0.8-0.1,1.6-0.2,2.2-0.4c0.6-0.2,1.2-0.4,1.5-0.7
		c0.4-0.3,0.6-0.8,0.5-1.4c0-0.6-0.1-1.1-0.3-1.5c-0.2-0.4-0.5-0.6-0.8-0.9c-0.3-0.2-0.7-0.3-1.2-0.4c-0.4-0.1-0.9-0.1-1.4-0.1
		c-1.1,0-2,0.2-2.7,0.7c-0.6,0.5-1,1.3-1.1,2.4h-5.8C150.3,18.2,150.6,17.1,151.2,16.2z M162.6,24.3c-0.4,0.1-0.8,0.2-1.2,0.3
		c-0.4,0.1-0.9,0.1-1.3,0.2c-0.5,0.1-0.9,0.1-1.4,0.2c-0.4,0.1-0.9,0.2-1.3,0.3c-0.4,0.1-0.8,0.3-1.1,0.5c-0.3,0.2-0.6,0.5-0.8,0.9
		c-0.2,0.4-0.3,0.8-0.3,1.3c0,0.5,0.1,0.9,0.3,1.3c0.2,0.4,0.4,0.6,0.8,0.8c0.3,0.2,0.7,0.3,1.1,0.4c0.4,0.1,0.9,0.1,1.3,0.1
		c1.1,0,2-0.2,2.6-0.6c0.6-0.4,1.1-0.8,1.4-1.4c0.3-0.5,0.5-1.1,0.5-1.6c0.1-0.5,0.1-1,0.1-1.3v-2.2C163.3,24,163,24.2,162.6,24.3z"
		/>
	<path class="st1" d="M178.4,13.1V16h0.1c0.7-1.2,1.7-2.1,2.8-2.7c1.2-0.6,2.4-0.8,3.6-0.8c1.5,0,2.8,0.2,3.8,0.6
		c1,0.4,1.8,1,2.3,1.7c0.6,0.7,1,1.7,1.2,2.7c0.2,1.1,0.3,2.3,0.3,3.6v12.9h-5.8V22.2c0-1.7-0.3-3-0.8-3.9c-0.5-0.9-1.5-1.3-2.9-1.3
		c-1.6,0-2.7,0.5-3.4,1.4c-0.7,0.9-1.1,2.5-1.1,4.6v11H173v-21H178.4z"/>
	<path class="st1" d="M196.3,19.1c0.5-1.4,1.2-2.5,2.2-3.5c0.9-1,2.1-1.7,3.4-2.2c1.3-0.5,2.8-0.8,4.5-0.8c1.7,0,3.1,0.3,4.5,0.8
		c1.3,0.5,2.5,1.3,3.4,2.2c0.9,1,1.7,2.1,2.2,3.5c0.5,1.4,0.8,2.9,0.8,4.6c0,1.7-0.3,3.2-0.8,4.5c-0.5,1.4-1.2,2.5-2.2,3.5
		c-0.9,1-2.1,1.7-3.4,2.2c-1.3,0.5-2.8,0.8-4.5,0.8c-1.7,0-3.1-0.3-4.5-0.8c-1.3-0.5-2.5-1.3-3.4-2.2c-0.9-1-1.7-2.1-2.2-3.5
		c-0.5-1.4-0.8-2.9-0.8-4.5C195.6,21.9,195.8,20.4,196.3,19.1z M201.6,26.1c0.2,0.8,0.4,1.5,0.8,2.2c0.4,0.6,0.9,1.1,1.6,1.5
		c0.6,0.4,1.5,0.6,2.4,0.6c1,0,1.8-0.2,2.5-0.6c0.7-0.4,1.2-0.9,1.6-1.5c0.4-0.6,0.7-1.4,0.8-2.2c0.2-0.8,0.2-1.6,0.2-2.5
		c0-0.8-0.1-1.7-0.2-2.5c-0.2-0.8-0.4-1.5-0.8-2.2c-0.4-0.6-0.9-1.1-1.6-1.5c-0.7-0.4-1.5-0.6-2.5-0.6c-1,0-1.8,0.2-2.4,0.6
		c-0.6,0.4-1.2,0.9-1.6,1.5c-0.4,0.6-0.7,1.3-0.8,2.2c-0.2,0.8-0.2,1.6-0.2,2.5C201.3,24.5,201.4,25.3,201.6,26.1z"/>
	<path class="st1" d="M225.1,28.9c0.3,0.4,0.6,0.8,1,1.1c0.4,0.3,0.9,0.5,1.4,0.6c0.5,0.1,1.1,0.2,1.6,0.2c0.4,0,0.8,0,1.3-0.1
		c0.4-0.1,0.9-0.2,1.2-0.4c0.4-0.2,0.7-0.5,0.9-0.8c0.2-0.3,0.4-0.8,0.4-1.3c0-0.9-0.6-1.5-1.7-1.9c-1.2-0.4-2.8-0.9-4.8-1.3
		c-0.8-0.2-1.7-0.4-2.5-0.7c-0.8-0.3-1.5-0.6-2.1-1c-0.6-0.4-1.1-0.9-1.5-1.6c-0.4-0.6-0.6-1.4-0.6-2.3c0-1.4,0.3-2.5,0.8-3.3
		c0.5-0.9,1.2-1.5,2.1-2c0.9-0.5,1.8-0.9,2.9-1.1c1.1-0.2,2.2-0.3,3.3-0.3s2.2,0.1,3.3,0.3c1.1,0.2,2,0.6,2.9,1.1
		c0.8,0.5,1.5,1.2,2.1,2c0.6,0.9,0.9,1.9,1,3.2h-5.5c-0.1-1.1-0.5-1.9-1.3-2.3c-0.8-0.4-1.7-0.6-2.7-0.6c-0.3,0-0.7,0-1.1,0.1
		c-0.4,0-0.7,0.1-1,0.3c-0.3,0.1-0.6,0.3-0.8,0.6c-0.2,0.3-0.3,0.6-0.3,1c0,0.5,0.2,0.9,0.6,1.3c0.4,0.3,0.9,0.6,1.5,0.8
		c0.6,0.2,1.3,0.4,2.1,0.5c0.8,0.2,1.6,0.3,2.4,0.5c0.8,0.2,1.7,0.4,2.5,0.7c0.8,0.3,1.5,0.6,2.1,1.1c0.6,0.4,1.1,1,1.5,1.7
		c0.4,0.7,0.6,1.5,0.6,2.5c0,1.4-0.3,2.5-0.8,3.5c-0.6,0.9-1.3,1.7-2.2,2.3c-0.9,0.6-1.9,1-3.1,1.2c-1.2,0.2-2.3,0.3-3.5,0.3
		c-1.2,0-2.4-0.1-3.6-0.4c-1.2-0.2-2.2-0.6-3.1-1.2c-0.9-0.6-1.7-1.3-2.2-2.3c-0.6-0.9-0.9-2.1-1-3.5h5.5
		C224.7,27.9,224.8,28.4,225.1,28.9z"/>
</g>
</svg>
