<?xml version="1.0" encoding="utf-8"?>
<!-- Generator: Adobe Illustrator 22.0.1, SVG Export Plug-In . SVG Version: 6.00 Build 0)  -->
<svg version="1.1" id="Layer_1" xmlns="http://www.w3.org/2000/svg" xmlns:xlink="http://www.w3.org/1999/xlink" x="0px" y="0px"
	 viewBox="0 0 473 179.3" style="enable-background:new 0 0 473 179.3;" xml:space="preserve">
<style type="text/css">
	.st0{fill:none;stroke:#FFFFFF;stroke-width:2;stroke-linecap:round;stroke-linejoin:round;stroke-miterlimit:10;}
	.st1{fill:#FFFFFF;}
</style>
<g>
	<g>
		<g id="XMLID_46_">
			<polygon id="XMLID_90_" class="st0" points="4.5,44.6 81.8,21.5 52.3,56.3 			"/>
			<polygon id="XMLID_84_" class="st0" points="52.3,56.3 90.7,93.7 81.8,21.5 			"/>
			<polygon id="XMLID_81_" class="st0" points="81.8,21.5 90.7,93.7 157.9,49.2 			"/>
			<polygon id="XMLID_80_" class="st0" points="90.5,24.7 104.4,6.3 137.5,35.3 133.2,40.3 			"/>
			<polygon id="XMLID_78_" class="st0" points="133.2,40.3 148.7,22.4 157.9,49.2 			"/>
			<polygon id="XMLID_70_" class="st0" points="148.7,22.4 165.3,19.6 157.9,49.2 			"/>
			<polygon id="XMLID_67_" class="st0" points="165.3,19.6 162.3,31.8 178.8,27.3 			"/>
			<polygon id="XMLID_66_" class="st0" points="104.4,6.3 128.6,7.3 115.3,15.9 			"/>
			<polygon id="XMLID_65_" class="st0" points="90.7,93.7 157.9,49.2 148.4,83.4 			"/>
			<path id="XMLID_62_" class="st0" d="M90.7,93.7c0.1,0.6-9.4,58.3-9.4,58.3l66.9-68.5L90.7,93.7z"/>
			<polygon id="XMLID_54_" class="st0" points="90.8,93.7 48.2,148.1 77.9,173 			"/>
			<polygon id="XMLID_53_" class="st0" points="41.6,131.1 52.2,142.9 81.1,106 			"/>
		</g>
	</g>
	<g>
		<g>
			<path class="st1" d="M228.7,86.4c-0.6-1-1.4-1.8-2.3-2.5c-0.9-0.7-1.9-1.3-3.1-1.7c-1.1-0.4-2.3-0.6-3.6-0.6
				c-2.3,0-4.2,0.4-5.8,1.3c-1.6,0.9-2.9,2.1-3.9,3.5c-1,1.5-1.7,3.2-2.2,5.1c-0.5,1.9-0.7,3.8-0.7,5.9c0,1.9,0.2,3.8,0.7,5.6
				s1.2,3.5,2.2,4.9c1,1.5,2.3,2.6,3.9,3.5c1.6,0.9,3.5,1.3,5.8,1.3c3.1,0,5.5-0.9,7.3-2.8c1.7-1.9,2.8-4.4,3.2-7.5h9.8
				c-0.3,2.9-0.9,5.5-2,7.8c-1.1,2.3-2.5,4.3-4.3,5.9c-1.8,1.6-3.8,2.9-6.2,3.7c-2.4,0.9-5,1.3-7.8,1.3c-3.5,0-6.7-0.6-9.5-1.8
				c-2.8-1.2-5.2-2.9-7.1-5.1c-1.9-2.1-3.4-4.7-4.4-7.6c-1-2.9-1.5-6-1.5-9.4c0-3.4,0.5-6.6,1.5-9.6c1-2.9,2.5-5.5,4.4-7.7
				c1.9-2.2,4.3-3.9,7.1-5.2c2.8-1.2,6-1.9,9.5-1.9c2.5,0,4.9,0.4,7.2,1.1c2.3,0.7,4.3,1.8,6.1,3.2c1.8,1.4,3.3,3.1,4.4,5.2
				s1.9,4.4,2.2,7.1h-9.8C229.7,88.5,229.3,87.4,228.7,86.4z"/>
			<path class="st1" d="M244.9,96.3c0.8-2.2,2-4,3.5-5.5c1.5-1.5,3.3-2.7,5.4-3.5c2.1-0.8,4.5-1.3,7.1-1.3s5,0.4,7.1,1.3
				c2.1,0.8,3.9,2,5.4,3.5c1.5,1.5,2.7,3.4,3.5,5.5c0.8,2.2,1.2,4.6,1.2,7.3c0,2.7-0.4,5.1-1.2,7.2c-0.8,2.1-2,4-3.5,5.5
				c-1.5,1.5-3.3,2.7-5.4,3.5c-2.1,0.8-4.5,1.2-7.1,1.2s-5-0.4-7.1-1.2c-2.1-0.8-3.9-2-5.4-3.5c-1.5-1.5-2.7-3.4-3.5-5.5
				c-0.8-2.1-1.2-4.6-1.2-7.2C243.6,100.9,244,98.5,244.9,96.3z M253.2,107.4c0.3,1.3,0.7,2.4,1.3,3.4c0.6,1,1.5,1.8,2.5,2.4
				c1,0.6,2.3,0.9,3.9,0.9c1.5,0,2.8-0.3,3.9-0.9c1.1-0.6,1.9-1.4,2.5-2.4c0.6-1,1.1-2.1,1.3-3.4s0.4-2.6,0.4-3.9
				c0-1.3-0.1-2.6-0.4-3.9s-0.7-2.4-1.3-3.4c-0.6-1-1.5-1.8-2.5-2.4c-1.1-0.6-2.4-0.9-3.9-0.9c-1.5,0-2.8,0.3-3.9,0.9
				s-1.9,1.4-2.5,2.4c-0.6,1-1.1,2.1-1.3,3.4s-0.4,2.6-0.4,3.9C252.8,104.9,252.9,106.2,253.2,107.4z"/>
			<path class="st1" d="M291.5,86.8v4.6h0.2c1.2-1.9,2.7-3.3,4.5-4.2c1.8-0.9,3.7-1.3,5.7-1.3c2.4,0,4.5,0.3,6,1
				c1.6,0.7,2.8,1.6,3.7,2.8c0.9,1.2,1.5,2.6,1.9,4.3s0.5,3.6,0.5,5.6v20.5h-9.2v-18.8c0-2.7-0.4-4.8-1.3-6.2c-0.9-1.4-2.4-2-4.6-2
				c-2.5,0-4.3,0.7-5.4,2.2c-1.1,1.5-1.7,3.9-1.7,7.3v17.5h-9.2V86.8H291.5z"/>
			<path class="st1" d="M338,86.8V93h-6.7v16.5c0,1.5,0.3,2.6,0.8,3.1s1.5,0.8,3.1,0.8c0.5,0,1,0,1.5-0.1c0.5,0,0.9-0.1,1.4-0.2v7.1
				c-0.8,0.1-1.6,0.2-2.6,0.3c-0.9,0-1.9,0.1-2.8,0.1c-1.4,0-2.8-0.1-4-0.3c-1.3-0.2-2.4-0.6-3.4-1.1c-1-0.6-1.7-1.4-2.3-2.4
				c-0.6-1-0.8-2.4-0.8-4.1V93h-5.5v-6.1h5.5v-10h9.2v10H338z"/>
			<path class="st1" d="M342.3,91.7c0.9-1.4,2.1-2.6,3.6-3.4c1.5-0.9,3.1-1.5,4.9-1.8c1.8-0.4,3.7-0.5,5.5-0.5
				c1.7,0,3.4,0.1,5.1,0.4c1.7,0.2,3.3,0.7,4.7,1.4c1.4,0.7,2.6,1.6,3.5,2.9s1.4,2.8,1.4,4.9v17.3c0,1.5,0.1,2.9,0.3,4.3
				c0.2,1.4,0.5,2.4,0.9,3.1h-9.3c-0.2-0.5-0.3-1-0.4-1.6c-0.1-0.5-0.2-1.1-0.2-1.6c-1.5,1.5-3.2,2.6-5.2,3.2c-2,0.6-4,0.9-6.1,0.9
				c-1.6,0-3.1-0.2-4.4-0.6c-1.4-0.4-2.6-1-3.6-1.8c-1-0.8-1.8-1.8-2.4-3.1c-0.6-1.2-0.9-2.7-0.9-4.4c0-1.9,0.3-3.4,1-4.7
				c0.7-1.2,1.5-2.2,2.6-2.9c1.1-0.7,2.3-1.3,3.6-1.6s2.7-0.7,4.1-0.9c1.4-0.2,2.7-0.4,4.1-0.5c1.3-0.1,2.5-0.3,3.5-0.6
				s1.8-0.6,2.4-1.1c0.6-0.5,0.9-1.2,0.8-2.2c0-1-0.2-1.8-0.5-2.4s-0.8-1-1.3-1.4s-1.2-0.5-1.9-0.6c-0.7-0.1-1.5-0.2-2.3-0.2
				c-1.8,0-3.2,0.4-4.3,1.2s-1.6,2.1-1.8,3.9h-9.2C340.8,94.9,341.4,93.2,342.3,91.7z M360.4,104.7c-0.6,0.2-1.2,0.4-1.9,0.5
				s-1.4,0.2-2.1,0.3c-0.7,0.1-1.5,0.2-2.2,0.3c-0.7,0.1-1.4,0.3-2,0.5c-0.7,0.2-1.2,0.5-1.7,0.9s-0.9,0.8-1.2,1.4
				c-0.3,0.6-0.5,1.3-0.5,2.1c0,0.8,0.1,1.5,0.5,2.1c0.3,0.6,0.7,1,1.2,1.3s1.1,0.5,1.8,0.7c0.7,0.1,1.4,0.2,2.1,0.2
				c1.8,0,3.2-0.3,4.2-0.9c1-0.6,1.7-1.3,2.2-2.2c0.5-0.8,0.8-1.7,0.9-2.5c0.1-0.9,0.2-1.5,0.2-2.1v-3.4
				C361.5,104.2,361,104.5,360.4,104.7z"/>
			<path class="st1" d="M392.7,92.8c-1.5,0-2.7,0.3-3.7,1c-1,0.7-1.8,1.5-2.4,2.6s-1.1,2.2-1.3,3.5s-0.4,2.5-0.4,3.8
				c0,1.2,0.1,2.4,0.4,3.7c0.3,1.2,0.7,2.4,1.3,3.4c0.6,1,1.4,1.8,2.4,2.5c1,0.6,2.2,1,3.6,1c2.2,0,3.9-0.6,5.1-1.8s1.9-2.9,2.2-4.9
				h8.8c-0.6,4.4-2.3,7.8-5.2,10.1s-6.5,3.5-10.9,3.5c-2.5,0-4.8-0.4-6.9-1.3s-3.9-2-5.3-3.5c-1.5-1.5-2.6-3.3-3.4-5.4
				c-0.8-2.1-1.2-4.4-1.2-6.9c0-2.6,0.4-5,1.1-7.2c0.8-2.2,1.9-4.1,3.3-5.7c1.5-1.6,3.2-2.9,5.3-3.8c2.1-0.9,4.5-1.4,7.2-1.4
				c2,0,3.9,0.3,5.7,0.8s3.5,1.3,4.9,2.4c1.4,1.1,2.6,2.4,3.5,3.9s1.4,3.4,1.5,5.6h-9C398.9,94.8,396.6,92.8,392.7,92.8z"/>
			<path class="st1" d="M430.8,86.8V93h-6.7v16.5c0,1.5,0.3,2.6,0.8,3.1s1.5,0.8,3.1,0.8c0.5,0,1,0,1.5-0.1c0.5,0,0.9-0.1,1.4-0.2
				v7.1c-0.8,0.1-1.6,0.2-2.6,0.3c-0.9,0-1.9,0.1-2.8,0.1c-1.4,0-2.8-0.1-4-0.3c-1.3-0.2-2.4-0.6-3.4-1.1c-1-0.6-1.7-1.4-2.3-2.4
				c-0.6-1-0.8-2.4-0.8-4.1V93h-5.5v-6.1h5.5v-10h9.2v10H430.8z"/>
			<path class="st1" d="M434.1,96.3c0.8-2.2,2-4,3.5-5.5c1.5-1.5,3.3-2.7,5.4-3.5s4.5-1.3,7.1-1.3c2.6,0,5,0.4,7.1,1.3
				s3.9,2,5.4,3.5c1.5,1.5,2.7,3.4,3.5,5.5c0.8,2.2,1.2,4.6,1.2,7.3c0,2.7-0.4,5.1-1.2,7.2c-0.8,2.1-2,4-3.5,5.5
				c-1.5,1.5-3.3,2.7-5.4,3.5s-4.5,1.2-7.1,1.2c-2.6,0-5-0.4-7.1-1.2s-3.9-2-5.4-3.5c-1.5-1.5-2.7-3.4-3.5-5.5
				c-0.8-2.1-1.2-4.6-1.2-7.2C432.9,100.9,433.3,98.5,434.1,96.3z M442.4,107.4c0.3,1.3,0.7,2.4,1.3,3.4c0.6,1,1.5,1.8,2.5,2.4
				c1,0.6,2.3,0.9,3.9,0.9s2.8-0.3,3.9-0.9c1.1-0.6,1.9-1.4,2.5-2.4c0.6-1,1.1-2.1,1.3-3.4s0.4-2.6,0.4-3.9c0-1.3-0.1-2.6-0.4-3.9
				s-0.7-2.4-1.3-3.4c-0.6-1-1.5-1.8-2.5-2.4c-1.1-0.6-2.4-0.9-3.9-0.9s-2.8,0.3-3.9,0.9s-1.9,1.4-2.5,2.4c-0.6,1-1.1,2.1-1.3,3.4
				s-0.4,2.6-0.4,3.9C442,104.9,442.1,106.2,442.4,107.4z"/>
		</g>
	</g>
</g>
<g>
</g>
<g>
</g>
<g>
</g>
<g>
</g>
<g>
</g>
<g>
</g>
</svg>
