<?xml version="1.0" encoding="utf-8"?>
<!-- Generator: Adobe Illustrator 22.0.1, SVG Export Plug-In . SVG Version: 6.00 Build 0)  -->
<svg version="1.1" id="Layer_1" xmlns="http://www.w3.org/2000/svg" xmlns:xlink="http://www.w3.org/1999/xlink" x="0px" y="0px"
	 viewBox="0 0 372 459.7" style="enable-background:new 0 0 372 459.7;" xml:space="preserve">
<style type="text/css">
	.st0{clip-path:url(#SVGID_2_);}
	.st1{fill:#F89F49;}
	.st2{fill:#F8A057;}
	.st3{fill:#F79D56;}
	.st4{fill:#F27124;}
	.st5{fill:#FBBA6E;}
	.st6{fill:#F8A358;}
	.st7{fill:#F58A4B;}
	.st8{fill:#F58B4D;}
	.st9{fill:#F48051;}
	.st10{fill:#FFD687;}
	.st11{fill:#FFD07A;}
	.st12{fill:#F9A83B;}
	.st13{fill:#F79C49;}
	.st14{fill:#F69350;}
	.st15{fill:#F4814B;}
	.st16{fill:none;}
	.st17{fill:#F37944;}
	.st18{fill:#FDC669;}
	.st19{fill:#F58A31;}
	.st20{fill:#F48223;}
	.st21{fill:#F9AB5A;}
	.st22{fill:#FCC063;}
	.st23{fill:#FCC26D;}
	.st24{fill:#EF6E22;}
	.st25{fill:#FFCE74;}
	.st26{fill:#FDC976;}
	.st27{fill:#F58534;}
	.st28{fill:#F68D35;}
	.st29{fill:#F3783C;}
	.st30{fill:#F16649;}
	.st31{fill:#FDC672;}
	.st32{fill:#F8A66D;}
	.st33{fill:#F05C57;}
	.st34{fill:#FDC371;}
</style>
<g>
	<g>
		<g>
			<defs>
				<rect id="SVGID_1_" x="-1" y="-1" width="361.3" height="464.6"/>
			</defs>
			<clipPath id="SVGID_2_">
				<use xlink:href="#SVGID_1_"  style="overflow:visible;"/>
			</clipPath>
			<g class="st0">
				<polygon id="XMLID_1790_" class="st1" points="153.9,74.8 153.9,-2.6 77,-2.6 				"/>
				<g>
					<polygon id="XMLID_1789_" class="st2" points="77,-2.6 0,-2.6 0,74.8 					"/>
					<polygon id="XMLID_1788_" class="st3" points="77,152.2 77,74.8 0,74.8 					"/>
					<path id="XMLID_1787_" class="st4" d="M-76.9-2.6"/>
					<polygon id="XMLID_1786_" class="st5" points="153.9,-2.6 153.9,-80 77,-2.6 					"/>
					<polygon id="XMLID_1785_" class="st6" points="153.9,-80 77,-157.4 77,-80 					"/>
					<polygon id="XMLID_1784_" class="st6" points="77,-80 0,-80 77,-2.6 					"/>
					<polygon id="XMLID_1783_" class="st7" points="0,-2.6 0,-80 -76.9,-2.6 					"/>
					<polygon id="XMLID_1782_" class="st8" points="77,74.8 77,-2.6 0,74.8 					"/>
					<polygon id="XMLID_1781_" class="st9" points="0,-2.6 -76.9,-2.6 0,74.8 					"/>
					<polygon id="XMLID_1624_" class="st10" points="384.7,-80 384.7,-157.4 307.8,-80 					"/>
					<polygon id="XMLID_1623_" class="st11" points="153.9,-2.6 230.9,-2.6 153.9,-80 					"/>
					<polygon id="XMLID_1622_" class="st12" points="153.9,-80 77,-80 77,-2.6 					"/>
					<polygon id="XMLID_1621_" class="st13" points="77,-80 77,-157.4 0,-80 					"/>
					<polygon id="XMLID_1620_" class="st14" points="77,-2.6 0,-80 0,-2.6 					"/>
					<path id="XMLID_1619_" class="st15" d="M-76.9-2.6"/>
					<polygon id="XMLID_1618_" class="st9" points="0,152.2 77,152.2 0,74.8 					"/>
					<polygon id="XMLID_1617_" class="st7" points="0,74.8 -76.9,-2.6 -76.9,74.8 					"/>
					<line id="XMLID_1616_" class="st16" x1="-76.9" y1="74.8" x2="-76.9" y2="-2.6"/>
					<path id="XMLID_1615_" class="st17" d="M-76.9,152.2"/>
					<line id="XMLID_1614_" class="st16" x1="-76.9" y1="152.2" x2="-76.9" y2="74.8"/>
					<polygon id="XMLID_1613_" class="st18" points="230.9,-80 230.9,-157.4 153.9,-80 					"/>
					<line id="XMLID_1612_" class="st16" x1="-76.9" y1="-80" x2="-76.9" y2="-157.4"/>
					<polygon id="XMLID_1611_" class="st10" points="230.9,-80 307.8,-80 230.9,-157.4 					"/>
					<polygon id="XMLID_508_" class="st19" points="77,-157.4 0,-157.4 0,-80 					"/>
					<polygon id="XMLID_500_" class="st20" points="0,-80 -76.9,-157.4 -76.9,-80 					"/>
					<polygon id="XMLID_499_" class="st21" points="153.9,-157.4 77,-157.4 153.9,-80 					"/>
					<polygon id="XMLID_498_" class="st22" points="230.9,-157.4 153.9,-157.4 153.9,-80 					"/>
					<polygon id="XMLID_497_" class="st23" points="230.9,-2.6 230.9,-80 153.9,-80 					"/>
					<line id="XMLID_496_" class="st16" x1="-76.9" y1="-2.6" x2="-76.9" y2="-80"/>
					<path id="XMLID_495_" class="st24" d="M-76.9-157.4"/>
					<polygon id="XMLID_494_" class="st25" points="307.8,-80 307.8,-157.4 230.9,-157.4 					"/>
					<polygon id="XMLID_493_" class="st26" points="230.9,-2.6 307.8,-80 230.9,-80 					"/>
					<polygon id="XMLID_228_" class="st27" points="0,-157.4 -76.9,-157.4 0,-80 					"/>
					<polygon id="XMLID_227_" class="st28" points="0,-80 -76.9,-80 -76.9,-2.6 					"/>
					<g id="XMLID_187_">
						<line id="XMLID_226_" class="st16" x1="-76.9" y1="229.6" x2="-76.9" y2="152.2"/>
						<polygon id="XMLID_225_" class="st29" points="-76.9,152.2 0,152.2 -76.9,74.8 						"/>
						<polygon id="XMLID_224_" class="st30" points="0,307 77,229.6 0,229.6 						"/>
						<polygon id="XMLID_192_" class="st31" points="153.9,-2.6 153.9,74.8 230.9,74.8 						"/>
						<polygon id="XMLID_191_" class="st32" points="153.9,74.8 77,74.8 153.9,152.2 						"/>
						<path id="XMLID_190_" class="st33" d="M-76.9,384.4"/>
						<polygon id="XMLID_189_" class="st3" points="-76.9,229.6 0,152.2 -76.9,152.2 						"/>
						<polygon id="XMLID_188_" class="st34" points="230.9,74.8 307.8,-2.6 230.9,-2.6 						"/>
					</g>
				</g>
			</g>
		</g>
	</g>
</g>
</svg>
