<?xml version="1.0" encoding="utf-8"?>
<!-- Generator: Adobe Illustrator 22.0.1, SVG Export Plug-In . SVG Version: 6.00 Build 0)  -->
<svg version="1.1" id="Layer_1" xmlns="http://www.w3.org/2000/svg" xmlns:xlink="http://www.w3.org/1999/xlink" x="0px" y="0px"
	 viewBox="0 0 372 459.7" style="enable-background:new 0 0 372 459.7;" xml:space="preserve">
<style type="text/css">
	.st0{clip-path:url(#SVGID_2_);}
	.st1{fill:#F89F49;}
	.st2{fill:#F8A057;}
	.st3{fill:#F79D56;}
	.st4{fill:#F27124;}
	.st5{fill:#FBBA6E;}
	.st6{fill:#F8A358;}
	.st7{fill:#F58A4B;}
	.st8{fill:#F58B4D;}
	.st9{fill:#F48051;}
	.st10{fill:#FFD687;}
	.st11{fill:#FFD07A;}
	.st12{fill:#F9A83B;}
	.st13{fill:#F79C49;}
	.st14{fill:#F69350;}
	.st15{fill:#F4814B;}
	.st16{fill:none;}
	.st17{fill:#F37944;}
	.st18{fill:#FDC669;}
	.st19{fill:#F58A31;}
	.st20{fill:#F48223;}
	.st21{fill:#F9AB5A;}
	.st22{fill:#FCC063;}
	.st23{fill:#FCC26D;}
	.st24{fill:#EF6E22;}
	.st25{fill:#FFCE74;}
	.st26{fill:#FDC976;}
	.st27{fill:#F58534;}
	.st28{fill:#F68D35;}
	.st29{fill:#F3783C;}
	.st30{fill:#F16649;}
	.st31{fill:#FDC672;}
	.st32{fill:#F8A66D;}
	.st33{fill:#F05C57;}
	.st34{fill:#FDC371;}
</style>
<g>
	<g>
		<defs>
			<rect id="SVGID_1_" x="12.7" y="-3.9" width="361.3" height="464.6"/>
		</defs>
		<clipPath id="SVGID_2_">
			<use xlink:href="#SVGID_1_"  style="overflow:visible;"/>
		</clipPath>
		<g class="st0">
			<polygon id="XMLID_1834_" class="st1" points="219.1,384.9 219.1,462.3 296,462.3 			"/>
			<g>
				<polygon id="XMLID_1833_" class="st2" points="296,462.3 373,462.3 373,384.9 				"/>
				<polygon id="XMLID_1832_" class="st3" points="296,307.5 296,384.9 373,384.9 				"/>
				<path id="XMLID_1831_" class="st4" d="M449.9,462.3"/>
				<polygon id="XMLID_1830_" class="st5" points="219.1,462.3 219.1,539.7 296,462.3 				"/>
				<polygon id="XMLID_1829_" class="st6" points="219.1,539.7 296,617.1 296,539.7 				"/>
				<polygon id="XMLID_1828_" class="st6" points="296,539.7 373,539.7 296,462.3 				"/>
				<polygon id="XMLID_1827_" class="st7" points="373,462.3 373,539.7 449.9,462.3 				"/>
				<polygon id="XMLID_1826_" class="st8" points="296,384.9 296,462.3 373,384.9 				"/>
				<polygon id="XMLID_1825_" class="st9" points="373,462.3 449.9,462.3 373,384.9 				"/>
				<polygon id="XMLID_1824_" class="st10" points="-11.8,539.7 -11.8,617.1 65.2,539.7 				"/>
				<polygon id="XMLID_1823_" class="st11" points="219.1,462.3 142.1,462.3 219.1,539.7 				"/>
				<polygon id="XMLID_1822_" class="st12" points="219.1,539.7 296,539.7 296,462.3 				"/>
				<polygon id="XMLID_1821_" class="st13" points="296,539.7 296,617.1 373,539.7 				"/>
				<polygon id="XMLID_1820_" class="st14" points="296,462.3 373,539.7 373,462.3 				"/>
				<path id="XMLID_1819_" class="st15" d="M449.9,462.3"/>
				<polygon id="XMLID_1818_" class="st9" points="373,307.5 296,307.5 373,384.9 				"/>
				<polygon id="XMLID_1817_" class="st7" points="373,384.9 449.9,462.3 449.9,384.9 				"/>
				<line id="XMLID_1816_" class="st16" x1="449.9" y1="384.9" x2="449.9" y2="462.3"/>
				<path id="XMLID_1815_" class="st17" d="M449.9,307.5"/>
				<line id="XMLID_1814_" class="st16" x1="449.9" y1="307.5" x2="449.9" y2="384.9"/>
				<polygon id="XMLID_1813_" class="st18" points="142.1,539.7 142.1,617.1 219.1,539.7 				"/>
				<line id="XMLID_1812_" class="st16" x1="449.9" y1="539.7" x2="449.9" y2="617.1"/>
				<polygon id="XMLID_1811_" class="st10" points="142.1,539.7 65.2,539.7 142.1,617.1 				"/>
				<polygon id="XMLID_1810_" class="st19" points="296,617.1 373,617.1 373,539.7 				"/>
				<polygon id="XMLID_1809_" class="st20" points="373,539.7 449.9,617.1 449.9,539.7 				"/>
				<polygon id="XMLID_1808_" class="st21" points="219.1,617.1 296,617.1 219.1,539.7 				"/>
				<polygon id="XMLID_1807_" class="st22" points="142.1,617.1 219.1,617.1 219.1,539.7 				"/>
				<polygon id="XMLID_1806_" class="st23" points="142.1,462.3 142.1,539.7 219.1,539.7 				"/>
				<line id="XMLID_1805_" class="st16" x1="449.9" y1="462.3" x2="449.9" y2="539.7"/>
				<path id="XMLID_1804_" class="st24" d="M449.9,617.1"/>
				<polygon id="XMLID_1803_" class="st25" points="65.2,539.7 65.2,617.1 142.1,617.1 				"/>
				<polygon id="XMLID_1802_" class="st26" points="142.1,462.3 65.2,539.7 142.1,539.7 				"/>
				<polygon id="XMLID_1801_" class="st27" points="373,617.1 449.9,617.1 373,539.7 				"/>
				<polygon id="XMLID_1800_" class="st28" points="373,539.7 449.9,539.7 449.9,462.3 				"/>
				<g id="XMLID_1791_">
					<line id="XMLID_1799_" class="st16" x1="449.9" y1="230.1" x2="449.9" y2="307.5"/>
					<polygon id="XMLID_1798_" class="st29" points="449.9,307.5 373,307.5 449.9,384.9 					"/>
					<polygon id="XMLID_1797_" class="st30" points="373,152.7 296,230.1 373,230.1 					"/>
					<polygon id="XMLID_1796_" class="st31" points="219.1,462.3 219.1,384.9 142.1,384.9 					"/>
					<polygon id="XMLID_1795_" class="st32" points="219.1,384.9 296,384.9 219.1,307.5 					"/>
					<path id="XMLID_1794_" class="st33" d="M449.9,75.3"/>
					<polygon id="XMLID_1793_" class="st3" points="449.9,230.1 373,307.5 449.9,307.5 					"/>
					<polygon id="XMLID_1792_" class="st34" points="142.1,384.9 65.2,462.3 142.1,462.3 					"/>
				</g>
			</g>
		</g>
	</g>
</g>
</svg>
