<?xml version="1.0" encoding="utf-8"?>
<!-- Generator: Adobe Illustrator 22.0.1, SVG Export Plug-In . SVG Version: 6.00 Build 0)  -->
<svg version="1.1" id="Layer_1" xmlns="http://www.w3.org/2000/svg" xmlns:xlink="http://www.w3.org/1999/xlink" x="0px" y="0px"
	 viewBox="0 0 372 459.7" style="enable-background:new 0 0 372 459.7;" xml:space="preserve">
<style type="text/css">
	.st0{clip-path:url(#SVGID_2_);}
	.st1{fill:#F89F49;}
	.st2{fill:#F8A057;}
	.st3{fill:#F79D56;}
	.st4{fill:#F27124;}
	.st5{fill:#FBBA6E;}
	.st6{fill:#F8A358;}
	.st7{fill:#F58A4B;}
	.st8{fill:#F58B4D;}
	.st9{fill:#F48051;}
	.st10{fill:#FFD687;}
	.st11{fill:#FFD07A;}
	.st12{fill:#F9A83B;}
	.st13{fill:#F79C49;}
	.st14{fill:#F69350;}
	.st15{fill:#F4814B;}
	.st16{fill:#F3783C;}
	.st17{fill:#F37944;}
	.st18{fill:#F26F2E;}
	.st19{fill:#FDC669;}
	.st20{fill:#F58637;}
	.st21{fill:#F58A31;}
	.st22{fill:#F48223;}
	.st23{fill:#F9AB5A;}
	.st24{fill:#FCC063;}
	.st25{fill:#FCC26D;}
	.st26{fill:#F3783B;}
	.st27{fill:#EF6E22;}
	.st28{fill:#FFCE74;}
	.st29{fill:#FDC976;}
	.st30{fill:#F58534;}
	.st31{fill:#F68D35;}
	.st32{fill:#F26F38;}
	.st33{fill:#F16649;}
	.st34{fill:#FDC672;}
	.st35{fill:#F8A66D;}
	.st36{fill:#F05C57;}
	.st37{fill:#FDC371;}
</style>
<g>
	<defs>
		
			<rect id="SVGID_1_" x="11.7" y="-4.9" transform="matrix(-1 -1.224647e-16 1.224647e-16 -1 384.668 454.7569)" width="361.3" height="464.6"/>
	</defs>
	<clipPath id="SVGID_2_">
		<use xlink:href="#SVGID_1_"  style="overflow:visible;"/>
	</clipPath>
	<g class="st0">
		<polygon id="XMLID_1834_" class="st1" points="218.1,383.9 218.1,461.3 295,461.3 		"/>
		<g>
			<polygon id="XMLID_1833_" class="st2" points="295,461.3 372,461.3 372,383.9 			"/>
			<polygon id="XMLID_1832_" class="st3" points="295,306.5 295,383.9 372,383.9 			"/>
			<path id="XMLID_1831_" class="st4" d="M448.9,461.3"/>
			<polygon id="XMLID_1830_" class="st5" points="218.1,461.3 218.1,538.7 295,461.3 			"/>
			<polygon id="XMLID_1829_" class="st6" points="218.1,538.7 295,616.1 295,538.7 			"/>
			<polygon id="XMLID_1828_" class="st6" points="295,538.7 372,538.7 295,461.3 			"/>
			<polygon id="XMLID_1827_" class="st7" points="372,461.3 372,538.7 448.9,461.3 			"/>
			<polygon id="XMLID_1826_" class="st8" points="295,383.9 295,461.3 372,383.9 			"/>
			<polygon id="XMLID_1825_" class="st9" points="372,461.3 448.9,461.3 372,383.9 			"/>
			<polygon id="XMLID_1824_" class="st10" points="-12.8,538.7 -12.8,616.1 64.2,538.7 			"/>
			<polygon id="XMLID_1823_" class="st11" points="218.1,461.3 141.1,461.3 218.1,538.7 			"/>
			<polygon id="XMLID_1822_" class="st12" points="218.1,538.7 295,538.7 295,461.3 			"/>
			<polygon id="XMLID_1821_" class="st13" points="295,538.7 295,616.1 372,538.7 			"/>
			<polygon id="XMLID_1820_" class="st14" points="295,461.3 372,538.7 372,461.3 			"/>
			<path id="XMLID_1819_" class="st15" d="M448.9,461.3"/>
			<polygon id="XMLID_1818_" class="st9" points="372,306.5 295,306.5 372,383.9 			"/>
			<polygon id="XMLID_1817_" class="st7" points="372,383.9 448.9,461.3 448.9,383.9 			"/>
			<line id="XMLID_1816_" class="st16" x1="448.9" y1="383.9" x2="448.9" y2="461.3"/>
			<path id="XMLID_1815_" class="st17" d="M448.9,306.5"/>
			<line id="XMLID_1814_" class="st18" x1="448.9" y1="306.5" x2="448.9" y2="383.9"/>
			<polygon id="XMLID_1813_" class="st19" points="141.1,538.7 141.1,616.1 218.1,538.7 			"/>
			<line id="XMLID_1812_" class="st20" x1="448.9" y1="538.7" x2="448.9" y2="616.1"/>
			<polygon id="XMLID_1811_" class="st10" points="141.1,538.7 64.2,538.7 141.1,616.1 			"/>
			<polygon id="XMLID_1810_" class="st21" points="295,616.1 372,616.1 372,538.7 			"/>
			<polygon id="XMLID_1809_" class="st22" points="372,538.7 448.9,616.1 448.9,538.7 			"/>
			<polygon id="XMLID_1808_" class="st23" points="218.1,616.1 295,616.1 218.1,538.7 			"/>
			<polygon id="XMLID_1807_" class="st24" points="141.1,616.1 218.1,616.1 218.1,538.7 			"/>
			<polygon id="XMLID_1806_" class="st25" points="141.1,461.3 141.1,538.7 218.1,538.7 			"/>
			<line id="XMLID_1805_" class="st26" x1="448.9" y1="461.3" x2="448.9" y2="538.7"/>
			<path id="XMLID_1804_" class="st27" d="M448.9,616.1"/>
			<polygon id="XMLID_1803_" class="st28" points="64.2,538.7 64.2,616.1 141.1,616.1 			"/>
			<polygon id="XMLID_1802_" class="st29" points="141.1,461.3 64.2,538.7 141.1,538.7 			"/>
			<polygon id="XMLID_1801_" class="st30" points="372,616.1 448.9,616.1 372,538.7 			"/>
			<polygon id="XMLID_1800_" class="st31" points="372,538.7 448.9,538.7 448.9,461.3 			"/>
			<g id="XMLID_1791_">
				<line id="XMLID_1799_" class="st32" x1="448.9" y1="229.1" x2="448.9" y2="306.5"/>
				<polygon id="XMLID_1798_" class="st16" points="448.9,306.5 372,306.5 448.9,383.9 				"/>
				<polygon id="XMLID_1797_" class="st33" points="372,151.7 295,229.1 372,229.1 				"/>
				<polygon id="XMLID_1796_" class="st34" points="218.1,461.3 218.1,383.9 141.1,383.9 				"/>
				<polygon id="XMLID_1795_" class="st35" points="218.1,383.9 295,383.9 218.1,306.5 				"/>
				<path id="XMLID_1794_" class="st36" d="M448.9,74.3"/>
				<polygon id="XMLID_1793_" class="st3" points="448.9,229.1 372,306.5 448.9,306.5 				"/>
				<polygon id="XMLID_1792_" class="st37" points="141.1,383.9 64.2,461.3 141.1,461.3 				"/>
			</g>
		</g>
	</g>
</g>
<g>
</g>
<g>
</g>
<g>
</g>
<g>
</g>
<g>
</g>
<g>
</g>
</svg>
