<?xml version="1.0" encoding="utf-8"?>
<!-- Generator: Adobe Illustrator 22.0.1, SVG Export Plug-In . SVG Version: 6.00 Build 0)  -->
<svg version="1.1" id="Layer_1" xmlns="http://www.w3.org/2000/svg" xmlns:xlink="http://www.w3.org/1999/xlink" x="0px" y="0px"
	 viewBox="0 0 182.7 120" style="enable-background:new 0 0 182.7 120;" xml:space="preserve">
<style type="text/css">
	.st0{fill:#FF0717;}
</style>
<g>
	<g>
		<path class="st0" d="M20.8,46.5h-0.1l-8.8,4.2L10,42.5l12.3-5.7h9v46.3H20.8V46.5z"/>
		<path class="st0" d="M77.2,59.8c0,14.3-5.8,24.2-17.6,24.2c-12,0-17.2-10.8-17.3-23.9c0-13.4,5.7-24,17.7-24
			C72.3,36.1,77.2,47.1,77.2,59.8z M53.1,60.1c-0.1,10.6,2.5,15.7,6.7,15.7s6.5-5.3,6.5-15.8c0-10.3-2.2-15.7-6.6-15.7
			C55.8,44.3,53.1,49.3,53.1,60.1z"/>
		<path class="st0" d="M113.1,59.8c0,14.3-5.8,24.2-17.6,24.2c-12,0-17.2-10.8-17.3-23.9c0-13.4,5.7-24,17.7-24
			C108.3,36.1,113.1,47.1,113.1,59.8z M89.1,60.1c-0.1,10.6,2.5,15.7,6.7,15.7s6.5-5.3,6.5-15.8c0-10.3-2.2-15.7-6.6-15.7
			C91.8,44.3,89.1,49.3,89.1,60.1z"/>
		<path class="st0" d="M139.3,49.8c0,9.7-6.1,14.7-12.8,14.7c-7.1,0-12.6-5.3-12.6-14c0-8.3,5.1-14.5,13-14.5
			C134.8,36.1,139.3,41.9,139.3,49.8z M121.9,50.3c0,4.8,1.6,8.3,4.8,8.3c3.1,0,4.6-3.1,4.6-8.3c0-4.7-1.3-8.3-4.6-8.3
			C123.4,42,121.9,45.7,121.9,50.3z M127,83.9l26.6-47.9h5.8l-26.6,47.9H127z M172.6,69c0,9.7-6.1,14.7-12.8,14.7
			c-7,0-12.5-5.3-12.6-14c0-8.3,5.1-14.5,13-14.5C168.1,55.3,172.6,61.1,172.6,69z M155.3,69.5c-0.1,4.8,1.6,8.3,4.7,8.3
			c3.1,0,4.6-3.1,4.6-8.3c0-4.7-1.2-8.3-4.6-8.3C156.7,61.2,155.3,64.9,155.3,69.5z"/>
	</g>
</g>
<g>
</g>
<g>
</g>
<g>
</g>
<g>
</g>
<g>
</g>
<g>
</g>
</svg>
