<?xml version="1.0" encoding="utf-8"?>
<!-- Generator: Adobe Illustrator 22.0.1, SVG Export Plug-In . SVG Version: 6.00 Build 0)  -->
<svg version="1.1" id="Layer_1" xmlns="http://www.w3.org/2000/svg" xmlns:xlink="http://www.w3.org/1999/xlink" x="0px" y="0px"
	 viewBox="0 0 450 276" style="enable-background:new 0 0 450 276;" xml:space="preserve">
<style type="text/css">
	.st0{fill:none;stroke:#F68D35;stroke-width:3.6;stroke-miterlimit:10;}
	.st1{fill:#FFFFFF;stroke:#F68D35;stroke-width:3.6;stroke-miterlimit:10;}
</style>
<g id="XMLID_1_">
	<g>
		<g id="XMLID_80_">
			<polygon id="XMLID_90_" class="st0" points="269,51.7 112.6,107.3 99,179.7 139.1,253.2 197,259 217.3,232.9 			"/>
			<polygon id="XMLID_89_" class="st1" points="164.6,259 129.3,171 103.2,139.7 96.9,175.6 138.5,256.1 			"/>
			<path id="XMLID_88_" class="st1" d="M129.3,171c0,0-26-14.5-32.4-15.6c-6.4-1.2-59.1-2.8-59.1-2.8l66-16.8L129.3,171z"/>
			<polygon id="XMLID_87_" class="st0" points="222.6,131.7 192.9,171 251.1,256.7 280.6,250.9 298.3,179.7 250.3,124.7 			"/>
			<path id="XMLID_86_" class="st0" d="M290.2,35l-75,39.6v48.6c0,0,83.1,47.2,83.1,56.5L290.2,35z"/>
			<polygon id="XMLID_85_" class="st0" points="390.1,146.7 346.6,139.7 329.3,168.4 329.3,202.3 			"/>
			<polygon id="XMLID_84_" class="st0" points="329.3,171 376.2,220.5 364,220.5 329.3,202.3 			"/>
			<polygon id="XMLID_83_" class="st1" points="358,217.3 393.1,204.9 412.2,211.1 368.4,224.8 			"/>
			<polygon id="XMLID_82_" class="st1" points="295.4,27.4 241.6,17 231.7,43.1 252.6,95.5 			"/>
			<polygon id="XMLID_81_" class="st1" points="290.2,35 295.4,146.5 373.6,160.6 390.1,146.7 390.1,88.5 			"/>
		</g>
	</g>
</g>
<g>
</g>
<g>
</g>
<g>
</g>
<g>
</g>
<g>
</g>
<g>
</g>
</svg>
