<?xml version="1.0" encoding="utf-8"?>
<!-- Generator: Adobe Illustrator 22.0.1, SVG Export Plug-In . SVG Version: 6.00 Build 0)  -->
<svg version="1.1" id="Layer_1" xmlns="http://www.w3.org/2000/svg" xmlns:xlink="http://www.w3.org/1999/xlink" x="0px" y="0px"
	 viewBox="0 0 182.7 120" style="enable-background:new 0 0 182.7 120;" xml:space="preserve">
<style type="text/css">
	.st0{fill:#AA336E;}
</style>
<g>
	<g>
		<path class="st0" d="M65.4,108.9c2.8,0.2,3.4-0.7,3.4-3.3c-0.1-6.7-0.7-13.4-1.2-20c-0.9-13.4-0.2-26.9,0.3-40.4
			c0.1-2,0-4-0.2-5.9c-0.2-1.8-0.5-3.5-0.9-5.2c-0.4-1.8-0.9-3.5-1.4-5.3c-0.6-2.2-1.3-4.3-1.9-6.5c-0.7-2.7-1.3-5.5-1.9-8.3
			c-0.5-2.2-0.7-4.5-0.9-6.8c-0.2-2-0.5-4.1-0.7-6.1c0-0.4-0.2-0.9-0.1-1.2c0,0-2.3,15.3-2.6,16.4c-1.5,6.7-3.5,12.9-5.6,19.5
			c-0.5,1.5-0.7,2.9-0.8,4.5c-1.4,16.9,1.5,34.1-2.4,50.9c-1.1,4.8-0.2,10.1-0.5,15.2c-0.1,1.9,0.6,2.3,2.3,2.3
			C55.5,108.6,60.4,108.5,65.4,108.9z M54.1,35.7c1.4-4.2,2.8-8.4,4.2-12.6c0.3-0.8,0.4-1.8,1.6-1.8c1,0.1,1.1,0.9,1.3,1.6
			c1.3,4.4,2.6,8.8,3.8,13.1c0.5,1.6-0.2,3.1-1.7,1.9c-2.8-2.3-5.2-2-7.8,0c-0.3,0.2-0.9,0.1-1.3,0.1C53.6,37.1,53.9,36.4,54.1,35.7
			z M62.3,45.7c0.4,0,0.8,0,1.2,0c0.6,2.5,0.6,5,0.2,7.5c0,3.6,0,7.2,0,10.8c0.2,7.5,0.3,15,0.4,22.5c0,0.9,0.7,2.4-1.3,2.5
			c-2,0-1.8-1.2-1.7-2.5c0.4-7.5,0.8-15,1.2-22.4c0.1-3.6,0.2-7.2,0.3-10.8C62.5,50.7,62.4,48.2,62.3,45.7z M53.4,86
			c0.4-10.3,1-20.5,1.5-30.8l0,0h0c0-2.8-0.1-5.6-0.1-8.5c0.4,0,0.7,0,1.1,0c0.2,2.6,0.3,5.2-0.1,7.8c0.2,10.5,0.4,21.1,0.6,31.6
			c0,1.2,0.5,2.7-1.6,2.6C52.5,88.8,53.3,87.1,53.4,86z"/>
		<path class="st0" d="M51.4,119.5c4.5,0.5,9.1,1.1,13.5,0.1c3.1-0.7,1.6-4.1,1.8-6.3c0.2-2.5-1.9-1.5-3-1.5
			c-3.4-0.2-6.8-0.3-10.2-0.2c-1.2,0-3.2-1.1-3.5,0.9c-0.3,2-0.8,4.3,0.4,6.2C50.8,119.1,51.1,119.5,51.4,119.5z"/>
	</g>
	<g>
		<path class="st0" d="M131.2,108.9c2.8,0.2,3.4-0.7,3.4-3.3c-0.1-6.7-0.7-13.4-1.2-20c-1-13.4-0.2-26.9,0.3-40.4c0.1-2,0-4-0.2-5.9
			c-0.2-1.8-0.5-3.5-0.9-5.2c-0.4-1.8-0.9-3.5-1.4-5.3c-0.6-2.2-1.3-4.3-1.9-6.5c-0.7-2.7-1.3-5.5-1.9-8.3c-0.5-2.2-0.7-4.5-0.9-6.8
			c-0.2-2-0.5-4.1-0.7-6.1c0-0.4-0.2-0.9-0.1-1.2c0,0-2.3,15.3-2.6,16.4c-1.5,6.7-3.5,12.9-5.6,19.5c-0.5,1.5-0.7,2.9-0.8,4.5
			c-1.4,16.9,1.5,34.1-2.4,50.9c-1.1,4.8-0.2,10.1-0.4,15.2c-0.1,1.9,0.6,2.3,2.3,2.3C121.3,108.6,126.3,108.5,131.2,108.9z
			 M120,35.7c1.4-4.2,2.8-8.4,4.2-12.6c0.3-0.8,0.4-1.8,1.6-1.8c1,0.1,1.1,0.9,1.3,1.6c1.3,4.4,2.6,8.8,3.8,13.1
			c0.5,1.6-0.2,3.1-1.7,1.9c-2.8-2.3-5.2-2-7.8,0c-0.3,0.2-0.9,0.1-1.3,0.1C119.4,37.1,119.7,36.4,120,35.7z M128.2,45.7
			c0.4,0,0.8,0,1.2,0c0.6,2.5,0.6,5,0.2,7.5c0,3.6,0,7.2,0,10.8c0.2,7.5,0.3,15,0.4,22.5c0,0.9,0.7,2.4-1.3,2.5
			c-2,0-1.8-1.2-1.7-2.5c0.4-7.5,0.8-15,1.2-22.4c0.1-3.6,0.2-7.2,0.3-10.8C128.4,50.7,128.3,48.2,128.2,45.7z M119.2,86
			c0.4-10.3,1-20.5,1.5-30.8l0,0h0c0-2.8-0.1-5.6-0.1-8.5c0.4,0,0.7,0,1.1,0c0.2,2.6,0.3,5.2-0.1,7.8c0.2,10.5,0.4,21.1,0.6,31.6
			c0,1.2,0.5,2.7-1.6,2.6C118.3,88.8,119.2,87.1,119.2,86z"/>
		<path class="st0" d="M117.3,119.5c4.5,0.5,9.1,1.1,13.5,0.1c3.1-0.7,1.6-4.1,1.8-6.3c0.2-2.5-1.9-1.5-3-1.5
			c-3.4-0.2-6.8-0.3-10.2-0.2c-1.2,0-3.2-1.1-3.5,0.9c-0.3,2-0.8,4.3,0.4,6.2C116.7,119.1,117,119.5,117.3,119.5z"/>
	</g>
	<g>
		<path class="st0" d="M98.1,108.9c2.8,0.2,3.4-0.7,3.4-3.3c-0.1-6.7-0.7-13.4-1.2-20c-1-13.4-0.2-26.9,0.3-40.4
			c0.4-10.9-3.7-17-6.1-27.2c-0.2-1-3.8-1-4.1,0.1c-1.5,6.7-3.8,11.2-5.9,17.7c-0.5,1.5-0.7,2.9-0.8,4.5
			c-1.4,16.9,1.5,34.1-2.4,50.9c-1.1,4.8-0.2,10.1-0.4,15.2c-0.1,1.9,0.6,2.3,2.3,2.3C88.2,108.6,93.1,108.5,98.1,108.9z M86.8,35.7
			c1.4-4.2,2.8-8.4,4.2-12.6c0.3-0.8,0.4-1.8,1.6-1.8c1,0.1,1.1,0.9,1.3,1.6c1.3,4.4,2.6,8.8,3.8,13.1c0.5,1.6-0.2,3.1-1.7,1.9
			c-2.8-2.3-5.2-2-7.8,0c-0.3,0.2-0.9,0.1-1.3,0.1C86.3,37.1,86.6,36.4,86.8,35.7z M95,45.7c0.4,0,0.8,0,1.2,0
			c0.6,2.5,0.6,5,0.2,7.5c0,3.6,0,7.2,0,10.8c0.2,7.5,0.3,15,0.4,22.5c0,0.9,0.7,2.4-1.3,2.5c-2,0-1.8-1.2-1.7-2.5
			c0.4-7.5,0.8-15,1.2-22.4c0.1-3.6,0.2-7.2,0.3-10.8C95.2,50.7,95.1,48.2,95,45.7z M86.1,86c0.4-10.3,1-20.5,1.5-30.8l0,0h0
			c0-2.8-0.1-5.6-0.1-8.5c0.4,0,0.7,0,1.1,0c0.2,2.6,0.3,5.2-0.1,7.8c0.2,10.5,0.4,21.1,0.6,31.6c0,1.2,0.5,2.7-1.6,2.6
			C85.2,88.8,86,87.1,86.1,86z"/>
		<path class="st0" d="M84.1,119.5c4.5,0.5,9.1,1.1,13.5,0.1c3.1-0.7,1.6-4.1,1.8-6.3c0.2-2.5-1.9-1.5-3-1.5
			c-3.4-0.2-6.8-0.3-10.2-0.2c-1.2,0-3.2-1.1-3.5,0.9c-0.3,2-0.8,4.3,0.4,6.2C83.5,119.1,83.8,119.5,84.1,119.5z"/>
	</g>
</g>
<g>
</g>
<g>
</g>
<g>
</g>
<g>
</g>
<g>
</g>
<g>
</g>
</svg>
