<?xml version="1.0" encoding="utf-8"?>
<!-- Generator: Adobe Illustrator 22.0.1, SVG Export Plug-In . SVG Version: 6.00 Build 0)  -->
<svg version="1.1" id="Layer_1" xmlns="http://www.w3.org/2000/svg" xmlns:xlink="http://www.w3.org/1999/xlink" x="0px" y="0px"
	 viewBox="0 0 36.6 36.6" style="enable-background:new 0 0 36.6 36.6;" xml:space="preserve">
<style type="text/css">
	.st0{fill:#FFFFFF;}
	.st1{fill-rule:evenodd;clip-rule:evenodd;fill:#FFFFFF;}
</style>
<g>
	<path class="st0" d="M18.3,1.2c4.7,0,9,1.9,12.1,5c3.1,3.1,5,7.4,5,12.1c0,4.7-1.9,9-5,12.1c-3.1,3.1-7.4,5-12.1,5
		c-4.7,0-9-1.9-12.1-5c-3.1-3.1-5-7.4-5-12.1c0-4.7,1.9-9,5-12.1C9.3,3.1,13.6,1.2,18.3,1.2L18.3,1.2z M29.5,7.1
		c-2.9-2.9-6.8-4.6-11.2-4.6c-4.4,0-8.3,1.8-11.2,4.6C4.3,10,2.5,13.9,2.5,18.3c0,4.4,1.8,8.3,4.6,11.2c2.9,2.9,6.8,4.6,11.2,4.6
		c4.4,0,8.3-1.8,11.2-4.6c2.9-2.9,4.6-6.8,4.6-11.2C34.1,13.9,32.3,10,29.5,7.1L29.5,7.1z"/>
	<path class="st1" d="M19.6,14.8v-1.4c0-0.7,0.4-0.8,0.8-0.8c0.3,0,2,0,2,0v-3h-2.7c-3,0-3.7,2.2-3.7,3.7v1.6h-1.7v2.1v1.4H16
		c0,4,0,8.7,0,8.7h3.5c0,0,0-4.8,0-8.7h2.6l0.1-1.4l0.2-2.1H19.6z"/>
</g>
<g>
</g>
<g>
</g>
<g>
</g>
<g>
</g>
<g>
</g>
<g>
</g>
</svg>
