<?xml version="1.0" encoding="utf-8"?>
<!-- Generator: Adobe Illustrator 22.0.1, SVG Export Plug-In . SVG Version: 6.00 Build 0)  -->
<svg version="1.1" id="Layer_1" xmlns="http://www.w3.org/2000/svg" xmlns:xlink="http://www.w3.org/1999/xlink" x="0px" y="0px"
	 viewBox="0 0 182.7 120" style="enable-background:new 0 0 182.7 120;" xml:space="preserve">
<style type="text/css">
	.st0{fill-rule:evenodd;clip-rule:evenodd;fill:#FFCB00;}
</style>
<g>
	<g>
		<path class="st0" d="M91.8,94.7c-3.7,0-7.4,0.1-11,0c-6.1-0.3-8.8-2.8-9-8.8c-0.1-3.4-1.3-5.9-3.4-8.4C62.7,70.6,59,63,59.9,53.8
			c1.3-13.4,9.5-22.8,22.9-26.4c13.1-3.5,27.6,1.1,34.6,11.1c7.1,10.1,6.8,24.6-0.9,35.6c-1.6,2.2-3.3,4.4-5.1,6.4
			c-1.4,1.5-3.2,1.8-5,0.5c-1.9-1.5-2.1-3.4-0.8-5.3c1.1-1.7,2.5-3.2,3.7-4.8c6.6-9.1,7.4-19.8,1.9-27.6
			c-5.2-7.6-16.5-11.1-26.7-8.3c-15.6,4.2-21.7,20.4-12.7,33.9c3.3,5,8.1,9.1,7.8,15.9c-0.1,2.5,2.1,2.1,3.7,2.1
			c6.2,0.1,12.5,0,18.7,0.1c2.9,0,6.1,0.3,6,4c-0.1,3.8-3.3,3.7-6.2,3.7C98.4,94.7,95.1,94.7,91.8,94.7z"/>
		<path class="st0" d="M75,57.3c0-5.2,1.7-9.7,4.4-14c1.5-2.3,3.6-3.4,6.1-1.8c2.2,1.5,2,3.7,0.6,5.8c-4.1,6.5-4.9,12.9,0.2,19.3
			c1.5,1.9,1,3.9-1,5.2c-1.9,1.3-3.9,0.7-5.4-1C76.6,66.9,74.9,62.4,75,57.3z"/>
	</g>
	<rect x="75.1" y="98.1" class="st0" width="32" height="7.3"/>
	<rect x="77.3" y="108.3" class="st0" width="27.8" height="7.3"/>
	<rect x="56.8" y="16.3" transform="matrix(0.6893 -0.7245 0.7245 0.6893 0.9768 51.6525)" class="st0" width="7.8" height="16.7"/>
	
		<rect x="113.6" y="20.3" transform="matrix(0.7245 -0.6893 0.6893 0.7245 16.8958 90.7445)" class="st0" width="16.7" height="7.8"/>
	
		<rect x="87.4" y="4.4" transform="matrix(1 -5.903012e-03 5.903012e-03 1 -7.230110e-02 0.539)" class="st0" width="7.8" height="16.2"/>
</g>
<g>
</g>
<g>
</g>
<g>
</g>
<g>
</g>
<g>
</g>
<g>
</g>
</svg>
