<?xml version="1.0" encoding="utf-8"?>
<!-- Generator: Adobe Illustrator 22.0.1, SVG Export Plug-In . SVG Version: 6.00 Build 0)  -->
<svg version="1.1" id="Layer_1" xmlns="http://www.w3.org/2000/svg" xmlns:xlink="http://www.w3.org/1999/xlink" x="0px" y="0px"
	 viewBox="0 0 36.6 36.6" style="enable-background:new 0 0 36.6 36.6;" xml:space="preserve">
<style type="text/css">
	.st0{fill:#FFFFFF;}
	.st1{fill-rule:evenodd;clip-rule:evenodd;fill:#FFFFFF;}
</style>
<g>
	<path class="st0" d="M18.3,1.2c4.7,0,9,1.9,12.1,5c3.1,3.1,5,7.4,5,12.1c0,4.7-1.9,9-5,12.1c-3.1,3.1-7.4,5-12.1,5
		c-4.7,0-9-1.9-12.1-5c-3.1-3.1-5-7.4-5-12.1c0-4.7,1.9-9,5-12.1C9.3,3.1,13.6,1.2,18.3,1.2L18.3,1.2z M29.4,7.2
		c-2.8-2.9-6.8-4.6-11.1-4.6C14,2.6,10,4.3,7.2,7.2C4.3,10,2.6,14,2.6,18.3c0,4.3,1.8,8.3,4.6,11.1C10,32.3,14,34,18.3,34
		c4.3,0,8.3-1.8,11.1-4.6c2.9-2.8,4.6-6.8,4.6-11.1C34,14,32.3,10,29.4,7.2L29.4,7.2z"/>
	<path class="st1" d="M10.6,18.5V26h3.6v-8.2v-2.1h-3.6V18.5z M25.9,18.9c-0.2-1.9-1.1-3.2-3.8-3.2c-1.5,0-2.6,0.6-3,1.4h0v-1.4
		h-2.9v2V26h3v-5.1c0-1.3,0.3-2.6,1.9-2.6c1.7,0,1.8,1.5,1.8,2.7v5H26v-5.6C26,19.8,26,19.3,25.9,18.9L25.9,18.9z M12.4,10.6
		c-1,0-1.8,0.8-1.8,1.8s0.8,1.8,1.8,1.8c1,0,1.8-0.8,1.8-1.8S13.4,10.6,12.4,10.6L12.4,10.6z"/>
</g>
</svg>
