<?xml version="1.0" encoding="utf-8"?>
<!-- Generator: Adobe Illustrator 22.0.1, SVG Export Plug-In . SVG Version: 6.00 Build 0)  -->
<svg version="1.1" id="Layer_1" xmlns="http://www.w3.org/2000/svg" xmlns:xlink="http://www.w3.org/1999/xlink" x="0px" y="0px"
	 viewBox="0 0 230.2 87.9" style="enable-background:new 0 0 230.2 87.9;" xml:space="preserve">
<style type="text/css">
	.st0{fill:#FFFFFF;}
</style>
<g>
	<path class="st0" d="M1,30.9C1,17,10.1,4.6,27.3,4.6c6.6,0,11.3,1.5,15.3,4l-4.8,7.9c-2.8-1.8-6-3-10.6-3c-9.5,0-14.7,7.6-14.7,17
		c0,9.7,4.9,17.7,14.8,17.7c5.5,0,8.9-1.9,11.5-3.9l4.4,7.6c-2.6,2.4-8.7,5.3-16.1,5.3C9.8,57.3,1,44.7,1,30.9"/>
	<path class="st0" d="M47.4,46.8c0-9.7,10-13.2,19.9-13.2h1.3v-2.1c0-3.6-1.6-5.2-6-5.2c-4,0-7.3,1.8-9.5,3.5l-4.4-6.2
		c3-2.7,8-5.3,15-5.3c10.2,0,15,3.9,15,13.7v13.4c0,5,0.5,8.6,1.1,11h-10c-0.3-0.9-0.5-2.8-0.6-4c-2,2.4-5.7,4.9-10.5,4.9
		C52.3,57.3,47.4,53.5,47.4,46.8 M68.6,46.6v-6.7h-1.3c-6,0-10.1,1.8-10.1,6.1c0,2.7,2.2,3.9,4.5,3.9C64.8,49.9,67,48.4,68.6,46.6"
		/>
	<path class="st0" d="M85.6,37.9c0-11.9,7.1-19.6,16.6-19.6c4,0,6.9,1.1,8.6,2.6V1.4H121v44.4c0,4.5,0.5,8.2,1.1,10.6h-10
		c-0.3-0.9-0.7-2.9-0.8-4c-2.5,3.1-5.8,5-10.5,5C91.6,57.3,85.6,50.3,85.6,37.9 M110.9,45.4V28.6c-1.6-1.5-3.6-2.4-6.5-2.4
		c-5.2,0-8,4.4-8,11.7c0,7.1,2.4,11.3,7.6,11.3C106.9,49.2,109.4,47.3,110.9,45.4"/>
	<path class="st0" d="M130.3,8.2c0-3.2,2.6-6,6.2-6c3.6,0,6.3,2.7,6.3,6c0,3.3-2.7,6.1-6.3,6.1C132.9,14.4,130.3,11.5,130.3,8.2
		 M131.4,19.2h10.2v37.2h-10.2V19.2z"/>
	<rect x="152.6" y="1.4" class="st0" width="10.2" height="55"/>
	<rect x="173.9" y="1.4" class="st0" width="10.2" height="55"/>
	<path class="st0" d="M191.8,37.9c0-9.5,5.6-19.6,18.6-19.6c13,0,18.9,9.8,18.9,19.3c0,9.4-5.7,19.7-18.8,19.7
		C197.4,57.3,191.8,47.4,191.8,37.9 M218.4,37.9c0-6.9-2.4-12.1-8.2-12.1c-5.7,0-7.6,4.8-7.6,11.8c0,7,2.3,12,8,12
		C216.4,49.6,218.4,44.8,218.4,37.9"/>
	<polygon class="st0" points="117,69.3 120.6,69.3 120.6,83.4 126.9,83.4 126.9,86.3 117,86.3 	"/>
	<path class="st0" d="M128.8,83.1c0-3.2,3.3-4.4,6.6-4.4h0.4V78c0-1.2-0.5-1.7-2-1.7c-1.3,0-2.4,0.6-3.2,1.2l-1.5-2.1
		c1-0.9,2.7-1.8,5-1.8c3.4,0,5,1.3,5,4.6v4.5c0,1.7,0.2,2.9,0.4,3.7h-3.3c-0.1-0.3-0.2-0.9-0.2-1.3c-0.7,0.8-1.9,1.6-3.5,1.6
		C130.4,86.6,128.8,85.3,128.8,83.1 M135.8,83v-2.2h-0.4c-2,0-3.4,0.6-3.4,2c0,0.9,0.7,1.3,1.5,1.3C134.6,84.1,135.3,83.6,135.8,83"
		/>
	<path class="st0" d="M141.4,85.4l1.1-2.4c0.5,0.3,1.7,1,3.1,1c1.3,0,2-0.4,2-1.1c0-0.8-1.4-1.1-3.1-1.9c-1.7-0.8-2.8-1.8-2.8-3.7
		c0-2.3,1.8-3.8,4.6-3.8c2.1,0,3.4,0.7,4,1l-1.2,2.3c-0.5-0.3-1.4-0.8-2.6-0.8c-1.2,0-1.7,0.4-1.7,1.1c0,0.8,1.1,1.1,2.5,1.6
		c2,0.8,3.4,1.7,3.4,3.8c0,2.6-1.9,4-4.9,4C143.5,86.6,142.1,85.9,141.4,85.4"/>
	<path class="st0" d="M152.3,80c0-3.9,2.7-6.4,6.1-6.4c3.5,0,5.4,2.2,5.4,6.1c0,0.4,0,0.8-0.1,1.2h-7.8c0.2,1.8,1.1,3.2,3.2,3.2
		c1.7,0,2.6-0.6,3.2-0.9l1.1,2.2c-0.8,0.5-2.1,1.2-4.6,1.2C154.6,86.6,152.3,84,152.3,80 M160.5,78.6c0-1.4-0.6-2.5-2.1-2.5
		c-1.4,0-2.2,0.9-2.5,2.5H160.5z"/>
	<path class="st0" d="M166.4,73.9h3.4v1.7c0.5-0.9,1.6-2,3.1-2c0.9,0,1.4,0.2,1.7,0.3l-0.8,3c-0.2-0.1-0.6-0.3-1.3-0.3
		c-1.5,0-2.4,1.3-2.7,1.9v7.8h-3.4V73.9z"/>
	<polygon class="st0" points="184.6,72.3 180,72.3 180,69.3 192.9,69.3 192.9,72.3 188.2,72.3 188.2,86.3 184.6,86.3 	"/>
	<path class="st0" d="M192.4,80c0-3.9,2.7-6.4,6.1-6.4c3.5,0,5.4,2.2,5.4,6.1c0,0.4,0,0.8-0.1,1.2H196c0.2,1.8,1.1,3.2,3.2,3.2
		c1.7,0,2.6-0.6,3.2-0.9l1.1,2.2c-0.8,0.5-2.1,1.2-4.6,1.2C194.7,86.6,192.4,84,192.4,80 M200.6,78.6c0-1.4-0.6-2.5-2.1-2.5
		c-1.4,0-2.2,0.9-2.5,2.5H200.6z"/>
	<path class="st0" d="M205.6,80.1c0-4.2,2.8-6.5,6.5-6.5c2,0,3.2,0.6,3.8,1l-1.1,2.3c-0.6-0.4-1.3-0.7-2.6-0.7c-2,0-3,1.6-3,3.8
		c0,2.3,1,4,3.1,4c1.4,0,2.3-0.5,2.7-0.8l1,2.3c-0.6,0.4-1.7,1.1-4,1.1C208,86.6,205.6,83.9,205.6,80.1"/>
	<path class="st0" d="M218.1,67.9h3.4v7.4c0.6-0.7,1.8-1.8,3.9-1.8c2.7,0,3.7,1.7,3.7,4v8.7h-3.4v-8c0-1.2-0.4-1.9-1.6-1.9
		c-1.3,0-2.3,1.2-2.6,1.6v8.3h-3.4V67.9z"/>
</g>
<g>
</g>
<g>
</g>
<g>
</g>
<g>
</g>
<g>
</g>
<g>
</g>
</svg>
