<?xml version="1.0" encoding="utf-8"?>
<!-- Generator: Adobe Illustrator 22.0.1, SVG Export Plug-In . SVG Version: 6.00 Build 0)  -->
<svg version="1.1" id="Layer_1" xmlns="http://www.w3.org/2000/svg" xmlns:xlink="http://www.w3.org/1999/xlink" x="0px" y="0px"
	 viewBox="0 0 450 276" style="enable-background:new 0 0 450 276;" xml:space="preserve">
<style type="text/css">
	.st0{fill:none;stroke:#F68D35;stroke-width:3.5;stroke-linecap:round;stroke-linejoin:round;stroke-miterlimit:10;}
</style>
<g id="XMLID_32_">
	<g>
		<polygon id="XMLID_104_" class="st0" points="426.8,63.5 419.6,73.7 348,55.4 		"/>
		<polygon id="XMLID_103_" class="st0" points="363.6,11.1 426.8,63.5 348,55.4 		"/>
		<polygon id="XMLID_102_" class="st0" points="259.4,79.2 363.6,11.1 259.4,164.9 		"/>
		<polygon id="XMLID_101_" class="st0" points="127.4,88 259.4,164.9 259.4,79.2 		"/>
		<polygon id="XMLID_100_" class="st0" points="363.6,11.1 348,55.4 311.5,155.2 259.4,164.9 		"/>
		<polygon id="XMLID_99_" class="st0" points="127.4,88 53.7,106.4 121.3,114.7 		"/>
		<polygon id="XMLID_98_" class="st0" points="23.2,144.7 53.7,106.4 78.3,109.4 		"/>
		<polygon id="XMLID_97_" class="st0" points="311.5,155.2 307,248.8 299.8,248.8 299.8,219.8 284.8,160.2 		"/>
		<polygon id="XMLID_96_" class="st0" points="110.8,167.9 139.1,190.1 162.9,166.9 		"/>
		<polygon id="XMLID_95_" class="st0" points="90.6,264.9 98.6,264.9 139.1,190.1 110.8,167.9 103.6,236.7 		"/>
		<polygon id="XMLID_94_" class="st0" points="162.9,166.9 158.5,223.4 151.8,261.6 144.1,261.6 147.4,224.5 139.1,190.1 		"/>
		<polygon id="XMLID_93_" class="st0" points="127.4,88 110.8,167.9 259.4,164.9 		"/>
		<polygon id="XMLID_92_" class="st0" points="259.4,164.9 262.1,237.2 259.4,255 267.3,255 269.9,236.7 284.8,160.2 		"/>
	</g>
</g>
<g>
</g>
<g>
</g>
<g>
</g>
<g>
</g>
<g>
</g>
<g>
</g>
</svg>
