<?xml version="1.0" encoding="utf-8"?>
<!-- Generator: Adobe Illustrator 22.0.1, SVG Export Plug-In . SVG Version: 6.00 Build 0)  -->
<svg version="1.1" id="Layer_1" xmlns="http://www.w3.org/2000/svg" xmlns:xlink="http://www.w3.org/1999/xlink" x="0px" y="0px"
	 viewBox="0 0 212.3 185.7" style="enable-background:new 0 0 212.3 185.7;" xml:space="preserve">
<style type="text/css">
	.st0{fill:none;stroke:#FFFFFF;stroke-width:1.5;stroke-linecap:round;stroke-linejoin:round;stroke-miterlimit:10;}
	.st1{fill:#F68D35;stroke:#FFFFFF;stroke-width:1.5;stroke-linecap:round;stroke-linejoin:round;stroke-miterlimit:10;}
</style>
<g id="XMLID_1364_">
	<g id="XMLID_1365_">
		<polygon id="XMLID_1375_" class="st0" points="127.6,60 45.5,89.2 38.3,127.2 59.4,165.8 89.8,168.8 100.4,155.2 		"/>
		<polygon id="XMLID_1374_" class="st1" points="72.7,168.8 54.2,122.6 40.5,106.2 37.2,125.1 59.1,167.3 		"/>
		<path id="XMLID_1373_" class="st1" d="M54.2,122.6c0,0-13.7-7.6-17-8.2c-3.3-0.6-31-1.5-31-1.5l34.7-8.8L54.2,122.6z"/>
		<polygon id="XMLID_1372_" class="st0" points="103.2,102 87.6,122.6 118.2,167.7 133.7,164.6 143,127.2 117.7,98.3 		"/>
		<path id="XMLID_1371_" class="st0" d="M138.7,51.2L99.3,72v25.5c0,0,43.6,24.8,43.6,29.7L138.7,51.2z"/>
		<polygon id="XMLID_1370_" class="st0" points="191.1,109.9 168.3,106.2 159.2,121.3 159.2,139.1 		"/>
		<polygon id="XMLID_1369_" class="st0" points="159.2,122.6 183.8,148.6 177.5,148.6 159.2,139.1 		"/>
		<polygon id="XMLID_1368_" class="st1" points="174.3,147 192.7,140.4 202.8,143.7 179.7,150.9 		"/>
		<polygon id="XMLID_1367_" class="st1" points="141.4,47.3 113.2,41.8 108,55.5 118.9,83 		"/>
		<polygon id="XMLID_1366_" class="st1" points="138.7,51.2 141.4,109.8 182.5,117.2 191.1,109.9 191.1,79.3 		"/>
	</g>
</g>
<g>
</g>
<g>
</g>
<g>
</g>
<g>
</g>
<g>
</g>
<g>
</g>
</svg>
