<?xml version="1.0" encoding="utf-8"?>
<!-- Generator: Adobe Illustrator 22.0.1, SVG Export Plug-In . SVG Version: 6.00 Build 0)  -->
<svg version="1.1" id="Layer_1" xmlns="http://www.w3.org/2000/svg" xmlns:xlink="http://www.w3.org/1999/xlink" x="0px" y="0px"
	 viewBox="0 0 1366 768" style="enable-background:new 0 0 1366 768;" xml:space="preserve">
<style type="text/css">
	.st0{fill:#EC252E;}
	.st1{fill:#FF7216;}
	.st2{fill:#FF8F29;}
	.st3{fill:#FFA051;}
	.st4{fill:#FF9D50;}
	.st5{fill:#FF714A;}
	.st6{fill:#FF7214;}
	.st7{fill:#FFA352;}
	.st8{fill:#FF8A45;}
	.st9{fill:#FF652D;}
	.st10{fill:#FF6943;}
	.st11{fill:#FF922D;}
	.st12{fill:#FF6C62;}
	.st13{fill:#FF564B;}
	.st14{fill:#F52D47;}
	.st15{fill:#F73348;}
	.st16{fill:#FF392F;}
	.st17{fill:#FF5B45;}
	.st18{fill:#F0274A;}
	.st19{fill:#E41A33;}
	.st20{fill:#F75724;}
	.st21{fill:#FF4133;}
	.st22{fill:#FF8B47;}
	.st23{fill:#FF804D;}
	.st24{fill:#FF7149;}
	.st25{fill:#FF5643;}
	.st26{fill:#FF4E3B;}
	.st27{fill:#FF3A52;}
	.st28{fill:#FF9C41;}
	.st29{fill:#FF934A;}
	.st30{fill:#FF8146;}
	.st31{fill:#FF7324;}
	.st32{fill:#FF6518;}
	.st33{fill:#F8404E;}
	.st34{fill:#FF4A2F;}
	.st35{fill:#D12050;}
	.st36{fill:#FD4E1D;}
	.st37{fill:#C2181D;}
	.st38{fill:#FF5E2E;}
	.st39{fill:#FF5344;}
	.st40{fill:#FB4155;}
	.st41{fill:#FF7935;}
	.st42{fill:#FF7A3E;}
	.st43{fill:#FF3D47;}
	.st44{fill:#FF7024;}
	.st45{fill:#FF4A4E;}
	.st46{fill:#FF2C72;}
	.st47{fill:#FF6343;}
	.st48{fill:#FF862C;}
	.st49{fill:#E92526;}
	.st50{fill:#FF9734;}
	.st51{fill:#FF7F10;}
	.st52{fill:#F85F2C;}
	.st53{fill:#F2422D;}
	.st54{fill:#CF1E29;}
	.st55{fill:#FF6515;}
	.st56{fill:#C5181E;}
	.st57{fill:#FF8A23;}
	.st58{fill:#FF820B;}
	.st59{fill:#FF7312;}
	.st60{fill:#F44F3D;}
	.st61{fill:#F7491E;}
	.st62{fill:#EE3628;}
	.st63{fill:#FF732F;}
	.st64{fill:#FF7933;}
	.st65{fill:#FF6E11;}
	.st66{fill:#FF881A;}
	.st67{fill:#E03228;}
	.st68{fill:#F83C2B;}
	.st69{fill:#E2462D;}
	.st70{fill:#FF8528;}
	.st71{fill:#FF8D28;}
	.st72{fill:#FF4A2A;}
	.st73{fill:#FF5E4A;}
	.st74{fill:#F32527;}
	.st75{fill:#FF5B34;}
	.st76{fill:#FF3A5C;}
	.st77{fill:#FF414B;}
	.st78{fill:#FF315F;}
	.st79{fill:#E61E6F;}
	.st80{fill:#FF7031;}
	.st81{fill:#FF6537;}
	.st82{fill:#FF6646;}
	.st83{fill:#FF5C56;}
	.st84{fill:#F12048;}
	.st85{fill:#FF3845;}
	.st86{fill:#FF4E48;}
	.st87{fill:#FF4E4D;}
	.st88{fill:#C21346;}
	.st89{fill:#C41738;}
	.st90{fill:#EA222E;}
	.st91{fill:none;stroke:#FFFFFF;stroke-width:3;stroke-linejoin:round;stroke-miterlimit:10;}
	.st92{fill:#DF101C;}
</style>
<g>
	<g id="XMLID_1773_">
		<polygon id="XMLID_1780_" class="st0" points="363.4,319.7 339,283.9 293.2,325.1 		"/>
		<polygon id="XMLID_1779_" class="st1" points="337.5,283.7 460.5,294.2 406.6,380.3 		"/>
		<polygon id="XMLID_1778_" class="st2" points="611.6,360.7 406.6,380.3 523.8,193.1 		"/>
		<polygon id="XMLID_1777_" class="st0" points="611.6,360.7 664.9,563.1 573.7,489 		"/>
		<polygon id="XMLID_1776_" class="st1" points="747.8,142.9 611.6,360.7 523.8,193.1 		"/>
		<polygon id="XMLID_1775_" class="st0" points="729.7,171.6 794.6,169 611.6,360.7 		"/>
		<polygon id="XMLID_1774_" class="st1" points="611.6,360.7 582.2,460.3 426.1,411 406.6,380.3 		"/>
	</g>
	<g>
		<g>
			<polygon id="XMLID_1772_" class="st3" points="563.5,352.8 501.4,352.8 501.4,290.8 			"/>
			<polygon id="XMLID_1771_" class="st4" points="563.5,228.7 563.5,290.8 501.4,290.8 			"/>
			<polygon id="XMLID_1770_" class="st5" points="377.2,290.8 315.1,352.8 315.1,290.8 			"/>
			<polygon id="XMLID_1769_" class="st6" points="439.3,352.8 377.2,352.8 377.2,290.8 			"/>
			<polygon id="XMLID_1768_" class="st7" points="563.5,414.9 501.4,414.9 563.5,352.8 			"/>
			<polygon id="XMLID_1767_" class="st8" points="501.4,352.8 501.4,414.9 439.3,352.8 			"/>
			<polygon id="XMLID_1766_" class="st9" points="377.2,414.9 315.1,477 315.1,414.9 			"/>
			<polygon id="XMLID_1765_" class="st10" points="377.2,352.8 377.2,414.9 315.1,352.8 			"/>
			<polygon id="XMLID_1764_" class="st11" points="563.5,539.1 501.4,539.1 563.5,477 			"/>
			<polygon id="XMLID_1763_" class="st12" points="315.1,290.8 253,290.8 315.1,228.7 			"/>
			<polygon id="XMLID_1762_" class="st13" points="315.1,352.8 253,352.8 253,290.8 			"/>
			<polygon id="XMLID_1761_" class="st14" points="66.8,352.8 66.8,290.8 128.8,290.8 			"/>
			<polygon id="XMLID_1760_" class="st15" points="190.9,352.8 128.8,352.8 128.8,290.8 			"/>
			<polygon id="XMLID_1759_" class="st16" points="253,352.8 253,414.9 190.9,352.8 			"/>
			<polygon id="XMLID_1758_" class="st17" points="315.1,414.9 253,414.9 315.1,352.8 			"/>
			<polygon id="XMLID_1757_" class="st18" points="128.8,352.8 128.8,414.9 66.8,352.8 			"/>
			<polygon id="XMLID_1756_" class="st19" points="128.8,414.9 66.8,477 66.8,414.9 			"/>
			<polygon id="XMLID_1755_" class="st20" points="315.1,539.1 253,539.1 315.1,477 			"/>
			<polygon id="XMLID_1754_" class="st21" points="315.1,166.6 315.1,228.7 253,166.6 			"/>
			<polygon id="XMLID_1753_" class="st22" points="563.5,290.8 563.5,352.8 501.4,290.8 			"/>
			<polygon id="XMLID_1752_" class="st23" points="501.4,352.8 439.3,352.8 501.4,290.8 			"/>
			<polygon id="XMLID_1751_" class="st24" points="377.2,352.8 315.1,352.8 377.2,290.8 			"/>
			<polygon id="XMLID_1750_" class="st25" points="315.1,290.8 315.1,352.8 253,290.8 			"/>
			<polygon id="XMLID_1749_" class="st26" points="253,352.8 190.9,352.8 253,290.8 			"/>
			<polygon id="XMLID_1748_" class="st27" points="128.8,352.8 66.8,352.8 128.8,290.8 			"/>
			<polygon id="XMLID_1747_" class="st28" points="563.5,414.9 563.5,477 501.4,414.9 			"/>
			<polygon id="XMLID_1746_" class="st29" points="563.5,352.8 501.4,414.9 501.4,352.8 			"/>
			<polygon id="XMLID_1745_" class="st30" points="439.3,352.8 377.2,414.9 377.2,352.8 			"/>
			<polygon id="XMLID_1744_" class="st31" points="377.2,414.9 315.1,414.9 315.1,352.8 			"/>
			<polygon id="XMLID_1743_" class="st32" points="315.1,414.9 315.1,477 253,414.9 			"/>
			<polygon id="XMLID_1742_" class="st33" points="315.1,352.8 253,414.9 253,352.8 			"/>
			<polygon id="XMLID_1741_" class="st34" points="190.9,352.8 128.8,414.9 128.8,352.8 			"/>
			<polygon id="XMLID_1740_" class="st35" points="4.7,414.9 4.7,352.8 66.8,352.8 			"/>
			<polygon id="XMLID_1739_" class="st36" points="377.2,539.1 315.1,539.1 315.1,477 			"/>
			<polygon id="XMLID_1738_" class="st37" points="128.8,539.1 66.8,539.1 66.8,477 			"/>
			<polygon id="XMLID_1737_" class="st23" points="501.4,228.7 563.5,228.7 501.4,290.8 			"/>
			<polygon id="XMLID_1736_" class="st25" points="315.1,228.7 253,290.8 253,228.7 			"/>
			<polygon id="XMLID_1735_" class="st38" points="377.2,228.7 377.2,290.8 315.1,228.7 			"/>
			<polygon id="XMLID_1734_" class="st12" points="128.8,290.8 66.8,228.7 128.8,228.7 			"/>
			<polygon id="XMLID_1733_" class="st39" points="253,290.8 190.9,290.8 190.9,228.7 			"/>
			<polygon id="XMLID_1732_" class="st8" points="501.4,290.8 439.3,352.8 439.3,290.8 			"/>
			<polygon id="XMLID_1731_" class="st40" points="253,228.7 253,290.8 190.9,228.7 			"/>
			<polygon id="XMLID_1730_" class="st33" points="253,290.8 190.9,352.8 190.9,290.8 			"/>
			<polygon id="XMLID_1729_" class="st12" points="253,228.7 190.9,228.7 253,166.6 			"/>
			<polygon id="XMLID_1728_" class="st41" points="439.3,290.8 439.3,352.8 377.2,290.8 			"/>
			<polygon id="XMLID_1727_" class="st42" points="439.3,228.7 377.2,290.8 377.2,228.7 			"/>
			<polygon id="XMLID_1726_" class="st43" points="190.9,290.8 190.9,352.8 128.8,290.8 			"/>
			<polygon id="XMLID_1725_" class="st44" points="439.3,290.8 377.2,290.8 439.3,228.7 			"/>
			<polygon id="XMLID_1724_" class="st45" points="315.1,228.7 253,228.7 253,166.6 			"/>
			<polygon id="XMLID_1723_" class="st46" points="190.9,228.7 190.9,166.6 253,166.6 			"/>
			<polygon id="XMLID_1722_" class="st47" points="377.2,228.7 315.1,228.7 377.2,166.6 			"/>
			<polygon id="XMLID_1721_" class="st48" points="439.3,414.9 439.3,477 377.2,414.9 			"/>
			<polygon id="XMLID_1720_" class="st49" points="190.9,414.9 190.9,477 128.8,414.9 			"/>
			<polygon id="XMLID_1719_" class="st50" points="563.5,477 501.4,539.1 501.4,477 			"/>
			<polygon id="XMLID_1718_" class="st51" points="501.4,539.1 439.3,539.1 439.3,477 			"/>
			<polygon id="XMLID_1717_" class="st52" points="315.1,477 253,539.1 253,477 			"/>
			<polygon id="XMLID_1716_" class="st53" points="253,539.1 190.9,539.1 190.9,477 			"/>
			<polygon id="XMLID_1715_" class="st54" points="66.8,477 4.7,539.1 4.7,477 			"/>
			<polygon id="XMLID_1714_" class="st55" points="377.2,477 377.2,539.1 315.1,477 			"/>
			<polygon id="XMLID_1713_" class="st56" points="128.8,477 128.8,539.1 66.8,477 			"/>
			<polygon id="XMLID_1712_" class="st57" points="563.5,477 501.4,477 501.4,414.9 			"/>
			<polygon id="XMLID_1711_" class="st58" points="501.4,414.9 439.3,477 439.3,414.9 			"/>
			<polygon id="XMLID_1710_" class="st59" points="439.3,539.1 377.2,539.1 439.3,477 			"/>
			<polygon id="XMLID_1709_" class="st60" points="253,414.9 190.9,477 190.9,414.9 			"/>
			<polygon id="XMLID_1708_" class="st61" points="315.1,477 253,477 253,414.9 			"/>
			<polygon id="XMLID_1707_" class="st62" points="190.9,539.1 128.8,539.1 190.9,477 			"/>
			<polygon id="XMLID_1706_" class="st63" points="377.2,477 315.1,477 377.2,414.9 			"/>
			<polygon id="XMLID_1705_" class="st64" points="439.3,414.9 377.2,414.9 439.3,352.8 			"/>
			<polygon id="XMLID_1704_" class="st65" points="439.3,477 377.2,477 377.2,414.9 			"/>
			<polygon id="XMLID_1703_" class="st66" points="501.4,477 501.4,539.1 439.3,477 			"/>
			<polygon id="XMLID_1702_" class="st67" points="190.9,477 128.8,477 128.8,414.9 			"/>
			<polygon id="XMLID_1701_" class="st68" points="190.9,414.9 128.8,414.9 190.9,352.8 			"/>
			<polygon id="XMLID_1700_" class="st34" points="66.7,354 3.5,354 66.7,290.8 			"/>
			<polygon id="XMLID_1699_" class="st69" points="253,477 253,539.1 190.9,477 			"/>
			<polygon id="XMLID_1698_" class="st70" points="501.4,477 439.3,477 501.4,414.9 			"/>
			<polygon id="XMLID_1697_" class="st71" points="501.4,414.9 439.3,414.9 439.3,352.8 			"/>
			<polygon id="XMLID_1696_" class="st72" points="253,477 190.9,477 253,414.9 			"/>
			<polygon id="XMLID_1695_" class="st73" points="252.3,414.9 190.2,414.9 190.2,352.8 			"/>
			<polygon id="XMLID_1694_" class="st51" points="439.3,477 377.2,539.1 377.2,477 			"/>
			<polygon id="XMLID_1693_" class="st74" points="190.9,477 128.8,539.1 128.8,477 			"/>
			<polygon id="XMLID_1692_" class="st75" points="315.1,290.8 377.2,290.8 315.1,228.7 			"/>
			<polygon id="XMLID_1691_" class="st76" points="128.8,166.6 128.8,104.5 190.9,166.6 			"/>
			<polygon id="XMLID_1690_" class="st77" points="190.9,228.7 128.8,228.7 190.9,166.6 			"/>
			<polygon id="XMLID_1689_" class="st77" points="66.6,228.9 4.5,228.9 66.6,166.9 			"/>
			<polygon id="XMLID_1688_" class="st78" points="315.1,104.5 315.1,166.6 253,104.5 			"/>
			<polygon id="XMLID_1687_" class="st79" points="190.9,104.5 128.8,104.5 190.9,42.4 			"/>
			<polygon id="XMLID_1686_" class="st80" points="439.3,166.6 439.3,228.7 377.2,228.7 			"/>
			<polygon id="XMLID_1685_" class="st80" points="66.7,228.7 66.7,290.7 4.6,290.7 			"/>
			<polygon id="XMLID_1684_" class="st81" points="439.3,166.6 377.2,104.5 439.3,104.5 			"/>
			<polygon id="XMLID_1683_" class="st41" points="439.3,228.7 501.4,228.7 439.3,290.8 			"/>
			<polygon id="XMLID_1668_" class="st82" points="501.4,104.5 563.5,166.6 501.4,166.6 			"/>
			<polygon id="XMLID_1667_" class="st83" points="377.2,104.5 377.2,42.4 439.3,42.4 			"/>
			<polygon id="XMLID_1666_" class="st84" points="4.7,352.8 4.7,290.8 66.8,290.8 			"/>
			<polygon id="XMLID_1665_" class="st85" points="190.9,104.5 253,104.5 190.9,166.6 			"/>
			<polygon id="XMLID_1664_" class="st86" points="253,42.4 253,104.5 190.9,42.4 			"/>
			<polygon id="XMLID_1663_" class="st87" points="377.2,104.5 377.2,166.6 315.1,166.6 			"/>
			<polygon id="XMLID_1662_" class="st4" points="439.3,166.6 501.4,228.7 439.3,228.7 			"/>
		</g>
		<g>
			<polygon id="XMLID_1661_" class="st7" points="563.5,663.5 501.4,663.5 563.5,725.6 			"/>
			<polygon id="XMLID_1660_" class="st8" points="501.4,725.6 501.4,663.5 439.3,725.6 			"/>
			<polygon id="XMLID_1659_" class="st9" points="377.2,663.5 315.1,601.4 315.1,663.5 			"/>
			<polygon id="XMLID_1658_" class="st19" points="128.8,663.5 66.8,601.4 66.8,663.5 			"/>
			<polygon id="XMLID_1657_" class="st88" points="66.8,663.5 4.7,663.5 66.8,725.6 			"/>
			<polygon id="XMLID_1656_" class="st20" points="315.1,539.3 253,539.3 315.1,601.4 			"/>
			<polygon id="XMLID_1655_" class="st89" points="66.8,539.3 4.7,539.3 66.8,601.4 			"/>
			<polygon id="XMLID_1654_" class="st32" points="315.1,663.5 315.1,601.4 253,663.5 			"/>
			<polygon id="XMLID_1653_" class="st36" points="377.2,539.3 315.1,539.3 315.1,601.4 			"/>
			<polygon id="XMLID_1652_" class="st50" points="563.5,601.4 501.4,539.3 501.4,601.4 			"/>
			<polygon id="XMLID_1651_" class="st51" points="501.4,539.3 439.3,539.3 439.3,601.4 			"/>
			<polygon id="XMLID_1650_" class="st52" points="315.1,601.4 253,539.3 253,601.4 			"/>
			<polygon id="XMLID_1649_" class="st53" points="253,539.3 190.9,539.3 190.9,601.4 			"/>
			<polygon id="XMLID_1648_" class="st55" points="377.2,601.4 377.2,539.3 315.1,601.4 			"/>
			<polygon id="XMLID_1647_" class="st56" points="128.8,601.4 128.8,539.3 66.8,601.4 			"/>
			<polygon id="XMLID_1646_" class="st57" points="563.5,601.4 501.4,601.4 501.4,663.5 			"/>
			<polygon id="XMLID_1645_" class="st58" points="501.4,663.5 439.3,601.4 439.3,663.5 			"/>
			<polygon id="XMLID_1644_" class="st59" points="439.3,539.3 377.2,539.3 439.3,601.4 			"/>
			<polygon id="XMLID_1643_" class="st60" points="253,663.5 190.9,601.4 190.9,663.5 			"/>
			<polygon id="XMLID_1642_" class="st61" points="315.1,601.4 253,601.4 253,663.5 			"/>
			<polygon id="XMLID_1641_" class="st62" points="190.9,539.3 128.8,539.3 190.9,601.4 			"/>
			<polygon id="XMLID_1640_" class="st63" points="377.2,601.4 315.1,601.4 377.2,663.5 			"/>
			<polygon id="XMLID_1639_" class="st90" points="128.8,601.4 66.8,601.4 128.8,663.5 			"/>
			<polygon id="XMLID_1638_" class="st65" points="439.3,601.4 377.2,601.4 377.2,663.5 			"/>
			<polygon id="XMLID_1637_" class="st66" points="501.4,601.4 501.4,539.3 439.3,601.4 			"/>
			<polygon id="XMLID_1636_" class="st34" points="4.9,600.3 4.9,663.5 68.1,600.3 			"/>
			<polygon id="XMLID_1635_" class="st69" points="253,601.4 253,539.3 190.9,601.4 			"/>
			<polygon id="XMLID_1634_" class="st72" points="253,601.4 190.9,601.4 253,663.5 			"/>
			<polygon id="XMLID_1633_" class="st74" points="190.9,601.4 128.8,539.3 128.8,601.4 			"/>
		</g>
	</g>
	<g id="XMLID_1625_">
		<polygon id="XMLID_1632_" class="st91" points="363.6,319.7 339.3,284 293.6,325.2 		"/>
		<polygon id="XMLID_1631_" class="st91" points="337.8,283.8 460.6,294.4 406.8,380.3 		"/>
		<polygon id="XMLID_1630_" class="st91" points="611.5,360.8 406.8,380.3 523.9,193.3 		"/>
		<polygon id="XMLID_1629_" class="st91" points="611.5,360.8 664.8,562.9 573.7,488.9 		"/>
		<polygon id="XMLID_1627_" class="st91" points="729.5,171.9 794.3,169.3 611.5,360.8 		"/>
		<polygon id="XMLID_1626_" class="st91" points="611.5,360.8 582.2,460.2 426.3,411 406.8,380.3 		"/>
	</g>
	<g>
		<g>
			<polygon class="st92" points="725.3,316.7 735,316.7 735,354.7 752.1,354.7 752.1,362.6 725.3,362.6 			"/>
			<path class="st92" d="M757,354c0-8.7,9-11.9,17.9-11.9h1.2v-1.9c0-3.2-1.4-4.7-5.4-4.7c-3.6,0-6.5,1.6-8.5,3.2l-4-5.6
				c2.7-2.5,7.2-4.8,13.5-4.8c9.1,0,13.5,3.5,13.5,12.4v12c0,4.5,0.5,7.8,1,9.9h-9c-0.3-0.8-0.5-2.5-0.6-3.6
				c-1.8,2.2-5.1,4.4-9.4,4.4C761.4,363.4,757,359.9,757,354 M776.1,353.7v-6.1h-1.2c-5.4,0-9.1,1.6-9.1,5.5c0,2.5,2,3.5,4.1,3.5
				C772.7,356.7,774.6,355.4,776.1,353.7"/>
			<path class="st92" d="M791.1,360.2l3.1-6.4c1.3,0.9,4.5,2.8,8.3,2.8c3.5,0,5.5-1,5.5-3c0-2.3-3.7-2.9-8.5-5.2
				c-4.7-2.2-7.5-4.8-7.5-9.9c0-6.3,5-10.2,12.5-10.2c5.7,0,9.2,1.8,10.7,2.7l-3.2,6.3c-1.3-0.8-3.9-2.1-7.2-2.1
				c-3.2,0-4.6,1.2-4.6,3c0,2.3,3,2.9,6.9,4.4c5.3,2.2,9.1,4.6,9.1,10.2c0,7-5,10.7-13.3,10.7C797,363.4,793.2,361.6,791.1,360.2"/>
			<path class="st92" d="M820.6,345.6c0-10.6,7.3-17.4,16.6-17.4c9.5,0,14.6,6.1,14.6,16.5c0,1-0.1,2.1-0.1,3.2h-21.2
				c0.4,5,3,8.7,8.5,8.7c4.5,0,7.1-1.5,8.7-2.3l3,5.9c-2.2,1.2-5.6,3.2-12.5,3.2C826.9,363.4,820.6,356.3,820.6,345.6 M842.8,341.7
				c-0.1-3.8-1.6-6.9-5.8-6.9c-3.9,0-6.1,2.5-6.7,6.9H842.8z"/>
			<path class="st92" d="M858.7,329.1h9.1v4.5c1.4-2.5,4.2-5.4,8.5-5.4c2.5,0,3.8,0.5,4.5,0.9l-2.2,8c-0.5-0.3-1.6-0.8-3.5-0.8
				c-4.1,0-6.5,3.6-7.3,5.1v21.1h-9.1V329.1z"/>
			<polygon class="st92" points="908,324.7 895.4,324.7 895.4,316.7 930.4,316.7 930.4,324.7 917.8,324.7 917.8,362.6 908,362.6 			
				"/>
			<path class="st92" d="M929,345.6c0-10.6,7.3-17.4,16.6-17.4c9.5,0,14.6,6.1,14.6,16.5c0,1-0.1,2.1-0.1,3.2h-21.2
				c0.4,5,3,8.7,8.5,8.7c4.5,0,7.1-1.5,8.7-2.3l3,5.9c-2.2,1.2-5.6,3.2-12.5,3.2C935.3,363.4,929,356.3,929,345.6 M951.2,341.7
				c-0.1-3.8-1.6-6.9-5.8-6.9c-3.9,0-6.1,2.5-6.7,6.9H951.2z"/>
			<path class="st92" d="M964.7,345.8c0-11.3,7.5-17.6,17.6-17.6c5.4,0,8.7,1.6,10.2,2.7l-3,6.3c-1.5-1-3.6-2-7-2
				c-5.4,0-8.2,4.2-8.2,10.4c0,6.2,2.7,10.7,8.4,10.7c3.9,0,6.2-1.4,7.2-2.1l2.8,6.1c-1.6,1-4.7,3-10.8,3
				C971.3,363.4,964.7,356.2,964.7,345.8"/>
			<path class="st92" d="M998.4,313h9.1v20.1c1.7-1.9,5-4.9,10.5-4.9c7.4,0,10,4.7,10,10.9v23.5h-9.1V341c0-3.4-1.2-5.1-4.4-5.1
				c-3.6,0-6.3,3.3-6.9,4.2v22.5h-9.1V313z"/>
		</g>
		<rect x="975.3" y="375.2" class="st92" width="52.8" height="4.5"/>
	</g>
	<g>
		<path class="st92" d="M872.2,406.1c-0.6-0.9-1.4-1.7-2.5-2.3c-1.1-0.6-2.2-0.9-3.6-0.9c-1.4,0-2.7,0.2-3.8,0.7
			c-1.1,0.5-2.1,1.2-2.9,2c-0.8,0.9-1.4,1.9-1.8,3.1c-0.4,1.2-0.6,2.5-0.6,3.8c0,1.4,0.2,2.7,0.6,3.8c0.4,1.2,1,2.2,1.8,3.1
			c0.8,0.9,1.7,1.5,2.9,2c1.1,0.5,2.4,0.7,3.8,0.7c1.3,0,2.5-0.3,3.6-0.9c1-0.6,1.9-1.4,2.5-2.3l2.8,2.1c-1.2,1.4-2.6,2.5-4.1,3.1
			c-1.5,0.7-3.1,1-4.7,1.1c-2,0-3.7-0.3-5.3-0.9s-2.9-1.5-4-2.7s-2-2.5-2.6-4c-0.6-1.6-0.9-3.3-0.9-5.1c0-1.8,0.3-3.5,0.9-5.1
			c0.6-1.6,1.4-2.9,2.6-4c1.1-1.1,2.5-2,4-2.7c1.6-0.6,3.3-0.9,5.3-0.9c1.7,0,3.2,0.4,4.7,1.1c1.5,0.7,2.9,1.7,4.1,3.1L872.2,406.1z
			"/>
		<path class="st92" d="M872.2,406.1c-0.6-0.9-1.4-1.7-2.5-2.3c-1.1-0.6-2.2-0.9-3.6-0.9c-1.4,0-2.7,0.2-3.8,0.7
			c-1.1,0.5-2.1,1.2-2.9,2c-0.8,0.9-1.4,1.9-1.8,3.1c-0.4,1.2-0.6,2.5-0.6,3.8c0,1.4,0.2,2.7,0.6,3.8c0.4,1.2,1,2.2,1.8,3.1
			c0.8,0.9,1.7,1.5,2.9,2c1.1,0.5,2.4,0.7,3.8,0.7c1.3,0,2.5-0.3,3.6-0.9c1-0.6,1.9-1.4,2.5-2.3l2.8,2.1c-1.2,1.4-2.6,2.5-4.1,3.1
			c-1.5,0.7-3.1,1-4.7,1.1c-2,0-3.7-0.3-5.3-0.9s-2.9-1.5-4-2.7s-2-2.5-2.6-4c-0.6-1.6-0.9-3.3-0.9-5.1c0-1.8,0.3-3.5,0.9-5.1
			c0.6-1.6,1.4-2.9,2.6-4c1.1-1.1,2.5-2,4-2.7c1.6-0.6,3.3-0.9,5.3-0.9c1.7,0,3.2,0.4,4.7,1.1c1.5,0.7,2.9,1.7,4.1,3.1L872.2,406.1z
			"/>
		<path class="st92" d="M919.4,412.5c0,1.8-0.3,3.5-0.9,5.1c-0.6,1.5-1.5,2.9-2.7,4c-1.1,1.1-2.5,2-4.1,2.7c-1.6,0.6-3.3,1-5.2,1
			c-1.9,0-3.6-0.3-5.1-1c-1.6-0.6-2.9-1.5-4.1-2.7c-1.1-1.1-2-2.5-2.7-4c-0.6-1.5-0.9-3.2-0.9-5.1c0-1.8,0.3-3.5,0.9-5
			c0.6-1.5,1.5-2.9,2.7-4c1.1-1.1,2.5-2,4.1-2.7c1.6-0.6,3.3-0.9,5.1-0.9c1.9,0,3.6,0.3,5.2,0.9c1.6,0.6,2.9,1.5,4.1,2.7
			c1.1,1.1,2,2.5,2.7,4C919,409,919.4,410.6,919.4,412.5 M915.6,412.5c0-1.3-0.2-2.6-0.6-3.8c-0.4-1.2-1-2.2-1.8-3s-1.7-1.5-2.9-2
			c-1.1-0.5-2.4-0.7-3.8-0.7c-1.4,0-2.6,0.2-3.8,0.7c-1.1,0.5-2.1,1.2-2.9,2s-1.4,1.9-1.8,3c-0.4,1.2-0.6,2.4-0.6,3.8
			c0,1.3,0.2,2.6,0.6,3.8c0.4,1.2,1,2.2,1.8,3c0.8,0.9,1.7,1.5,2.9,2c1.1,0.5,2.4,0.7,3.8,0.7c1.4,0,2.7-0.2,3.8-0.7
			c1.1-0.5,2.1-1.2,2.9-2c0.8-0.9,1.4-1.9,1.8-3C915.4,415.1,915.6,413.8,915.6,412.5"/>
		<path class="st92" d="M919.4,412.5c0,1.8-0.3,3.5-0.9,5.1c-0.6,1.5-1.5,2.9-2.7,4c-1.1,1.1-2.5,2-4.1,2.7c-1.6,0.6-3.3,1-5.2,1
			c-1.9,0-3.6-0.3-5.1-1c-1.6-0.6-2.9-1.5-4.1-2.7c-1.1-1.1-2-2.5-2.7-4c-0.6-1.5-0.9-3.2-0.9-5.1c0-1.8,0.3-3.5,0.9-5
			c0.6-1.5,1.5-2.9,2.7-4c1.1-1.1,2.5-2,4.1-2.7c1.6-0.6,3.3-0.9,5.1-0.9c1.9,0,3.6,0.3,5.2,0.9c1.6,0.6,2.9,1.5,4.1,2.7
			c1.1,1.1,2,2.5,2.7,4C919,409,919.4,410.6,919.4,412.5z M915.6,412.5c0-1.3-0.2-2.6-0.6-3.8c-0.4-1.2-1-2.2-1.8-3s-1.7-1.5-2.9-2
			c-1.1-0.5-2.4-0.7-3.8-0.7c-1.4,0-2.6,0.2-3.8,0.7c-1.1,0.5-2.1,1.2-2.9,2s-1.4,1.9-1.8,3c-0.4,1.2-0.6,2.4-0.6,3.8
			c0,1.3,0.2,2.6,0.6,3.8c0.4,1.2,1,2.2,1.8,3c0.8,0.9,1.7,1.5,2.9,2c1.1,0.5,2.4,0.7,3.8,0.7c1.4,0,2.7-0.2,3.8-0.7
			c1.1-0.5,2.1-1.2,2.9-2c0.8-0.9,1.4-1.9,1.8-3C915.4,415.1,915.6,413.8,915.6,412.5z"/>
		<path class="st92" d="M941.4,407.9c0-0.5,0-1.1,0-1.6c0-0.5,0-1.1-0.1-1.6c0-0.6,0-1.2-0.1-1.9c0-0.7,0-1.5-0.1-2.4h3.3v4.5h0.1
			c0.2-0.6,0.6-1.3,1-1.9c0.4-0.6,1-1.1,1.6-1.6c0.6-0.5,1.4-0.9,2.2-1.2c0.8-0.3,1.8-0.4,2.9-0.4c1,0,1.8,0.1,2.5,0.3l-0.7,3.3
			c-0.5-0.2-1.1-0.3-2-0.3c-1.3,0-2.4,0.3-3.3,0.8c-1,0.5-1.7,1.1-2.4,1.9c-0.6,0.8-1.1,1.6-1.4,2.5c-0.3,0.9-0.4,1.8-0.4,2.6v13.6
			h-3.4V407.9z"/>
		<path class="st92" d="M941.4,407.9c0-0.5,0-1.1,0-1.6c0-0.5,0-1.1-0.1-1.6c0-0.6,0-1.2-0.1-1.9c0-0.7,0-1.5-0.1-2.4h3.3v4.5h0.1
			c0.2-0.6,0.6-1.3,1-1.9c0.4-0.6,1-1.1,1.6-1.6c0.6-0.5,1.4-0.9,2.2-1.2c0.8-0.3,1.8-0.4,2.9-0.4c1,0,1.8,0.1,2.5,0.3l-0.7,3.3
			c-0.5-0.2-1.1-0.3-2-0.3c-1.3,0-2.4,0.3-3.3,0.8c-1,0.5-1.7,1.1-2.4,1.9c-0.6,0.8-1.1,1.6-1.4,2.5c-0.3,0.9-0.4,1.8-0.4,2.6v13.6
			h-3.4V407.9z"/>
		<path class="st92" d="M986.1,403.5h-7v14.2c0,0.9,0.1,1.6,0.3,2.2c0.2,0.6,0.4,1,0.7,1.3c0.3,0.3,0.7,0.5,1.1,0.6
			c0.4,0.1,0.9,0.2,1.4,0.2c0.6,0,1.2-0.1,1.8-0.3c0.6-0.2,1.2-0.4,1.7-0.7l0.2,3.1c-1.3,0.6-2.8,0.9-4.6,0.9c-0.7,0-1.3-0.1-2-0.3
			c-0.7-0.2-1.3-0.5-1.9-1c-0.6-0.5-1.1-1.1-1.4-2c-0.4-0.8-0.6-1.9-0.6-3.2v-15.2h-5.1v-3.1h5.1v-6.8h3.4v6.8h7V403.5z"/>
		<path class="st92" d="M986.1,403.5h-7v14.2c0,0.9,0.1,1.6,0.3,2.2c0.2,0.6,0.4,1,0.7,1.3c0.3,0.3,0.7,0.5,1.1,0.6
			c0.4,0.1,0.9,0.2,1.4,0.2c0.6,0,1.2-0.1,1.8-0.3c0.6-0.2,1.2-0.4,1.7-0.7l0.2,3.1c-1.3,0.6-2.8,0.9-4.6,0.9c-0.7,0-1.3-0.1-2-0.3
			c-0.7-0.2-1.3-0.5-1.9-1c-0.6-0.5-1.1-1.1-1.4-2c-0.4-0.8-0.6-1.9-0.6-3.2v-15.2h-5.1v-3.1h5.1v-6.8h3.4v6.8h7V403.5z"/>
		<path class="st92" d="M1008.6,413.4c0.1,1.2,0.4,2.3,0.9,3.4c0.5,1.1,1.1,2,1.9,2.8c0.8,0.8,1.7,1.4,2.7,1.8
			c1,0.5,2.2,0.7,3.4,0.7c1.8,0,3.4-0.4,4.7-1.3c1.3-0.8,2.3-1.8,3-2.9l2.6,2.2c-1.4,1.8-3,3.1-4.8,3.9c-1.7,0.8-3.6,1.2-5.6,1.2
			c-1.8,0-3.5-0.3-5-1c-1.5-0.6-2.8-1.5-3.9-2.7c-1.1-1.1-2-2.5-2.6-4c-0.6-1.5-1-3.2-1-5.1c0-1.8,0.3-3.5,0.9-5
			c0.6-1.5,1.5-2.9,2.6-4s2.4-2,3.9-2.7c1.5-0.6,3.1-0.9,4.8-0.9c1.8,0,3.5,0.3,4.9,1c1.4,0.7,2.7,1.5,3.6,2.6
			c1,1.1,1.7,2.4,2.2,3.8c0.5,1.5,0.8,3,0.8,4.7v1.5H1008.6z M1025,410.6c0-2.3-0.7-4.2-2.1-5.6c-1.4-1.4-3.3-2.1-5.8-2.1
			c-1.1,0-2.2,0.2-3.2,0.6c-1,0.4-1.9,1-2.7,1.7c-0.8,0.7-1.4,1.5-1.9,2.5c-0.5,0.9-0.7,1.9-0.7,2.9H1025z"/>
		<path class="st92" d="M1008.6,413.4c0.1,1.2,0.4,2.3,0.9,3.4c0.5,1.1,1.1,2,1.9,2.8c0.8,0.8,1.7,1.4,2.7,1.8
			c1,0.5,2.2,0.7,3.4,0.7c1.8,0,3.4-0.4,4.7-1.3c1.3-0.8,2.3-1.8,3-2.9l2.6,2.2c-1.4,1.8-3,3.1-4.8,3.9c-1.7,0.8-3.6,1.2-5.6,1.2
			c-1.8,0-3.5-0.3-5-1c-1.5-0.6-2.8-1.5-3.9-2.7c-1.1-1.1-2-2.5-2.6-4c-0.6-1.5-1-3.2-1-5.1c0-1.8,0.3-3.5,0.9-5
			c0.6-1.5,1.5-2.9,2.6-4s2.4-2,3.9-2.7c1.5-0.6,3.1-0.9,4.8-0.9c1.8,0,3.5,0.3,4.9,1c1.4,0.7,2.7,1.5,3.6,2.6
			c1,1.1,1.7,2.4,2.2,3.8c0.5,1.5,0.8,3,0.8,4.7v1.5H1008.6z M1025,410.6c0-2.3-0.7-4.2-2.1-5.6c-1.4-1.4-3.3-2.1-5.8-2.1
			c-1.1,0-2.2,0.2-3.2,0.6c-1,0.4-1.9,1-2.7,1.7c-0.8,0.7-1.4,1.5-1.9,2.5c-0.5,0.9-0.7,1.9-0.7,2.9H1025z"/>
	</g>
	<polygon id="XMLID_1628_" class="st91" points="747.5,143.2 611.5,360.8 523.9,193.3 	"/>
</g>
</svg>
