<?xml version="1.0" encoding="utf-8"?>
<!-- Generator: Adobe Illustrator 22.0.1, SVG Export Plug-In . SVG Version: 6.00 Build 0)  -->
<svg version="1.1" id="Layer_1" xmlns="http://www.w3.org/2000/svg" xmlns:xlink="http://www.w3.org/1999/xlink" x="0px" y="0px"
	 viewBox="0 0 768 1232.9" style="enable-background:new 0 0 768 1232.9;" xml:space="preserve">
<style type="text/css">
	.st0{clip-path:url(#SVGID_2_);}
	.st1{fill:#FDA62E;}
	.st2{fill:#FD8110;}
	.st3{fill:#FDC564;}
	.st4{fill:#FC714A;}
	.st5{fill:#FC7214;}
	.st6{fill:#FD8845;}
	.st7{fill:#FD652D;}
	.st8{fill:#FC6943;}
	.st9{fill:#FD6C62;}
	.st10{fill:#FD564B;}
	.st11{fill:#F32D47;}
	.st12{fill:#F53348;}
	.st13{fill:#FD392F;}
	.st14{fill:#FD5B45;}
	.st15{fill:#EE274A;}
	.st16{fill:#E21A33;}
	.st17{fill:#C01346;}
	.st18{fill:#F55724;}
	.st19{fill:#C21738;}
	.st20{fill:#FD4133;}
	.st21{fill:#FC804D;}
	.st22{fill:#FC7149;}
	.st23{fill:#FD5643;}
	.st24{fill:#FD4E3B;}
	.st25{fill:#FD3A52;}
	.st26{fill:#FD9A41;}
	.st27{fill:#FD914A;}
	.st28{fill:#FC8046;}
	.st29{fill:#FD6518;}
	.st30{fill:#FD4A2F;}
	.st31{fill:#D21C42;}
	.st32{fill:#D9254C;}
	.st33{fill:#C0181D;}
	.st34{fill:#FC5E2E;}
	.st35{fill:#FC5344;}
	.st36{fill:#F94155;}
	.st37{fill:#F6404E;}
	.st38{fill:#FC7935;}
	.st39{fill:#FD7A3E;}
	.st40{fill:#FD3D47;}
	.st41{fill:#FD7024;}
	.st42{fill:#FD4A4E;}
	.st43{fill:#FD2C72;}
	.st44{fill:#FD6343;}
	.st45{fill:#FD842C;}
	.st46{fill:#E72526;}
	.st47{fill:#FD9535;}
	.st48{fill:#F55F2C;}
	.st49{fill:#F0422D;}
	.st50{fill:#FD6515;}
	.st51{fill:#C2181E;}
	.st52{fill:#FD800C;}
	.st53{fill:#FD7312;}
	.st54{fill:#F14F3D;}
	.st55{fill:#F5491E;}
	.st56{fill:#EB3628;}
	.st57{fill:#FD732F;}
	.st58{fill:#E8222E;}
	.st59{fill:#FC7933;}
	.st60{fill:#FD6E11;}
	.st61{fill:#FC861A;}
	.st62{fill:#DE3228;}
	.st63{fill:#F63C2B;}
	.st64{fill:#E0462D;}
	.st65{fill:#FD8328;}
	.st66{fill:#FD8B28;}
	.st67{fill:#FD4A2A;}
	.st68{fill:#FC5E4A;}
	.st69{fill:#FD7F10;}
	.st70{fill:#F12527;}
	.st71{fill:#FD5B34;}
	.st72{fill:#FD3A5C;}
	.st73{fill:#FD414B;}
	.st74{fill:#FD315F;}
	.st75{fill:#E31E6F;}
	.st76{fill:#FD7031;}
	.st77{fill:#FD6537;}
	.st78{fill:#FD6646;}
	.st79{fill:#FD5C56;}
	.st80{fill:#EF2048;}
	.st81{fill:#FD3845;}
	.st82{fill:#FD4E48;}
	.st83{fill:#FD4E4D;}
	.st84{fill:#FD9B50;}
	.st85{clip-path:url(#SVGID_4_);}
	.st86{fill:none;stroke:#FFFFFF;stroke-width:3;stroke-linejoin:round;stroke-miterlimit:10;}
	.st87{fill:#DD101C;}
</style>
<g>
	<defs>
		<polygon id="SVGID_1_" points="-3,3.8 771,-2 771,703 -3,703 		"/>
	</defs>
	<clipPath id="SVGID_2_">
		<use xlink:href="#SVGID_1_"  style="overflow:visible;"/>
	</clipPath>
	<g class="st0">
		<g id="XMLID_249_">
			<polygon id="XMLID_264_" class="st1" points="568.9,626.6 538.6,530.8 574.6,552.6 			"/>
			<polygon id="XMLID_263_" class="st2" points="533.9,401.1 574.6,552.6 538.6,530.8 445.8,491.1 			"/>
			<polygon id="XMLID_262_" class="st1" points="587.8,441.8 560.9,435.7 542,431.5 533.9,401.1 			"/>
			<polygon id="XMLID_261_" class="st3" points="595.3,476.9 560.7,435.7 587.7,441.8 			"/>
			<polygon id="XMLID_258_" class="st3" points="533.9,401.1 355.8,381.2 445.8,491.1 			"/>
			<polygon id="XMLID_257_" class="st2" points="308.4,495.8 445.8,491.1 284.7,395.5 			"/>
			<polygon id="XMLID_256_" class="st1" points="355.8,381.2 284.7,395.5 445.8,491.1 			"/>
			<polygon id="XMLID_255_" class="st1" points="308.4,495.8 315,626.6 355.8,494.2 			"/>
			<polygon id="XMLID_254_" class="st2" points="568.9,626.6 556.6,626.6 556.6,587.7 			"/>
			<polygon id="XMLID_253_" class="st2" points="272.4,208.8 284.7,395.5 355.8,381.2 			"/>
			<polygon id="XMLID_252_" class="st1" points="306.1,106.6 272.4,208.8 300.3,266.4 			"/>
			<polygon id="XMLID_251_" class="st2" points="243.3,125.5 250.7,141.6 294.5,141.6 306.1,106.6 			"/>
			<polygon id="XMLID_250_" class="st2" points="315,626.6 297,626.6 312.6,578.7 			"/>
		</g>
		<g>
			<polygon id="XMLID_248_" class="st4" points="74.8,230.8 151.9,307.9 74.8,307.9 			"/>
			<polygon id="XMLID_247_" class="st5" points="151.9,153.6 151.9,230.8 74.8,230.8 			"/>
			<polygon id="XMLID_246_" class="st6" points="151.9,76.5 229,76.5 151.9,153.6 			"/>
			<polygon id="XMLID_245_" class="st7" points="229,230.8 306.1,307.9 229,307.9 			"/>
			<polygon id="XMLID_244_" class="st8" points="151.9,230.8 229,230.8 151.9,307.9 			"/>
			<polygon id="XMLID_243_" class="st9" points="74.8,307.9 74.8,385 -2.3,307.9 			"/>
			<polygon id="XMLID_242_" class="st10" points="151.9,307.9 151.9,385 74.8,385 			"/>
			<polygon id="XMLID_241_" class="st11" points="151.9,616.4 74.8,616.4 74.8,539.2 			"/>
			<polygon id="XMLID_240_" class="st12" points="151.9,462.1 151.9,539.2 74.8,539.2 			"/>
			<polygon id="XMLID_239_" class="st13" points="151.9,385 229,385 151.9,462.1 			"/>
			<polygon id="XMLID_238_" class="st14" points="229,307.9 229,385 151.9,307.9 			"/>
			<polygon id="XMLID_237_" class="st15" points="151.9,539.2 229,539.2 151.9,616.4 			"/>
			<polygon id="XMLID_236_" class="st16" points="229,539.2 306.1,616.4 229,616.4 			"/>
			<polygon id="XMLID_235_" class="st17" points="229,616.4 229,693.5 151.9,616.4 			"/>
			<polygon id="XMLID_234_" class="st18" points="383.3,307.9 383.3,385 306.1,307.9 			"/>
			<polygon id="XMLID_233_" class="st19" points="383.3,616.4 383.3,693.5 306.1,616.4 			"/>
			<polygon id="XMLID_232_" class="st20" points="-79.5,307.9 -2.3,307.9 -79.5,385 			"/>
			<polygon id="XMLID_231_" class="st21" points="151.9,76.5 151.9,153.6 74.8,76.5 			"/>
			<polygon id="XMLID_230_" class="st22" points="151.9,230.8 151.9,307.9 74.8,230.8 			"/>
			<polygon id="XMLID_229_" class="st23" points="74.8,307.9 151.9,307.9 74.8,385 			"/>
			<polygon id="XMLID_209_" class="st24" points="151.9,385 151.9,462.1 74.8,385 			"/>
			<polygon id="XMLID_207_" class="st25" points="151.9,539.2 151.9,616.4 74.8,539.2 			"/>
			<polygon id="XMLID_206_" class="st26" points="229,-0.7 306.1,-0.7 229,76.5 			"/>
			<polygon id="XMLID_205_" class="st27" points="151.9,-0.7 229,76.5 151.9,76.5 			"/>
			<polygon id="XMLID_204_" class="st28" points="151.9,153.6 229,230.8 151.9,230.8 			"/>
			<polygon id="XMLID_203_" class="st29" points="229,307.9 306.1,307.9 229,385 			"/>
			<polygon id="XMLID_202_" class="st30" points="151.9,462.1 229,539.2 151.9,539.2 			"/>
			<polygon id="XMLID_201_" class="st31" points="229,539.2 229,616.4 151.9,616.4 			"/>
			<polygon id="XMLID_200_" class="st32" points="229,616.4 306.1,616.4 229,693.5 			"/>
			<polygon id="XMLID_199_" class="st33" points="383.3,539.2 383.3,616.4 306.1,616.4 			"/>
			<polygon id="XMLID_198_" class="st21" points="-2.3,76.5 -2.3,-0.7 74.8,76.5 			"/>
			<polygon id="XMLID_197_" class="st23" points="-2.3,307.9 74.8,385 -2.3,385 			"/>
			<polygon id="XMLID_196_" class="st34" points="-2.3,230.8 74.8,230.8 -2.3,307.9 			"/>
			<polygon id="XMLID_186_" class="st9" points="74.8,539.2 -2.3,616.4 -2.3,539.2 			"/>
			<polygon id="XMLID_171_" class="st35" points="74.8,385 74.8,462.1 -2.3,462.1 			"/>
			<polygon id="XMLID_155_" class="st6" points="74.8,76.5 151.9,153.6 74.8,153.6 			"/>
			<polygon id="XMLID_151_" class="st36" points="-2.3,385 74.8,385 -2.3,462.1 			"/>
			<polygon id="XMLID_150_" class="st37" points="74.8,385 151.9,462.1 74.8,462.1 			"/>
			<polygon id="XMLID_149_" class="st9" points="-2.3,385 -2.3,462.1 -79.5,385 			"/>
			<polygon id="XMLID_146_" class="st38" points="74.8,153.6 151.9,153.6 74.8,230.8 			"/>
			<polygon id="XMLID_145_" class="st39" points="-2.3,153.6 74.8,230.8 -2.3,230.8 			"/>
			<polygon id="XMLID_144_" class="st40" points="74.8,462.1 151.9,462.1 74.8,539.2 			"/>
			<polygon id="XMLID_143_" class="st41" points="74.8,153.6 74.8,230.8 -2.3,153.6 			"/>
			<polygon id="XMLID_142_" class="st42" points="-2.3,307.9 -2.3,385 -79.5,385 			"/>
			<polygon id="XMLID_141_" class="st43" points="-2.3,462.1 -79.5,462.1 -79.5,385 			"/>
			<polygon id="XMLID_121_" class="st44" points="-2.3,230.8 -2.3,307.9 -79.5,230.8 			"/>
			<polygon id="XMLID_107_" class="st45" points="229,153.6 306.1,153.6 229,230.8 			"/>
			<polygon id="XMLID_106_" class="st46" points="229,462.1 306.1,462.1 229,539.2 			"/>
			<polygon id="XMLID_105_" class="st47" points="306.1,-0.7 383.3,76.5 306.1,76.5 			"/>
			<polygon id="XMLID_104_" class="st48" points="306.1,307.9 383.3,385 306.1,385 			"/>
			<polygon id="XMLID_103_" class="st49" points="383.3,385 383.3,462.1 306.1,462.1 			"/>
			<polygon id="XMLID_102_" class="st50" points="306.1,230.8 383.3,230.8 306.1,307.9 			"/>
			<polygon id="XMLID_101_" class="st51" points="306.1,539.2 383.3,539.2 306.1,616.4 			"/>
			<polygon id="XMLID_100_" class="st52" points="229,76.5 306.1,153.6 229,153.6 			"/>
			<polygon id="XMLID_99_" class="st53" points="383.3,153.6 383.3,230.8 306.1,153.6 			"/>
			<polygon id="XMLID_98_" class="st54" points="229,385 306.1,462.1 229,462.1 			"/>
			<polygon id="XMLID_97_" class="st55" points="306.1,307.9 306.1,385 229,385 			"/>
			<polygon id="XMLID_96_" class="st56" points="383.3,462.1 383.3,539.2 306.1,462.1 			"/>
			<polygon id="XMLID_94_" class="st57" points="306.1,230.8 306.1,307.9 229,230.8 			"/>
			<polygon id="XMLID_93_" class="st58" points="306.1,539.2 306.1,616.4 229,539.2 			"/>
			<polygon id="XMLID_92_" class="st59" points="229,153.6 229,230.8 151.9,153.6 			"/>
			<polygon id="XMLID_89_" class="st60" points="306.1,153.6 306.1,230.8 229,230.8 			"/>
			<polygon id="XMLID_88_" class="st61" points="306.1,76.5 383.3,76.5 306.1,153.6 			"/>
			<polygon id="XMLID_87_" class="st62" points="306.1,462.1 306.1,539.2 229,539.2 			"/>
			<polygon id="XMLID_86_" class="st63" points="229,462.1 229,539.2 151.9,462.1 			"/>
			<polygon id="XMLID_85_" class="st30" points="153.4,616.4 153.4,694.9 74.9,616.4 			"/>
			<polygon id="XMLID_83_" class="st30" points="307.6,693.2 229,693.2 307.6,614.7 			"/>
			<polygon id="XMLID_82_" class="st64" points="306.1,385 383.3,385 306.1,462.1 			"/>
			<polygon id="XMLID_79_" class="st65" points="306.1,76.5 306.1,153.6 229,76.5 			"/>
			<polyline id="XMLID_77_" class="st66" points="229,76.5 229,153.6 151.9,153.6 			"/>
			<polygon id="XMLID_76_" class="st67" points="306.1,385 306.1,462.1 229,385 			"/>
			<polygon id="XMLID_75_" class="st68" points="229,386 229,463.1 151.9,463.1 			"/>
			<polygon id="XMLID_74_" class="st69" points="306.1,153.6 383.3,230.8 306.1,230.8 			"/>
			<polygon id="XMLID_73_" class="st70" points="306.1,462.1 383.3,539.2 306.1,539.2 			"/>
			<polygon id="XMLID_72_" class="st71" points="74.8,307.9 74.8,230.8 -2.3,307.9 			"/>
			<polygon id="XMLID_71_" class="st72" points="-79.5,539.2 -156.6,539.2 -79.5,462.1 			"/>
			<polygon id="XMLID_69_" class="st73" points="-2.3,462.1 -2.3,539.2 -79.5,462.1 			"/>
			<polygon id="XMLID_68_" class="st73" points="-2,616.6 -2,693.7 -79.1,616.6 			"/>
			<polygon id="XMLID_64_" class="st74" points="-156.6,307.9 -79.5,307.9 -156.6,385 			"/>
			<polygon id="XMLID_63_" class="st75" points="-156.6,462.1 -156.6,539.2 -233.7,462.1 			"/>
			<polygon id="XMLID_61_" class="st76" points="-79.5,153.6 -2.3,153.6 -2.3,230.8 			"/>
			<polygon id="XMLID_60_" class="st76" points="-2.3,616.4 74.8,616.4 74.8,693.6 			"/>
			<polygon id="XMLID_59_" class="st77" points="-79.5,153.6 -156.6,230.8 -156.6,153.6 			"/>
			<polygon id="XMLID_58_" class="st38" points="-2.3,153.6 -2.3,76.5 74.8,153.6 			"/>
			<polygon id="XMLID_57_" class="st78" points="-156.6,76.5 -79.5,-0.7 -79.5,76.5 			"/>
			<polygon id="XMLID_56_" class="st79" points="-156.6,230.8 -233.7,230.8 -233.7,153.6 			"/>
			<polygon id="XMLID_55_" class="st80" points="151.9,693.5 74.8,693.5 74.8,616.4 			"/>
			<polygon id="XMLID_52_" class="st81" points="-156.6,462.1 -156.6,385 -79.5,462.1 			"/>
			<polygon id="XMLID_51_" class="st82" points="-233.7,385 -156.6,385 -233.7,462.1 			"/>
			<polygon id="XMLID_50_" class="st83" points="-156.6,230.8 -79.5,230.8 -79.5,307.9 			"/>
			<polygon id="XMLID_49_" class="st84" points="-79.5,153.6 -2.3,76.5 -2.3,153.6 			"/>
		</g>
		<g>
			<g>
				<g>
					<defs>
						<rect id="SVGID_3_" x="204.8" y="64.9" width="178.6" height="622.9"/>
					</defs>
					<clipPath id="SVGID_4_">
						<use xlink:href="#SVGID_3_"  style="overflow:visible;"/>
					</clipPath>
					<g id="XMLID_14_" class="st85">
						<polygon id="XMLID_48_" class="st86" points="568.9,626.6 538.6,530.8 574.6,552.6 						"/>
						<polygon id="XMLID_47_" class="st86" points="533.9,401.1 574.6,552.6 538.6,530.8 445.8,491.1 						"/>
						<polygon id="XMLID_45_" class="st86" points="587.8,441.8 560.9,435.7 542,431.5 533.9,401.1 						"/>
						<polygon id="XMLID_24_" class="st86" points="595.3,476.9 560.7,435.7 587.7,441.8 						"/>
						<polygon id="XMLID_23_" class="st86" points="533.9,401.1 355.8,381.2 445.8,491.1 						"/>
						<polygon id="XMLID_22_" class="st86" points="308.4,495.8 445.8,491.1 284.7,395.5 						"/>
						<polygon id="XMLID_21_" class="st86" points="355.8,381.2 284.7,395.5 445.8,491.1 						"/>
						<polygon id="XMLID_20_" class="st86" points="308.4,495.8 315,626.6 355.8,494.2 						"/>
						<polygon id="XMLID_19_" class="st86" points="568.9,626.6 556.6,626.6 556.6,587.7 						"/>
						<polygon id="XMLID_18_" class="st86" points="272.4,208.8 284.7,395.5 355.8,381.2 						"/>
						<polygon id="XMLID_17_" class="st86" points="306.1,106.6 272.4,208.8 300.3,266.4 						"/>
						<polygon id="XMLID_16_" class="st86" points="243.3,125.5 250.7,141.6 294.5,141.6 306.1,106.6 						"/>
						<polygon id="XMLID_15_" class="st86" points="315,626.6 297,626.6 312.6,578.7 						"/>
					</g>
				</g>
			</g>
		</g>
	</g>
</g>
<g>
	<g>
		<polygon class="st87" points="204.6,751.1 216.1,751.1 216.1,795.8 236.1,795.8 236.1,805 204.6,805 		"/>
		<path class="st87" d="M241.9,794.9c0-10.3,10.6-14,21.1-14h1.4v-2.3c0-3.8-1.7-5.5-6.4-5.5c-4.3,0-7.7,1.9-10,3.7l-4.7-6.6
			c3.2-2.9,8.5-5.7,16-5.7c10.8,0,15.9,4.1,15.9,14.6v14.2c0,5.3,0.6,9.2,1.1,11.7h-10.6c-0.3-1-0.6-3-0.6-4.2
			c-2.1,2.6-6,5.2-11.1,5.2C247.1,806,241.9,801.9,241.9,794.9 M264.3,794.6v-7.1H263c-6.3,0-10.7,1.9-10.7,6.5
			c0,2.9,2.3,4.1,4.8,4.1C260.5,798.1,262.7,796.6,264.3,794.6"/>
		<path class="st87" d="M282,802.3l3.6-7.5c1.5,1.1,5.3,3.2,9.7,3.2c4.1,0,6.5-1.2,6.5-3.6c0-2.7-4.4-3.4-10-6.1
			c-5.5-2.6-8.8-5.7-8.8-11.7c0-7.4,5.8-12.1,14.7-12.1c6.7,0,10.8,2.1,12.6,3.2l-3.8,7.4c-1.5-1-4.6-2.5-8.4-2.5s-5.4,1.4-5.4,3.5
			c0,2.7,3.6,3.4,8.1,5.2c6.2,2.6,10.8,5.4,10.8,12.1c0,8.3-5.9,12.6-15.6,12.6C289,806,284.5,803.9,282,802.3"/>
		<path class="st87" d="M316.8,785.1c0-12.5,8.6-20.5,19.5-20.5c11.2,0,17.2,7.1,17.2,19.4c0,1.2-0.1,2.4-0.2,3.7h-24.9
			c0.5,5.8,3.5,10.2,10,10.2c5.3,0,8.3-1.8,10.3-2.8l3.5,7c-2.6,1.5-6.6,3.8-14.7,3.8C324.3,806,316.8,797.6,316.8,785.1 M343,780.5
			c-0.1-4.5-1.9-8.1-6.8-8.1c-4.6,0-7.1,3-7.9,8.1H343z"/>
		<path class="st87" d="M361.7,765.6h10.8v5.3c1.7-2.9,4.9-6.3,10-6.3c2.9,0,4.5,0.6,5.3,1.1l-2.6,9.4c-0.6-0.4-1.9-0.9-4.1-0.9
			c-4.8,0-7.6,4.2-8.6,6v24.9h-10.8L361.7,765.6L361.7,765.6z"/>
		<polygon class="st87" points="419.8,760.5 404.8,760.5 404.8,751.1 446,751.1 446,760.5 431.3,760.5 431.3,805 419.8,805 		"/>
		<path class="st87" d="M444.3,785.1c0-12.5,8.6-20.5,19.5-20.5c11.2,0,17.2,7.1,17.2,19.4c0,1.2-0.1,2.4-0.2,3.7H456
			c0.5,5.8,3.5,10.2,10,10.2c5.3,0,8.3-1.8,10.3-2.8l3.5,7c-2.6,1.5-6.6,3.8-14.7,3.8C451.8,806,444.3,797.6,444.3,785.1
			 M470.5,780.5c-0.1-4.5-1.9-8.1-6.8-8.1c-4.6,0-7.1,3-7.9,8.1H470.5z"/>
		<path class="st87" d="M486.3,785.3c0-13.3,8.8-20.7,20.7-20.7c6.4,0,10.2,1.9,12.1,3.2l-3.5,7.4c-1.8-1.1-4.3-2.3-8.3-2.3
			c-6.3,0-9.6,4.9-9.6,12.2c0,7.3,3.2,12.6,9.9,12.6c4.5,0,7.3-1.7,8.5-2.4l3.3,7.2c-1.9,1.2-5.5,3.6-12.7,3.6
			C494.2,806,486.3,797.6,486.3,785.3"/>
		<path class="st87" d="M526.2,746.7H537v23.6c2-2.2,5.8-5.8,12.3-5.8c8.7,0,11.8,5.5,11.8,12.8v27.6h-10.8v-25.4c0-4-1.4-6-5.2-6
			c-4.2,0-7.4,3.9-8.2,4.9v26.5H526v-58.2L526.2,746.7L526.2,746.7z"/>
	</g>
	<rect x="498.8" y="819.9" class="st87" width="62.2" height="5.3"/>
	<path class="st87" d="M268.5,861.1c0-0.5,0-1-0.1-1.7c0-0.6-0.1-1.3-0.1-2c0-0.7,0-1.3-0.1-1.9c0-0.6-0.1-1-0.1-1.4h3.2
		c0,0.9,0.1,1.8,0.1,2.7c0,0.8,0.1,1.4,0.1,1.6h0.2c0.6-1.3,1.7-2.5,3.2-3.5s3.2-1.5,5.2-1.5c1.6,0,3.1,0.4,4.5,1.2
		c1.3,0.8,2.3,2.2,2.9,4.1c0.8-1.8,1.9-3.2,3.5-4c1.5-0.9,3.2-1.3,4.9-1.3c1.9,0,3.5,0.3,4.7,0.9c1.2,0.6,2.2,1.4,2.9,2.4
		c0.7,1,1.2,2.1,1.4,3.4c0.2,1.3,0.4,2.6,0.4,3.9v14.6H302v-14.4c0-1-0.1-2-0.3-2.9s-0.5-1.8-0.9-2.5c-0.4-0.7-1.1-1.3-1.9-1.8
		c-0.8-0.4-1.8-0.7-3.1-0.7c-1.5,0-2.7,0.3-3.7,0.8c-0.9,0.6-1.7,1.3-2.3,2.1c-0.5,0.9-0.9,1.8-1.2,2.8c-0.2,1-0.3,1.9-0.3,2.8v13.8
		h-3.2V864c0-2.3-0.4-4.1-1.3-5.5c-0.8-1.4-2.1-2.1-3.8-2.1c-1.2,0-2.3,0.2-3.3,0.6c-1,0.4-1.9,1-2.7,1.9c-0.8,0.8-1.4,1.9-1.8,3.1
		c-0.4,1.3-0.7,2.7-0.7,4.4v12.3h-3.2L268.5,861.1L268.5,861.1z"/>
	<path class="st87" d="M268.5,861.1c0-0.5,0-1-0.1-1.7c0-0.6-0.1-1.3-0.1-2c0-0.7,0-1.3-0.1-1.9c0-0.6-0.1-1-0.1-1.4h3.2
		c0,0.9,0.1,1.8,0.1,2.7c0,0.8,0.1,1.4,0.1,1.6h0.2c0.6-1.3,1.7-2.5,3.2-3.5s3.2-1.5,5.2-1.5c1.6,0,3.1,0.4,4.5,1.2
		c1.3,0.8,2.3,2.2,2.9,4.1c0.8-1.8,1.9-3.2,3.5-4c1.5-0.9,3.2-1.3,4.9-1.3c1.9,0,3.5,0.3,4.7,0.9c1.2,0.6,2.2,1.4,2.9,2.4
		c0.7,1,1.2,2.1,1.4,3.4c0.2,1.3,0.4,2.6,0.4,3.9v14.6H302v-14.4c0-1-0.1-2-0.3-2.9s-0.5-1.8-0.9-2.5c-0.4-0.7-1.1-1.3-1.9-1.8
		c-0.8-0.4-1.8-0.7-3.1-0.7c-1.5,0-2.7,0.3-3.7,0.8c-0.9,0.6-1.7,1.3-2.3,2.1c-0.5,0.9-0.9,1.8-1.2,2.8c-0.2,1-0.3,1.9-0.3,2.8v13.8
		h-3.2V864c0-2.3-0.4-4.1-1.3-5.5c-0.8-1.4-2.1-2.1-3.8-2.1c-1.2,0-2.3,0.2-3.3,0.6c-1,0.4-1.9,1-2.7,1.9c-0.8,0.8-1.4,1.9-1.8,3.1
		c-0.4,1.3-0.7,2.7-0.7,4.4v12.3h-3.2L268.5,861.1L268.5,861.1z"/>
	<path class="st87" d="M348.7,868.5c0,1.2,0,2.3,0,3.2c0,1,0,1.8,0.1,2.7c0,0.8,0.1,1.6,0.1,2.3c0.1,0.7,0.1,1.4,0.2,2.1h-3
		c-0.2-1.2-0.3-2.6-0.3-4h-0.1c-0.9,1.6-2.1,2.8-3.4,3.5c-1.4,0.7-3.1,1.1-5.2,1.1c-1.1,0-2.1-0.1-3.1-0.4s-1.9-0.7-2.8-1.3
		c-0.8-0.6-1.5-1.3-2-2.3c-0.5-0.9-0.8-2-0.8-3.3c0-1.9,0.5-3.4,1.4-4.4c1-1.1,2.1-1.9,3.5-2.5c1.4-0.6,2.9-0.9,4.5-1.1
		c1.6-0.2,3-0.2,4.2-0.2h3.7v-1.5c0-2.1-0.6-3.6-2-4.6c-1.3-0.9-3-1.4-4.9-1.4c-2.8,0-5.3,0.9-7.5,2.8l-1.9-2.2
		c1.2-1.1,2.6-2,4.4-2.6c1.7-0.6,3.4-0.9,5-0.9c3,0,5.3,0.7,7.1,2.1c1.8,1.4,2.7,3.7,2.7,6.8L348.7,868.5L348.7,868.5z M342.3,866.4
		c-1.3,0-2.6,0.1-3.9,0.3c-1.3,0.2-2.4,0.5-3.4,0.9s-1.8,1-2.4,1.7c-0.6,0.7-0.9,1.6-0.9,2.7c0,0.7,0.2,1.4,0.5,2s0.8,1.1,1.3,1.4
		c0.5,0.4,1.1,0.7,1.8,0.8c0.6,0.2,1.3,0.3,2,0.3c1.7,0,3.1-0.2,4.2-0.7c1.1-0.5,2-1.1,2.6-1.9c0.7-0.8,1.1-1.7,1.4-2.7
		c0.2-1,0.4-2,0.4-3.1v-1.6h-3.6V866.4z"/>
	<path class="st87" d="M348.7,868.5c0,1.2,0,2.3,0,3.2c0,1,0,1.8,0.1,2.7c0,0.8,0.1,1.6,0.1,2.3c0.1,0.7,0.1,1.4,0.2,2.1h-3
		c-0.2-1.2-0.3-2.6-0.3-4h-0.1c-0.9,1.6-2.1,2.8-3.4,3.5c-1.4,0.7-3.1,1.1-5.2,1.1c-1.1,0-2.1-0.1-3.1-0.4s-1.9-0.7-2.8-1.3
		c-0.8-0.6-1.5-1.3-2-2.3c-0.5-0.9-0.8-2-0.8-3.3c0-1.9,0.5-3.4,1.4-4.4c1-1.1,2.1-1.9,3.5-2.5c1.4-0.6,2.9-0.9,4.5-1.1
		c1.6-0.2,3-0.2,4.2-0.2h3.7v-1.5c0-2.1-0.6-3.6-2-4.6c-1.3-0.9-3-1.4-4.9-1.4c-2.8,0-5.3,0.9-7.5,2.8l-1.9-2.2
		c1.2-1.1,2.6-2,4.4-2.6c1.7-0.6,3.4-0.9,5-0.9c3,0,5.3,0.7,7.1,2.1c1.8,1.4,2.7,3.7,2.7,6.8L348.7,868.5L348.7,868.5z M342.3,866.4
		c-1.3,0-2.6,0.1-3.9,0.3c-1.3,0.2-2.4,0.5-3.4,0.9s-1.8,1-2.4,1.7c-0.6,0.7-0.9,1.6-0.9,2.7c0,0.7,0.2,1.4,0.5,2s0.8,1.1,1.3,1.4
		c0.5,0.4,1.1,0.7,1.8,0.8c0.6,0.2,1.3,0.3,2,0.3c1.7,0,3.1-0.2,4.2-0.7c1.1-0.5,2-1.1,2.6-1.9c0.7-0.8,1.1-1.7,1.4-2.7
		c0.2-1,0.4-2,0.4-3.1v-1.6h-3.6V866.4z"/>
	<path class="st87" d="M373,861.1c0-0.5,0-1-0.1-1.7c0-0.6-0.1-1.3-0.1-2c0-0.7,0-1.3-0.1-1.9c0-0.6-0.1-1-0.1-1.4h3.2
		c0,0.9,0.1,1.8,0.1,2.7c0,0.8,0.1,1.4,0.1,1.6c0.8-1.5,1.9-2.6,3.1-3.6c1.3-0.9,2.8-1.4,4.7-1.4c0.3,0,0.6,0,0.9,0.1
		s0.6,0.1,0.9,0.2l-0.4,3.1c-0.4-0.1-0.8-0.2-1.2-0.2c-1.4,0-2.6,0.2-3.6,0.7c-1,0.4-1.8,1.1-2.5,1.8c-0.7,0.8-1.1,1.7-1.5,2.7
		c-0.3,1-0.5,2.2-0.5,3.4v13.4h-3.2v-17.5L373,861.1L373,861.1z"/>
	<path class="st87" d="M373,861.1c0-0.5,0-1-0.1-1.7c0-0.6-0.1-1.3-0.1-2c0-0.7,0-1.3-0.1-1.9c0-0.6-0.1-1-0.1-1.4h3.2
		c0,0.9,0.1,1.8,0.1,2.7c0,0.8,0.1,1.4,0.1,1.6c0.8-1.5,1.9-2.6,3.1-3.6c1.3-0.9,2.8-1.4,4.7-1.4c0.3,0,0.6,0,0.9,0.1
		s0.6,0.1,0.9,0.2l-0.4,3.1c-0.4-0.1-0.8-0.2-1.2-0.2c-1.4,0-2.6,0.2-3.6,0.7c-1,0.4-1.8,1.1-2.5,1.8c-0.7,0.8-1.1,1.7-1.5,2.7
		c-0.3,1-0.5,2.2-0.5,3.4v13.4h-3.2v-17.5L373,861.1L373,861.1z"/>
	<path class="st87" d="M426.3,875.2c-1.2,1.5-2.6,2.5-4.1,3.2s-3.2,1-4.9,1c-1.9,0-3.6-0.3-5.2-1c-1.6-0.6-2.9-1.5-4.1-2.7
		c-1.1-1.2-2-2.5-2.7-4.1c-0.6-1.6-1-3.3-1-5.2s0.3-3.6,1-5.2c0.6-1.6,1.5-2.9,2.7-4.1s2.5-2,4.1-2.7c1.6-0.6,3.3-1,5.2-1
		c1.8,0,3.5,0.4,5,1.1s2.9,1.8,4.1,3.1l-2.5,1.9c-0.9-1-1.9-1.8-3-2.4c-1.1-0.6-2.3-0.9-3.6-0.9c-1.5,0-2.8,0.3-4,0.8
		s-2.2,1.2-3.1,2.1c-0.8,0.9-1.5,2-1.9,3.2c-0.4,1.2-0.7,2.5-0.7,3.9s0.2,2.7,0.7,3.9s1.1,2.3,1.9,3.2c0.9,0.9,1.9,1.6,3.1,2.1
		s2.5,0.8,4,0.8c1.3,0,2.6-0.3,3.7-0.9c1.1-0.6,2.1-1.4,2.9-2.5L426.3,875.2z"/>
	<path class="st87" d="M426.3,875.2c-1.2,1.5-2.6,2.5-4.1,3.2s-3.2,1-4.9,1c-1.9,0-3.6-0.3-5.2-1c-1.6-0.6-2.9-1.5-4.1-2.7
		c-1.1-1.2-2-2.5-2.7-4.1c-0.6-1.6-1-3.3-1-5.2s0.3-3.6,1-5.2c0.6-1.6,1.5-2.9,2.7-4.1s2.5-2,4.1-2.7c1.6-0.6,3.3-1,5.2-1
		c1.8,0,3.5,0.4,5,1.1s2.9,1.8,4.1,3.1l-2.5,1.9c-0.9-1-1.9-1.8-3-2.4c-1.1-0.6-2.3-0.9-3.6-0.9c-1.5,0-2.8,0.3-4,0.8
		s-2.2,1.2-3.1,2.1c-0.8,0.9-1.5,2-1.9,3.2c-0.4,1.2-0.7,2.5-0.7,3.9s0.2,2.7,0.7,3.9s1.1,2.3,1.9,3.2c0.9,0.9,1.9,1.6,3.1,2.1
		s2.5,0.8,4,0.8c1.3,0,2.6-0.3,3.7-0.9c1.1-0.6,2.1-1.4,2.9-2.5L426.3,875.2z"/>
	<path class="st87" d="M466.3,868.5c0,1.2,0,2.3,0,3.2c0,1,0,1.8,0.1,2.7c0,0.8,0.1,1.6,0.1,2.3c0.1,0.7,0.1,1.4,0.2,2.1h-3
		c-0.2-1.2-0.3-2.6-0.3-4h-0.1c-0.9,1.6-2.1,2.8-3.4,3.5c-1.4,0.7-3.1,1.1-5.2,1.1c-1.1,0-2.1-0.1-3.1-0.4s-1.9-0.7-2.8-1.3
		c-0.8-0.6-1.5-1.3-2-2.3c-0.5-0.9-0.8-2-0.8-3.3c0-1.9,0.5-3.4,1.4-4.4c1-1.1,2.1-1.9,3.5-2.5c1.4-0.6,2.9-0.9,4.5-1.1
		c1.6-0.2,3-0.2,4.2-0.2h3.7v-1.5c0-2.1-0.7-3.6-2-4.6c-1.3-0.9-3-1.4-4.9-1.4c-2.8,0-5.3,0.9-7.5,2.8l-1.9-2.2
		c1.2-1.1,2.6-2,4.4-2.6c1.7-0.6,3.4-0.9,5-0.9c3,0,5.3,0.7,7.1,2.1c1.8,1.4,2.7,3.7,2.7,6.8L466.3,868.5L466.3,868.5z M459.8,866.4
		c-1.3,0-2.6,0.1-3.9,0.3c-1.3,0.2-2.4,0.5-3.4,0.9s-1.8,1-2.4,1.7c-0.6,0.7-0.9,1.6-0.9,2.7c0,0.7,0.2,1.4,0.5,2s0.8,1.1,1.3,1.4
		c0.5,0.4,1.1,0.7,1.8,0.8c0.6,0.2,1.3,0.3,2,0.3c1.7,0,3.1-0.2,4.2-0.7c1.1-0.5,2-1.1,2.6-1.9c0.7-0.8,1.1-1.7,1.4-2.7
		c0.2-1,0.4-2,0.4-3.1v-1.6h-3.6V866.4z"/>
	<path class="st87" d="M466.3,868.5c0,1.2,0,2.3,0,3.2c0,1,0,1.8,0.1,2.7c0,0.8,0.1,1.6,0.1,2.3c0.1,0.7,0.1,1.4,0.2,2.1h-3
		c-0.2-1.2-0.3-2.6-0.3-4h-0.1c-0.9,1.6-2.1,2.8-3.4,3.5c-1.4,0.7-3.1,1.1-5.2,1.1c-1.1,0-2.1-0.1-3.1-0.4s-1.9-0.7-2.8-1.3
		c-0.8-0.6-1.5-1.3-2-2.3c-0.5-0.9-0.8-2-0.8-3.3c0-1.9,0.5-3.4,1.4-4.4c1-1.1,2.1-1.9,3.5-2.5c1.4-0.6,2.9-0.9,4.5-1.1
		c1.6-0.2,3-0.2,4.2-0.2h3.7v-1.5c0-2.1-0.7-3.6-2-4.6c-1.3-0.9-3-1.4-4.9-1.4c-2.8,0-5.3,0.9-7.5,2.8l-1.9-2.2
		c1.2-1.1,2.6-2,4.4-2.6c1.7-0.6,3.4-0.9,5-0.9c3,0,5.3,0.7,7.1,2.1c1.8,1.4,2.7,3.7,2.7,6.8L466.3,868.5L466.3,868.5z M459.8,866.4
		c-1.3,0-2.6,0.1-3.9,0.3c-1.3,0.2-2.4,0.5-3.4,0.9s-1.8,1-2.4,1.7c-0.6,0.7-0.9,1.6-0.9,2.7c0,0.7,0.2,1.4,0.5,2s0.8,1.1,1.3,1.4
		c0.5,0.4,1.1,0.7,1.8,0.8c0.6,0.2,1.3,0.3,2,0.3c1.7,0,3.1-0.2,4.2-0.7c1.1-0.5,2-1.1,2.6-1.9c0.7-0.8,1.1-1.7,1.4-2.7
		c0.2-1,0.4-2,0.4-3.1v-1.6h-3.6V866.4z"/>
	<path class="st87" d="M512,874.5L512,874.5c-0.6,0.9-1.2,1.6-2,2.2c-0.7,0.6-1.5,1.1-2.4,1.5c-0.9,0.4-1.8,0.7-2.7,0.9
		c-1,0.2-1.9,0.3-2.8,0.3c-1.9,0-3.6-0.3-5.2-1c-1.6-0.6-2.9-1.5-4.1-2.7c-1.1-1.2-2-2.5-2.7-4.1c-0.6-1.6-1-3.3-1-5.2
		s0.3-3.6,1-5.2c0.6-1.6,1.5-2.9,2.7-4.1s2.5-2,4.1-2.7c1.6-0.6,3.3-1,5.2-1c0.9,0,1.9,0.1,2.8,0.3c1,0.2,1.9,0.5,2.7,0.9
		c0.9,0.4,1.7,0.9,2.4,1.5s1.4,1.3,1.9,2.2h0.1v-19.9h3.2v40.1H512V874.5L512,874.5z M512.4,866.5c0-1.4-0.3-2.7-0.8-3.9
		c-0.5-1.2-1.3-2.3-2.2-3.2s-2-1.6-3.2-2.1s-2.6-0.8-4-0.8c-1.5,0-2.8,0.3-4,0.8s-2.2,1.2-3.1,2.1c-0.8,0.9-1.5,2-1.9,3.2
		c-0.4,1.2-0.7,2.5-0.7,3.9s0.2,2.7,0.7,3.9c0.4,1.2,1.1,2.3,1.9,3.2c0.8,0.9,1.9,1.6,3.1,2.1s2.5,0.8,4,0.8c1.4,0,2.8-0.3,4-0.8
		s2.3-1.2,3.2-2.1c0.9-0.9,1.6-2,2.2-3.2C512.2,869.2,512.4,867.9,512.4,866.5"/>
	<path class="st87" d="M512,874.5L512,874.5c-0.6,0.9-1.2,1.6-2,2.2c-0.7,0.6-1.5,1.1-2.4,1.5c-0.9,0.4-1.8,0.7-2.7,0.9
		c-1,0.2-1.9,0.3-2.8,0.3c-1.9,0-3.6-0.3-5.2-1c-1.6-0.6-2.9-1.5-4.1-2.7c-1.1-1.2-2-2.5-2.7-4.1c-0.6-1.6-1-3.3-1-5.2
		s0.3-3.6,1-5.2c0.6-1.6,1.5-2.9,2.7-4.1s2.5-2,4.1-2.7c1.6-0.6,3.3-1,5.2-1c0.9,0,1.9,0.1,2.8,0.3c1,0.2,1.9,0.5,2.7,0.9
		c0.9,0.4,1.7,0.9,2.4,1.5s1.4,1.3,1.9,2.2h0.1v-19.9h3.2v40.1H512V874.5L512,874.5z M512.4,866.5c0-1.4-0.3-2.7-0.8-3.9
		c-0.5-1.2-1.3-2.3-2.2-3.2s-2-1.6-3.2-2.1s-2.6-0.8-4-0.8c-1.5,0-2.8,0.3-4,0.8s-2.2,1.2-3.1,2.1c-0.8,0.9-1.5,2-1.9,3.2
		c-0.4,1.2-0.7,2.5-0.7,3.9s0.2,2.7,0.7,3.9c0.4,1.2,1.1,2.3,1.9,3.2c0.8,0.9,1.9,1.6,3.1,2.1s2.5,0.8,4,0.8c1.4,0,2.8-0.3,4-0.8
		s2.3-1.2,3.2-2.1c0.9-0.9,1.6-2,2.2-3.2C512.2,869.2,512.4,867.9,512.4,866.5z"/>
	<path class="st87" d="M537.5,866.5c0-1.9,0.3-3.6,0.9-5.2c0.6-1.6,1.5-2.9,2.7-4.1c1.1-1.2,2.5-2,4.1-2.7c1.6-0.6,3.3-1,5.2-1
		s3.6,0.3,5.2,1c1.6,0.6,3,1.5,4.1,2.7c1.1,1.2,2,2.5,2.7,4.1s1,3.3,1,5.2s-0.3,3.6-1,5.2s-1.5,2.9-2.7,4.1c-1.1,1.1-2.5,2-4.1,2.7
		c-1.6,0.6-3.3,1-5.2,1s-3.6-0.3-5.2-1c-1.6-0.6-2.9-1.5-4.1-2.7c-1.1-1.2-2-2.5-2.7-4.1S537.5,868.4,537.5,866.5 M540.8,866.5
		c0,1.4,0.2,2.7,0.7,3.9c0.4,1.2,1.1,2.3,1.9,3.2c0.8,0.9,1.9,1.6,3.1,2.1c1.2,0.5,2.5,0.8,4,0.8s2.8-0.3,4-0.8s2.2-1.2,3.1-2.1
		c0.8-0.9,1.5-2,1.9-3.2s0.7-2.5,0.7-3.9s-0.2-2.7-0.7-3.9c-0.4-1.2-1.1-2.3-1.9-3.2c-0.9-0.9-1.9-1.6-3.1-2.1
		c-1.2-0.5-2.6-0.8-4-0.8c-1.5,0-2.8,0.3-4,0.8s-2.2,1.2-3.1,2.1c-0.9,0.9-1.5,2-1.9,3.2C541,863.8,540.8,865.1,540.8,866.5"/>
	<path class="st87" d="M537.5,866.5c0-1.9,0.3-3.6,0.9-5.2c0.6-1.6,1.5-2.9,2.7-4.1c1.1-1.2,2.5-2,4.1-2.7c1.6-0.6,3.3-1,5.2-1
		s3.6,0.3,5.2,1c1.6,0.6,3,1.5,4.1,2.7c1.1,1.2,2,2.5,2.7,4.1s1,3.3,1,5.2s-0.3,3.6-1,5.2s-1.5,2.9-2.7,4.1c-1.1,1.1-2.5,2-4.1,2.7
		c-1.6,0.6-3.3,1-5.2,1s-3.6-0.3-5.2-1c-1.6-0.6-2.9-1.5-4.1-2.7c-1.1-1.2-2-2.5-2.7-4.1S537.5,868.4,537.5,866.5z M540.8,866.5
		c0,1.4,0.2,2.7,0.7,3.9c0.4,1.2,1.1,2.3,1.9,3.2c0.8,0.9,1.9,1.6,3.1,2.1c1.2,0.5,2.5,0.8,4,0.8s2.8-0.3,4-0.8s2.2-1.2,3.1-2.1
		c0.8-0.9,1.5-2,1.9-3.2s0.7-2.5,0.7-3.9s-0.2-2.7-0.7-3.9c-0.4-1.2-1.1-2.3-1.9-3.2c-0.9-0.9-1.9-1.6-3.1-2.1
		c-1.2-0.5-2.6-0.8-4-0.8c-1.5,0-2.8,0.3-4,0.8s-2.2,1.2-3.1,2.1c-0.9,0.9-1.5,2-1.9,3.2C541,863.8,540.8,865.1,540.8,866.5z"/>
</g>
</svg>
