<?xml version="1.0" encoding="utf-8"?>
<!-- Generator: Adobe Illustrator 22.0.1, SVG Export Plug-In . SVG Version: 6.00 Build 0)  -->
<svg version="1.1" id="Layer_1" xmlns="http://www.w3.org/2000/svg" xmlns:xlink="http://www.w3.org/1999/xlink" x="0px" y="0px"
	 viewBox="0 0 1366 768" style="enable-background:new 0 0 1366 768;" xml:space="preserve">
<style type="text/css">
	.st0{fill:#EC252E;}
	.st1{fill:#FF7216;}
	.st2{fill:#FF8F29;}
	.st3{fill:#FFA051;}
	.st4{fill:#FF9D50;}
	.st5{fill:#FF714A;}
	.st6{fill:#FF7214;}
	.st7{fill:#FFA352;}
	.st8{fill:#FF8A45;}
	.st9{fill:#FF652D;}
	.st10{fill:#FF6943;}
	.st11{fill:#FF922D;}
	.st12{fill:#FF6C62;}
	.st13{fill:#FF564B;}
	.st14{fill:#F52D47;}
	.st15{fill:#F73348;}
	.st16{fill:#FF392F;}
	.st17{fill:#FF5B45;}
	.st18{fill:#F0274A;}
	.st19{fill:#E41A33;}
	.st20{fill:#F75724;}
	.st21{fill:#FF4133;}
	.st22{fill:#FF8B47;}
	.st23{fill:#FF804D;}
	.st24{fill:#FF7149;}
	.st25{fill:#FF5643;}
	.st26{fill:#FF4E3B;}
	.st27{fill:#FF3A52;}
	.st28{fill:#FF9C41;}
	.st29{fill:#FF934A;}
	.st30{fill:#FF8146;}
	.st31{fill:#FF7324;}
	.st32{fill:#FF6518;}
	.st33{fill:#F8404E;}
	.st34{fill:#FF4A2F;}
	.st35{fill:#D12050;}
	.st36{fill:#FD4E1D;}
	.st37{fill:#C2181D;}
	.st38{fill:#FF5E2E;}
	.st39{fill:#FF5344;}
	.st40{fill:#FB4155;}
	.st41{fill:#FF7935;}
	.st42{fill:#FF7A3E;}
	.st43{fill:#FF3D47;}
	.st44{fill:#FF7024;}
	.st45{fill:#FF4A4E;}
	.st46{fill:#FF2C72;}
	.st47{fill:#FF6343;}
	.st48{fill:#FF862C;}
	.st49{fill:#E92526;}
	.st50{fill:#FF9734;}
	.st51{fill:#FF7F10;}
	.st52{fill:#F85F2C;}
	.st53{fill:#F2422D;}
	.st54{fill:#CF1E29;}
	.st55{fill:#FF6515;}
	.st56{fill:#C5181E;}
	.st57{fill:#FF8A23;}
	.st58{fill:#FF820B;}
	.st59{fill:#FF7312;}
	.st60{fill:#F44F3D;}
	.st61{fill:#F7491E;}
	.st62{fill:#EE3628;}
	.st63{fill:#FF732F;}
	.st64{fill:#FF7933;}
	.st65{fill:#FF6E11;}
	.st66{fill:#FF881A;}
	.st67{fill:#E03228;}
	.st68{fill:#F83C2B;}
	.st69{fill:#E2462D;}
	.st70{fill:#FF8528;}
	.st71{fill:#FF8D28;}
	.st72{fill:#FF4A2A;}
	.st73{fill:#FF5E4A;}
	.st74{fill:#F32527;}
	.st75{fill:#FF5B34;}
	.st76{fill:#FF3A5C;}
	.st77{fill:#FF414B;}
	.st78{fill:#FF315F;}
	.st79{fill:#E61E6F;}
	.st80{fill:#FF7031;}
	.st81{fill:#FF6537;}
	.st82{fill:#FF6646;}
	.st83{fill:#FF5C56;}
	.st84{fill:#F12048;}
	.st85{fill:#FF3845;}
	.st86{fill:#FF4E48;}
	.st87{fill:#FF4E4D;}
	.st88{fill:#C21346;}
	.st89{fill:#C41738;}
	.st90{fill:#EA222E;}
	.st91{clip-path:url(#SVGID_2_);}
	.st92{fill:none;stroke:#FFFFFF;stroke-width:3;stroke-linejoin:round;stroke-miterlimit:10;}
	.st93{fill:#DF101C;}
</style>
<g>
	<g id="XMLID_1773_">
		<polygon id="XMLID_1780_" class="st0" points="359.4,362.1 335,326.3 289.2,367.5 		"/>
		<polygon id="XMLID_1779_" class="st1" points="333.5,326.1 456.5,336.6 402.6,422.7 		"/>
		<polygon id="XMLID_1778_" class="st2" points="607.6,403.1 402.6,422.7 519.8,235.5 		"/>
		<polygon id="XMLID_1777_" class="st0" points="607.6,403.1 660.9,605.5 569.7,531.4 		"/>
		<polygon id="XMLID_1776_" class="st1" points="743.8,185.3 607.6,403.1 519.8,235.5 		"/>
		<polygon id="XMLID_1775_" class="st0" points="725.7,214 790.6,211.4 607.6,403.1 		"/>
		<polygon id="XMLID_1774_" class="st1" points="607.6,403.1 578.2,502.7 422.1,453.4 402.6,422.7 		"/>
	</g>
	<g>
		<g>
			<polygon id="XMLID_1772_" class="st3" points="559.5,395.3 497.4,395.3 497.4,333.2 			"/>
			<polygon id="XMLID_1771_" class="st4" points="559.5,271.1 559.5,333.2 497.4,333.2 			"/>
			<polygon id="XMLID_1770_" class="st5" points="373.2,333.2 311.1,395.3 311.1,333.2 			"/>
			<polygon id="XMLID_1769_" class="st6" points="435.3,395.3 373.2,395.3 373.2,333.2 			"/>
			<polygon id="XMLID_1768_" class="st7" points="559.5,457.3 497.4,457.3 559.5,395.3 			"/>
			<polygon id="XMLID_1767_" class="st8" points="497.4,395.3 497.4,457.3 435.3,395.3 			"/>
			<polygon id="XMLID_1766_" class="st9" points="373.2,457.3 311.1,519.4 311.1,457.3 			"/>
			<polygon id="XMLID_1765_" class="st10" points="373.2,395.3 373.2,457.3 311.1,395.3 			"/>
			<polygon id="XMLID_1764_" class="st11" points="559.5,581.5 497.4,581.5 559.5,519.4 			"/>
			<polygon id="XMLID_1763_" class="st12" points="311.1,333.2 249,333.2 311.1,271.1 			"/>
			<polygon id="XMLID_1762_" class="st13" points="311.1,395.3 249,395.3 249,333.2 			"/>
			<polygon id="XMLID_1761_" class="st14" points="62.8,395.3 62.8,333.2 124.8,333.2 			"/>
			<polygon id="XMLID_1760_" class="st15" points="186.9,395.3 124.8,395.3 124.8,333.2 			"/>
			<polygon id="XMLID_1759_" class="st16" points="249,395.3 249,457.3 186.9,395.3 			"/>
			<polygon id="XMLID_1758_" class="st17" points="311.1,457.3 249,457.3 311.1,395.3 			"/>
			<polygon id="XMLID_1757_" class="st18" points="124.8,395.3 124.8,457.3 62.8,395.3 			"/>
			<polygon id="XMLID_1756_" class="st19" points="124.8,457.3 62.8,519.4 62.8,457.3 			"/>
			<polygon id="XMLID_1755_" class="st20" points="311.1,581.5 249,581.5 311.1,519.4 			"/>
			<polygon id="XMLID_1754_" class="st21" points="311.1,209 311.1,271.1 249,209 			"/>
			<polygon id="XMLID_1753_" class="st22" points="559.5,333.2 559.5,395.3 497.4,333.2 			"/>
			<polygon id="XMLID_1752_" class="st23" points="497.4,395.3 435.3,395.3 497.4,333.2 			"/>
			<polygon id="XMLID_1751_" class="st24" points="373.2,395.3 311.1,395.3 373.2,333.2 			"/>
			<polygon id="XMLID_1750_" class="st25" points="311.1,333.2 311.1,395.3 249,333.2 			"/>
			<polygon id="XMLID_1749_" class="st26" points="249,395.3 186.9,395.3 249,333.2 			"/>
			<polygon id="XMLID_1748_" class="st27" points="124.8,395.3 62.8,395.3 124.8,333.2 			"/>
			<polygon id="XMLID_1747_" class="st28" points="559.5,457.3 559.5,519.4 497.4,457.3 			"/>
			<polygon id="XMLID_1746_" class="st29" points="559.5,395.3 497.4,457.3 497.4,395.3 			"/>
			<polygon id="XMLID_1745_" class="st30" points="435.3,395.3 373.2,457.3 373.2,395.3 			"/>
			<polygon id="XMLID_1744_" class="st31" points="373.2,457.3 311.1,457.3 311.1,395.3 			"/>
			<polygon id="XMLID_1743_" class="st32" points="311.1,457.3 311.1,519.4 249,457.3 			"/>
			<polygon id="XMLID_1742_" class="st33" points="311.1,395.3 249,457.3 249,395.3 			"/>
			<polygon id="XMLID_1741_" class="st34" points="186.9,395.3 124.8,457.3 124.8,395.3 			"/>
			<polygon id="XMLID_1740_" class="st35" points="0.7,457.3 0.7,395.3 62.8,395.3 			"/>
			<polygon id="XMLID_1739_" class="st36" points="373.2,581.5 311.1,581.5 311.1,519.4 			"/>
			<polygon id="XMLID_1738_" class="st37" points="124.8,581.5 62.8,581.5 62.8,519.4 			"/>
			<polygon id="XMLID_1737_" class="st23" points="497.4,271.1 559.5,271.1 497.4,333.2 			"/>
			<polygon id="XMLID_1736_" class="st25" points="311.1,271.1 249,333.2 249,271.1 			"/>
			<polygon id="XMLID_1735_" class="st38" points="373.2,271.1 373.2,333.2 311.1,271.1 			"/>
			<polygon id="XMLID_1734_" class="st12" points="124.8,333.2 62.8,271.1 124.8,271.1 			"/>
			<polygon id="XMLID_1733_" class="st39" points="249,333.2 186.9,333.2 186.9,271.1 			"/>
			<polygon id="XMLID_1732_" class="st8" points="497.4,333.2 435.3,395.3 435.3,333.2 			"/>
			<polygon id="XMLID_1731_" class="st40" points="249,271.1 249,333.2 186.9,271.1 			"/>
			<polygon id="XMLID_1730_" class="st33" points="249,333.2 186.9,395.3 186.9,333.2 			"/>
			<polygon id="XMLID_1729_" class="st12" points="249,271.1 186.9,271.1 249,209 			"/>
			<polygon id="XMLID_1728_" class="st41" points="435.3,333.2 435.3,395.3 373.2,333.2 			"/>
			<polygon id="XMLID_1727_" class="st42" points="435.3,271.1 373.2,333.2 373.2,271.1 			"/>
			<polygon id="XMLID_1726_" class="st43" points="186.9,333.2 186.9,395.3 124.8,333.2 			"/>
			<polygon id="XMLID_1725_" class="st44" points="435.3,333.2 373.2,333.2 435.3,271.1 			"/>
			<polygon id="XMLID_1724_" class="st45" points="311.1,271.1 249,271.1 249,209 			"/>
			<polygon id="XMLID_1723_" class="st46" points="186.9,271.1 186.9,209 249,209 			"/>
			<polygon id="XMLID_1722_" class="st47" points="373.2,271.1 311.1,271.1 373.2,209 			"/>
			<polygon id="XMLID_1721_" class="st48" points="435.3,457.3 435.3,519.4 373.2,457.3 			"/>
			<polygon id="XMLID_1720_" class="st49" points="186.9,457.3 186.9,519.4 124.8,457.3 			"/>
			<polygon id="XMLID_1719_" class="st50" points="559.5,519.4 497.4,581.5 497.4,519.4 			"/>
			<polygon id="XMLID_1718_" class="st51" points="497.4,581.5 435.3,581.5 435.3,519.4 			"/>
			<polygon id="XMLID_1717_" class="st52" points="311.1,519.4 249,581.5 249,519.4 			"/>
			<polygon id="XMLID_1716_" class="st53" points="249,581.5 186.9,581.5 186.9,519.4 			"/>
			<polygon id="XMLID_1715_" class="st54" points="62.8,519.4 0.7,581.5 0.7,519.4 			"/>
			<polygon id="XMLID_1714_" class="st55" points="373.2,519.4 373.2,581.5 311.1,519.4 			"/>
			<polygon id="XMLID_1713_" class="st56" points="124.8,519.4 124.8,581.5 62.8,519.4 			"/>
			<polygon id="XMLID_1712_" class="st57" points="559.5,519.4 497.4,519.4 497.4,457.3 			"/>
			<polygon id="XMLID_1711_" class="st58" points="497.4,457.3 435.3,519.4 435.3,457.3 			"/>
			<polygon id="XMLID_1710_" class="st59" points="435.3,581.5 373.2,581.5 435.3,519.4 			"/>
			<polygon id="XMLID_1709_" class="st60" points="249,457.3 186.9,519.4 186.9,457.3 			"/>
			<polygon id="XMLID_1708_" class="st61" points="311.1,519.4 249,519.4 249,457.3 			"/>
			<polygon id="XMLID_1707_" class="st62" points="186.9,581.5 124.8,581.5 186.9,519.4 			"/>
			<polygon id="XMLID_1706_" class="st63" points="373.2,519.4 311.1,519.4 373.2,457.3 			"/>
			<polygon id="XMLID_1705_" class="st64" points="435.3,457.3 373.2,457.3 435.3,395.3 			"/>
			<polygon id="XMLID_1704_" class="st65" points="435.3,519.4 373.2,519.4 373.2,457.3 			"/>
			<polygon id="XMLID_1703_" class="st66" points="497.4,519.4 497.4,581.5 435.3,519.4 			"/>
			<polygon id="XMLID_1702_" class="st67" points="186.9,519.4 124.8,519.4 124.8,457.3 			"/>
			<polygon id="XMLID_1701_" class="st68" points="186.9,457.3 124.8,457.3 186.9,395.3 			"/>
			<polygon id="XMLID_1700_" class="st34" points="62.7,396.4 -0.5,396.4 62.7,333.2 			"/>
			<polygon id="XMLID_1699_" class="st69" points="249,519.4 249,581.5 186.9,519.4 			"/>
			<polygon id="XMLID_1698_" class="st70" points="497.4,519.4 435.3,519.4 497.4,457.3 			"/>
			<polygon id="XMLID_1697_" class="st71" points="497.4,457.3 435.3,457.3 435.3,395.3 			"/>
			<polygon id="XMLID_1696_" class="st72" points="249,519.4 186.9,519.4 249,457.3 			"/>
			<polygon id="XMLID_1695_" class="st73" points="248.3,457.3 186.2,457.3 186.2,395.3 			"/>
			<polygon id="XMLID_1694_" class="st51" points="435.3,519.4 373.2,581.5 373.2,519.4 			"/>
			<polygon id="XMLID_1693_" class="st74" points="186.9,519.4 124.8,581.5 124.8,519.4 			"/>
			<polygon id="XMLID_1692_" class="st75" points="311.1,333.2 373.2,333.2 311.1,271.1 			"/>
			<polygon id="XMLID_1691_" class="st76" points="124.8,209 124.8,146.9 186.9,209 			"/>
			<polygon id="XMLID_1690_" class="st77" points="186.9,271.1 124.8,271.1 186.9,209 			"/>
			<polygon id="XMLID_1689_" class="st77" points="62.6,271.3 0.5,271.3 62.6,209.3 			"/>
			<polygon id="XMLID_1688_" class="st78" points="311.1,146.9 311.1,209 249,146.9 			"/>
			<polygon id="XMLID_1687_" class="st79" points="186.9,146.9 124.8,146.9 186.9,84.8 			"/>
			<polygon id="XMLID_1686_" class="st80" points="435.3,209 435.3,271.1 373.2,271.1 			"/>
			<polygon id="XMLID_1685_" class="st80" points="62.7,271.1 62.7,333.1 0.6,333.1 			"/>
			<polygon id="XMLID_1684_" class="st81" points="435.3,209 373.2,146.9 435.3,146.9 			"/>
			<polygon id="XMLID_1683_" class="st41" points="435.3,271.1 497.4,271.1 435.3,333.2 			"/>
			<polygon id="XMLID_1668_" class="st82" points="497.4,146.9 559.5,209 497.4,209 			"/>
			<polygon id="XMLID_1667_" class="st83" points="373.2,146.9 373.2,84.8 435.3,84.8 			"/>
			<polygon id="XMLID_1666_" class="st84" points="0.7,395.3 0.7,333.2 62.8,333.2 			"/>
			<polygon id="XMLID_1665_" class="st85" points="186.9,146.9 249,146.9 186.9,209 			"/>
			<polygon id="XMLID_1664_" class="st86" points="249,84.8 249,146.9 186.9,84.8 			"/>
			<polygon id="XMLID_1663_" class="st87" points="373.2,146.9 373.2,209 311.1,209 			"/>
			<polygon id="XMLID_1662_" class="st4" points="435.3,209 497.4,271.1 435.3,271.1 			"/>
		</g>
		<g>
			<polygon id="XMLID_1661_" class="st7" points="559.5,705.9 497.4,705.9 559.5,768 			"/>
			<polygon id="XMLID_1660_" class="st8" points="497.4,768 497.4,705.9 435.3,768 			"/>
			<polygon id="XMLID_1659_" class="st9" points="373.2,705.9 311.1,643.8 311.1,705.9 			"/>
			<polygon id="XMLID_1658_" class="st19" points="124.8,705.9 62.8,643.8 62.8,705.9 			"/>
			<polygon id="XMLID_1657_" class="st88" points="62.8,705.9 0.7,705.9 62.8,768 			"/>
			<polygon id="XMLID_1656_" class="st20" points="311.1,581.7 249,581.7 311.1,643.8 			"/>
			<polygon id="XMLID_1655_" class="st89" points="62.8,581.7 0.7,581.7 62.8,643.8 			"/>
			<polygon id="XMLID_1654_" class="st32" points="311.1,705.9 311.1,643.8 249,705.9 			"/>
			<polygon id="XMLID_1653_" class="st36" points="373.2,581.7 311.1,581.7 311.1,643.8 			"/>
			<polygon id="XMLID_1652_" class="st50" points="559.5,643.8 497.4,581.7 497.4,643.8 			"/>
			<polygon id="XMLID_1651_" class="st51" points="497.4,581.7 435.3,581.7 435.3,643.8 			"/>
			<polygon id="XMLID_1650_" class="st52" points="311.1,643.8 249,581.7 249,643.8 			"/>
			<polygon id="XMLID_1649_" class="st53" points="249,581.7 186.9,581.7 186.9,643.8 			"/>
			<polygon id="XMLID_1648_" class="st55" points="373.2,643.8 373.2,581.7 311.1,643.8 			"/>
			<polygon id="XMLID_1647_" class="st56" points="124.8,643.8 124.8,581.7 62.8,643.8 			"/>
			<polygon id="XMLID_1646_" class="st57" points="559.5,643.8 497.4,643.8 497.4,705.9 			"/>
			<polygon id="XMLID_1645_" class="st58" points="497.4,705.9 435.3,643.8 435.3,705.9 			"/>
			<polygon id="XMLID_1644_" class="st59" points="435.3,581.7 373.2,581.7 435.3,643.8 			"/>
			<polygon id="XMLID_1643_" class="st60" points="249,705.9 186.9,643.8 186.9,705.9 			"/>
			<polygon id="XMLID_1642_" class="st61" points="311.1,643.8 249,643.8 249,705.9 			"/>
			<polygon id="XMLID_1641_" class="st62" points="186.9,581.7 124.8,581.7 186.9,643.8 			"/>
			<polygon id="XMLID_1640_" class="st63" points="373.2,643.8 311.1,643.8 373.2,705.9 			"/>
			<polygon id="XMLID_1639_" class="st90" points="124.8,643.8 62.8,643.8 124.8,705.9 			"/>
			<polygon id="XMLID_1638_" class="st65" points="435.3,643.8 373.2,643.8 373.2,705.9 			"/>
			<polygon id="XMLID_1637_" class="st66" points="497.4,643.8 497.4,581.7 435.3,643.8 			"/>
			<polygon id="XMLID_1636_" class="st34" points="0.9,642.7 0.9,705.9 64.1,642.7 			"/>
			<polygon id="XMLID_1635_" class="st69" points="249,643.8 249,581.7 186.9,643.8 			"/>
			<polygon id="XMLID_1634_" class="st72" points="249,643.8 186.9,643.8 249,705.9 			"/>
			<polygon id="XMLID_1633_" class="st74" points="186.9,643.8 124.8,581.7 124.8,643.8 			"/>
		</g>
	</g>
	<g>
		<defs>
			<rect id="SVGID_1_" x="-4" y="-4.7" width="559.4" height="772.7"/>
		</defs>
		<clipPath id="SVGID_2_">
			<use xlink:href="#SVGID_1_"  style="overflow:visible;"/>
		</clipPath>
		<g id="XMLID_1625_" class="st91">
			<polygon id="XMLID_1632_" class="st92" points="359.6,362.1 335.3,326.4 289.6,367.6 			"/>
			<polygon id="XMLID_1631_" class="st92" points="333.8,326.2 456.6,336.8 402.8,422.7 			"/>
			<polygon id="XMLID_1630_" class="st92" points="607.5,403.2 402.8,422.7 519.9,235.8 			"/>
			<polygon id="XMLID_1629_" class="st92" points="607.5,403.2 660.8,605.3 569.7,531.3 			"/>
			<polygon id="XMLID_1627_" class="st92" points="725.5,214.3 790.3,211.7 607.5,403.2 			"/>
			<polygon id="XMLID_1626_" class="st92" points="607.5,403.2 578.2,502.6 422.3,453.4 402.8,422.7 			"/>
		</g>
	</g>
	<g>
		<g>
			<polygon class="st93" points="721.3,359.1 731,359.1 731,397.1 748.1,397.1 748.1,405 721.3,405 			"/>
			<path class="st93" d="M753,396.4c0-8.7,9-11.9,17.9-11.9h1.2v-1.9c0-3.2-1.4-4.7-5.4-4.7c-3.6,0-6.5,1.6-8.5,3.2l-4-5.6
				c2.7-2.5,7.2-4.8,13.5-4.8c9.1,0,13.5,3.5,13.5,12.4v12c0,4.5,0.5,7.8,1,9.9h-9c-0.3-0.8-0.5-2.5-0.6-3.6
				c-1.8,2.2-5.1,4.4-9.4,4.4C757.4,405.8,753,402.3,753,396.4 M772.1,396.1v-6.1h-1.2c-5.4,0-9.1,1.6-9.1,5.5c0,2.5,2,3.5,4.1,3.5
				C768.7,399.1,770.6,397.8,772.1,396.1"/>
			<path class="st93" d="M787.1,402.6l3.1-6.4c1.3,0.9,4.5,2.8,8.3,2.8c3.5,0,5.5-1,5.5-3c0-2.3-3.7-2.9-8.5-5.2
				c-4.7-2.2-7.5-4.8-7.5-9.9c0-6.3,5-10.2,12.5-10.2c5.7,0,9.2,1.8,10.7,2.7l-3.2,6.3c-1.3-0.8-3.9-2.1-7.2-2.1
				c-3.2,0-4.6,1.2-4.6,3c0,2.3,3,2.9,6.9,4.4c5.3,2.2,9.1,4.6,9.1,10.2c0,7-5,10.7-13.3,10.7C793,405.8,789.2,404,787.1,402.6"/>
			<path class="st93" d="M816.6,388c0-10.6,7.3-17.4,16.6-17.4c9.5,0,14.6,6.1,14.6,16.5c0,1-0.1,2.1-0.1,3.2h-21.2
				c0.4,5,3,8.7,8.5,8.7c4.5,0,7.1-1.5,8.7-2.3l3,5.9c-2.2,1.2-5.6,3.2-12.5,3.2C822.9,405.8,816.6,398.7,816.6,388 M838.8,384.1
				c-0.1-3.8-1.6-6.9-5.8-6.9c-3.9,0-6.1,2.5-6.7,6.9H838.8z"/>
			<path class="st93" d="M854.7,371.5h9.1v4.5c1.4-2.5,4.2-5.4,8.5-5.4c2.5,0,3.8,0.5,4.5,0.9l-2.2,8c-0.5-0.3-1.6-0.8-3.5-0.8
				c-4.1,0-6.5,3.6-7.3,5.1V405h-9.1V371.5z"/>
			<polygon class="st93" points="904,367.1 891.4,367.1 891.4,359.1 926.4,359.1 926.4,367.1 913.8,367.1 913.8,405 904,405 			"/>
			<path class="st93" d="M925,388c0-10.6,7.3-17.4,16.6-17.4c9.5,0,14.6,6.1,14.6,16.5c0,1-0.1,2.1-0.1,3.2h-21.2
				c0.4,5,3,8.7,8.5,8.7c4.5,0,7.1-1.5,8.7-2.3l3,5.9c-2.2,1.2-5.6,3.2-12.5,3.2C931.3,405.8,925,398.7,925,388 M947.2,384.1
				c-0.1-3.8-1.6-6.9-5.8-6.9c-3.9,0-6.1,2.5-6.7,6.9H947.2z"/>
			<path class="st93" d="M960.7,388.2c0-11.3,7.5-17.6,17.6-17.6c5.4,0,8.7,1.6,10.2,2.7l-3,6.3c-1.5-1-3.6-2-7-2
				c-5.4,0-8.2,4.2-8.2,10.4c0,6.2,2.7,10.7,8.4,10.7c3.9,0,6.2-1.4,7.2-2.1l2.8,6.1c-1.6,1-4.7,3-10.8,3
				C967.3,405.8,960.7,398.6,960.7,388.2"/>
			<path class="st93" d="M994.4,355.4h9.1v20.1c1.7-1.9,5-4.9,10.5-4.9c7.4,0,10,4.7,10,10.9V405h-9.1v-21.6c0-3.4-1.2-5.1-4.4-5.1
				c-3.6,0-6.3,3.3-6.9,4.2V405h-9.1V355.4z"/>
		</g>
		<rect x="971.3" y="417.6" class="st93" width="52.8" height="4.5"/>
	</g>
	<g>
		<path class="st93" d="M868.2,448.5c-0.6-0.9-1.4-1.7-2.5-2.3c-1.1-0.6-2.2-0.9-3.6-0.9c-1.4,0-2.7,0.2-3.8,0.7
			c-1.1,0.5-2.1,1.2-2.9,2c-0.8,0.9-1.4,1.9-1.8,3.1c-0.4,1.2-0.6,2.5-0.6,3.8c0,1.4,0.2,2.7,0.6,3.8c0.4,1.2,1,2.2,1.8,3.1
			c0.8,0.9,1.7,1.5,2.9,2c1.1,0.5,2.4,0.7,3.8,0.7c1.3,0,2.5-0.3,3.6-0.9c1-0.6,1.9-1.4,2.5-2.3l2.8,2.1c-1.2,1.4-2.6,2.5-4.1,3.1
			c-1.5,0.7-3.1,1-4.7,1.1c-2,0-3.7-0.3-5.3-0.9s-2.9-1.5-4-2.7s-2-2.5-2.6-4c-0.6-1.6-0.9-3.3-0.9-5.1c0-1.8,0.3-3.5,0.9-5.1
			c0.6-1.6,1.4-2.9,2.6-4c1.1-1.1,2.5-2,4-2.7c1.6-0.6,3.3-0.9,5.3-0.9c1.7,0,3.2,0.4,4.7,1.1c1.5,0.7,2.9,1.7,4.1,3.1L868.2,448.5z
			"/>
		<path class="st93" d="M868.2,448.5c-0.6-0.9-1.4-1.7-2.5-2.3c-1.1-0.6-2.2-0.9-3.6-0.9c-1.4,0-2.7,0.2-3.8,0.7
			c-1.1,0.5-2.1,1.2-2.9,2c-0.8,0.9-1.4,1.9-1.8,3.1c-0.4,1.2-0.6,2.5-0.6,3.8c0,1.4,0.2,2.7,0.6,3.8c0.4,1.2,1,2.2,1.8,3.1
			c0.8,0.9,1.7,1.5,2.9,2c1.1,0.5,2.4,0.7,3.8,0.7c1.3,0,2.5-0.3,3.6-0.9c1-0.6,1.9-1.4,2.5-2.3l2.8,2.1c-1.2,1.4-2.6,2.5-4.1,3.1
			c-1.5,0.7-3.1,1-4.7,1.1c-2,0-3.7-0.3-5.3-0.9s-2.9-1.5-4-2.7s-2-2.5-2.6-4c-0.6-1.6-0.9-3.3-0.9-5.1c0-1.8,0.3-3.5,0.9-5.1
			c0.6-1.6,1.4-2.9,2.6-4c1.1-1.1,2.5-2,4-2.7c1.6-0.6,3.3-0.9,5.3-0.9c1.7,0,3.2,0.4,4.7,1.1c1.5,0.7,2.9,1.7,4.1,3.1L868.2,448.5z
			"/>
		<path class="st93" d="M915.4,454.9c0,1.8-0.3,3.5-0.9,5.1c-0.6,1.5-1.5,2.9-2.7,4c-1.1,1.1-2.5,2-4.1,2.7c-1.6,0.6-3.3,1-5.2,1
			c-1.9,0-3.6-0.3-5.1-1c-1.6-0.6-2.9-1.5-4.1-2.7c-1.1-1.1-2-2.5-2.7-4c-0.6-1.5-0.9-3.2-0.9-5.1c0-1.8,0.3-3.5,0.9-5
			c0.6-1.5,1.5-2.9,2.7-4c1.1-1.1,2.5-2,4.1-2.7c1.6-0.6,3.3-0.9,5.1-0.9c1.9,0,3.6,0.3,5.2,0.9c1.6,0.6,2.9,1.5,4.1,2.7
			c1.1,1.1,2,2.5,2.7,4C915,451.4,915.4,453,915.4,454.9 M911.6,454.9c0-1.3-0.2-2.6-0.6-3.8c-0.4-1.2-1-2.2-1.8-3s-1.7-1.5-2.9-2
			c-1.1-0.5-2.4-0.7-3.8-0.7c-1.4,0-2.6,0.2-3.8,0.7c-1.1,0.5-2.1,1.2-2.9,2s-1.4,1.9-1.8,3c-0.4,1.2-0.6,2.4-0.6,3.8
			c0,1.3,0.2,2.6,0.6,3.8c0.4,1.2,1,2.2,1.8,3c0.8,0.9,1.7,1.5,2.9,2c1.1,0.5,2.4,0.7,3.8,0.7c1.4,0,2.7-0.2,3.8-0.7
			c1.1-0.5,2.1-1.2,2.9-2c0.8-0.9,1.4-1.9,1.8-3C911.4,457.5,911.6,456.2,911.6,454.9"/>
		<path class="st93" d="M915.4,454.9c0,1.8-0.3,3.5-0.9,5.1c-0.6,1.5-1.5,2.9-2.7,4c-1.1,1.1-2.5,2-4.1,2.7c-1.6,0.6-3.3,1-5.2,1
			c-1.9,0-3.6-0.3-5.1-1c-1.6-0.6-2.9-1.5-4.1-2.7c-1.1-1.1-2-2.5-2.7-4c-0.6-1.5-0.9-3.2-0.9-5.1c0-1.8,0.3-3.5,0.9-5
			c0.6-1.5,1.5-2.9,2.7-4c1.1-1.1,2.5-2,4.1-2.7c1.6-0.6,3.3-0.9,5.1-0.9c1.9,0,3.6,0.3,5.2,0.9c1.6,0.6,2.9,1.5,4.1,2.7
			c1.1,1.1,2,2.5,2.7,4C915,451.4,915.4,453,915.4,454.9z M911.6,454.9c0-1.3-0.2-2.6-0.6-3.8c-0.4-1.2-1-2.2-1.8-3s-1.7-1.5-2.9-2
			c-1.1-0.5-2.4-0.7-3.8-0.7c-1.4,0-2.6,0.2-3.8,0.7c-1.1,0.5-2.1,1.2-2.9,2s-1.4,1.9-1.8,3c-0.4,1.2-0.6,2.4-0.6,3.8
			c0,1.3,0.2,2.6,0.6,3.8c0.4,1.2,1,2.2,1.8,3c0.8,0.9,1.7,1.5,2.9,2c1.1,0.5,2.4,0.7,3.8,0.7c1.4,0,2.7-0.2,3.8-0.7
			c1.1-0.5,2.1-1.2,2.9-2c0.8-0.9,1.4-1.9,1.8-3C911.4,457.5,911.6,456.2,911.6,454.9z"/>
		<path class="st93" d="M937.4,450.3c0-0.5,0-1.1,0-1.6c0-0.5,0-1.1-0.1-1.6c0-0.6,0-1.2-0.1-1.9c0-0.7,0-1.5-0.1-2.4h3.3v4.5h0.1
			c0.2-0.6,0.6-1.3,1-1.9c0.4-0.6,1-1.1,1.6-1.6c0.6-0.5,1.4-0.9,2.2-1.2c0.8-0.3,1.8-0.4,2.9-0.4c1,0,1.8,0.1,2.5,0.3l-0.7,3.3
			c-0.5-0.2-1.1-0.3-2-0.3c-1.3,0-2.4,0.3-3.3,0.8c-1,0.5-1.7,1.1-2.4,1.9c-0.6,0.8-1.1,1.6-1.4,2.5c-0.3,0.9-0.4,1.8-0.4,2.6v13.6
			h-3.4V450.3z"/>
		<path class="st93" d="M937.4,450.3c0-0.5,0-1.1,0-1.6c0-0.5,0-1.1-0.1-1.6c0-0.6,0-1.2-0.1-1.9c0-0.7,0-1.5-0.1-2.4h3.3v4.5h0.1
			c0.2-0.6,0.6-1.3,1-1.9c0.4-0.6,1-1.1,1.6-1.6c0.6-0.5,1.4-0.9,2.2-1.2c0.8-0.3,1.8-0.4,2.9-0.4c1,0,1.8,0.1,2.5,0.3l-0.7,3.3
			c-0.5-0.2-1.1-0.3-2-0.3c-1.3,0-2.4,0.3-3.3,0.8c-1,0.5-1.7,1.1-2.4,1.9c-0.6,0.8-1.1,1.6-1.4,2.5c-0.3,0.9-0.4,1.8-0.4,2.6v13.6
			h-3.4V450.3z"/>
		<path class="st93" d="M982.1,445.9h-7v14.2c0,0.9,0.1,1.6,0.3,2.2c0.2,0.6,0.4,1,0.7,1.3c0.3,0.3,0.7,0.5,1.1,0.6
			c0.4,0.1,0.9,0.2,1.4,0.2c0.6,0,1.2-0.1,1.8-0.3c0.6-0.2,1.2-0.4,1.7-0.7l0.2,3.1c-1.3,0.6-2.8,0.9-4.6,0.9c-0.7,0-1.3-0.1-2-0.3
			c-0.7-0.2-1.3-0.5-1.9-1c-0.6-0.5-1.1-1.1-1.4-2c-0.4-0.8-0.6-1.9-0.6-3.2v-15.2h-5.1v-3.1h5.1V436h3.4v6.8h7V445.9z"/>
		<path class="st93" d="M982.1,445.9h-7v14.2c0,0.9,0.1,1.6,0.3,2.2c0.2,0.6,0.4,1,0.7,1.3c0.3,0.3,0.7,0.5,1.1,0.6
			c0.4,0.1,0.9,0.2,1.4,0.2c0.6,0,1.2-0.1,1.8-0.3c0.6-0.2,1.2-0.4,1.7-0.7l0.2,3.1c-1.3,0.6-2.8,0.9-4.6,0.9c-0.7,0-1.3-0.1-2-0.3
			c-0.7-0.2-1.3-0.5-1.9-1c-0.6-0.5-1.1-1.1-1.4-2c-0.4-0.8-0.6-1.9-0.6-3.2v-15.2h-5.1v-3.1h5.1V436h3.4v6.8h7V445.9z"/>
		<path class="st93" d="M1004.6,455.8c0.1,1.2,0.4,2.3,0.9,3.4c0.5,1.1,1.1,2,1.9,2.8c0.8,0.8,1.7,1.4,2.7,1.8
			c1,0.5,2.2,0.7,3.4,0.7c1.8,0,3.4-0.4,4.7-1.3c1.3-0.8,2.3-1.8,3-2.9l2.6,2.2c-1.4,1.8-3,3.1-4.8,3.9c-1.7,0.8-3.6,1.2-5.6,1.2
			c-1.8,0-3.5-0.3-5-1c-1.5-0.6-2.8-1.5-3.9-2.7c-1.1-1.1-2-2.5-2.6-4c-0.6-1.5-1-3.2-1-5.1c0-1.8,0.3-3.5,0.9-5
			c0.6-1.5,1.5-2.9,2.6-4s2.4-2,3.9-2.7c1.5-0.6,3.1-0.9,4.8-0.9c1.8,0,3.5,0.3,4.9,1c1.4,0.7,2.7,1.5,3.6,2.6
			c1,1.1,1.7,2.4,2.2,3.8c0.5,1.5,0.8,3,0.8,4.7v1.5H1004.6z M1021,453c0-2.3-0.7-4.2-2.1-5.6c-1.4-1.4-3.3-2.1-5.8-2.1
			c-1.1,0-2.2,0.2-3.2,0.6c-1,0.4-1.9,1-2.7,1.7c-0.8,0.7-1.4,1.5-1.9,2.5c-0.5,0.9-0.7,1.9-0.7,2.9H1021z"/>
		<path class="st93" d="M1004.6,455.8c0.1,1.2,0.4,2.3,0.9,3.4c0.5,1.1,1.1,2,1.9,2.8c0.8,0.8,1.7,1.4,2.7,1.8
			c1,0.5,2.2,0.7,3.4,0.7c1.8,0,3.4-0.4,4.7-1.3c1.3-0.8,2.3-1.8,3-2.9l2.6,2.2c-1.4,1.8-3,3.1-4.8,3.9c-1.7,0.8-3.6,1.2-5.6,1.2
			c-1.8,0-3.5-0.3-5-1c-1.5-0.6-2.8-1.5-3.9-2.7c-1.1-1.1-2-2.5-2.6-4c-0.6-1.5-1-3.2-1-5.1c0-1.8,0.3-3.5,0.9-5
			c0.6-1.5,1.5-2.9,2.6-4s2.4-2,3.9-2.7c1.5-0.6,3.1-0.9,4.8-0.9c1.8,0,3.5,0.3,4.9,1c1.4,0.7,2.7,1.5,3.6,2.6
			c1,1.1,1.7,2.4,2.2,3.8c0.5,1.5,0.8,3,0.8,4.7v1.5H1004.6z M1021,453c0-2.3-0.7-4.2-2.1-5.6c-1.4-1.4-3.3-2.1-5.8-2.1
			c-1.1,0-2.2,0.2-3.2,0.6c-1,0.4-1.9,1-2.7,1.7c-0.8,0.7-1.4,1.5-1.9,2.5c-0.5,0.9-0.7,1.9-0.7,2.9H1021z"/>
	</g>
	<polygon id="XMLID_1628_" class="st92" points="743.5,185.6 607.5,403.2 519.9,235.8 	"/>
</g>
<g>
</g>
<g>
</g>
<g>
</g>
<g>
</g>
<g>
</g>
<g>
</g>
</svg>
