<?xml version="1.0" encoding="utf-8"?>
<!-- Generator: Adobe Illustrator 22.0.1, SVG Export Plug-In . SVG Version: 6.00 Build 0)  -->
<svg version="1.1" id="Layer_1" xmlns="http://www.w3.org/2000/svg" xmlns:xlink="http://www.w3.org/1999/xlink" x="0px" y="0px"
	 viewBox="0 0 768 1232.9" style="enable-background:new 0 0 768 1232.9;" xml:space="preserve">
<style type="text/css">
	.st0{clip-path:url(#SVGID_2_);}
	.st1{fill:#EA252E;}
	.st2{fill:#FC7216;}
	.st3{fill:#FF8D2A;}
	.st4{fill:#FC9E51;}
	.st5{fill:#FD9B50;}
	.st6{fill:#FC714A;}
	.st7{fill:#FC7214;}
	.st8{fill:#FDA152;}
	.st9{fill:#FD8845;}
	.st10{fill:#FD652D;}
	.st11{fill:#FC6943;}
	.st12{fill:#FD902D;}
	.st13{fill:#FD6C62;}
	.st14{fill:#FD564B;}
	.st15{fill:#F32D47;}
	.st16{fill:#F53348;}
	.st17{fill:#FD392F;}
	.st18{fill:#FD5B45;}
	.st19{fill:#EE274A;}
	.st20{fill:#E21A33;}
	.st21{fill:#F55724;}
	.st22{fill:#FD4133;}
	.st23{fill:#FD8948;}
	.st24{fill:#FC804D;}
	.st25{fill:#FC7149;}
	.st26{fill:#FD5643;}
	.st27{fill:#FD4E3B;}
	.st28{fill:#FD3A52;}
	.st29{fill:#FD9A41;}
	.st30{fill:#FD914A;}
	.st31{fill:#FC8046;}
	.st32{fill:#FD7324;}
	.st33{fill:#FD6518;}
	.st34{fill:#F6404E;}
	.st35{fill:#FD4A2F;}
	.st36{fill:#CF2050;}
	.st37{fill:#FB4E1D;}
	.st38{fill:#C0181D;}
	.st39{fill:#FC5E2E;}
	.st40{fill:#FC5344;}
	.st41{fill:#F94155;}
	.st42{fill:#FC7935;}
	.st43{fill:#FD7A3E;}
	.st44{fill:#FD3D47;}
	.st45{fill:#FD7024;}
	.st46{fill:#FD4A4E;}
	.st47{fill:#FD2C72;}
	.st48{fill:#FD6343;}
	.st49{fill:#FD842C;}
	.st50{fill:#E72526;}
	.st51{fill:#FD9535;}
	.st52{fill:#FD7F10;}
	.st53{fill:#F55F2C;}
	.st54{fill:#F0422D;}
	.st55{fill:#CC1E29;}
	.st56{fill:#FD6515;}
	.st57{fill:#C2181E;}
	.st58{fill:#FD8823;}
	.st59{fill:#FD800C;}
	.st60{fill:#FD7312;}
	.st61{fill:#F14F3D;}
	.st62{fill:#F5491E;}
	.st63{fill:#EB3628;}
	.st64{fill:#FD732F;}
	.st65{fill:#FC7933;}
	.st66{fill:#FD6E11;}
	.st67{fill:#FC861A;}
	.st68{fill:#DE3228;}
	.st69{fill:#F63C2B;}
	.st70{fill:#E0462D;}
	.st71{fill:#FD8328;}
	.st72{fill:#FD8B28;}
	.st73{fill:#FD4A2A;}
	.st74{fill:#FC5E4A;}
	.st75{fill:#F12527;}
	.st76{fill:#FD5B34;}
	.st77{fill:#FD3A5C;}
	.st78{fill:#FD414B;}
	.st79{fill:#FD315F;}
	.st80{fill:#E31E6F;}
	.st81{fill:#FD7031;}
	.st82{fill:#FD6537;}
	.st83{fill:#FD6646;}
	.st84{fill:#FD5C56;}
	.st85{fill:#EF2048;}
	.st86{fill:#FD3845;}
	.st87{fill:#FD4E48;}
	.st88{fill:#FD4E4D;}
	.st89{fill:#C01346;}
	.st90{fill:#C21738;}
	.st91{fill:#E8222E;}
	.st92{clip-path:url(#SVGID_4_);}
	.st93{fill:none;stroke:#FFFFFF;stroke-width:3;stroke-linejoin:round;stroke-miterlimit:10;}
	.st94{clip-path:url(#SVGID_6_);}
	.st95{fill:#DD101C;}
</style>
<g>
	<g>
		<g>
			<g>
				<defs>
					<rect id="SVGID_1_" x="-4.4" y="-227.1" width="776.7" height="1381.5"/>
				</defs>
				<clipPath id="SVGID_2_">
					<use xlink:href="#SVGID_1_"  style="overflow:visible;"/>
				</clipPath>
				<g class="st0">
					<g id="XMLID_1773_">
						<polygon id="XMLID_1780_" class="st1" points="138.3,354.8 107,309 48.4,361.8 						"/>
						<polygon id="XMLID_1779_" class="st2" points="105.2,308.7 262.8,322.2 193.7,432.5 						"/>
						<polygon id="XMLID_1778_" class="st3" points="456.6,407.5 193.7,432.5 344,192.6 						"/>
						<polygon id="XMLID_1777_" class="st1" points="456.6,407.5 525,667 408,572 						"/>
						<polygon id="XMLID_1776_" class="st2" points="631.2,128.2 456.6,407.5 344,192.6 						"/>
						<polygon id="XMLID_1775_" class="st1" points="608,165.1 691.3,161.7 456.6,407.5 						"/>
						<polygon id="XMLID_1774_" class="st2" points="456.6,407.5 418.9,535.1 218.8,472 193.7,432.5 						"/>
					</g>
					<g>
						<g>
							<polygon id="XMLID_1772_" class="st4" points="394.9,397.4 315.3,397.4 315.3,317.8 							"/>
							<polygon id="XMLID_1771_" class="st5" points="394.9,238.2 394.9,317.8 315.3,317.8 							"/>
							<polygon id="XMLID_1770_" class="st6" points="156.1,317.8 76.5,397.4 76.5,317.8 							"/>
							<polygon id="XMLID_1769_" class="st7" points="235.7,397.4 156.1,397.4 156.1,317.8 							"/>
							<polygon id="XMLID_1768_" class="st8" points="394.9,477 315.3,477 394.9,397.4 							"/>
							<polygon id="XMLID_1767_" class="st9" points="315.3,397.4 315.3,477 235.7,397.4 							"/>
							<polygon id="XMLID_1766_" class="st10" points="156.1,477 76.5,556.6 76.5,477 							"/>
							<polygon id="XMLID_1765_" class="st11" points="156.1,397.4 156.1,477 76.5,397.4 							"/>
							<polygon id="XMLID_1764_" class="st12" points="394.9,636.2 315.3,636.2 394.9,556.6 							"/>
							<polygon id="XMLID_1763_" class="st13" points="76.5,317.8 -3.1,317.8 76.5,238.2 							"/>
							<polygon id="XMLID_1762_" class="st14" points="76.5,397.4 -3.1,397.4 -3.1,317.8 							"/>
							<polygon id="XMLID_1761_" class="st15" points="-242,397.4 -242,317.8 -162.4,317.8 							"/>
							<polygon id="XMLID_1760_" class="st16" points="-82.7,397.4 -162.4,397.4 -162.4,317.8 							"/>
							<polygon id="XMLID_1759_" class="st17" points="-3.1,397.4 -3.1,477 -82.7,397.4 							"/>
							<polygon id="XMLID_1758_" class="st18" points="76.5,477 -3.1,477 76.5,397.4 							"/>
							<polygon id="XMLID_1757_" class="st19" points="-162.4,397.4 -162.4,477 -242,397.4 							"/>
							<polygon id="XMLID_1756_" class="st20" points="-162.4,477 -242,556.6 -242,477 							"/>
							<polygon id="XMLID_1755_" class="st21" points="76.5,636.2 -3.1,636.2 76.5,556.6 							"/>
							<polygon id="XMLID_1754_" class="st22" points="76.5,158.6 76.5,238.2 -3.1,158.6 							"/>
							<polygon id="XMLID_1753_" class="st23" points="394.9,317.8 394.9,397.4 315.3,317.8 							"/>
							<polygon id="XMLID_1752_" class="st24" points="315.3,397.4 235.7,397.4 315.3,317.8 							"/>
							<polygon id="XMLID_1751_" class="st25" points="156.1,397.4 76.5,397.4 156.1,317.8 							"/>
							<polygon id="XMLID_1750_" class="st26" points="76.5,317.8 76.5,397.4 -3.1,317.8 							"/>
							<polygon id="XMLID_1749_" class="st27" points="-3.1,397.4 -82.7,397.4 -3.1,317.8 							"/>
							<polygon id="XMLID_1748_" class="st28" points="-162.4,397.4 -242,397.4 -162.4,317.8 							"/>
							<polygon id="XMLID_1747_" class="st29" points="394.9,477 394.9,556.6 315.3,477 							"/>
							<polygon id="XMLID_1746_" class="st30" points="394.9,397.4 315.3,477 315.3,397.4 							"/>
							<polygon id="XMLID_1745_" class="st31" points="235.7,397.4 156.1,477 156.1,397.4 							"/>
							<polygon id="XMLID_1744_" class="st32" points="156.1,477 76.5,477 76.5,397.4 							"/>
							<polygon id="XMLID_1743_" class="st33" points="76.5,477 76.5,556.6 -3.1,477 							"/>
							<polygon id="XMLID_1742_" class="st34" points="76.5,397.4 -3.1,477 -3.1,397.4 							"/>
							<polygon id="XMLID_1741_" class="st35" points="-82.7,397.4 -162.4,477 -162.4,397.4 							"/>
							<polygon id="XMLID_1740_" class="st36" points="-321.6,477 -321.6,397.4 -242,397.4 							"/>
							<polygon id="XMLID_1739_" class="st37" points="156.1,636.2 76.5,636.2 76.5,556.6 							"/>
							<polygon id="XMLID_1738_" class="st38" points="-162.4,636.2 -242,636.2 -242,556.6 							"/>
							<polygon id="XMLID_1737_" class="st24" points="315.3,238.2 394.9,238.2 315.3,317.8 							"/>
							<polygon id="XMLID_1736_" class="st26" points="76.5,238.2 -3.1,317.8 -3.1,238.2 							"/>
							<polygon id="XMLID_1735_" class="st39" points="156.1,238.2 156.1,317.8 76.5,238.2 							"/>
							<polygon id="XMLID_1734_" class="st13" points="-162.4,317.8 -242,238.2 -162.4,238.2 							"/>
							<polygon id="XMLID_1733_" class="st40" points="-3.1,317.8 -82.7,317.8 -82.7,238.2 							"/>
							<polygon id="XMLID_1732_" class="st9" points="315.3,317.8 235.7,397.4 235.7,317.8 							"/>
							<polygon id="XMLID_1731_" class="st41" points="-3.1,238.2 -3.1,317.8 -82.7,238.2 							"/>
							<polygon id="XMLID_1730_" class="st34" points="-3.1,317.8 -82.7,397.4 -82.7,317.8 							"/>
							<polygon id="XMLID_1729_" class="st13" points="-3.1,238.2 -82.7,238.2 -3.1,158.6 							"/>
							<polygon id="XMLID_1728_" class="st42" points="235.7,317.8 235.7,397.4 156.1,317.8 							"/>
							<polygon id="XMLID_1727_" class="st43" points="235.7,238.2 156.1,317.8 156.1,238.2 							"/>
							<polygon id="XMLID_1726_" class="st44" points="-82.7,317.8 -82.7,397.4 -162.4,317.8 							"/>
							<polygon id="XMLID_1725_" class="st45" points="235.7,317.8 156.1,317.8 235.7,238.2 							"/>
							<polygon id="XMLID_1724_" class="st46" points="76.5,238.2 -3.1,238.2 -3.1,158.6 							"/>
							<polygon id="XMLID_1723_" class="st47" points="-82.7,238.2 -82.7,158.6 -3.1,158.6 							"/>
							<polygon id="XMLID_1722_" class="st48" points="156.1,238.2 76.5,238.2 156.1,158.6 							"/>
							<polygon id="XMLID_1721_" class="st49" points="235.7,477 235.7,556.6 156.1,477 							"/>
							<polygon id="XMLID_1720_" class="st50" points="-82.7,477 -82.7,556.6 -162.4,477 							"/>
							<polygon id="XMLID_1719_" class="st51" points="394.9,556.6 315.3,636.2 315.3,556.6 							"/>
							<polygon id="XMLID_1718_" class="st52" points="315.3,636.2 235.7,636.2 235.7,556.6 							"/>
							<polygon id="XMLID_1717_" class="st53" points="76.5,556.6 -3.1,636.2 -3.1,556.6 							"/>
							<polygon id="XMLID_1716_" class="st54" points="-3.1,636.2 -82.7,636.2 -82.7,556.6 							"/>
							<polygon id="XMLID_1715_" class="st55" points="-242,556.6 -321.6,636.2 -321.6,556.6 							"/>
							<polygon id="XMLID_1714_" class="st56" points="156.1,556.6 156.1,636.2 76.5,556.6 							"/>
							<polygon id="XMLID_1713_" class="st57" points="-162.4,556.6 -162.4,636.2 -242,556.6 							"/>
							<polygon id="XMLID_1712_" class="st58" points="394.9,556.6 315.3,556.6 315.3,477 							"/>
							<polygon id="XMLID_1711_" class="st59" points="315.3,477 235.7,556.6 235.7,477 							"/>
							<polygon id="XMLID_1710_" class="st60" points="235.7,636.2 156.1,636.2 235.7,556.6 							"/>
							<polygon id="XMLID_1709_" class="st61" points="-3.1,477 -82.7,556.6 -82.7,477 							"/>
							<polygon id="XMLID_1708_" class="st62" points="76.5,556.6 -3.1,556.6 -3.1,477 							"/>
							<polygon id="XMLID_1707_" class="st63" points="-82.7,636.2 -162.4,636.2 -82.7,556.6 							"/>
							<polygon id="XMLID_1706_" class="st64" points="156.1,556.6 76.5,556.6 156.1,477 							"/>
							<polygon id="XMLID_1705_" class="st65" points="235.7,477 156.1,477 235.7,397.4 							"/>
							<polygon id="XMLID_1704_" class="st66" points="235.7,556.6 156.1,556.6 156.1,477 							"/>
							<polygon id="XMLID_1703_" class="st67" points="315.3,556.6 315.3,636.2 235.7,556.6 							"/>
							<polygon id="XMLID_1702_" class="st68" points="-82.7,556.6 -162.4,556.6 -162.4,477 							"/>
							<polygon id="XMLID_1701_" class="st69" points="-82.7,477 -162.4,477 -82.7,397.4 							"/>
							<polygon id="XMLID_1700_" class="st35" points="-242,398.9 -323,398.9 -242,317.8 							"/>
							<polygon id="XMLID_1699_" class="st70" points="-3.1,556.6 -3.1,636.2 -82.7,556.6 							"/>
							<polygon id="XMLID_1698_" class="st71" points="315.3,556.6 235.7,556.6 315.3,477 							"/>
							<polygon id="XMLID_1697_" class="st72" points="315.3,477 235.7,477 235.7,397.4 							"/>
							<polygon id="XMLID_1696_" class="st73" points="-3.1,556.6 -82.7,556.6 -3.1,477 							"/>
							<polygon id="XMLID_1695_" class="st74" points="-4.1,477 -83.7,477 -83.7,397.4 							"/>
							<polygon id="XMLID_1694_" class="st52" points="235.7,556.6 156.1,636.2 156.1,556.6 							"/>
							<polygon id="XMLID_1693_" class="st75" points="-82.7,556.6 -162.4,636.2 -162.4,556.6 							"/>
							<polygon id="XMLID_1692_" class="st76" points="76.5,317.8 156.1,317.8 76.5,238.2 							"/>
							<polygon id="XMLID_1691_" class="st77" points="-162.4,158.6 -162.4,79 -82.7,158.6 							"/>
							<polygon id="XMLID_1690_" class="st78" points="-82.7,238.2 -162.4,238.2 -82.7,158.6 							"/>
							<polygon id="XMLID_1689_" class="st78" points="-242.2,238.5 -321.8,238.5 -242.2,158.9 							"/>
							<polygon id="XMLID_1688_" class="st79" points="76.5,79 76.5,158.6 -3.1,79 							"/>
							<polygon id="XMLID_1687_" class="st80" points="-82.7,79 -162.4,79 -82.7,-0.6 							"/>
							<polygon id="XMLID_1686_" class="st81" points="235.7,158.6 235.7,238.2 156.1,238.2 							"/>
							<polygon id="XMLID_1685_" class="st81" points="-242,238.2 -242,317.8 -321.6,317.8 							"/>
							<polygon id="XMLID_1684_" class="st82" points="235.7,158.6 156.1,79 235.7,79 							"/>
							<polygon id="XMLID_1683_" class="st42" points="235.7,238.2 315.3,238.2 235.7,317.8 							"/>
							<polygon id="XMLID_1668_" class="st83" points="315.3,79 394.9,158.6 315.3,158.6 							"/>
							<polygon id="XMLID_1667_" class="st84" points="156.1,79 156.1,-0.6 235.7,-0.6 							"/>
							<polygon id="XMLID_1666_" class="st85" points="-321.6,397.4 -321.6,317.8 -242,317.8 							"/>
							<polygon id="XMLID_1665_" class="st86" points="-82.7,79 -3.1,79 -82.7,158.6 							"/>
							<polygon id="XMLID_1664_" class="st87" points="-3.1,-0.6 -3.1,79 -82.7,-0.6 							"/>
							<polygon id="XMLID_1663_" class="st88" points="156.1,79 156.1,158.6 76.5,158.6 							"/>
							<polygon id="XMLID_1662_" class="st5" points="235.7,158.6 315.3,238.2 235.7,238.2 							"/>
						</g>
						<g>
							<polygon id="XMLID_1661_" class="st8" points="394.9,795.7 315.3,795.7 394.9,875.3 							"/>
							<polygon id="XMLID_1660_" class="st9" points="315.3,875.3 315.3,795.7 235.7,875.3 							"/>
							<polygon id="XMLID_1659_" class="st10" points="156.1,795.7 76.5,716.1 76.5,795.7 							"/>
							<polygon id="XMLID_1658_" class="st20" points="-162.4,795.7 -242,716.1 -242,795.7 							"/>
							<polygon id="XMLID_1657_" class="st89" points="-242,795.7 -321.6,795.7 -242,875.3 							"/>
							<polygon id="XMLID_1656_" class="st21" points="76.5,636.5 -3.1,636.5 76.5,716.1 							"/>
							<polygon id="XMLID_1655_" class="st90" points="-242,636.5 -321.6,636.5 -242,716.1 							"/>
							<polygon id="XMLID_1654_" class="st33" points="76.5,795.7 76.5,716.1 -3.1,795.7 							"/>
							<polygon id="XMLID_1653_" class="st37" points="156.1,636.5 76.5,636.5 76.5,716.1 							"/>
							<polygon id="XMLID_1652_" class="st51" points="394.9,716.1 315.3,636.5 315.3,716.1 							"/>
							<polygon id="XMLID_1651_" class="st52" points="315.3,636.5 235.7,636.5 235.7,716.1 							"/>
							<polygon id="XMLID_1650_" class="st53" points="76.5,716.1 -3.1,636.5 -3.1,716.1 							"/>
							<polygon id="XMLID_1649_" class="st54" points="-3.1,636.5 -82.7,636.5 -82.7,716.1 							"/>
							<polygon id="XMLID_1648_" class="st56" points="156.1,716.1 156.1,636.5 76.5,716.1 							"/>
							<polygon id="XMLID_1647_" class="st57" points="-162.4,716.1 -162.4,636.5 -242,716.1 							"/>
							<polygon id="XMLID_1646_" class="st58" points="394.9,716.1 315.3,716.1 315.3,795.7 							"/>
							<polygon id="XMLID_1645_" class="st59" points="315.3,795.7 235.7,716.1 235.7,795.7 							"/>
							<polygon id="XMLID_1644_" class="st60" points="235.7,636.5 156.1,636.5 235.7,716.1 							"/>
							<polygon id="XMLID_1643_" class="st61" points="-3.1,795.7 -82.7,716.1 -82.7,795.7 							"/>
							<polygon id="XMLID_1642_" class="st62" points="76.5,716.1 -3.1,716.1 -3.1,795.7 							"/>
							<polygon id="XMLID_1641_" class="st63" points="-82.7,636.5 -162.4,636.5 -82.7,716.1 							"/>
							<polygon id="XMLID_1640_" class="st64" points="156.1,716.1 76.5,716.1 156.1,795.7 							"/>
							<polygon id="XMLID_1639_" class="st91" points="-162.4,716.1 -242,716.1 -162.4,795.7 							"/>
							<polygon id="XMLID_1638_" class="st66" points="235.7,716.1 156.1,716.1 156.1,795.7 							"/>
							<polygon id="XMLID_1637_" class="st67" points="315.3,716.1 315.3,636.5 235.7,716.1 							"/>
							<polygon id="XMLID_1636_" class="st35" points="-321.3,714.6 -321.3,795.7 -240.2,714.6 							"/>
							<polygon id="XMLID_1635_" class="st70" points="-3.1,716.1 -3.1,636.5 -82.7,716.1 							"/>
							<polygon id="XMLID_1634_" class="st73" points="-3.1,716.1 -82.7,716.1 -3.1,795.7 							"/>
							<polygon id="XMLID_1633_" class="st75" points="-82.7,716.1 -162.4,636.5 -162.4,716.1 							"/>
						</g>
					</g>
					<g>
						<g>
							<g>
								<defs>
									<rect id="SVGID_3_" x="-327.5" y="-115.4" width="717.2" height="990.6"/>
								</defs>
								<clipPath id="SVGID_4_">
									<use xlink:href="#SVGID_3_"  style="overflow:visible;"/>
								</clipPath>
								<g id="XMLID_1625_" class="st92">
									<polygon id="XMLID_1632_" class="st93" points="138.6,354.9 107.4,309.1 48.9,361.9 									"/>
									<polygon id="XMLID_1631_" class="st93" points="105.6,308.9 263,322.4 194,432.5 									"/>
									<polygon id="XMLID_1630_" class="st93" points="456.5,407.5 194,432.5 344.1,192.9 									"/>
									<polygon id="XMLID_1629_" class="st93" points="456.5,407.5 524.8,666.7 408,571.8 									"/>
									<polygon id="XMLID_1627_" class="st93" points="607.8,165.4 690.9,162.1 456.5,407.5 									"/>
									<polygon id="XMLID_1626_" class="st93" points="456.5,407.5 418.9,535 219,471.9 194,432.5 									"/>
								</g>
							</g>
							<polygon id="XMLID_1628_" class="st93" points="631,128.6 456.5,407.5 344.1,192.9 							"/>
						</g>
					</g>
					<g>
						<defs>
							<rect id="SVGID_5_" x="-4.4" y="-227.1" width="776.7" height="1381.5"/>
						</defs>
						<clipPath id="SVGID_6_">
							<use xlink:href="#SVGID_5_"  style="overflow:visible;"/>
						</clipPath>
						<g class="st94">
							<g>
								<g>
									<polygon class="st95" points="203.9,902.9 215.5,902.9 215.5,948 235.7,948 235.7,957.3 203.9,957.3 									"/>
									<path class="st95" d="M241.6,947.1c0-10.4,10.7-14.1,21.2-14.1h1.4v-2.3c0-3.8-1.7-5.5-6.4-5.5c-4.3,0-7.8,1.9-10.1,3.8
										l-4.7-6.6c3.2-2.9,8.6-5.7,16.1-5.7c10.9,0,16,4.2,16,14.7v14.3c0,5.4,0.6,9.2,1.1,11.8h-10.7c-0.3-1-0.6-3-0.7-4.2
										c-2.1,2.6-6,5.2-11.2,5.2C246.8,958.3,241.6,954.2,241.6,947.1 M264.2,946.8v-7.2h-1.4c-6.4,0-10.8,1.9-10.8,6.5
										c0,2.9,2.4,4.2,4.8,4.2C260.2,950.3,262.5,948.8,264.2,946.8"/>
									<path class="st95" d="M282,954.5l3.7-7.6c1.6,1.1,5.4,3.3,9.8,3.3c4.2,0,6.5-1.2,6.5-3.6c0-2.7-4.4-3.4-10-6.1
										c-5.6-2.6-8.9-5.7-8.9-11.8c0-7.4,5.9-12.2,14.9-12.2c6.8,0,10.9,2.1,12.7,3.2l-3.8,7.4c-1.6-1-4.7-2.5-8.5-2.5
										s-5.5,1.4-5.5,3.5c0,2.7,3.6,3.4,8.2,5.2c6.3,2.6,10.9,5.5,10.9,12.2c0,8.3-6,12.7-15.8,12.7
										C289,958.2,284.5,956.1,282,954.5"/>
									<path class="st95" d="M317,937.2c0-12.6,8.6-20.6,19.7-20.6c11.3,0,17.3,7.2,17.3,19.6c0,1.2-0.1,2.5-0.2,3.8h-25.1
										c0.5,5.9,3.5,10.3,10.1,10.3c5.4,0,8.4-1.8,10.4-2.8l3.5,7c-2.6,1.5-6.7,3.8-14.9,3.8C324.6,958.3,317,949.8,317,937.2
										 M343.4,932.5c-0.1-4.5-1.9-8.2-6.9-8.2c-4.7,0-7.2,3-8,8.2H343.4z"/>
									<path class="st95" d="M362.3,917.5h10.9v5.4c1.7-2.9,5-6.4,10-6.4c2.9,0,4.5,0.6,5.4,1.1l-2.6,9.5
										c-0.7-0.4-1.9-0.9-4.2-0.9c-4.8,0-7.7,4.2-8.7,6v25.1h-10.9v-39.8L362.3,917.5L362.3,917.5z"/>
									<polygon class="st95" points="420.8,912.4 405.8,912.4 405.8,902.9 447.3,902.9 447.3,912.4 432.4,912.4 432.4,957.3 
										420.8,957.3 									"/>
									<path class="st95" d="M445.6,937.2c0-12.6,8.6-20.6,19.7-20.6c11.3,0,17.3,7.2,17.3,19.6c0,1.2-0.1,2.5-0.2,3.8h-25.1
										c0.5,5.9,3.5,10.3,10.1,10.3c5.4,0,8.4-1.8,10.4-2.8l3.5,7c-2.6,1.5-6.7,3.8-14.9,3.8C453.1,958.3,445.6,949.8,445.6,937.2
										 M472,932.5c-0.1-4.5-1.9-8.2-6.9-8.2c-4.7,0-7.2,3-8,8.2H472z"/>
									<path class="st95" d="M488,937.4c0-13.4,8.9-20.9,20.9-20.9c6.4,0,10.3,2,12.2,3.2l-3.5,7.4c-1.8-1.1-4.3-2.4-8.3-2.4
										c-6.4,0-9.7,5-9.7,12.3s3.2,12.7,10,12.7c4.6,0,7.3-1.7,8.6-2.4l3.3,7.3c-1.9,1.2-5.5,3.6-12.8,3.6
										C495.8,958.2,488,949.8,488,937.4"/>
									<path class="st95" d="M528,898.5H539v23.8c2-2.2,5.9-5.8,12.4-5.8c8.7,0,11.9,5.5,11.9,12.9v27.8h-10.9v-25.6
										c0-4-1.4-6-5.2-6c-4.2,0-7.4,3.9-8.2,5v26.7H528V898.5z"/>
								</g>
								<rect x="500.5" y="972.2" class="st95" width="62.7" height="5.4"/>
							</g>
							<g>
								<path class="st95" d="M378.3,1008.9c-0.7-1.1-1.7-2-2.9-2.7c-1.2-0.7-2.7-1.1-4.3-1.1c-1.7,0-3.2,0.2-4.5,0.8
									s-2.5,1.4-3.4,2.4s-1.7,2.2-2.1,3.6c-0.5,1.4-0.7,2.9-0.7,4.6c0,1.6,0.2,3.2,0.7,4.6c0.5,1.4,1.2,2.6,2.1,3.6
									s2.1,1.8,3.4,2.4s2.8,0.8,4.5,0.8c1.6,0,3-0.4,4.3-1.1c1.2-0.7,2.2-1.6,2.9-2.7l3.3,2.5c-1.4,1.7-3,2.9-4.8,3.7
									c-1.8,0.8-3.7,1.2-5.6,1.3c-2.3,0-4.4-0.3-6.3-1.1c-1.9-0.8-3.5-1.8-4.8-3.1c-1.3-1.3-2.3-2.9-3-4.8s-1-3.9-1-6
									c0-2.2,0.3-4.2,1-6c0.7-1.9,1.7-3.5,3-4.8s2.9-2.4,4.8-3.1s4-1.1,6.3-1.1c2,0,3.8,0.5,5.6,1.3c1.8,0.8,3.4,2,4.8,3.7
									L378.3,1008.9z"/>
								<path class="st95" d="M378.3,1008.9c-0.7-1.1-1.7-2-2.9-2.7c-1.2-0.7-2.7-1.1-4.3-1.1c-1.7,0-3.2,0.2-4.5,0.8
									s-2.5,1.4-3.4,2.4s-1.7,2.2-2.1,3.6c-0.5,1.4-0.7,2.9-0.7,4.6c0,1.6,0.2,3.2,0.7,4.6c0.5,1.4,1.2,2.6,2.1,3.6
									s2.1,1.8,3.4,2.4s2.8,0.8,4.5,0.8c1.6,0,3-0.4,4.3-1.1c1.2-0.7,2.2-1.6,2.9-2.7l3.3,2.5c-1.4,1.7-3,2.9-4.8,3.7
									c-1.8,0.8-3.7,1.2-5.6,1.3c-2.3,0-4.4-0.3-6.3-1.1c-1.9-0.8-3.5-1.8-4.8-3.1c-1.3-1.3-2.3-2.9-3-4.8s-1-3.9-1-6
									c0-2.2,0.3-4.2,1-6c0.7-1.9,1.7-3.5,3-4.8s2.9-2.4,4.8-3.1s4-1.1,6.3-1.1c2,0,3.8,0.5,5.6,1.3c1.8,0.8,3.4,2,4.8,3.7
									L378.3,1008.9z"/>
								<path class="st95" d="M434.2,1016.5c0,2.2-0.4,4.2-1.1,6c-0.8,1.8-1.8,3.4-3.1,4.8c-1.4,1.3-3,2.4-4.8,3.1
									c-1.9,0.8-3.9,1.1-6.1,1.1s-4.2-0.4-6.1-1.1c-1.9-0.8-3.5-1.8-4.8-3.1c-1.3-1.3-2.4-2.9-3.1-4.8c-0.8-1.8-1.1-3.8-1.1-6
									s0.4-4.2,1.1-6c0.8-1.8,1.8-3.4,3.1-4.8c1.4-1.4,3-2.4,4.8-3.2c1.9-0.7,3.9-1.1,6.1-1.1s4.3,0.4,6.1,1.1
									c1.9,0.8,3.5,1.8,4.8,3.2c1.3,1.3,2.4,2.9,3.1,4.8C433.8,1012.3,434.2,1014.3,434.2,1016.5 M429.8,1016.5
									c0-1.6-0.3-3.1-0.8-4.5s-1.2-2.6-2.2-3.6s-2.1-1.8-3.4-2.4s-2.8-0.9-4.5-0.9c-1.6,0-3.1,0.3-4.5,0.9
									c-1.3,0.6-2.5,1.4-3.4,2.4s-1.6,2.2-2.1,3.6s-0.8,2.9-0.8,4.5s0.3,3.1,0.8,4.5s1.2,2.6,2.1,3.6s2.1,1.8,3.4,2.4
									s2.8,0.9,4.5,0.9s3.2-0.3,4.5-0.9s2.5-1.4,3.4-2.4s1.7-2.2,2.2-3.6S429.8,1018.1,429.8,1016.5"/>
								<path class="st95" d="M434.2,1016.5c0,2.2-0.4,4.2-1.1,6c-0.8,1.8-1.8,3.4-3.1,4.8c-1.4,1.3-3,2.4-4.8,3.1
									c-1.9,0.8-3.9,1.1-6.1,1.1s-4.2-0.4-6.1-1.1c-1.9-0.8-3.5-1.8-4.8-3.1c-1.3-1.3-2.4-2.9-3.1-4.8c-0.8-1.8-1.1-3.8-1.1-6
									s0.4-4.2,1.1-6c0.8-1.8,1.8-3.4,3.1-4.8c1.4-1.4,3-2.4,4.8-3.2c1.9-0.7,3.9-1.1,6.1-1.1s4.3,0.4,6.1,1.1
									c1.9,0.8,3.5,1.8,4.8,3.2c1.3,1.3,2.4,2.9,3.1,4.8C433.8,1012.3,434.2,1014.3,434.2,1016.5z M429.8,1016.5
									c0-1.6-0.3-3.1-0.8-4.5s-1.2-2.6-2.2-3.6s-2.1-1.8-3.4-2.4s-2.8-0.9-4.5-0.9c-1.6,0-3.1,0.3-4.5,0.9
									c-1.3,0.6-2.5,1.4-3.4,2.4s-1.6,2.2-2.1,3.6s-0.8,2.9-0.8,4.5s0.3,3.1,0.8,4.5s1.2,2.6,2.1,3.6s2.1,1.8,3.4,2.4
									s2.8,0.9,4.5,0.9s3.2-0.3,4.5-0.9s2.5-1.4,3.4-2.4s1.7-2.2,2.2-3.6S429.8,1018.1,429.8,1016.5z"/>
								<path class="st95" d="M460.3,1011.1c0-0.6,0-1.3,0-1.9s0-1.3-0.1-2c0-0.7,0-1.5-0.1-2.3c0-0.8,0-1.8-0.1-2.8h4v5.3h0.1
									c0.3-0.8,0.7-1.5,1.2-2.2s1.2-1.4,1.9-1.9c0.7-0.6,1.6-1,2.6-1.4c1-0.3,2.1-0.5,3.4-0.5c1.1,0,2.1,0.1,3,0.4l-0.8,4
									c-0.5-0.2-1.3-0.3-2.3-0.3c-1.5,0-2.8,0.3-3.9,0.9s-2.1,1.3-2.8,2.3c-0.7,0.9-1.3,1.9-1.6,3c-0.3,1.1-0.5,2.1-0.5,3.1v16.1
									h-4L460.3,1011.1L460.3,1011.1z"/>
								<path class="st95" d="M460.3,1011.1c0-0.6,0-1.3,0-1.9s0-1.3-0.1-2c0-0.7,0-1.5-0.1-2.3c0-0.8,0-1.8-0.1-2.8h4v5.3h0.1
									c0.3-0.8,0.7-1.5,1.2-2.2s1.2-1.4,1.9-1.9c0.7-0.6,1.6-1,2.6-1.4c1-0.3,2.1-0.5,3.4-0.5c1.1,0,2.1,0.1,3,0.4l-0.8,4
									c-0.5-0.2-1.3-0.3-2.3-0.3c-1.5,0-2.8,0.3-3.9,0.9s-2.1,1.3-2.8,2.3c-0.7,0.9-1.3,1.9-1.6,3c-0.3,1.1-0.5,2.1-0.5,3.1v16.1
									h-4L460.3,1011.1L460.3,1011.1z"/>
								<path class="st95" d="M513.5,1005.9h-8.3v16.9c0,1.1,0.1,1.9,0.3,2.6c0.2,0.7,0.5,1.2,0.9,1.6s0.8,0.6,1.3,0.8
									c0.5,0.1,1.1,0.2,1.7,0.2c0.7,0,1.4-0.1,2.1-0.3c0.7-0.2,1.4-0.5,2-0.8l0.2,3.7c-1.5,0.7-3.3,1-5.4,1
									c-0.8,0-1.6-0.1-2.4-0.3c-0.8-0.2-1.6-0.6-2.3-1.2c-0.7-0.6-1.3-1.4-1.7-2.3s-0.7-2.3-0.7-3.9v-18H495v-3.7h6.1v-8.1h4v8.1
									h8.3V1005.9z"/>
								<path class="st95" d="M513.5,1005.9h-8.3v16.9c0,1.1,0.1,1.9,0.3,2.6c0.2,0.7,0.5,1.2,0.9,1.6s0.8,0.6,1.3,0.8
									c0.5,0.1,1.1,0.2,1.7,0.2c0.7,0,1.4-0.1,2.1-0.3c0.7-0.2,1.4-0.5,2-0.8l0.2,3.7c-1.5,0.7-3.3,1-5.4,1
									c-0.8,0-1.6-0.1-2.4-0.3c-0.8-0.2-1.6-0.6-2.3-1.2c-0.7-0.6-1.3-1.4-1.7-2.3s-0.7-2.3-0.7-3.9v-18H495v-3.7h6.1v-8.1h4v8.1
									h8.3V1005.9z"/>
								<path class="st95" d="M540,1017.6c0.1,1.4,0.5,2.8,1,4c0.6,1.3,1.3,2.3,2.3,3.3c0.9,0.9,2,1.6,3.2,2.2
									c1.2,0.5,2.6,0.8,4,0.8c2.2,0,4-0.5,5.6-1.5s2.8-2.2,3.6-3.5l3.1,2.6c-1.7,2.2-3.6,3.7-5.7,4.7c-2.1,0.9-4.3,1.4-6.6,1.4
									c-2.1,0-4.1-0.4-5.9-1.1c-1.8-0.8-3.4-1.8-4.7-3.1c-1.3-1.3-2.3-2.9-3.1-4.8c-0.8-1.8-1.1-3.8-1.1-6s0.4-4.2,1.1-6
									c0.7-1.8,1.7-3.4,3.1-4.8c1.3-1.3,2.8-2.4,4.6-3.2c1.8-0.7,3.6-1.1,5.7-1.1c2.2,0,4.1,0.4,5.8,1.2s3.1,1.8,4.3,3.1
									s2,2.8,2.7,4.5c0.6,1.7,0.9,3.6,0.9,5.5v1.8H540z M559.5,1014.3c0-2.7-0.8-4.9-2.4-6.6c-1.6-1.7-3.9-2.5-6.8-2.5
									c-1.3,0-2.6,0.2-3.8,0.8c-1.2,0.5-2.3,1.2-3.2,2c-0.9,0.9-1.7,1.8-2.2,2.9c-0.6,1.1-0.8,2.2-0.8,3.4L559.5,1014.3
									L559.5,1014.3z"/>
								<path class="st95" d="M540,1017.6c0.1,1.4,0.5,2.8,1,4c0.6,1.3,1.3,2.3,2.3,3.3c0.9,0.9,2,1.6,3.2,2.2
									c1.2,0.5,2.6,0.8,4,0.8c2.2,0,4-0.5,5.6-1.5s2.8-2.2,3.6-3.5l3.1,2.6c-1.7,2.2-3.6,3.7-5.7,4.7c-2.1,0.9-4.3,1.4-6.6,1.4
									c-2.1,0-4.1-0.4-5.9-1.1c-1.8-0.8-3.4-1.8-4.7-3.1c-1.3-1.3-2.3-2.9-3.1-4.8c-0.8-1.8-1.1-3.8-1.1-6s0.4-4.2,1.1-6
									c0.7-1.8,1.7-3.4,3.1-4.8c1.3-1.3,2.8-2.4,4.6-3.2c1.8-0.7,3.6-1.1,5.7-1.1c2.2,0,4.1,0.4,5.8,1.2s3.1,1.8,4.3,3.1
									s2,2.8,2.7,4.5c0.6,1.7,0.9,3.6,0.9,5.5v1.8H540z M559.5,1014.3c0-2.7-0.8-4.9-2.4-6.6c-1.6-1.7-3.9-2.5-6.8-2.5
									c-1.3,0-2.6,0.2-3.8,0.8c-1.2,0.5-2.3,1.2-3.2,2c-0.9,0.9-1.7,1.8-2.2,2.9c-0.6,1.1-0.8,2.2-0.8,3.4L559.5,1014.3
									L559.5,1014.3z"/>
							</g>
						</g>
					</g>
				</g>
			</g>
		</g>
	</g>
</g>
<g>
</g>
<g>
</g>
<g>
</g>
<g>
</g>
<g>
</g>
<g>
</g>
</svg>
