<?xml version="1.0" encoding="utf-8"?>
<!-- Generator: Adobe Illustrator 22.0.1, SVG Export Plug-In . SVG Version: 6.00 Build 0)  -->
<svg version="1.1" id="Layer_1" xmlns="http://www.w3.org/2000/svg" xmlns:xlink="http://www.w3.org/1999/xlink" x="0px" y="0px"
	 viewBox="0 0 768 1232.9" style="enable-background:new 0 0 768 1232.9;" xml:space="preserve">
<style type="text/css">
	.st0{fill:#DD101C;}
	.st1{clip-path:url(#SVGID_2_);}
	.st2{fill:#FC9E51;}
	.st3{fill:#FD9B50;}
	.st4{fill:#FC714A;}
	.st5{fill:#FC7214;}
	.st6{fill:#FDA152;}
	.st7{fill:#FD8845;}
	.st8{fill:#FD652D;}
	.st9{fill:#FC6943;}
	.st10{fill:#FD902D;}
	.st11{fill:#FD6C62;}
	.st12{fill:#FD564B;}
	.st13{fill:#F32D47;}
	.st14{fill:#F53348;}
	.st15{fill:#FD392F;}
	.st16{fill:#FD5B45;}
	.st17{fill:#EE274A;}
	.st18{fill:#E21A33;}
	.st19{fill:#F55724;}
	.st20{fill:#FD4133;}
	.st21{fill:#FD8948;}
	.st22{fill:#FC804D;}
	.st23{fill:#FC7149;}
	.st24{fill:#FD5643;}
	.st25{fill:#FD4E3B;}
	.st26{fill:#FD3A52;}
	.st27{fill:#FD9A41;}
	.st28{fill:#FD914A;}
	.st29{fill:#FC8046;}
	.st30{fill:#FD7324;}
	.st31{fill:#FD6518;}
	.st32{fill:#F6404E;}
	.st33{fill:#FD4A2F;}
	.st34{fill:#CF2050;}
	.st35{fill:#FB4E1D;}
	.st36{fill:#C0181D;}
	.st37{fill:#FC5E2E;}
	.st38{fill:#FC5344;}
	.st39{fill:#F94155;}
	.st40{fill:#FC7935;}
	.st41{fill:#FD7A3E;}
	.st42{fill:#FD3D47;}
	.st43{fill:#FD7024;}
	.st44{fill:#FD4A4E;}
	.st45{fill:#FD2C72;}
	.st46{fill:#FD6343;}
	.st47{fill:#FD842C;}
	.st48{fill:#E72526;}
	.st49{fill:#FD9535;}
	.st50{fill:#FD7F10;}
	.st51{fill:#F55F2C;}
	.st52{fill:#F0422D;}
	.st53{fill:#CC1E29;}
	.st54{fill:#FD6515;}
	.st55{fill:#C2181E;}
	.st56{fill:#FD8823;}
	.st57{fill:#FD800C;}
	.st58{fill:#FD7312;}
	.st59{fill:#F14F3D;}
	.st60{fill:#F5491E;}
	.st61{fill:#EB3628;}
	.st62{fill:#FD732F;}
	.st63{fill:#FC7933;}
	.st64{fill:#FD6E11;}
	.st65{fill:#FC861A;}
	.st66{fill:#DE3228;}
	.st67{fill:#F63C2B;}
	.st68{fill:#E0462D;}
	.st69{fill:#FD8328;}
	.st70{fill:#FD8B28;}
	.st71{fill:#FD4A2A;}
	.st72{fill:#FC5E4A;}
	.st73{fill:#F12527;}
	.st74{fill:#FD5B34;}
	.st75{fill:#FD3A5C;}
	.st76{fill:#FD414B;}
	.st77{fill:#FD315F;}
	.st78{fill:#E31E6F;}
	.st79{fill:#FD7031;}
	.st80{fill:#FD6537;}
	.st81{fill:#FD6646;}
	.st82{fill:#FD5C56;}
	.st83{fill:#EF2048;}
	.st84{fill:#FD3845;}
	.st85{fill:#FD4E48;}
	.st86{fill:#FD4E4D;}
	.st87{fill:#C01346;}
	.st88{fill:#C21738;}
	.st89{fill:#E8222E;}
	.st90{fill:#EA252E;}
	.st91{fill:#FC7216;}
	.st92{fill:#FF8D2A;}
	.st93{clip-path:url(#SVGID_4_);}
	.st94{fill:none;stroke:#FFFFFF;stroke-width:3;stroke-linejoin:round;stroke-miterlimit:10;}
</style>
<g>
	<g>
		<g>
			<polygon class="st0" points="203.9,750.9 215.5,750.9 215.5,796 235.7,796 235.7,805.3 203.9,805.3 			"/>
			<path class="st0" d="M241.6,795.1c0-10.4,10.7-14.1,21.2-14.1h1.4v-2.3c0-3.8-1.7-5.5-6.4-5.5c-4.3,0-7.8,1.9-10.1,3.8l-4.7-6.6
				c3.2-2.9,8.6-5.7,16.1-5.7c10.9,0,16,4.2,16,14.7v14.3c0,5.4,0.6,9.2,1.1,11.8h-10.7c-0.3-1-0.6-3-0.7-4.2
				c-2.1,2.6-6,5.2-11.2,5.2C246.8,806.3,241.6,802.2,241.6,795.1 M264.2,794.8v-7.2h-1.4c-6.4,0-10.8,1.9-10.8,6.5
				c0,2.9,2.4,4.2,4.8,4.2C260.2,798.3,262.5,796.8,264.2,794.8"/>
			<path class="st0" d="M282,802.5l3.7-7.6c1.6,1.1,5.4,3.3,9.8,3.3c4.2,0,6.5-1.2,6.5-3.6c0-2.7-4.4-3.4-10-6.1
				c-5.6-2.6-8.9-5.7-8.9-11.8c0-7.4,5.9-12.2,14.9-12.2c6.8,0,10.9,2.1,12.7,3.2l-3.8,7.4c-1.6-1-4.7-2.5-8.5-2.5s-5.5,1.4-5.5,3.5
				c0,2.7,3.6,3.4,8.2,5.2c6.3,2.6,10.9,5.5,10.9,12.2c0,8.3-6,12.7-15.8,12.7C289,806.2,284.5,804.1,282,802.5"/>
			<path class="st0" d="M317,785.2c0-12.6,8.6-20.6,19.7-20.6c11.3,0,17.3,7.2,17.3,19.6c0,1.2-0.1,2.5-0.2,3.8h-25.1
				c0.5,5.9,3.5,10.3,10.1,10.3c5.4,0,8.4-1.8,10.4-2.8l3.5,7c-2.6,1.5-6.7,3.8-14.9,3.8C324.6,806.3,317,797.8,317,785.2
				 M343.4,780.5c-0.1-4.5-1.9-8.2-6.9-8.2c-4.7,0-7.2,3-8,8.2H343.4z"/>
			<path class="st0" d="M362.3,765.5h10.9v5.4c1.7-2.9,5-6.4,10-6.4c2.9,0,4.5,0.6,5.4,1.1l-2.6,9.5c-0.7-0.4-1.9-0.9-4.2-0.9
				c-4.8,0-7.7,4.2-8.7,6v25.1h-10.9v-39.8L362.3,765.5L362.3,765.5z"/>
			<polygon class="st0" points="420.8,760.4 405.8,760.4 405.8,750.9 447.3,750.9 447.3,760.4 432.4,760.4 432.4,805.3 420.8,805.3 
							"/>
			<path class="st0" d="M445.6,785.2c0-12.6,8.6-20.6,19.7-20.6c11.3,0,17.3,7.2,17.3,19.6c0,1.2-0.1,2.5-0.2,3.8h-25.1
				c0.5,5.9,3.5,10.3,10.1,10.3c5.4,0,8.4-1.8,10.4-2.8l3.5,7c-2.6,1.5-6.7,3.8-14.9,3.8C453.1,806.3,445.6,797.8,445.6,785.2
				 M472,780.5c-0.1-4.5-1.9-8.2-6.9-8.2c-4.7,0-7.2,3-8,8.2H472z"/>
			<path class="st0" d="M488,785.4c0-13.4,8.9-20.9,20.9-20.9c6.4,0,10.3,2,12.2,3.2l-3.5,7.4c-1.8-1.1-4.3-2.4-8.3-2.4
				c-6.4,0-9.7,5-9.7,12.3s3.2,12.7,10,12.7c4.6,0,7.3-1.7,8.6-2.4l3.3,7.3c-1.9,1.2-5.5,3.6-12.8,3.6
				C495.8,806.2,488,797.8,488,785.4"/>
			<path class="st0" d="M528,746.5h11v23.8c2-2.2,5.9-5.8,12.4-5.8c8.7,0,11.9,5.5,11.9,12.9v27.8h-10.9v-25.6c0-4-1.4-6-5.2-6
				c-4.2,0-7.4,3.9-8.2,5v26.7h-11V746.5z"/>
		</g>
		<rect x="500.5" y="820.2" class="st0" width="62.7" height="5.4"/>
	</g>
	<g>
		<path class="st0" d="M378.3,856.9c-0.7-1.1-1.7-2-2.9-2.7c-1.2-0.7-2.7-1.1-4.3-1.1c-1.7,0-3.2,0.2-4.5,0.8s-2.5,1.4-3.4,2.4
			s-1.7,2.2-2.1,3.6c-0.5,1.4-0.7,2.9-0.7,4.6c0,1.6,0.2,3.2,0.7,4.6c0.5,1.4,1.2,2.6,2.1,3.6s2.1,1.8,3.4,2.4s2.8,0.8,4.5,0.8
			c1.6,0,3-0.4,4.3-1.1c1.2-0.7,2.2-1.6,2.9-2.7l3.3,2.5c-1.4,1.7-3,2.9-4.8,3.7c-1.8,0.8-3.7,1.2-5.6,1.3c-2.3,0-4.4-0.3-6.3-1.1
			c-1.9-0.8-3.5-1.8-4.8-3.1c-1.3-1.3-2.3-2.9-3-4.8s-1-3.9-1-6c0-2.2,0.3-4.2,1-6c0.7-1.9,1.7-3.5,3-4.8s2.9-2.4,4.8-3.1
			s4-1.1,6.3-1.1c2,0,3.8,0.5,5.6,1.3c1.8,0.8,3.4,2,4.8,3.7L378.3,856.9z"/>
		<path class="st0" d="M378.3,856.9c-0.7-1.1-1.7-2-2.9-2.7c-1.2-0.7-2.7-1.1-4.3-1.1c-1.7,0-3.2,0.2-4.5,0.8s-2.5,1.4-3.4,2.4
			s-1.7,2.2-2.1,3.6c-0.5,1.4-0.7,2.9-0.7,4.6c0,1.6,0.2,3.2,0.7,4.6c0.5,1.4,1.2,2.6,2.1,3.6s2.1,1.8,3.4,2.4s2.8,0.8,4.5,0.8
			c1.6,0,3-0.4,4.3-1.1c1.2-0.7,2.2-1.6,2.9-2.7l3.3,2.5c-1.4,1.7-3,2.9-4.8,3.7c-1.8,0.8-3.7,1.2-5.6,1.3c-2.3,0-4.4-0.3-6.3-1.1
			c-1.9-0.8-3.5-1.8-4.8-3.1c-1.3-1.3-2.3-2.9-3-4.8s-1-3.9-1-6c0-2.2,0.3-4.2,1-6c0.7-1.9,1.7-3.5,3-4.8s2.9-2.4,4.8-3.1
			s4-1.1,6.3-1.1c2,0,3.8,0.5,5.6,1.3c1.8,0.8,3.4,2,4.8,3.7L378.3,856.9z"/>
		<path class="st0" d="M434.2,864.5c0,2.2-0.4,4.2-1.1,6c-0.8,1.8-1.8,3.4-3.1,4.8c-1.4,1.3-3,2.4-4.8,3.1c-1.9,0.8-3.9,1.1-6.1,1.1
			s-4.2-0.4-6.1-1.1c-1.9-0.8-3.5-1.8-4.8-3.1c-1.3-1.3-2.4-2.9-3.1-4.8c-0.8-1.8-1.1-3.8-1.1-6s0.4-4.2,1.1-6
			c0.8-1.8,1.8-3.4,3.1-4.8c1.4-1.4,3-2.4,4.8-3.2c1.9-0.7,3.9-1.1,6.1-1.1s4.3,0.4,6.1,1.1c1.9,0.8,3.5,1.8,4.8,3.2
			c1.3,1.3,2.4,2.9,3.1,4.8C433.8,860.3,434.2,862.3,434.2,864.5 M429.8,864.5c0-1.6-0.3-3.1-0.8-4.5s-1.2-2.6-2.2-3.6
			s-2.1-1.8-3.4-2.4s-2.8-0.9-4.5-0.9c-1.6,0-3.1,0.3-4.5,0.9c-1.3,0.6-2.5,1.4-3.4,2.4s-1.6,2.2-2.1,3.6s-0.8,2.9-0.8,4.5
			s0.3,3.1,0.8,4.5s1.2,2.6,2.1,3.6s2.1,1.8,3.4,2.4s2.8,0.9,4.5,0.9s3.2-0.3,4.5-0.9s2.5-1.4,3.4-2.4s1.7-2.2,2.2-3.6
			S429.8,866.1,429.8,864.5"/>
		<path class="st0" d="M434.2,864.5c0,2.2-0.4,4.2-1.1,6c-0.8,1.8-1.8,3.4-3.1,4.8c-1.4,1.3-3,2.4-4.8,3.1c-1.9,0.8-3.9,1.1-6.1,1.1
			s-4.2-0.4-6.1-1.1c-1.9-0.8-3.5-1.8-4.8-3.1c-1.3-1.3-2.4-2.9-3.1-4.8c-0.8-1.8-1.1-3.8-1.1-6s0.4-4.2,1.1-6
			c0.8-1.8,1.8-3.4,3.1-4.8c1.4-1.4,3-2.4,4.8-3.2c1.9-0.7,3.9-1.1,6.1-1.1s4.3,0.4,6.1,1.1c1.9,0.8,3.5,1.8,4.8,3.2
			c1.3,1.3,2.4,2.9,3.1,4.8C433.8,860.3,434.2,862.3,434.2,864.5z M429.8,864.5c0-1.6-0.3-3.1-0.8-4.5s-1.2-2.6-2.2-3.6
			s-2.1-1.8-3.4-2.4s-2.8-0.9-4.5-0.9c-1.6,0-3.1,0.3-4.5,0.9c-1.3,0.6-2.5,1.4-3.4,2.4s-1.6,2.2-2.1,3.6s-0.8,2.9-0.8,4.5
			s0.3,3.1,0.8,4.5s1.2,2.6,2.1,3.6s2.1,1.8,3.4,2.4s2.8,0.9,4.5,0.9s3.2-0.3,4.5-0.9s2.5-1.4,3.4-2.4s1.7-2.2,2.2-3.6
			S429.8,866.1,429.8,864.5z"/>
		<path class="st0" d="M460.3,859.1c0-0.6,0-1.3,0-1.9s0-1.3-0.1-2c0-0.7,0-1.5-0.1-2.3c0-0.8,0-1.8-0.1-2.8h4v5.3h0.1
			c0.3-0.8,0.7-1.5,1.2-2.2s1.2-1.4,1.9-1.9c0.7-0.6,1.6-1,2.6-1.4c1-0.3,2.1-0.5,3.4-0.5c1.1,0,2.1,0.1,3,0.4l-0.8,4
			c-0.5-0.2-1.3-0.3-2.3-0.3c-1.5,0-2.8,0.3-3.9,0.9s-2.1,1.3-2.8,2.3c-0.7,0.9-1.3,1.9-1.6,3c-0.3,1.1-0.5,2.1-0.5,3.1v16.1h-4
			L460.3,859.1L460.3,859.1z"/>
		<path class="st0" d="M460.3,859.1c0-0.6,0-1.3,0-1.9s0-1.3-0.1-2c0-0.7,0-1.5-0.1-2.3c0-0.8,0-1.8-0.1-2.8h4v5.3h0.1
			c0.3-0.8,0.7-1.5,1.2-2.2s1.2-1.4,1.9-1.9c0.7-0.6,1.6-1,2.6-1.4c1-0.3,2.1-0.5,3.4-0.5c1.1,0,2.1,0.1,3,0.4l-0.8,4
			c-0.5-0.2-1.3-0.3-2.3-0.3c-1.5,0-2.8,0.3-3.9,0.9s-2.1,1.3-2.8,2.3c-0.7,0.9-1.3,1.9-1.6,3c-0.3,1.1-0.5,2.1-0.5,3.1v16.1h-4
			L460.3,859.1L460.3,859.1z"/>
		<path class="st0" d="M513.5,853.9h-8.3v16.9c0,1.1,0.1,1.9,0.3,2.6c0.2,0.7,0.5,1.2,0.9,1.6s0.8,0.6,1.3,0.8
			c0.5,0.1,1.1,0.2,1.7,0.2c0.7,0,1.4-0.1,2.1-0.3c0.7-0.2,1.4-0.5,2-0.8l0.2,3.7c-1.5,0.7-3.3,1-5.4,1c-0.8,0-1.6-0.1-2.4-0.3
			c-0.8-0.2-1.6-0.6-2.3-1.2c-0.7-0.6-1.3-1.4-1.7-2.3s-0.7-2.3-0.7-3.9v-18H495v-3.7h6.1v-8.1h4v8.1h8.3L513.5,853.9L513.5,853.9z"
			/>
		<path class="st0" d="M513.5,853.9h-8.3v16.9c0,1.1,0.1,1.9,0.3,2.6c0.2,0.7,0.5,1.2,0.9,1.6s0.8,0.6,1.3,0.8
			c0.5,0.1,1.1,0.2,1.7,0.2c0.7,0,1.4-0.1,2.1-0.3c0.7-0.2,1.4-0.5,2-0.8l0.2,3.7c-1.5,0.7-3.3,1-5.4,1c-0.8,0-1.6-0.1-2.4-0.3
			c-0.8-0.2-1.6-0.6-2.3-1.2c-0.7-0.6-1.3-1.4-1.7-2.3s-0.7-2.3-0.7-3.9v-18H495v-3.7h6.1v-8.1h4v8.1h8.3L513.5,853.9L513.5,853.9z"
			/>
		<path class="st0" d="M540,865.6c0.1,1.4,0.5,2.8,1,4c0.6,1.3,1.3,2.3,2.3,3.3c0.9,0.9,2,1.6,3.2,2.2c1.2,0.5,2.6,0.8,4,0.8
			c2.2,0,4-0.5,5.6-1.5s2.8-2.2,3.6-3.5l3.1,2.6c-1.7,2.2-3.6,3.7-5.7,4.7c-2.1,0.9-4.3,1.4-6.6,1.4c-2.1,0-4.1-0.4-5.9-1.1
			c-1.8-0.8-3.4-1.8-4.7-3.1c-1.3-1.3-2.3-2.9-3.1-4.8c-0.8-1.8-1.1-3.8-1.1-6s0.4-4.2,1.1-6c0.7-1.8,1.7-3.4,3.1-4.8
			c1.3-1.3,2.8-2.4,4.6-3.2c1.8-0.7,3.6-1.1,5.7-1.1c2.2,0,4.1,0.4,5.8,1.2s3.1,1.8,4.3,3.1s2,2.8,2.7,4.5c0.6,1.7,0.9,3.6,0.9,5.5
			v1.8L540,865.6L540,865.6z M559.5,862.3c0-2.7-0.8-4.9-2.4-6.6c-1.6-1.7-3.9-2.5-6.8-2.5c-1.3,0-2.6,0.2-3.8,0.8
			c-1.2,0.5-2.3,1.2-3.2,2c-0.9,0.9-1.7,1.8-2.2,2.9c-0.6,1.1-0.8,2.2-0.8,3.4L559.5,862.3L559.5,862.3z"/>
		<path class="st0" d="M540,865.6c0.1,1.4,0.5,2.8,1,4c0.6,1.3,1.3,2.3,2.3,3.3c0.9,0.9,2,1.6,3.2,2.2c1.2,0.5,2.6,0.8,4,0.8
			c2.2,0,4-0.5,5.6-1.5s2.8-2.2,3.6-3.5l3.1,2.6c-1.7,2.2-3.6,3.7-5.7,4.7c-2.1,0.9-4.3,1.4-6.6,1.4c-2.1,0-4.1-0.4-5.9-1.1
			c-1.8-0.8-3.4-1.8-4.7-3.1c-1.3-1.3-2.3-2.9-3.1-4.8c-0.8-1.8-1.1-3.8-1.1-6s0.4-4.2,1.1-6c0.7-1.8,1.7-3.4,3.1-4.8
			c1.3-1.3,2.8-2.4,4.6-3.2c1.8-0.7,3.6-1.1,5.7-1.1c2.2,0,4.1,0.4,5.8,1.2s3.1,1.8,4.3,3.1s2,2.8,2.7,4.5c0.6,1.7,0.9,3.6,0.9,5.5
			v1.8L540,865.6L540,865.6z M559.5,862.3c0-2.7-0.8-4.9-2.4-6.6c-1.6-1.7-3.9-2.5-6.8-2.5c-1.3,0-2.6,0.2-3.8,0.8
			c-1.2,0.5-2.3,1.2-3.2,2c-0.9,0.9-1.7,1.8-2.2,2.9c-0.6,1.1-0.8,2.2-0.8,3.4L559.5,862.3L559.5,862.3z"/>
	</g>
</g>
<g>
	<defs>
		<rect id="SVGID_1_" width="771.4" height="738"/>
	</defs>
	<clipPath id="SVGID_2_">
		<use xlink:href="#SVGID_1_"  style="overflow:visible;"/>
	</clipPath>
	<g class="st1">
		<g>
			<polygon id="XMLID_1772_" class="st2" points="428.2,284.2 356.9,284.2 356.9,212.9 			"/>
			<polygon id="XMLID_1771_" class="st3" points="428.2,141.6 428.2,212.9 356.9,212.9 			"/>
			<polygon id="XMLID_1770_" class="st4" points="214.3,212.9 143.1,284.2 143.1,212.9 			"/>
			<polygon id="XMLID_1769_" class="st5" points="285.6,284.2 214.3,284.2 214.3,212.9 			"/>
			<polygon id="XMLID_1768_" class="st6" points="428.2,355.5 356.9,355.5 428.2,284.2 			"/>
			<polygon id="XMLID_1767_" class="st7" points="356.9,284.2 356.9,355.5 285.6,284.2 			"/>
			<polygon id="XMLID_1766_" class="st8" points="214.3,355.5 143.1,426.8 143.1,355.5 			"/>
			<polygon id="XMLID_1765_" class="st9" points="214.3,284.2 214.3,355.5 143.1,284.2 			"/>
			<polygon id="XMLID_1764_" class="st10" points="428.2,498.1 356.9,498.1 428.2,426.8 			"/>
			<polygon id="XMLID_1763_" class="st11" points="143.1,212.9 71.8,212.9 143.1,141.6 			"/>
			<polygon id="XMLID_1762_" class="st12" points="143.1,284.2 71.8,284.2 71.8,212.9 			"/>
			<polygon id="XMLID_1761_" class="st13" points="-142.2,284.2 -142.2,212.9 -70.9,212.9 			"/>
			<polygon id="XMLID_1760_" class="st14" points="0.5,284.2 -70.9,284.2 -70.9,212.9 			"/>
			<polygon id="XMLID_1759_" class="st15" points="71.8,284.2 71.8,355.5 0.5,284.2 			"/>
			<polygon id="XMLID_1758_" class="st16" points="143.1,355.5 71.8,355.5 143.1,284.2 			"/>
			<polygon id="XMLID_1757_" class="st17" points="-70.9,284.2 -70.9,355.5 -142.2,284.2 			"/>
			<polygon id="XMLID_1756_" class="st18" points="-70.9,355.5 -142.2,426.8 -142.2,355.5 			"/>
			<polygon id="XMLID_1755_" class="st19" points="143.1,498.1 71.8,498.1 143.1,426.8 			"/>
			<polygon id="XMLID_1754_" class="st20" points="143.1,70.3 143.1,141.6 71.8,70.3 			"/>
			<polygon id="XMLID_1753_" class="st21" points="428.2,212.9 428.2,284.2 356.9,212.9 			"/>
			<polygon id="XMLID_1752_" class="st22" points="356.9,284.2 285.6,284.2 356.9,212.9 			"/>
			<polygon id="XMLID_1751_" class="st23" points="214.3,284.2 143.1,284.2 214.3,212.9 			"/>
			<polygon id="XMLID_1750_" class="st24" points="143.1,212.9 143.1,284.2 71.8,212.9 			"/>
			<polygon id="XMLID_1749_" class="st25" points="71.8,284.2 0.5,284.2 71.8,212.9 			"/>
			<polygon id="XMLID_1748_" class="st26" points="-70.9,284.2 -142.2,284.2 -70.9,212.9 			"/>
			<polygon id="XMLID_1747_" class="st27" points="428.2,355.5 428.2,426.8 356.9,355.5 			"/>
			<polygon id="XMLID_1746_" class="st28" points="428.2,284.2 356.9,355.5 356.9,284.2 			"/>
			<polygon id="XMLID_1745_" class="st29" points="285.6,284.2 214.3,355.5 214.3,284.2 			"/>
			<polygon id="XMLID_1744_" class="st30" points="214.3,355.5 143.1,355.5 143.1,284.2 			"/>
			<polygon id="XMLID_1743_" class="st31" points="143.1,355.5 143.1,426.8 71.8,355.5 			"/>
			<polygon id="XMLID_1742_" class="st32" points="143.1,284.2 71.8,355.5 71.8,284.2 			"/>
			<polygon id="XMLID_1741_" class="st33" points="0.5,284.2 -70.9,355.5 -70.9,284.2 			"/>
			<polygon id="XMLID_1740_" class="st34" points="-213.5,355.5 -213.5,284.2 -142.2,284.2 			"/>
			<polygon id="XMLID_1739_" class="st35" points="214.3,498.1 143.1,498.1 143.1,426.8 			"/>
			<polygon id="XMLID_1738_" class="st36" points="-70.9,498.1 -142.2,498.1 -142.2,426.8 			"/>
			<polygon id="XMLID_1737_" class="st22" points="356.9,141.6 428.2,141.6 356.9,212.9 			"/>
			<polygon id="XMLID_1736_" class="st24" points="143.1,141.6 71.8,212.9 71.8,141.6 			"/>
			<polygon id="XMLID_1735_" class="st37" points="214.3,141.6 214.3,212.9 143.1,141.6 			"/>
			<polygon id="XMLID_1734_" class="st11" points="-70.9,212.9 -142.2,141.6 -70.9,141.6 			"/>
			<polygon id="XMLID_1733_" class="st38" points="71.8,212.9 0.5,212.9 0.5,141.6 			"/>
			<polygon id="XMLID_1732_" class="st7" points="356.9,212.9 285.6,284.2 285.6,212.9 			"/>
			<polygon id="XMLID_1731_" class="st39" points="71.8,141.6 71.8,212.9 0.5,141.6 			"/>
			<polygon id="XMLID_1730_" class="st32" points="71.8,212.9 0.5,284.2 0.5,212.9 			"/>
			<polygon id="XMLID_1729_" class="st11" points="71.8,141.6 0.5,141.6 71.8,70.3 			"/>
			<polygon id="XMLID_1728_" class="st40" points="285.6,212.9 285.6,284.2 214.3,212.9 			"/>
			<polygon id="XMLID_1727_" class="st41" points="285.6,141.6 214.3,212.9 214.3,141.6 			"/>
			<polygon id="XMLID_1726_" class="st42" points="0.5,212.9 0.5,284.2 -70.9,212.9 			"/>
			<polygon id="XMLID_1725_" class="st43" points="285.6,212.9 214.3,212.9 285.6,141.6 			"/>
			<polygon id="XMLID_1724_" class="st44" points="143.1,141.6 71.8,141.6 71.8,70.3 			"/>
			<polygon id="XMLID_1723_" class="st45" points="0.5,141.6 0.5,70.3 71.8,70.3 			"/>
			<polygon id="XMLID_1722_" class="st46" points="214.3,141.6 143.1,141.6 214.3,70.3 			"/>
			<polygon id="XMLID_1721_" class="st47" points="285.6,355.5 285.6,426.8 214.3,355.5 			"/>
			<polygon id="XMLID_1720_" class="st48" points="0.5,355.5 0.5,426.8 -70.9,355.5 			"/>
			<polygon id="XMLID_1719_" class="st49" points="428.2,426.8 356.9,498.1 356.9,426.8 			"/>
			<polygon id="XMLID_1718_" class="st50" points="356.9,498.1 285.6,498.1 285.6,426.8 			"/>
			<polygon id="XMLID_1717_" class="st51" points="143.1,426.8 71.8,498.1 71.8,426.8 			"/>
			<polygon id="XMLID_1716_" class="st52" points="71.8,498.1 0.5,498.1 0.5,426.8 			"/>
			<polygon id="XMLID_1715_" class="st53" points="-142.2,426.8 -213.5,498.1 -213.5,426.8 			"/>
			<polygon id="XMLID_1714_" class="st54" points="214.3,426.8 214.3,498.1 143.1,426.8 			"/>
			<polygon id="XMLID_1713_" class="st55" points="-70.9,426.8 -70.9,498.1 -142.2,426.8 			"/>
			<polygon id="XMLID_1712_" class="st56" points="428.2,426.8 356.9,426.8 356.9,355.5 			"/>
			<polygon id="XMLID_1711_" class="st57" points="356.9,355.5 285.6,426.8 285.6,355.5 			"/>
			<polygon id="XMLID_1710_" class="st58" points="285.6,498.1 214.3,498.1 285.6,426.8 			"/>
			<polygon id="XMLID_1709_" class="st59" points="71.8,355.5 0.5,426.8 0.5,355.5 			"/>
			<polygon id="XMLID_1708_" class="st60" points="143.1,426.8 71.8,426.8 71.8,355.5 			"/>
			<polygon id="XMLID_1707_" class="st61" points="0.5,498.1 -70.9,498.1 0.5,426.8 			"/>
			<polygon id="XMLID_1706_" class="st62" points="214.3,426.8 143.1,426.8 214.3,355.5 			"/>
			<polygon id="XMLID_1705_" class="st63" points="285.6,355.5 214.3,355.5 285.6,284.2 			"/>
			<polygon id="XMLID_1704_" class="st64" points="285.6,426.8 214.3,426.8 214.3,355.5 			"/>
			<polygon id="XMLID_1703_" class="st65" points="356.9,426.8 356.9,498.1 285.6,426.8 			"/>
			<polygon id="XMLID_1702_" class="st66" points="0.5,426.8 -70.9,426.8 -70.9,355.5 			"/>
			<polygon id="XMLID_1701_" class="st67" points="0.5,355.5 -70.9,355.5 0.5,284.2 			"/>
			<polygon id="XMLID_1700_" class="st33" points="-142.2,285.5 -214.7,285.5 -142.2,212.9 			"/>
			<polygon id="XMLID_1699_" class="st68" points="71.8,426.8 71.8,498.1 0.5,426.8 			"/>
			<polygon id="XMLID_1698_" class="st69" points="356.9,426.8 285.6,426.8 356.9,355.5 			"/>
			<polygon id="XMLID_1697_" class="st70" points="356.9,355.5 285.6,355.5 285.6,284.2 			"/>
			<polygon id="XMLID_1696_" class="st71" points="71.8,426.8 0.5,426.8 71.8,355.5 			"/>
			<polygon id="XMLID_1695_" class="st72" points="70.9,355.5 -0.4,355.5 -0.4,284.2 			"/>
			<polygon id="XMLID_1694_" class="st50" points="285.6,426.8 214.3,498.1 214.3,426.8 			"/>
			<polygon id="XMLID_1693_" class="st73" points="0.5,426.8 -70.9,498.1 -70.9,426.8 			"/>
			<polygon id="XMLID_1692_" class="st74" points="143.1,212.9 214.3,212.9 143.1,141.6 			"/>
			<polygon id="XMLID_1691_" class="st75" points="-70.9,70.3 -70.9,-1 0.5,70.3 			"/>
			<polygon id="XMLID_1690_" class="st76" points="0.5,141.6 -70.9,141.6 0.5,70.3 			"/>
			<polygon id="XMLID_1689_" class="st76" points="-142.4,141.9 -213.7,141.9 -142.4,70.6 			"/>
			<polygon id="XMLID_1688_" class="st77" points="143.1,-1 143.1,70.3 71.8,-1 			"/>
			<polygon id="XMLID_1687_" class="st78" points="0.5,-1 -70.9,-1 0.5,-72.3 			"/>
			<polygon id="XMLID_1686_" class="st79" points="285.6,70.3 285.6,141.6 214.3,141.6 			"/>
			<polygon id="XMLID_1685_" class="st79" points="-142.2,141.6 -142.2,212.9 -213.5,212.9 			"/>
			<polygon id="XMLID_1684_" class="st80" points="285.6,70.3 214.3,-1 285.6,-1 			"/>
			<polygon id="XMLID_1683_" class="st40" points="285.6,141.6 356.9,141.6 285.6,212.9 			"/>
			<polygon id="XMLID_1668_" class="st81" points="356.9,-1 428.2,70.3 356.9,70.3 			"/>
			<polygon id="XMLID_1667_" class="st82" points="214.3,-1 214.3,-72.3 285.6,-72.3 			"/>
			<polygon id="XMLID_1666_" class="st83" points="-213.5,284.2 -213.5,212.9 -142.2,212.9 			"/>
			<polygon id="XMLID_1665_" class="st84" points="0.5,-1 71.8,-1 0.5,70.3 			"/>
			<polygon id="XMLID_1664_" class="st85" points="71.8,-72.3 71.8,-1 0.5,-72.3 			"/>
			<polygon id="XMLID_1663_" class="st86" points="214.3,-1 214.3,70.3 143.1,70.3 			"/>
			<polygon id="XMLID_1662_" class="st3" points="285.6,70.3 356.9,141.6 285.6,141.6 			"/>
		</g>
		<g>
			<polygon id="XMLID_1661_" class="st6" points="428.2,640.9 356.9,640.9 428.2,712.2 			"/>
			<polygon id="XMLID_1660_" class="st7" points="356.9,712.2 356.9,640.9 285.6,712.2 			"/>
			<polygon id="XMLID_1659_" class="st8" points="214.3,640.9 143.1,569.6 143.1,640.9 			"/>
			<polygon id="XMLID_1658_" class="st18" points="-70.9,640.9 -142.2,569.6 -142.2,640.9 			"/>
			<polygon id="XMLID_1657_" class="st87" points="-142.2,640.9 -213.5,640.9 -142.2,712.2 			"/>
			<polygon id="XMLID_1656_" class="st19" points="143.1,498.3 71.8,498.3 143.1,569.6 			"/>
			<polygon id="XMLID_1655_" class="st88" points="-142.2,498.3 -213.5,498.3 -142.2,569.6 			"/>
			<polygon id="XMLID_1654_" class="st31" points="143.1,640.9 143.1,569.6 71.8,640.9 			"/>
			<polygon id="XMLID_1653_" class="st35" points="214.3,498.3 143.1,498.3 143.1,569.6 			"/>
			<polygon id="XMLID_1652_" class="st49" points="428.2,569.6 356.9,498.3 356.9,569.6 			"/>
			<polygon id="XMLID_1651_" class="st50" points="356.9,498.3 285.6,498.3 285.6,569.6 			"/>
			<polygon id="XMLID_1650_" class="st51" points="143.1,569.6 71.8,498.3 71.8,569.6 			"/>
			<polygon id="XMLID_1649_" class="st52" points="71.8,498.3 0.5,498.3 0.5,569.6 			"/>
			<polygon id="XMLID_1648_" class="st54" points="214.3,569.6 214.3,498.3 143.1,569.6 			"/>
			<polygon id="XMLID_1647_" class="st55" points="-70.9,569.6 -70.9,498.3 -142.2,569.6 			"/>
			<polygon id="XMLID_1646_" class="st56" points="428.2,569.6 356.9,569.6 356.9,640.9 			"/>
			<polygon id="XMLID_1645_" class="st57" points="356.9,640.9 285.6,569.6 285.6,640.9 			"/>
			<polygon id="XMLID_1644_" class="st58" points="285.6,498.3 214.3,498.3 285.6,569.6 			"/>
			<polygon id="XMLID_1643_" class="st59" points="71.8,640.9 0.5,569.6 0.5,640.9 			"/>
			<polygon id="XMLID_1642_" class="st60" points="143.1,569.6 71.8,569.6 71.8,640.9 			"/>
			<polygon id="XMLID_1641_" class="st61" points="0.5,498.3 -70.9,498.3 0.5,569.6 			"/>
			<polygon id="XMLID_1640_" class="st62" points="214.3,569.6 143.1,569.6 214.3,640.9 			"/>
			<polygon id="XMLID_1639_" class="st89" points="-70.9,569.6 -142.2,569.6 -70.9,640.9 			"/>
			<polygon id="XMLID_1638_" class="st64" points="285.6,569.6 214.3,569.6 214.3,640.9 			"/>
			<polygon id="XMLID_1637_" class="st65" points="356.9,569.6 356.9,498.3 285.6,569.6 			"/>
			<polygon id="XMLID_1636_" class="st33" points="-213.2,568.3 -213.2,640.9 -140.6,568.3 			"/>
			<polygon id="XMLID_1635_" class="st68" points="71.8,569.6 71.8,498.3 0.5,569.6 			"/>
			<polygon id="XMLID_1634_" class="st71" points="71.8,569.6 0.5,569.6 71.8,640.9 			"/>
			<polygon id="XMLID_1633_" class="st73" points="0.5,569.6 -70.9,498.3 -70.9,569.6 			"/>
		</g>
	</g>
	<g id="XMLID_1773_" class="st1">
		<polygon id="XMLID_1780_" class="st90" points="198.4,246 170.4,205 117.9,252.3 		"/>
		<polygon id="XMLID_1779_" class="st91" points="168.8,204.7 309.9,216.8 248,315.6 		"/>
		<polygon id="XMLID_1778_" class="st92" points="483.5,293.2 248,315.6 382.6,100.8 		"/>
		<polygon id="XMLID_1777_" class="st90" points="483.5,293.2 544.7,525.6 440,440.6 		"/>
		<polygon id="XMLID_1776_" class="st91" points="639.9,43.1 483.5,293.2 382.6,100.8 		"/>
		<polygon id="XMLID_1775_" class="st90" points="619.1,76.1 693.7,73.1 483.5,293.2 		"/>
		<polygon id="XMLID_1774_" class="st91" points="483.5,293.2 449.7,407.5 270.5,351 248,315.6 		"/>
	</g>
	<g class="st1">
		<g>
			<g>
				<defs>
					<rect id="SVGID_3_" x="-218.8" y="-175.1" width="642.3" height="887.2"/>
				</defs>
				<clipPath id="SVGID_4_">
					<use xlink:href="#SVGID_3_"  style="overflow:visible;"/>
				</clipPath>
				<g id="XMLID_1625_" class="st93">
					<polygon id="XMLID_1632_" class="st94" points="198.7,246.1 170.7,205.1 118.3,252.4 					"/>
					<polygon id="XMLID_1631_" class="st94" points="169.1,204.9 310.1,217 248.3,315.6 					"/>
					<polygon id="XMLID_1630_" class="st94" points="483.4,293.2 248.3,315.6 382.7,101 					"/>
					<polygon id="XMLID_1629_" class="st94" points="483.4,293.2 544.6,525.4 440,440.4 					"/>
					<polygon id="XMLID_1627_" class="st94" points="618.9,76.4 693.3,73.4 483.4,293.2 					"/>
					<polygon id="XMLID_1626_" class="st94" points="483.4,293.2 449.7,407.4 270.7,350.9 248.3,315.6 					"/>
				</g>
			</g>
			<polygon id="XMLID_1628_" class="st94" points="639.7,43.4 483.4,293.2 382.7,101 			"/>
		</g>
	</g>
</g>
</svg>
