<?xml version="1.0" encoding="utf-8"?>
<!-- Generator: Adobe Illustrator 22.0.1, SVG Export Plug-In . SVG Version: 6.00 Build 0)  -->
<svg version="1.1" id="Layer_1" xmlns="http://www.w3.org/2000/svg" xmlns:xlink="http://www.w3.org/1999/xlink" x="0px" y="0px"
	 viewBox="0 0 1366 768" style="enable-background:new 0 0 1366 768;" xml:space="preserve">
<style type="text/css">
	.st0{fill:#FFA82D;}
	.st1{fill:#FF8310;}
	.st2{fill:#FFC764;}
	.st3{fill:#FF714A;}
	.st4{fill:#FF7214;}
	.st5{fill:#FF8A45;}
	.st6{fill:#FF652D;}
	.st7{fill:#FF6943;}
	.st8{fill:#FF6C62;}
	.st9{fill:#FF564B;}
	.st10{fill:#F52D47;}
	.st11{fill:#F73348;}
	.st12{fill:#FF392F;}
	.st13{fill:#FF5B45;}
	.st14{fill:#F0274A;}
	.st15{fill:#E41A33;}
	.st16{fill:#C21346;}
	.st17{fill:#F75724;}
	.st18{fill:#C41738;}
	.st19{fill:#FF4133;}
	.st20{fill:#FF804D;}
	.st21{fill:#FF7149;}
	.st22{fill:#FF5643;}
	.st23{fill:#FF4E3B;}
	.st24{fill:#FF3A52;}
	.st25{fill:#FF9C41;}
	.st26{fill:#FF934A;}
	.st27{fill:#FF8146;}
	.st28{fill:#FF6518;}
	.st29{fill:#FF4A2F;}
	.st30{fill:#D51C42;}
	.st31{fill:#DB254C;}
	.st32{fill:#C2181D;}
	.st33{fill:#FF5E2E;}
	.st34{fill:#FF5344;}
	.st35{fill:#FB4155;}
	.st36{fill:#F8404E;}
	.st37{fill:#FF7935;}
	.st38{fill:#FF7A3E;}
	.st39{fill:#FF3D47;}
	.st40{fill:#FF7024;}
	.st41{fill:#FF4A4E;}
	.st42{fill:#FF2C72;}
	.st43{fill:#FF6343;}
	.st44{fill:#FF862C;}
	.st45{fill:#E92526;}
	.st46{fill:#FF9734;}
	.st47{fill:#F85F2C;}
	.st48{fill:#F2422D;}
	.st49{fill:#FF6515;}
	.st50{fill:#C5181E;}
	.st51{fill:#FF820B;}
	.st52{fill:#FF7312;}
	.st53{fill:#F44F3D;}
	.st54{fill:#F7491E;}
	.st55{fill:#EE3628;}
	.st56{fill:#FF732F;}
	.st57{fill:#EA222E;}
	.st58{fill:#FF7933;}
	.st59{fill:#FF6E11;}
	.st60{fill:#FF881A;}
	.st61{fill:#E03228;}
	.st62{fill:#F83C2B;}
	.st63{fill:#E2462D;}
	.st64{fill:#FF8528;}
	.st65{fill:#FF8D28;}
	.st66{fill:#FF4A2A;}
	.st67{fill:#FF5E4A;}
	.st68{fill:#FF7F10;}
	.st69{fill:#F32527;}
	.st70{fill:#FF5B34;}
	.st71{fill:#FF3A5C;}
	.st72{fill:#FF414B;}
	.st73{fill:#FF315F;}
	.st74{fill:#E61E6F;}
	.st75{fill:#FF7031;}
	.st76{fill:#FF6537;}
	.st77{fill:#FF6646;}
	.st78{fill:#FF5C56;}
	.st79{fill:#F12048;}
	.st80{fill:#FF3845;}
	.st81{fill:#FF4E48;}
	.st82{fill:#FF4E4D;}
	.st83{fill:#FF9D50;}
	.st84{clip-path:url(#SVGID_2_);}
	.st85{fill:none;stroke:#FFFFFF;stroke-width:3;stroke-linejoin:round;stroke-miterlimit:10;}
	.st86{fill:#DF101C;}
</style>
<g>
	<g id="XMLID_173_">
		<polygon id="XMLID_186_" class="st0" points="796.1,661.8 766,566.8 801.8,588.3 		"/>
		<polygon id="XMLID_185_" class="st1" points="761.3,437.6 801.8,588.3 766,566.8 673.7,527.1 		"/>
		<polygon id="XMLID_184_" class="st0" points="815,478.1 788.1,472.1 769.4,468 761.3,437.6 		"/>
		<polygon id="XMLID_183_" class="st2" points="822.4,513 788,472.1 814.8,478.1 		"/>
		<polygon id="XMLID_182_" class="st2" points="761.3,437.6 584.2,417.9 673.7,527.1 		"/>
		<polygon id="XMLID_181_" class="st1" points="537.1,531.8 673.7,527.1 513.5,432.1 		"/>
		<polygon id="XMLID_180_" class="st0" points="584.2,417.9 513.5,432.1 673.7,527.1 		"/>
		<polygon id="XMLID_179_" class="st0" points="537.1,531.8 543.7,661.8 584.2,530.3 		"/>
		<polygon id="XMLID_178_" class="st1" points="796.1,661.8 783.9,661.8 783.9,623.3 		"/>
		<polygon id="XMLID_177_" class="st1" points="501.3,246.5 513.5,432.1 584.2,417.9 		"/>
		<polygon id="XMLID_176_" class="st0" points="534.7,144.8 501.3,246.5 529,303.8 		"/>
		<polygon id="XMLID_175_" class="st1" points="472.3,163.5 479.6,179.5 523.3,179.5 534.7,144.8 		"/>
		<polygon id="XMLID_174_" class="st1" points="543.7,661.8 525.8,661.8 541.3,614.3 		"/>
	</g>
	<g>
		<polygon id="XMLID_172_" class="st3" points="304.8,268.3 381.5,345 304.8,345 		"/>
		<polygon id="XMLID_171_" class="st4" points="381.5,191.5 381.5,268.3 304.8,268.3 		"/>
		<polygon id="XMLID_156_" class="st5" points="381.5,114.8 458.2,114.8 381.5,191.5 		"/>
		<polygon id="XMLID_155_" class="st6" points="458.2,268.3 534.9,345 458.2,345 		"/>
		<polygon id="XMLID_151_" class="st7" points="381.5,268.3 458.2,268.3 381.5,345 		"/>
		<polygon id="XMLID_150_" class="st8" points="304.8,345 304.8,421.6 228.1,345 		"/>
		<polygon id="XMLID_149_" class="st9" points="381.5,345 381.5,421.6 304.8,421.6 		"/>
		<polygon id="XMLID_146_" class="st10" points="381.5,651.8 304.8,651.8 304.8,575 		"/>
		<polygon id="XMLID_145_" class="st11" points="381.5,498.4 381.5,575 304.8,575 		"/>
		<polygon id="XMLID_144_" class="st12" points="381.5,421.6 458.2,421.6 381.5,498.4 		"/>
		<polygon id="XMLID_143_" class="st13" points="458.2,345 458.2,421.6 381.5,345 		"/>
		<polygon id="XMLID_142_" class="st14" points="381.5,575 458.2,575 381.5,651.8 		"/>
		<polygon id="XMLID_141_" class="st15" points="458.2,575 534.9,651.8 458.2,651.8 		"/>
		<polygon id="XMLID_140_" class="st16" points="458.2,651.8 458.2,728.4 381.5,651.8 		"/>
		<polygon id="XMLID_139_" class="st17" points="611.5,345 611.5,421.6 534.9,345 		"/>
		<polygon id="XMLID_138_" class="st18" points="611.5,651.8 611.5,728.4 534.9,651.8 		"/>
		<polygon id="XMLID_137_" class="st19" points="151.4,345 228.1,345 151.4,421.6 		"/>
		<polygon id="XMLID_136_" class="st20" points="381.5,114.8 381.5,191.5 304.8,114.8 		"/>
		<polygon id="XMLID_135_" class="st21" points="381.5,268.3 381.5,345 304.8,268.3 		"/>
		<polygon id="XMLID_134_" class="st22" points="304.8,345 381.5,345 304.8,421.6 		"/>
		<polygon id="XMLID_132_" class="st23" points="381.5,421.6 381.5,498.4 304.8,421.6 		"/>
		<polygon id="XMLID_131_" class="st24" points="381.5,575 381.5,651.8 304.8,575 		"/>
		<polygon id="XMLID_130_" class="st25" points="458.2,38.2 534.9,38.2 458.2,114.8 		"/>
		<polygon id="XMLID_129_" class="st26" points="381.5,38.2 458.2,114.8 381.5,114.8 		"/>
		<polygon id="XMLID_128_" class="st27" points="381.5,191.5 458.2,268.3 381.5,268.3 		"/>
		<polygon id="XMLID_122_" class="st28" points="458.2,345 534.9,345 458.2,421.6 		"/>
		<polygon id="XMLID_121_" class="st29" points="381.5,498.4 458.2,575 381.5,575 		"/>
		<polygon id="XMLID_120_" class="st30" points="458.2,575 458.2,651.8 381.5,651.8 		"/>
		<polygon id="XMLID_119_" class="st31" points="458.2,651.8 534.9,651.8 458.2,728.4 		"/>
		<polygon id="XMLID_118_" class="st32" points="611.5,575 611.5,651.8 534.9,651.8 		"/>
		<polygon id="XMLID_117_" class="st20" points="228.1,114.8 228.1,38.2 304.8,114.8 		"/>
		<polygon id="XMLID_116_" class="st22" points="228.1,345 304.8,421.6 228.1,421.6 		"/>
		<polygon id="XMLID_115_" class="st33" points="228.1,268.3 304.8,268.3 228.1,345 		"/>
		<polygon id="XMLID_113_" class="st8" points="304.8,575 228.1,651.8 228.1,575 		"/>
		<polygon id="XMLID_112_" class="st34" points="304.8,421.6 304.8,498.4 228.1,498.4 		"/>
		<polygon id="XMLID_110_" class="st5" points="304.8,114.8 381.5,191.5 304.8,191.5 		"/>
		<polygon id="XMLID_109_" class="st35" points="228.1,421.6 304.8,421.6 228.1,498.4 		"/>
		<polygon id="XMLID_108_" class="st36" points="304.8,421.6 381.5,498.4 304.8,498.4 		"/>
		<polygon id="XMLID_107_" class="st8" points="228.1,421.6 228.1,498.4 151.4,421.6 		"/>
		<polygon id="XMLID_106_" class="st37" points="304.8,191.5 381.5,191.5 304.8,268.3 		"/>
		<polygon id="XMLID_105_" class="st38" points="228.1,191.5 304.8,268.3 228.1,268.3 		"/>
		<polygon id="XMLID_104_" class="st39" points="304.8,498.4 381.5,498.4 304.8,575 		"/>
		<polygon id="XMLID_103_" class="st40" points="304.8,191.5 304.8,268.3 228.1,191.5 		"/>
		<polygon id="XMLID_102_" class="st41" points="228.1,345 228.1,421.6 151.4,421.6 		"/>
		<polygon id="XMLID_101_" class="st42" points="228.1,498.4 151.4,498.4 151.4,421.6 		"/>
		<polygon id="XMLID_100_" class="st43" points="228.1,268.3 228.1,345 151.4,268.3 		"/>
		<polygon id="XMLID_99_" class="st44" points="458.2,191.5 534.9,191.5 458.2,268.3 		"/>
		<polygon id="XMLID_98_" class="st45" points="458.2,498.4 534.9,498.4 458.2,575 		"/>
		<polygon id="XMLID_97_" class="st46" points="534.9,38.2 611.5,114.8 534.9,114.8 		"/>
		<polygon id="XMLID_96_" class="st47" points="534.9,345 611.5,421.6 534.9,421.6 		"/>
		<polygon id="XMLID_94_" class="st48" points="611.5,421.6 611.5,498.4 534.9,498.4 		"/>
		<polygon id="XMLID_93_" class="st49" points="534.9,268.3 611.5,268.3 534.9,345 		"/>
		<polygon id="XMLID_92_" class="st50" points="534.9,575 611.5,575 534.9,651.8 		"/>
		<polygon id="XMLID_89_" class="st51" points="458.2,114.8 534.9,191.5 458.2,191.5 		"/>
		<polygon id="XMLID_88_" class="st52" points="611.5,191.5 611.5,268.3 534.9,191.5 		"/>
		<polygon id="XMLID_87_" class="st53" points="458.2,421.6 534.9,498.4 458.2,498.4 		"/>
		<polygon id="XMLID_86_" class="st54" points="534.9,345 534.9,421.6 458.2,421.6 		"/>
		<polygon id="XMLID_85_" class="st55" points="611.5,498.4 611.5,575 534.9,498.4 		"/>
		<polygon id="XMLID_83_" class="st56" points="534.9,268.3 534.9,345 458.2,268.3 		"/>
		<polygon id="XMLID_82_" class="st57" points="534.9,575 534.9,651.8 458.2,575 		"/>
		<polygon id="XMLID_79_" class="st58" points="458.2,191.5 458.2,268.3 381.5,191.5 		"/>
		<polygon id="XMLID_77_" class="st59" points="534.9,191.5 534.9,268.3 458.2,268.3 		"/>
		<polygon id="XMLID_76_" class="st60" points="534.9,114.8 611.5,114.8 534.9,191.5 		"/>
		<polygon id="XMLID_75_" class="st61" points="534.9,498.4 534.9,575 458.2,575 		"/>
		<polygon id="XMLID_74_" class="st62" points="458.2,498.4 458.2,575 381.5,498.4 		"/>
		<polygon id="XMLID_73_" class="st29" points="382.9,651.8 382.9,729.8 304.8,651.8 		"/>
		<polygon id="XMLID_72_" class="st29" points="536.2,728.1 458.1,728.1 536.2,650 		"/>
		<polygon id="XMLID_71_" class="st63" points="534.9,421.6 611.5,421.6 534.9,498.4 		"/>
		<polygon id="XMLID_69_" class="st64" points="534.9,114.8 534.9,191.5 458.2,114.8 		"/>
		<polyline id="XMLID_68_" class="st65" points="458.2,114.8 458.2,191.5 381.5,191.5 		"/>
		<polygon id="XMLID_64_" class="st66" points="534.9,421.6 534.9,498.4 458.2,421.6 		"/>
		<polygon id="XMLID_63_" class="st67" points="458.2,422.6 458.2,499.4 381.5,499.4 		"/>
		<polygon id="XMLID_61_" class="st68" points="534.9,191.5 611.5,268.3 534.9,268.3 		"/>
		<polygon id="XMLID_60_" class="st69" points="534.9,498.4 611.5,575 534.9,575 		"/>
		<polygon id="XMLID_59_" class="st70" points="304.8,345 304.8,268.3 228.1,345 		"/>
		<polygon id="XMLID_58_" class="st71" points="151.4,575 74.7,575 151.4,498.4 		"/>
		<polygon id="XMLID_57_" class="st72" points="228.1,498.4 228.1,575 151.4,498.4 		"/>
		<polygon id="XMLID_56_" class="st72" points="228.4,651.9 228.4,728.6 151.7,651.9 		"/>
		<polygon id="XMLID_55_" class="st73" points="74.7,345 151.4,345 74.7,421.6 		"/>
		<polygon id="XMLID_52_" class="st74" points="74.7,498.4 74.7,575 -2,498.4 		"/>
		<polygon id="XMLID_51_" class="st75" points="151.4,191.5 228.1,191.5 228.1,268.3 		"/>
		<polygon id="XMLID_50_" class="st75" points="228.1,651.8 304.8,651.8 304.8,728.4 		"/>
		<polygon id="XMLID_49_" class="st76" points="151.4,191.5 74.7,268.3 74.7,191.5 		"/>
		<polygon id="XMLID_48_" class="st37" points="228.1,191.5 228.1,114.8 304.8,191.5 		"/>
		<polygon id="XMLID_47_" class="st77" points="74.7,114.8 151.4,38.2 151.4,114.8 		"/>
		<polygon id="XMLID_45_" class="st78" points="74.7,268.3 -2,268.3 -2,191.5 		"/>
		<polygon id="XMLID_24_" class="st79" points="381.5,728.4 304.8,728.4 304.8,651.8 		"/>
		<polygon id="XMLID_23_" class="st80" points="74.7,498.4 74.7,421.6 151.4,498.4 		"/>
		<polygon id="XMLID_22_" class="st81" points="-2,421.6 74.7,421.6 -2,498.4 		"/>
		<polygon id="XMLID_21_" class="st82" points="74.7,268.3 151.4,268.3 151.4,345 		"/>
		<polygon id="XMLID_20_" class="st83" points="151.4,191.5 228.1,114.8 228.1,191.5 		"/>
	</g>
	<g>
		<g>
			<defs>
				<rect id="SVGID_1_" x="434" y="103.5" width="177.5" height="619.4"/>
			</defs>
			<clipPath id="SVGID_2_">
				<use xlink:href="#SVGID_1_"  style="overflow:visible;"/>
			</clipPath>
			<g id="XMLID_3_" class="st84">
				<polygon id="XMLID_19_" class="st85" points="796.1,661.8 766,566.8 801.8,588.3 				"/>
				<polygon id="XMLID_18_" class="st85" points="761.3,437.6 801.8,588.3 766,566.8 673.7,527.1 				"/>
				<polygon id="XMLID_17_" class="st85" points="815,478.1 788.1,472.1 769.4,468 761.3,437.6 				"/>
				<polygon id="XMLID_16_" class="st85" points="822.4,513 788,472.1 814.8,478.1 				"/>
				<polygon id="XMLID_15_" class="st85" points="761.3,437.6 584.2,417.9 673.7,527.1 				"/>
				<polygon id="XMLID_14_" class="st85" points="537.1,531.8 673.7,527.1 513.5,432.1 				"/>
				<polygon id="XMLID_13_" class="st85" points="584.2,417.9 513.5,432.1 673.7,527.1 				"/>
				<polygon id="XMLID_9_" class="st85" points="537.1,531.8 543.7,661.8 584.2,530.3 				"/>
				<polygon id="XMLID_8_" class="st85" points="796.1,661.8 783.9,661.8 783.9,623.3 				"/>
				<polygon id="XMLID_7_" class="st85" points="501.3,246.5 513.5,432.1 584.2,417.9 				"/>
				<polygon id="XMLID_6_" class="st85" points="534.7,144.8 501.3,246.5 529,303.8 				"/>
				<polygon id="XMLID_5_" class="st85" points="472.3,163.5 479.6,179.5 523.3,179.5 534.7,144.8 				"/>
				<polygon id="XMLID_4_" class="st85" points="543.7,661.8 525.8,661.8 541.3,614.3 				"/>
			</g>
		</g>
	</g>
	<g>
		<g>
			<polygon class="st86" points="766.7,318.9 776.5,318.9 776.5,357 793.6,357 793.6,364.9 766.7,364.9 			"/>
			<path class="st86" d="M798.5,356.3c0-8.8,9-11.9,17.9-11.9h1.2v-1.9c0-3.2-1.4-4.7-5.4-4.7c-3.7,0-6.6,1.6-8.6,3.2l-4-5.6
				c2.7-2.5,7.2-4.8,13.6-4.8c9.2,0,13.5,3.5,13.5,12.4v11.9c0,4.6,0.5,7.8,1,9.9h-9c-0.3-0.8-0.5-2.6-0.6-3.6
				c-1.8,2.2-5.1,4.4-9.4,4.4C803,365.6,798.5,362.3,798.5,356.3 M817.6,356v-6.1h-1.2c-5.4,0-9.1,1.6-9.1,5.5c0,2.5,2,3.5,4.1,3.5
				C814.3,359,816.2,357.6,817.6,356"/>
			<path class="st86" d="M832.7,362.5l3.1-6.4c1.3,0.9,4.6,2.8,8.3,2.8c3.5,0,5.5-1,5.5-3c0-2.3-3.7-2.9-8.5-5.2
				c-4.7-2.2-7.5-4.8-7.5-9.9c0-6.3,5-10.3,12.6-10.3c5.7,0,9.2,1.8,10.8,2.7l-3.2,6.3c-1.3-0.8-3.9-2.1-7.2-2.1
				c-3.2,0-4.6,1.2-4.6,3c0,2.3,3,2.9,6.9,4.4c5.3,2.2,9.2,4.6,9.2,10.3c0,7-5,10.8-13.3,10.8C838.6,365.6,834.8,363.9,832.7,362.5"
				/>
			<path class="st86" d="M862.3,347.9c0-10.6,7.3-17.5,16.6-17.5c9.5,0,14.6,6.1,14.6,16.6c0,1-0.1,2.1-0.1,3.2h-21.2
				c0.4,5,3,8.7,8.6,8.7c4.6,0,7.1-1.5,8.8-2.3l3,5.9c-2.2,1.2-5.7,3.2-12.6,3.2C868.6,365.6,862.3,358.6,862.3,347.9 M884.6,344
				c-0.1-3.8-1.6-6.9-5.8-6.9c-3.9,0-6.1,2.5-6.8,6.9H884.6z"/>
			<path class="st86" d="M900.5,331.3h9.2v4.6c1.4-2.5,4.2-5.4,8.5-5.4c2.5,0,3.8,0.5,4.6,0.9l-2.2,8c-0.6-0.3-1.6-0.8-3.5-0.8
				c-4.1,0-6.5,3.6-7.3,5.1v21.2h-9.2L900.5,331.3L900.5,331.3z"/>
			<polygon class="st86" points="950,326.9 937.3,326.9 937.3,318.9 972.4,318.9 972.4,326.9 959.7,326.9 959.7,364.9 950,364.9 			
				"/>
			<path class="st86" d="M970.9,347.9c0-10.6,7.3-17.5,16.6-17.5c9.5,0,14.6,6.1,14.6,16.6c0,1-0.1,2.1-0.1,3.2h-21.2
				c0.4,5,3,8.7,8.6,8.7c4.6,0,7.1-1.5,8.8-2.3l3,5.9c-2.2,1.2-5.7,3.2-12.6,3.2C977.3,365.6,970.9,358.6,970.9,347.9 M993.2,344
				c-0.1-3.8-1.6-6.9-5.8-6.9c-3.9,0-6.1,2.5-6.8,6.9H993.2z"/>
			<path class="st86" d="M1006.7,348.1c0-11.3,7.5-17.7,17.7-17.7c5.4,0,8.7,1.7,10.3,2.7l-3,6.3c-1.5-1-3.7-2-7-2
				c-5.4,0-8.2,4.2-8.2,10.4c0,6.2,2.7,10.8,8.4,10.8c3.9,0,6.2-1.4,7.2-2.1l2.8,6.1c-1.6,1-4.7,3-10.8,3
				C1013.3,365.6,1006.7,358.5,1006.7,348.1"/>
			<path class="st86" d="M1040.6,315.1h9.2v20.1c1.7-1.9,5-4.9,10.5-4.9c7.4,0,10.1,4.7,10.1,10.9v23.6h-9.2v-21.7
				c0-3.4-1.2-5.1-4.4-5.1c-3.6,0-6.3,3.3-7,4.2v22.6h-9.2V315.1z"/>
		</g>
		<rect x="1017.4" y="377.5" class="st86" width="53" height="4.5"/>
		<path class="st86" d="M821.1,412.6c0-0.4,0-0.9,0-1.4c0-0.6-0.1-1.1-0.1-1.7s0-1.1-0.1-1.6c0-0.5,0-0.9,0-1.2h2.7
			c0,0.8,0.1,1.5,0.1,2.3c0,0.7,0.1,1.2,0.1,1.4h0.1c0.5-1.1,1.4-2.1,2.7-3c1.3-0.8,2.7-1.2,4.4-1.2c1.4,0,2.7,0.4,3.8,1.1
			s2,1.9,2.5,3.5c0.7-1.6,1.7-2.7,3-3.4c1.3-0.7,2.7-1.1,4.1-1.1c1.6,0,3,0.3,4,0.8s1.9,1.2,2.4,2c0.6,0.8,1,1.8,1.2,2.9
			s0.3,2.2,0.3,3.3v12.4h-2.7v-12.3c0-0.8-0.1-1.7-0.2-2.5c-0.2-0.8-0.4-1.5-0.8-2.1c-0.4-0.6-0.9-1.1-1.6-1.5
			c-0.7-0.4-1.6-0.6-2.6-0.6c-1.3,0-2.3,0.2-3.1,0.7s-1.5,1.1-1.9,1.8c-0.5,0.7-0.8,1.5-1,2.3s-0.3,1.6-0.3,2.4v11.7h-2.7V415
			c0-1.9-0.4-3.5-1.1-4.7c-0.7-1.2-1.8-1.8-3.3-1.8c-1,0-1.9,0.2-2.8,0.5c-0.9,0.3-1.7,0.9-2.3,1.6s-1.2,1.6-1.5,2.7
			c-0.4,1.1-0.6,2.3-0.6,3.8v10.4h-2.7L821.1,412.6L821.1,412.6z"/>
		<path class="st86" d="M821.1,412.6c0-0.4,0-0.9,0-1.4c0-0.6-0.1-1.1-0.1-1.7s0-1.1-0.1-1.6c0-0.5,0-0.9,0-1.2h2.7
			c0,0.8,0.1,1.5,0.1,2.3c0,0.7,0.1,1.2,0.1,1.4h0.1c0.5-1.1,1.4-2.1,2.7-3c1.3-0.8,2.7-1.2,4.4-1.2c1.4,0,2.7,0.4,3.8,1.1
			s2,1.9,2.5,3.5c0.7-1.6,1.7-2.7,3-3.4c1.3-0.7,2.7-1.1,4.1-1.1c1.6,0,3,0.3,4,0.8s1.9,1.2,2.4,2c0.6,0.8,1,1.8,1.2,2.9
			s0.3,2.2,0.3,3.3v12.4h-2.7v-12.3c0-0.8-0.1-1.7-0.2-2.5c-0.2-0.8-0.4-1.5-0.8-2.1c-0.4-0.6-0.9-1.1-1.6-1.5
			c-0.7-0.4-1.6-0.6-2.6-0.6c-1.3,0-2.3,0.2-3.1,0.7s-1.5,1.1-1.9,1.8c-0.5,0.7-0.8,1.5-1,2.3s-0.3,1.6-0.3,2.4v11.7h-2.7V415
			c0-1.9-0.4-3.5-1.1-4.7c-0.7-1.2-1.8-1.8-3.3-1.8c-1,0-1.9,0.2-2.8,0.5c-0.9,0.3-1.7,0.9-2.3,1.6s-1.2,1.6-1.5,2.7
			c-0.4,1.1-0.6,2.3-0.6,3.8v10.4h-2.7L821.1,412.6L821.1,412.6z"/>
		<path class="st86" d="M889.4,418.9c0,1,0,1.9,0,2.8c0,0.8,0,1.6,0.1,2.3c0,0.7,0.1,1.3,0.1,1.9c0.1,0.6,0.1,1.2,0.2,1.8h-2.5
			c-0.2-1.1-0.3-2.2-0.3-3.4h-0.1c-0.8,1.4-1.8,2.3-2.9,3c-1.2,0.6-2.6,0.9-4.4,0.9c-0.9,0-1.8-0.1-2.7-0.3
			c-0.9-0.2-1.7-0.6-2.4-1.1s-1.3-1.1-1.7-1.9s-0.7-1.7-0.7-2.9c0-1.6,0.4-2.9,1.2-3.8s1.8-1.6,3-2.1s2.5-0.8,3.8-0.9
			s2.5-0.2,3.5-0.2h3.2v-1.3c0-1.8-0.6-3.1-1.7-3.9c-1.1-0.8-2.5-1.2-4.2-1.2c-2.4,0-4.5,0.8-6.4,2.3l-1.6-1.9c1-1,2.2-1.7,3.7-2.2
			s2.9-0.7,4.2-0.7c2.5,0,4.6,0.6,6.1,1.8c1.5,1.2,2.3,3.1,2.3,5.8v5.2H889.4z M884,417.1c-1.1,0-2.2,0.1-3.3,0.2
			c-1.1,0.2-2.1,0.4-2.9,0.8c-0.9,0.4-1.5,0.8-2.1,1.4c-0.5,0.6-0.8,1.4-0.8,2.3c0,0.6,0.1,1.2,0.4,1.7c0.3,0.5,0.7,0.9,1.1,1.2
			c0.5,0.3,1,0.6,1.5,0.7c0.6,0.2,1.1,0.3,1.7,0.3c1.4,0,2.6-0.2,3.6-0.6c0.9-0.4,1.7-1,2.2-1.7c0.6-0.7,0.9-1.4,1.2-2.3
			c0.2-0.9,0.3-1.7,0.3-2.6v-1.4H884z"/>
		<path class="st86" d="M889.4,418.9c0,1,0,1.9,0,2.8c0,0.8,0,1.6,0.1,2.3c0,0.7,0.1,1.3,0.1,1.9c0.1,0.6,0.1,1.2,0.2,1.8h-2.5
			c-0.2-1.1-0.3-2.2-0.3-3.4h-0.1c-0.8,1.4-1.8,2.3-2.9,3c-1.2,0.6-2.6,0.9-4.4,0.9c-0.9,0-1.8-0.1-2.7-0.3
			c-0.9-0.2-1.7-0.6-2.4-1.1s-1.3-1.1-1.7-1.9s-0.7-1.7-0.7-2.9c0-1.6,0.4-2.9,1.2-3.8s1.8-1.6,3-2.1s2.5-0.8,3.8-0.9
			s2.5-0.2,3.5-0.2h3.2v-1.3c0-1.8-0.6-3.1-1.7-3.9c-1.1-0.8-2.5-1.2-4.2-1.2c-2.4,0-4.5,0.8-6.4,2.3l-1.6-1.9c1-1,2.2-1.7,3.7-2.2
			s2.9-0.7,4.2-0.7c2.5,0,4.6,0.6,6.1,1.8c1.5,1.2,2.3,3.1,2.3,5.8v5.2H889.4z M884,417.1c-1.1,0-2.2,0.1-3.3,0.2
			c-1.1,0.2-2.1,0.4-2.9,0.8c-0.9,0.4-1.5,0.8-2.1,1.4c-0.5,0.6-0.8,1.4-0.8,2.3c0,0.6,0.1,1.2,0.4,1.7c0.3,0.5,0.7,0.9,1.1,1.2
			c0.5,0.3,1,0.6,1.5,0.7c0.6,0.2,1.1,0.3,1.7,0.3c1.4,0,2.6-0.2,3.6-0.6c0.9-0.4,1.7-1,2.2-1.7c0.6-0.7,0.9-1.4,1.2-2.3
			c0.2-0.9,0.3-1.7,0.3-2.6v-1.4H884z"/>
		<path class="st86" d="M910.2,412.6c0-0.4,0-0.9,0-1.4c0-0.6-0.1-1.1-0.1-1.7s0-1.1-0.1-1.6c0-0.5,0-0.9,0-1.2h2.7
			c0,0.8,0.1,1.5,0.1,2.3c0,0.7,0.1,1.2,0.1,1.4c0.7-1.2,1.6-2.2,2.7-3c1.1-0.8,2.4-1.2,4-1.2c0.3,0,0.5,0,0.8,0.1
			c0.3,0,0.5,0.1,0.8,0.2l-0.3,2.7c-0.4-0.1-0.7-0.2-1-0.2c-1.2,0-2.2,0.2-3,0.6c-0.9,0.4-1.6,0.9-2.1,1.6c-0.6,0.7-1,1.4-1.2,2.3
			c-0.3,0.9-0.4,1.8-0.4,2.9v11.4h-2.7v-15.2H910.2z"/>
		<path class="st86" d="M910.2,412.6c0-0.4,0-0.9,0-1.4c0-0.6-0.1-1.1-0.1-1.7s0-1.1-0.1-1.6c0-0.5,0-0.9,0-1.2h2.7
			c0,0.8,0.1,1.5,0.1,2.3c0,0.7,0.1,1.2,0.1,1.4c0.7-1.2,1.6-2.2,2.7-3c1.1-0.8,2.4-1.2,4-1.2c0.3,0,0.5,0,0.8,0.1
			c0.3,0,0.5,0.1,0.8,0.2l-0.3,2.7c-0.4-0.1-0.7-0.2-1-0.2c-1.2,0-2.2,0.2-3,0.6c-0.9,0.4-1.6,0.9-2.1,1.6c-0.6,0.7-1,1.4-1.2,2.3
			c-0.3,0.9-0.4,1.8-0.4,2.9v11.4h-2.7v-15.2H910.2z"/>
		<path class="st86" d="M955.5,424.6c-1,1.2-2.2,2.1-3.5,2.7s-2.7,0.9-4.2,0.9c-1.6,0-3.1-0.3-4.4-0.8c-1.3-0.5-2.5-1.3-3.5-2.3
			s-1.7-2.1-2.3-3.5c-0.5-1.3-0.8-2.8-0.8-4.4s0.3-3.1,0.8-4.4s1.3-2.5,2.3-3.5s2.1-1.7,3.5-2.3c1.3-0.5,2.8-0.8,4.4-0.8
			c1.5,0,3,0.3,4.3,0.9s2.5,1.5,3.5,2.7l-2.2,1.6c-0.8-0.9-1.6-1.6-2.6-2.1c-0.9-0.5-1.9-0.7-3-0.7c-1.3,0-2.4,0.2-3.4,0.7
			s-1.9,1.1-2.6,1.8c-0.7,0.8-1.3,1.7-1.7,2.7s-0.6,2.1-0.6,3.3c0,1.2,0.2,2.3,0.6,3.3c0.4,1,0.9,1.9,1.7,2.7
			c0.7,0.8,1.6,1.4,2.6,1.8c1,0.5,2.2,0.7,3.4,0.7c1.1,0,2.2-0.3,3.1-0.8c0.9-0.5,1.8-1.2,2.5-2.1L955.5,424.6z"/>
		<path class="st86" d="M955.5,424.6c-1,1.2-2.2,2.1-3.5,2.7s-2.7,0.9-4.2,0.9c-1.6,0-3.1-0.3-4.4-0.8c-1.3-0.5-2.5-1.3-3.5-2.3
			s-1.7-2.1-2.3-3.5c-0.5-1.3-0.8-2.8-0.8-4.4s0.3-3.1,0.8-4.4s1.3-2.5,2.3-3.5s2.1-1.7,3.5-2.3c1.3-0.5,2.8-0.8,4.4-0.8
			c1.5,0,3,0.3,4.3,0.9s2.5,1.5,3.5,2.7l-2.2,1.6c-0.8-0.9-1.6-1.6-2.6-2.1c-0.9-0.5-1.9-0.7-3-0.7c-1.3,0-2.4,0.2-3.4,0.7
			s-1.9,1.1-2.6,1.8c-0.7,0.8-1.3,1.7-1.7,2.7s-0.6,2.1-0.6,3.3c0,1.2,0.2,2.3,0.6,3.3c0.4,1,0.9,1.9,1.7,2.7
			c0.7,0.8,1.6,1.4,2.6,1.8c1,0.5,2.2,0.7,3.4,0.7c1.1,0,2.2-0.3,3.1-0.8c0.9-0.5,1.8-1.2,2.5-2.1L955.5,424.6z"/>
		<path class="st86" d="M989.6,418.9c0,1,0,1.9,0,2.8c0,0.8,0,1.6,0.1,2.3c0,0.7,0.1,1.3,0.1,1.9s0.1,1.2,0.2,1.8h-2.5
			c-0.2-1.1-0.3-2.2-0.3-3.4h-0.1c-0.8,1.4-1.8,2.3-2.9,3c-1.2,0.6-2.6,0.9-4.4,0.9c-0.9,0-1.8-0.1-2.7-0.3
			c-0.9-0.2-1.7-0.6-2.3-1.1c-0.7-0.5-1.3-1.1-1.7-1.9s-0.7-1.7-0.7-2.9c0-1.6,0.4-2.9,1.2-3.8s1.8-1.6,3-2.1s2.5-0.8,3.8-0.9
			s2.5-0.2,3.5-0.2h3.2v-1.3c0-1.8-0.6-3.1-1.7-3.9c-1.1-0.8-2.5-1.2-4.2-1.2c-2.4,0-4.5,0.8-6.4,2.3l-1.6-1.9c1-1,2.2-1.7,3.7-2.2
			s2.9-0.7,4.2-0.7c2.5,0,4.6,0.6,6.1,1.8c1.5,1.2,2.3,3.1,2.3,5.8v5.2H989.6z M984.1,417.1c-1.1,0-2.2,0.1-3.3,0.2
			c-1.1,0.2-2.1,0.4-2.9,0.8c-0.9,0.4-1.6,0.8-2.1,1.4s-0.8,1.4-0.8,2.3c0,0.6,0.1,1.2,0.4,1.7c0.3,0.5,0.7,0.9,1.1,1.2
			c0.5,0.3,1,0.6,1.5,0.7c0.6,0.2,1.1,0.3,1.7,0.3c1.5,0,2.6-0.2,3.6-0.6c0.9-0.4,1.7-1,2.2-1.7c0.6-0.7,0.9-1.4,1.2-2.3
			c0.2-0.9,0.3-1.7,0.3-2.6v-1.4H984.1z"/>
		<path class="st86" d="M989.6,418.9c0,1,0,1.9,0,2.8c0,0.8,0,1.6,0.1,2.3c0,0.7,0.1,1.3,0.1,1.9s0.1,1.2,0.2,1.8h-2.5
			c-0.2-1.1-0.3-2.2-0.3-3.4h-0.1c-0.8,1.4-1.8,2.3-2.9,3c-1.2,0.6-2.6,0.9-4.4,0.9c-0.9,0-1.8-0.1-2.7-0.3
			c-0.9-0.2-1.7-0.6-2.3-1.1c-0.7-0.5-1.3-1.1-1.7-1.9s-0.7-1.7-0.7-2.9c0-1.6,0.4-2.9,1.2-3.8s1.8-1.6,3-2.1s2.5-0.8,3.8-0.9
			s2.5-0.2,3.5-0.2h3.2v-1.3c0-1.8-0.6-3.1-1.7-3.9c-1.1-0.8-2.5-1.2-4.2-1.2c-2.4,0-4.5,0.8-6.4,2.3l-1.6-1.9c1-1,2.2-1.7,3.7-2.2
			s2.9-0.7,4.2-0.7c2.5,0,4.6,0.6,6.1,1.8c1.5,1.2,2.3,3.1,2.3,5.8v5.2H989.6z M984.1,417.1c-1.1,0-2.2,0.1-3.3,0.2
			c-1.1,0.2-2.1,0.4-2.9,0.8c-0.9,0.4-1.6,0.8-2.1,1.4s-0.8,1.4-0.8,2.3c0,0.6,0.1,1.2,0.4,1.7c0.3,0.5,0.7,0.9,1.1,1.2
			c0.5,0.3,1,0.6,1.5,0.7c0.6,0.2,1.1,0.3,1.7,0.3c1.5,0,2.6-0.2,3.6-0.6c0.9-0.4,1.7-1,2.2-1.7c0.6-0.7,0.9-1.4,1.2-2.3
			c0.2-0.9,0.3-1.7,0.3-2.6v-1.4H984.1z"/>
		<path class="st86" d="M1028.6,424L1028.6,424c-0.5,0.7-1,1.4-1.7,1.9c-0.6,0.5-1.3,1-2.1,1.3c-0.7,0.4-1.5,0.6-2.3,0.8
			c-0.8,0.2-1.6,0.3-2.4,0.3c-1.6,0-3.1-0.3-4.4-0.8c-1.3-0.5-2.5-1.3-3.5-2.3s-1.7-2.1-2.3-3.5c-0.5-1.3-0.8-2.8-0.8-4.4
			s0.3-3.1,0.8-4.4s1.3-2.5,2.3-3.5s2.1-1.7,3.5-2.3c1.3-0.5,2.8-0.8,4.4-0.8c0.8,0,1.6,0.1,2.4,0.2c0.8,0.2,1.6,0.4,2.3,0.8
			c0.7,0.3,1.4,0.8,2.1,1.3c0.6,0.5,1.2,1.1,1.6,1.9h0.1v-16.9h2.7v34.2h-2.7V424z M1028.9,417.1c0-1.2-0.2-2.3-0.7-3.3
			s-1.1-1.9-1.9-2.7c-0.8-0.8-1.7-1.4-2.8-1.8c-1.1-0.5-2.2-0.7-3.4-0.7c-1.3,0-2.4,0.2-3.4,0.7s-1.9,1.1-2.6,1.8
			c-0.7,0.8-1.3,1.7-1.7,2.7s-0.6,2.1-0.6,3.3c0,1.2,0.2,2.3,0.6,3.3c0.4,1,0.9,1.9,1.7,2.7c0.7,0.8,1.6,1.4,2.6,1.8
			c1,0.5,2.2,0.7,3.4,0.7s2.4-0.2,3.4-0.7c1.1-0.4,2-1.1,2.8-1.8c0.8-0.8,1.4-1.7,1.9-2.7C1028.7,419.5,1028.9,418.4,1028.9,417.1"
			/>
		<path class="st86" d="M1028.6,424L1028.6,424c-0.5,0.7-1,1.4-1.7,1.9c-0.6,0.5-1.3,1-2.1,1.3c-0.7,0.4-1.5,0.6-2.3,0.8
			c-0.8,0.2-1.6,0.3-2.4,0.3c-1.6,0-3.1-0.3-4.4-0.8c-1.3-0.5-2.5-1.3-3.5-2.3s-1.7-2.1-2.3-3.5c-0.5-1.3-0.8-2.8-0.8-4.4
			s0.3-3.1,0.8-4.4s1.3-2.5,2.3-3.5s2.1-1.7,3.5-2.3c1.3-0.5,2.8-0.8,4.4-0.8c0.8,0,1.6,0.1,2.4,0.2c0.8,0.2,1.6,0.4,2.3,0.8
			c0.7,0.3,1.4,0.8,2.1,1.3c0.6,0.5,1.2,1.1,1.6,1.9h0.1v-16.9h2.7v34.2h-2.7V424z M1028.9,417.1c0-1.2-0.2-2.3-0.7-3.3
			s-1.1-1.9-1.9-2.7c-0.8-0.8-1.7-1.4-2.8-1.8c-1.1-0.5-2.2-0.7-3.4-0.7c-1.3,0-2.4,0.2-3.4,0.7s-1.9,1.1-2.6,1.8
			c-0.7,0.8-1.3,1.7-1.7,2.7s-0.6,2.1-0.6,3.3c0,1.2,0.2,2.3,0.6,3.3c0.4,1,0.9,1.9,1.7,2.7c0.7,0.8,1.6,1.4,2.6,1.8
			c1,0.5,2.2,0.7,3.4,0.7s2.4-0.2,3.4-0.7c1.1-0.4,2-1.1,2.8-1.8c0.8-0.8,1.4-1.7,1.9-2.7C1028.7,419.5,1028.9,418.4,1028.9,417.1z"
			/>
		<path class="st86" d="M1050.4,417.1c0-1.6,0.3-3.1,0.8-4.4s1.3-2.5,2.3-3.5s2.1-1.7,3.5-2.3c1.3-0.5,2.8-0.8,4.4-0.8
			s3.1,0.3,4.4,0.8c1.4,0.5,2.5,1.3,3.5,2.3s1.7,2.1,2.3,3.5c0.5,1.3,0.8,2.8,0.8,4.4s-0.3,3.1-0.8,4.4s-1.3,2.5-2.3,3.5
			s-2.1,1.7-3.5,2.3c-1.4,0.5-2.8,0.8-4.4,0.8s-3.1-0.3-4.4-0.8s-2.5-1.3-3.5-2.3s-1.7-2.1-2.3-3.5
			C1050.6,420.3,1050.4,418.8,1050.4,417.1 M1053.1,417.1c0,1.2,0.2,2.3,0.6,3.3s0.9,1.9,1.6,2.7c0.7,0.8,1.6,1.4,2.6,1.8
			c1,0.5,2.2,0.7,3.4,0.7c1.3,0,2.4-0.2,3.4-0.7c1-0.4,1.9-1.1,2.6-1.8c0.7-0.8,1.3-1.7,1.6-2.7c0.4-1,0.6-2.1,0.6-3.3
			c0-1.2-0.2-2.3-0.6-3.3s-0.9-1.9-1.6-2.7c-0.7-0.8-1.6-1.4-2.6-1.8c-1-0.5-2.2-0.7-3.4-0.7c-1.3,0-2.4,0.2-3.4,0.7
			s-1.9,1.1-2.6,1.8c-0.7,0.8-1.3,1.7-1.6,2.7C1053.3,415,1053.1,416.1,1053.1,417.1"/>
		<path class="st86" d="M1050.4,417.1c0-1.6,0.3-3.1,0.8-4.4s1.3-2.5,2.3-3.5s2.1-1.7,3.5-2.3c1.3-0.5,2.8-0.8,4.4-0.8
			s3.1,0.3,4.4,0.8c1.4,0.5,2.5,1.3,3.5,2.3s1.7,2.1,2.3,3.5c0.5,1.3,0.8,2.8,0.8,4.4s-0.3,3.1-0.8,4.4s-1.3,2.5-2.3,3.5
			s-2.1,1.7-3.5,2.3c-1.4,0.5-2.8,0.8-4.4,0.8s-3.1-0.3-4.4-0.8s-2.5-1.3-3.5-2.3s-1.7-2.1-2.3-3.5
			C1050.6,420.3,1050.4,418.8,1050.4,417.1z M1053.1,417.1c0,1.2,0.2,2.3,0.6,3.3s0.9,1.9,1.6,2.7c0.7,0.8,1.6,1.4,2.6,1.8
			c1,0.5,2.2,0.7,3.4,0.7c1.3,0,2.4-0.2,3.4-0.7c1-0.4,1.9-1.1,2.6-1.8c0.7-0.8,1.3-1.7,1.6-2.7c0.4-1,0.6-2.1,0.6-3.3
			c0-1.2-0.2-2.3-0.6-3.3s-0.9-1.9-1.6-2.7c-0.7-0.8-1.6-1.4-2.6-1.8c-1-0.5-2.2-0.7-3.4-0.7c-1.3,0-2.4,0.2-3.4,0.7
			s-1.9,1.1-2.6,1.8c-0.7,0.8-1.3,1.7-1.6,2.7C1053.3,415,1053.1,416.1,1053.1,417.1z"/>
	</g>
</g>
</svg>
