<?xml version="1.0" encoding="utf-8"?>
<!-- Generator: Adobe Illustrator 22.0.1, SVG Export Plug-In . SVG Version: 6.00 Build 0)  -->
<svg version="1.1" id="Layer_1" xmlns="http://www.w3.org/2000/svg" xmlns:xlink="http://www.w3.org/1999/xlink" x="0px" y="0px"
	 viewBox="0 0 768 1232.9" style="enable-background:new 0 0 768 1232.9;" xml:space="preserve">
<style type="text/css">
	.st0{fill:#DD101C;}
	.st1{clip-path:url(#SVGID_2_);}
	.st2{fill:#91072E;}
	.st3{fill:#FD4A2E;}
	.st4{fill:#D12121;}
	.st5{fill:#FC9E51;}
	.st6{fill:#FD9B50;}
	.st7{fill:#FC714A;}
	.st8{fill:#FC7214;}
	.st9{fill:#FDA152;}
	.st10{fill:#FD8845;}
	.st11{fill:#FD652D;}
	.st12{fill:#FC6943;}
	.st13{fill:#FD902D;}
	.st14{fill:#FD6C62;}
	.st15{fill:#FD564B;}
	.st16{fill:#FD392F;}
	.st17{fill:#FD5B45;}
	.st18{fill:#F55724;}
	.st19{fill:#FD4133;}
	.st20{fill:#FD8948;}
	.st21{fill:#FC804D;}
	.st22{fill:#FC7149;}
	.st23{fill:#FD5643;}
	.st24{fill:#FD4E3B;}
	.st25{fill:#FD9A41;}
	.st26{fill:#FD914A;}
	.st27{fill:#FC8046;}
	.st28{fill:#FD7324;}
	.st29{fill:#FD6518;}
	.st30{fill:#F6404E;}
	.st31{fill:#FB4E1D;}
	.st32{fill:#FC5E2E;}
	.st33{fill:#FC5344;}
	.st34{fill:#F94155;}
	.st35{fill:#FC7935;}
	.st36{fill:#FD7A3E;}
	.st37{fill:#FD7024;}
	.st38{fill:#FD4A4E;}
	.st39{fill:#FD2C72;}
	.st40{fill:#FD6343;}
	.st41{fill:#FD842C;}
	.st42{fill:#FD9535;}
	.st43{fill:#FD7F10;}
	.st44{fill:#F55F2C;}
	.st45{fill:#F0422D;}
	.st46{fill:#FD6515;}
	.st47{fill:#FD8823;}
	.st48{fill:#FD800C;}
	.st49{fill:#FD7312;}
	.st50{fill:#F14F3D;}
	.st51{fill:#F5491E;}
	.st52{fill:#FD732F;}
	.st53{fill:#FC7933;}
	.st54{fill:#FD6E11;}
	.st55{fill:#FC861A;}
	.st56{fill:#E0462D;}
	.st57{fill:#FD8328;}
	.st58{fill:#FD8B28;}
	.st59{fill:#FD4A2A;}
	.st60{fill:#FC5E4A;}
	.st61{fill:#FD5B34;}
	.st62{fill:#FD3A5C;}
	.st63{fill:#FD414B;}
	.st64{fill:#FD315F;}
	.st65{fill:#E31E6F;}
	.st66{fill:#FD7031;}
	.st67{fill:#FD6537;}
	.st68{fill:#FD6646;}
	.st69{fill:#FD5C56;}
	.st70{fill:#FD3845;}
	.st71{fill:#FD4E48;}
	.st72{fill:#FD4E4D;}
	.st73{clip-path:url(#SVGID_4_);}
	.st74{fill:none;stroke:#FFFFFF;stroke-width:3;stroke-linejoin:round;stroke-miterlimit:10;}
</style>
<g>
	<g>
		<g>
			<g>
				<polygon class="st0" points="201.6,903.7 213.1,903.7 213.1,948.6 233.3,948.6 233.3,957.9 201.6,957.9 				"/>
				<path class="st0" d="M239.2,947.7c0-10.3,10.7-14.1,21.2-14.1h1.4v-2.3c0-3.8-1.7-5.5-6.4-5.5c-4.3,0-7.7,1.9-10.1,3.7l-4.7-6.6
					c3.2-2.9,8.5-5.7,16-5.7c10.8,0,16,4.1,16,14.6V946c0,5.4,0.6,9.2,1.1,11.7H263c-0.3-1-0.6-3-0.7-4.2c-2.1,2.6-6,5.2-11.1,5.2
					C244.4,958.8,239.2,954.8,239.2,947.7 M261.8,947.5v-7.2h-1.4c-6.3,0-10.7,1.9-10.7,6.5c0,2.9,2.4,4.1,4.8,4.1
					C257.8,951,260,949.4,261.8,947.5"/>
				<path class="st0" d="M279.4,955.1l3.7-7.6c1.5,1.1,5.4,3.3,9.8,3.3c4.2,0,6.5-1.2,6.5-3.6c0-2.7-4.4-3.4-10-6.1
					c-5.5-2.6-8.9-5.7-8.9-11.7c0-7.4,5.9-12.1,14.8-12.1c6.8,0,10.9,2.1,12.7,3.2l-3.8,7.4c-1.5-1-4.6-2.5-8.5-2.5
					c-3.8,0-5.5,1.4-5.5,3.5c0,2.7,3.6,3.4,8.1,5.2c6.3,2.6,10.8,5.5,10.8,12.1c0,8.3-5.9,12.7-15.7,12.7
					C286.4,958.8,281.9,956.7,279.4,955.1"/>
				<path class="st0" d="M314.4,937.9c0-12.5,8.6-20.6,19.6-20.6c11.2,0,17.3,7.2,17.3,19.5c0,1.2-0.1,2.4-0.2,3.7H326
					c0.5,5.9,3.5,10.3,10.1,10.3c5.4,0,8.4-1.8,10.3-2.8l3.5,7c-2.6,1.5-6.7,3.8-14.8,3.8C321.8,958.8,314.4,950.5,314.4,937.9
					 M340.6,933.2c-0.1-4.5-1.9-8.1-6.8-8.1c-4.6,0-7.2,3-8,8.1H340.6z"/>
				<path class="st0" d="M359.5,918.2h10.8v5.4c1.7-2.9,5-6.3,10-6.3c2.9,0,4.5,0.6,5.4,1.1l-2.6,9.4c-0.6-0.4-1.9-0.9-4.1-0.9
					c-4.8,0-7.7,4.2-8.6,6v25h-10.8L359.5,918.2L359.5,918.2z"/>
				<polygon class="st0" points="417.8,913.1 402.8,913.1 402.8,903.7 444.3,903.7 444.3,913.1 429.4,913.1 429.4,957.9 
					417.8,957.9 				"/>
				<path class="st0" d="M442.6,937.9c0-12.5,8.6-20.6,19.6-20.6c11.2,0,17.3,7.2,17.3,19.5c0,1.2-0.1,2.4-0.2,3.7h-25.1
					c0.5,5.9,3.5,10.3,10.1,10.3c5.4,0,8.4-1.8,10.3-2.8l3.5,7c-2.6,1.5-6.7,3.8-14.8,3.8C450,958.8,442.6,950.5,442.6,937.9
					 M468.8,933.2c-0.1-4.5-1.9-8.1-6.8-8.1c-4.6,0-7.2,3-8,8.1H468.8z"/>
				<path class="st0" d="M484.8,938.1c0-13.3,8.9-20.8,20.8-20.8c6.4,0,10.3,2,12.1,3.2l-3.5,7.4c-1.8-1.1-4.3-2.4-8.3-2.4
					c-6.3,0-9.7,5-9.7,12.3s3.2,12.7,9.9,12.7c4.6,0,7.3-1.7,8.5-2.4l3.3,7.2c-1.9,1.2-5.5,3.6-12.8,3.6
					C492.6,958.8,484.8,950.4,484.8,938.1"/>
				<path class="st0" d="M524.8,899.3h10.8v23.8c2-2.2,5.9-5.8,12.4-5.8c8.7,0,11.9,5.5,11.9,12.9V958H549v-25.6c0-4-1.4-6-5.2-6
					c-4.2,0-7.4,3.9-8.2,5V958h-10.8V899.3z"/>
			</g>
			<rect x="497.3" y="972.8" class="st0" width="62.5" height="5.4"/>
		</g>
		<g>
			<path class="st0" d="M288.3,1030.4c0,3.2-0.5,5.8-1.4,7.7c-0.9,2-2.1,3.5-3.5,4.6s-2.9,1.8-4.5,2.2c-1.6,0.4-3,0.6-4.3,0.6
				s-2.6-0.1-3.8-0.4c-1.2-0.2-2.4-0.6-3.5-1.1s-2.1-1-3-1.7s-1.7-1.4-2.4-2.3l2.6-2.4c1.2,1.7,2.7,2.9,4.4,3.7
				c1.8,0.8,3.7,1.2,5.7,1.2c1.7,0,3.1-0.2,4.3-0.7c1.2-0.4,2.1-1,2.9-1.8c0.8-0.7,1.4-1.5,1.8-2.4s0.7-1.7,0.9-2.6
				c0.2-0.9,0.3-1.7,0.4-2.5c0-0.8,0-1.4,0-1.9v-3.6h-0.1c-1,1.6-2.3,2.8-3.9,3.7c-1.6,0.9-3.6,1.3-5.8,1.3c-1.9,0-3.7-0.4-5.3-1.1
				c-1.7-0.7-3.1-1.7-4.4-2.8c-1.3-1.2-2.2-2.6-3-4.2c-0.7-1.6-1.1-3.3-1.1-5.1c0-1.8,0.4-3.5,1.1-5.1s1.7-3,3-4.2
				c1.2-1.2,2.7-2.2,4.4-2.8c1.7-0.7,3.4-1,5.3-1c2.2,0,4.2,0.4,5.8,1.3c1.7,0.9,3,2.1,3.9,3.7h0.1v-4.3h3.3v24L288.3,1030.4
				L288.3,1030.4z M285,1018.8c0-1.4-0.3-2.7-0.8-4c-0.5-1.2-1.3-2.3-2.2-3.2c-0.9-0.9-2-1.6-3.2-2.2c-1.2-0.5-2.6-0.8-4-0.8
				s-2.7,0.3-4,0.8c-1.2,0.5-2.3,1.3-3.2,2.2c-0.9,0.9-1.6,2-2.2,3.2c-0.5,1.3-0.8,2.6-0.8,4s0.3,2.7,0.8,4c0.5,1.2,1.3,2.3,2.2,3.2
				c0.9,0.9,2,1.6,3.2,2.2c1.2,0.5,2.6,0.8,4,0.8s2.7-0.3,4-0.8c1.2-0.5,2.3-1.3,3.2-2.2c0.9-0.9,1.6-2,2.2-3.2
				C284.8,1021.6,285,1020.3,285,1018.8"/>
			<path class="st0" d="M288.3,1030.4c0,3.2-0.5,5.8-1.4,7.7c-0.9,2-2.1,3.5-3.5,4.6s-2.9,1.8-4.5,2.2c-1.6,0.4-3,0.6-4.3,0.6
				s-2.6-0.1-3.8-0.4c-1.2-0.2-2.4-0.6-3.5-1.1s-2.1-1-3-1.7s-1.7-1.4-2.4-2.3l2.6-2.4c1.2,1.7,2.7,2.9,4.4,3.7
				c1.8,0.8,3.7,1.2,5.7,1.2c1.7,0,3.1-0.2,4.3-0.7c1.2-0.4,2.1-1,2.9-1.8c0.8-0.7,1.4-1.5,1.8-2.4s0.7-1.7,0.9-2.6
				c0.2-0.9,0.3-1.7,0.4-2.5c0-0.8,0-1.4,0-1.9v-3.6h-0.1c-1,1.6-2.3,2.8-3.9,3.7c-1.6,0.9-3.6,1.3-5.8,1.3c-1.9,0-3.7-0.4-5.3-1.1
				c-1.7-0.7-3.1-1.7-4.4-2.8c-1.3-1.2-2.2-2.6-3-4.2c-0.7-1.6-1.1-3.3-1.1-5.1c0-1.8,0.4-3.5,1.1-5.1s1.7-3,3-4.2
				c1.2-1.2,2.7-2.2,4.4-2.8c1.7-0.7,3.4-1,5.3-1c2.2,0,4.2,0.4,5.8,1.3c1.7,0.9,3,2.1,3.9,3.7h0.1v-4.3h3.3v24L288.3,1030.4
				L288.3,1030.4z M285,1018.8c0-1.4-0.3-2.7-0.8-4c-0.5-1.2-1.3-2.3-2.2-3.2c-0.9-0.9-2-1.6-3.2-2.2c-1.2-0.5-2.6-0.8-4-0.8
				s-2.7,0.3-4,0.8c-1.2,0.5-2.3,1.3-3.2,2.2c-0.9,0.9-1.6,2-2.2,3.2c-0.5,1.3-0.8,2.6-0.8,4s0.3,2.7,0.8,4c0.5,1.2,1.3,2.3,2.2,3.2
				c0.9,0.9,2,1.6,3.2,2.2c1.2,0.5,2.6,0.8,4,0.8s2.7-0.3,4-0.8c1.2-0.5,2.3-1.3,3.2-2.2c0.9-0.9,1.6-2,2.2-3.2
				C284.8,1021.6,285,1020.3,285,1018.8z"/>
			<path class="st0" d="M313.1,1013.6c0-0.5,0-1.1-0.1-1.8c0-0.7-0.1-1.4-0.1-2.1s0-1.4-0.1-2c0-0.6-0.1-1.1-0.1-1.4h3.3
				c0,1,0.1,1.9,0.1,2.8s0.1,1.5,0.1,1.7c0.9-1.5,1.9-2.8,3.3-3.7c1.3-1,3-1.4,4.9-1.4c0.3,0,0.7,0,1,0.1s0.6,0.1,1,0.2l-0.4,3.3
				c-0.5-0.1-0.9-0.2-1.3-0.2c-1.4,0-2.7,0.2-3.8,0.7c-1.1,0.5-1.9,1.1-2.6,1.9s-1.2,1.8-1.5,2.9s-0.5,2.3-0.5,3.5v14H313v-18.5
				H313.1z"/>
			<path class="st0" d="M313.1,1013.6c0-0.5,0-1.1-0.1-1.8c0-0.7-0.1-1.4-0.1-2.1s0-1.4-0.1-2c0-0.6-0.1-1.1-0.1-1.4h3.3
				c0,1,0.1,1.9,0.1,2.8s0.1,1.5,0.1,1.7c0.9-1.5,1.9-2.8,3.3-3.7c1.3-1,3-1.4,4.9-1.4c0.3,0,0.7,0,1,0.1s0.6,0.1,1,0.2l-0.4,3.3
				c-0.5-0.1-0.9-0.2-1.3-0.2c-1.4,0-2.7,0.2-3.8,0.7c-1.1,0.5-1.9,1.1-2.6,1.9s-1.2,1.8-1.5,2.9s-0.5,2.3-0.5,3.5v14H313v-18.5
				H313.1z"/>
			<path class="st0" d="M368.3,1021.2c0,1.3,0,2.4,0,3.4s0,1.9,0.1,2.8c0,0.9,0.1,1.6,0.1,2.4c0.1,0.7,0.1,1.5,0.2,2.2h-3.1
				c-0.2-1.3-0.3-2.7-0.3-4.2h-0.1c-1,1.7-2.2,2.9-3.6,3.7c-1.4,0.8-3.2,1.2-5.4,1.2c-1.1,0-2.2-0.1-3.3-0.4c-1.1-0.3-2-0.7-2.9-1.3
				c-0.9-0.6-1.5-1.4-2.1-2.4c-0.5-1-0.8-2.1-0.8-3.5c0-2,0.5-3.5,1.5-4.7s2.2-2,3.7-2.6s3-0.9,4.7-1.1c1.6-0.2,3.1-0.2,4.4-0.2h3.9
				v-1.6c0-2.2-0.7-3.8-2.1-4.8s-3.1-1.4-5.2-1.4c-3,0-5.6,1-7.8,2.9l-1.9-2.3c1.2-1.2,2.7-2.1,4.6-2.7c1.8-0.6,3.6-0.9,5.2-0.9
				c3.1,0,5.6,0.7,7.5,2.2s2.8,3.8,2.8,7.1v6.2H368.3L368.3,1021.2z M361.6,1019.1c-1.4,0-2.7,0.1-4.1,0.3c-1.3,0.2-2.5,0.5-3.6,0.9
				s-1.9,1-2.5,1.8c-0.6,0.7-0.9,1.7-0.9,2.8c0,0.8,0.2,1.5,0.5,2.1c0.4,0.6,0.8,1.1,1.4,1.5s1.2,0.7,1.9,0.9
				c0.7,0.2,1.4,0.3,2.1,0.3c1.8,0,3.2-0.3,4.4-0.8c1.2-0.5,2.1-1.2,2.8-2c0.7-0.8,1.2-1.8,1.4-2.8c0.3-1.1,0.4-2.1,0.4-3.2v-1.7
				h-3.8L361.6,1019.1L361.6,1019.1z"/>
			<path class="st0" d="M368.3,1021.2c0,1.3,0,2.4,0,3.4s0,1.9,0.1,2.8c0,0.9,0.1,1.6,0.1,2.4c0.1,0.7,0.1,1.5,0.2,2.2h-3.1
				c-0.2-1.3-0.3-2.7-0.3-4.2h-0.1c-1,1.7-2.2,2.9-3.6,3.7c-1.4,0.8-3.2,1.2-5.4,1.2c-1.1,0-2.2-0.1-3.3-0.4c-1.1-0.3-2-0.7-2.9-1.3
				c-0.9-0.6-1.5-1.4-2.1-2.4c-0.5-1-0.8-2.1-0.8-3.5c0-2,0.5-3.5,1.5-4.7s2.2-2,3.7-2.6s3-0.9,4.7-1.1c1.6-0.2,3.1-0.2,4.4-0.2h3.9
				v-1.6c0-2.2-0.7-3.8-2.1-4.8s-3.1-1.4-5.2-1.4c-3,0-5.6,1-7.8,2.9l-1.9-2.3c1.2-1.2,2.7-2.1,4.6-2.7c1.8-0.6,3.6-0.9,5.2-0.9
				c3.1,0,5.6,0.7,7.5,2.2s2.8,3.8,2.8,7.1v6.2H368.3L368.3,1021.2z M361.6,1019.1c-1.4,0-2.7,0.1-4.1,0.3c-1.3,0.2-2.5,0.5-3.6,0.9
				s-1.9,1-2.5,1.8c-0.6,0.7-0.9,1.7-0.9,2.8c0,0.8,0.2,1.5,0.5,2.1c0.4,0.6,0.8,1.1,1.4,1.5s1.2,0.7,1.9,0.9
				c0.7,0.2,1.4,0.3,2.1,0.3c1.8,0,3.2-0.3,4.4-0.8c1.2-0.5,2.1-1.2,2.8-2c0.7-0.8,1.2-1.8,1.4-2.8c0.3-1.1,0.4-2.1,0.4-3.2v-1.7
				h-3.8L361.6,1019.1L361.6,1019.1z"/>
			<path class="st0" d="M393.3,990h3.3v20.9h0.1c0.5-0.9,1.2-1.7,2-2.3c0.8-0.7,1.6-1.2,2.5-1.6s1.9-0.7,2.9-0.9s2-0.3,2.9-0.3
				c2,0,3.8,0.3,5.5,1s3.1,1.6,4.3,2.8c1.2,1.2,2.1,2.6,2.8,4.3c0.7,1.6,1,3.5,1,5.4c0,2-0.3,3.8-1,5.4s-1.6,3.1-2.8,4.3
				c-1.2,1.2-2.6,2.1-4.3,2.8c-1.7,0.7-3.5,1-5.5,1c-1,0-1.9-0.1-2.9-0.3c-1-0.2-2-0.5-2.9-0.9s-1.8-1-2.5-1.6
				c-0.8-0.7-1.4-1.4-2-2.3h-0.1v4.5h-3.3V990z M396.3,1019.2c0,1.4,0.3,2.8,0.8,4.1c0.6,1.3,1.3,2.4,2.3,3.3s2.1,1.7,3.4,2.2
				c1.3,0.6,2.7,0.8,4.2,0.8c1.6,0,3-0.3,4.2-0.8c1.3-0.5,2.3-1.3,3.2-2.2c0.9-0.9,1.6-2.1,2-3.3c0.5-1.3,0.7-2.6,0.7-4.1
				c0-1.4-0.2-2.8-0.7-4.1c-0.5-1.3-1.1-2.4-2-3.3s-2-1.7-3.2-2.3c-1.3-0.6-2.7-0.8-4.2-0.8s-2.9,0.3-4.2,0.8
				c-1.3,0.6-2.4,1.3-3.4,2.3s-1.7,2.1-2.3,3.3C396.5,1016.3,396.3,1017.7,396.3,1019.2"/>
			<path class="st0" d="M393.3,990h3.3v20.9h0.1c0.5-0.9,1.2-1.7,2-2.3c0.8-0.7,1.6-1.2,2.5-1.6s1.9-0.7,2.9-0.9s2-0.3,2.9-0.3
				c2,0,3.8,0.3,5.5,1s3.1,1.6,4.3,2.8c1.2,1.2,2.1,2.6,2.8,4.3c0.7,1.6,1,3.5,1,5.4c0,2-0.3,3.8-1,5.4s-1.6,3.1-2.8,4.3
				c-1.2,1.2-2.6,2.1-4.3,2.8c-1.7,0.7-3.5,1-5.5,1c-1,0-1.9-0.1-2.9-0.3c-1-0.2-2-0.5-2.9-0.9s-1.8-1-2.5-1.6
				c-0.8-0.7-1.4-1.4-2-2.3h-0.1v4.5h-3.3V990z M396.3,1019.2c0,1.4,0.3,2.8,0.8,4.1c0.6,1.3,1.3,2.4,2.3,3.3s2.1,1.7,3.4,2.2
				c1.3,0.6,2.7,0.8,4.2,0.8c1.6,0,3-0.3,4.2-0.8c1.3-0.5,2.3-1.3,3.2-2.2c0.9-0.9,1.6-2.1,2-3.3c0.5-1.3,0.7-2.6,0.7-4.1
				c0-1.4-0.2-2.8-0.7-4.1c-0.5-1.3-1.1-2.4-2-3.3s-2-1.7-3.2-2.3c-1.3-0.6-2.7-0.8-4.2-0.8s-2.9,0.3-4.2,0.8
				c-1.3,0.6-2.4,1.3-3.4,2.3s-1.7,2.1-2.3,3.3C396.5,1016.3,396.3,1017.7,396.3,1019.2z"/>
			<path class="st0" d="M464.6,1021.2c0,1.3,0,2.4,0,3.4s0,1.9,0.1,2.8c0,0.9,0.1,1.6,0.1,2.4c0.1,0.7,0.1,1.5,0.2,2.2h-3
				c-0.2-1.3-0.3-2.7-0.3-4.2h-0.1c-1,1.7-2.2,2.9-3.6,3.7c-1.4,0.8-3.2,1.2-5.4,1.2c-1.1,0-2.2-0.1-3.3-0.4c-1.1-0.3-2-0.7-2.9-1.3
				c-0.9-0.6-1.5-1.4-2.1-2.4c-0.5-1-0.8-2.1-0.8-3.5c0-2,0.5-3.5,1.5-4.7s2.2-2,3.7-2.6s3-0.9,4.7-1.1c1.6-0.2,3.1-0.2,4.4-0.2h3.9
				v-1.6c0-2.2-0.7-3.8-2.1-4.8s-3.1-1.4-5.2-1.4c-3,0-5.6,1-7.8,2.9l-1.9-2.3c1.2-1.2,2.7-2.1,4.6-2.7c1.8-0.6,3.6-0.9,5.2-0.9
				c3.1,0,5.6,0.7,7.5,2.2s2.8,3.8,2.8,7.1v6.2H464.6L464.6,1021.2z M457.9,1019.1c-1.4,0-2.7,0.1-4.1,0.3c-1.3,0.2-2.5,0.5-3.6,0.9
				s-1.9,1-2.5,1.8c-0.6,0.7-0.9,1.7-0.9,2.8c0,0.8,0.2,1.5,0.5,2.1c0.4,0.6,0.8,1.1,1.4,1.5s1.2,0.7,1.9,0.9
				c0.7,0.2,1.4,0.3,2.1,0.3c1.8,0,3.2-0.3,4.4-0.8c1.2-0.5,2.1-1.2,2.8-2c0.7-0.8,1.2-1.8,1.4-2.8c0.3-1.1,0.4-2.1,0.4-3.2v-1.7
				h-3.8L457.9,1019.1L457.9,1019.1z"/>
			<path class="st0" d="M464.6,1021.2c0,1.3,0,2.4,0,3.4s0,1.9,0.1,2.8c0,0.9,0.1,1.6,0.1,2.4c0.1,0.7,0.1,1.5,0.2,2.2h-3
				c-0.2-1.3-0.3-2.7-0.3-4.2h-0.1c-1,1.7-2.2,2.9-3.6,3.7c-1.4,0.8-3.2,1.2-5.4,1.2c-1.1,0-2.2-0.1-3.3-0.4c-1.1-0.3-2-0.7-2.9-1.3
				c-0.9-0.6-1.5-1.4-2.1-2.4c-0.5-1-0.8-2.1-0.8-3.5c0-2,0.5-3.5,1.5-4.7s2.2-2,3.7-2.6s3-0.9,4.7-1.1c1.6-0.2,3.1-0.2,4.4-0.2h3.9
				v-1.6c0-2.2-0.7-3.8-2.1-4.8s-3.1-1.4-5.2-1.4c-3,0-5.6,1-7.8,2.9l-1.9-2.3c1.2-1.2,2.7-2.1,4.6-2.7c1.8-0.6,3.6-0.9,5.2-0.9
				c3.1,0,5.6,0.7,7.5,2.2s2.8,3.8,2.8,7.1v6.2H464.6L464.6,1021.2z M457.9,1019.1c-1.4,0-2.7,0.1-4.1,0.3c-1.3,0.2-2.5,0.5-3.6,0.9
				s-1.9,1-2.5,1.8c-0.6,0.7-0.9,1.7-0.9,2.8c0,0.8,0.2,1.5,0.5,2.1c0.4,0.6,0.8,1.1,1.4,1.5s1.2,0.7,1.9,0.9
				c0.7,0.2,1.4,0.3,2.1,0.3c1.8,0,3.2-0.3,4.4-0.8c1.2-0.5,2.1-1.2,2.8-2c0.7-0.8,1.2-1.8,1.4-2.8c0.3-1.1,0.4-2.1,0.4-3.2v-1.7
				h-3.8L457.9,1019.1L457.9,1019.1z"/>
			<path class="st0" d="M512.6,1027.5L512.6,1027.5c-0.6,0.9-1.3,1.7-2.1,2.3c-0.8,0.6-1.6,1.2-2.5,1.6s-1.9,0.7-2.9,0.9
				c-1,0.2-2,0.3-2.9,0.3c-2,0-3.8-0.3-5.4-1s-3.1-1.6-4.3-2.8c-1.2-1.2-2.1-2.6-2.8-4.3c-0.7-1.6-1-3.5-1-5.4c0-2,0.3-3.8,1-5.4
				s1.6-3.1,2.8-4.3c1.2-1.2,2.6-2.1,4.3-2.8c1.7-0.7,3.5-1,5.4-1c1,0,1.9,0.1,2.9,0.3s2,0.5,2.9,0.9s1.8,1,2.5,1.6
				c0.8,0.7,1.4,1.4,2,2.3h0.1v-20.9h3.3v42.1h-3.3V1027.5z M513,1019.2c0-1.4-0.3-2.8-0.8-4.1c-0.6-1.3-1.3-2.4-2.3-3.3
				s-2.1-1.7-3.4-2.3s-2.7-0.8-4.2-0.8c-1.6,0-3,0.3-4.2,0.8c-1.3,0.6-2.3,1.3-3.2,2.3c-0.9,0.9-1.6,2.1-2,3.3
				c-0.5,1.3-0.7,2.6-0.7,4.1c0,1.4,0.2,2.8,0.7,4.1c0.5,1.3,1.1,2.4,2,3.3s2,1.7,3.2,2.2c1.3,0.6,2.7,0.8,4.2,0.8s2.9-0.3,4.2-0.8
				c1.3-0.5,2.4-1.3,3.4-2.2c1-0.9,1.7-2.1,2.3-3.3C512.8,1022,513,1020.6,513,1019.2"/>
			<path class="st0" d="M512.6,1027.5L512.6,1027.5c-0.6,0.9-1.3,1.7-2.1,2.3c-0.8,0.6-1.6,1.2-2.5,1.6s-1.9,0.7-2.9,0.9
				c-1,0.2-2,0.3-2.9,0.3c-2,0-3.8-0.3-5.4-1s-3.1-1.6-4.3-2.8c-1.2-1.2-2.1-2.6-2.8-4.3c-0.7-1.6-1-3.5-1-5.4c0-2,0.3-3.8,1-5.4
				s1.6-3.1,2.8-4.3c1.2-1.2,2.6-2.1,4.3-2.8c1.7-0.7,3.5-1,5.4-1c1,0,1.9,0.1,2.9,0.3s2,0.5,2.9,0.9s1.8,1,2.5,1.6
				c0.8,0.7,1.4,1.4,2,2.3h0.1v-20.9h3.3v42.1h-3.3V1027.5z M513,1019.2c0-1.4-0.3-2.8-0.8-4.1c-0.6-1.3-1.3-2.4-2.3-3.3
				s-2.1-1.7-3.4-2.3s-2.7-0.8-4.2-0.8c-1.6,0-3,0.3-4.2,0.8c-1.3,0.6-2.3,1.3-3.2,2.3c-0.9,0.9-1.6,2.1-2,3.3
				c-0.5,1.3-0.7,2.6-0.7,4.1c0,1.4,0.2,2.8,0.7,4.1c0.5,1.3,1.1,2.4,2,3.3s2,1.7,3.2,2.2c1.3,0.6,2.7,0.8,4.2,0.8s2.9-0.3,4.2-0.8
				c1.3-0.5,2.4-1.3,3.4-2.2c1-0.9,1.7-2.1,2.3-3.3C512.8,1022,513,1020.6,513,1019.2z"/>
			<path class="st0" d="M539.5,1019.2c0-2,0.3-3.8,1-5.4s1.6-3.1,2.8-4.3s2.6-2.1,4.3-2.8s3.5-1,5.4-1c2,0,3.8,0.3,5.5,1
				s3.1,1.6,4.3,2.8s2.1,2.6,2.8,4.3c0.7,1.6,1,3.5,1,5.4c0,2-0.3,3.8-1,5.4s-1.6,3.1-2.8,4.3c-1.2,1.2-2.6,2.1-4.3,2.8
				c-1.7,0.7-3.5,1-5.5,1s-3.8-0.3-5.4-1c-1.6-0.7-3.1-1.6-4.3-2.8c-1.2-1.2-2.1-2.6-2.8-4.3C539.8,1023,539.5,1021.1,539.5,1019.2
				 M542.8,1019.2c0,1.4,0.2,2.8,0.7,4.1c0.5,1.3,1.1,2.4,2,3.3s2,1.7,3.2,2.2c1.3,0.6,2.7,0.8,4.2,0.8c1.6,0,3-0.3,4.2-0.8
				c1.3-0.5,2.3-1.3,3.2-2.2c0.9-0.9,1.6-2.1,2-3.3c0.5-1.3,0.7-2.6,0.7-4.1c0-1.4-0.2-2.8-0.7-4.1c-0.5-1.3-1.1-2.4-2-3.3
				s-2-1.7-3.2-2.3c-1.3-0.6-2.7-0.8-4.2-0.8c-1.6,0-3,0.3-4.2,0.8c-1.3,0.6-2.3,1.3-3.2,2.3s-1.6,2.1-2,3.3
				C543,1016.4,542.8,1017.7,542.8,1019.2"/>
			<path class="st0" d="M539.5,1019.2c0-2,0.3-3.8,1-5.4s1.6-3.1,2.8-4.3s2.6-2.1,4.3-2.8s3.5-1,5.4-1c2,0,3.8,0.3,5.5,1
				s3.1,1.6,4.3,2.8s2.1,2.6,2.8,4.3c0.7,1.6,1,3.5,1,5.4c0,2-0.3,3.8-1,5.4s-1.6,3.1-2.8,4.3c-1.2,1.2-2.6,2.1-4.3,2.8
				c-1.7,0.7-3.5,1-5.5,1s-3.8-0.3-5.4-1c-1.6-0.7-3.1-1.6-4.3-2.8c-1.2-1.2-2.1-2.6-2.8-4.3C539.8,1023,539.5,1021.1,539.5,1019.2z
				 M542.8,1019.2c0,1.4,0.2,2.8,0.7,4.1c0.5,1.3,1.1,2.4,2,3.3s2,1.7,3.2,2.2c1.3,0.6,2.7,0.8,4.2,0.8c1.6,0,3-0.3,4.2-0.8
				c1.3-0.5,2.3-1.3,3.2-2.2c0.9-0.9,1.6-2.1,2-3.3c0.5-1.3,0.7-2.6,0.7-4.1c0-1.4-0.2-2.8-0.7-4.1c-0.5-1.3-1.1-2.4-2-3.3
				s-2-1.7-3.2-2.3c-1.3-0.6-2.7-0.8-4.2-0.8c-1.6,0-3,0.3-4.2,0.8c-1.3,0.6-2.3,1.3-3.2,2.3s-1.6,2.1-2,3.3
				C543,1016.4,542.8,1017.7,542.8,1019.2z"/>
		</g>
	</g>
	<g>
		<g>
			<g>
				<g>
					<defs>
						<rect id="SVGID_1_" x="-3.3" y="-223.2" width="774.5" height="1377.6"/>
					</defs>
					<clipPath id="SVGID_2_">
						<use xlink:href="#SVGID_1_"  style="overflow:visible;"/>
					</clipPath>
					<g class="st1">
						<g>
							<g id="XMLID_1597_">
								<polygon id="XMLID_1610_" class="st2" points="691.1,438 680.6,452.9 576.3,426.2 								"/>
								<polygon id="XMLID_1609_" class="st3" points="599,361.5 691.1,438 576.3,426.2 								"/>
								<polygon id="XMLID_1608_" class="st3" points="446.9,461 599,361.5 446.9,586 								"/>
								<polygon id="XMLID_1607_" class="st4" points="254.4,473.8 446.9,586 446.9,461 								"/>
								<polygon id="XMLID_1606_" class="st2" points="599,361.5 576.3,426.2 523,571.8 446.9,586 								"/>
								<polygon id="XMLID_1605_" class="st2" points="254.4,473.8 146.8,500.6 245.5,512.8 								"/>
								<polygon id="XMLID_1604_" class="st4" points="102.3,556.5 146.8,500.6 182.7,505 								"/>
								<polygon id="XMLID_1603_" class="st4" points="523,571.8 516.5,708.4 505.9,708.4 505.9,666.1 484,579.1 								"/>
								<polygon id="XMLID_1602_" class="st4" points="230.2,590.4 271.4,622.8 306.1,588.9 								"/>
								<polygon id="XMLID_1601_" class="st3" points="200.6,731.9 212.3,731.9 271.4,622.8 230.2,590.4 219.6,690.7 								"/>
								<polygon id="XMLID_1600_" class="st2" points="306.1,588.9 299.8,671.3 290,727.1 278.8,727.1 283.5,672.9 271.4,622.8 
																	"/>
								<polygon id="XMLID_1599_" class="st3" points="254.4,473.8 230.2,590.4 446.9,586 								"/>
								<polygon id="XMLID_1598_" class="st3" points="446.9,586 450.9,691.5 446.9,717.4 458.4,717.4 462.3,690.7 484,579.1 
																	"/>
							</g>
							<g>
								<polygon id="XMLID_1596_" class="st5" points="381.9,-5.7 381.9,92.2 284,92.2 								"/>
								<polygon id="XMLID_1595_" class="st6" points="186.2,-5.7 284,-5.7 284,92.2 								"/>
								<polygon id="XMLID_1594_" class="st7" points="284,288 381.9,385.9 284,385.9 								"/>
								<polygon id="XMLID_1593_" class="st8" points="381.9,190.1 381.9,288 284,288 								"/>
								<polygon id="XMLID_1592_" class="st9" points="479.8,-5.7 479.8,92.2 381.9,-5.7 								"/>
								<polygon id="XMLID_1591_" class="st10" points="381.9,92.2 479.8,92.2 381.9,190.1 								"/>
								<polygon id="XMLID_1590_" class="st11" points="479.8,288 577.8,385.9 479.8,385.9 								"/>
								<polygon id="XMLID_1589_" class="st12" points="381.9,288 479.8,288 381.9,385.9 								"/>
								<polygon id="XMLID_1588_" class="st13" points="675.6,-5.7 675.6,92.2 577.8,-5.7 								"/>
								<polygon id="XMLID_1587_" class="st14" points="284,385.9 284,483.8 186.2,385.9 								"/>
								<polygon id="XMLID_1586_" class="st15" points="381.9,385.9 381.9,483.8 284,483.8 								"/>
								<polygon id="XMLID_1585_" class="st16" points="381.9,483.8 479.8,483.8 381.9,581.6 								"/>
								<polygon id="XMLID_1584_" class="st17" points="479.8,385.9 479.8,483.8 381.9,385.9 								"/>
								<polygon id="XMLID_1583_" class="st18" points="675.6,385.9 675.6,483.8 577.8,385.9 								"/>
								<polygon id="XMLID_1582_" class="st19" points="88.3,385.9 186.2,385.9 88.3,483.8 								"/>
								<polygon id="XMLID_1581_" class="st20" points="284,-5.7 381.9,-5.7 284,92.2 								"/>
								<polygon id="XMLID_1580_" class="st21" points="381.9,92.2 381.9,190.1 284,92.2 								"/>
								<polygon id="XMLID_1579_" class="st22" points="381.9,288 381.9,385.9 284,288 								"/>
								<polygon id="XMLID_1578_" class="st23" points="284,385.9 381.9,385.9 284,483.8 								"/>
								<polygon id="XMLID_1577_" class="st24" points="381.9,483.8 381.9,581.6 284,483.8 								"/>
								<polygon id="XMLID_1576_" class="st25" points="479.8,-5.7 577.8,-5.7 479.8,92.2 								"/>
								<polygon id="XMLID_1575_" class="st26" points="381.9,-5.7 479.8,92.2 381.9,92.2 								"/>
								<polygon id="XMLID_1574_" class="st27" points="381.9,190.1 479.8,288 381.9,288 								"/>
								<polygon id="XMLID_1573_" class="st28" points="479.8,288 479.8,385.9 381.9,385.9 								"/>
								<polygon id="XMLID_1572_" class="st29" points="479.8,385.9 577.8,385.9 479.8,483.8 								"/>
								<polygon id="XMLID_1571_" class="st30" points="381.9,385.9 479.8,483.8 381.9,483.8 								"/>
								<polygon id="XMLID_1570_" class="st31" points="675.6,288 675.6,385.9 577.8,385.9 								"/>
								<polygon id="XMLID_1569_" class="st21" points="186.2,92.2 186.2,-5.7 284,92.2 								"/>
								<polygon id="XMLID_1568_" class="st23" points="186.2,385.9 284,483.8 186.2,483.8 								"/>
								<polygon id="XMLID_1567_" class="st32" points="186.2,288 284,288 186.2,385.9 								"/>
								<polygon id="XMLID_1566_" class="st33" points="284,483.8 284,581.6 186.2,581.6 								"/>
								<polygon id="XMLID_1565_" class="st10" points="284,92.2 381.9,190.1 284,190.1 								"/>
								<polygon id="XMLID_1564_" class="st34" points="186.2,483.8 284,483.8 186.2,581.6 								"/>
								<polygon id="XMLID_1563_" class="st30" points="284,483.8 381.9,581.6 284,581.6 								"/>
								<polygon id="XMLID_1562_" class="st14" points="186.2,483.8 186.2,581.6 88.3,483.8 								"/>
								<polygon id="XMLID_1561_" class="st35" points="284,190.1 381.9,190.1 284,288 								"/>
								<polygon id="XMLID_1560_" class="st36" points="186.2,190.1 284,288 186.2,288 								"/>
								<polygon id="XMLID_1559_" class="st37" points="284,190.1 284,288 186.2,190.1 								"/>
								<polygon id="XMLID_1558_" class="st38" points="186.2,385.9 186.2,483.8 88.3,483.8 								"/>
								<polygon id="XMLID_1557_" class="st39" points="186.2,581.6 88.3,581.6 88.3,483.8 								"/>
								<polygon id="XMLID_1556_" class="st40" points="186.2,288 186.2,385.9 88.3,288 								"/>
								<polygon id="XMLID_1555_" class="st41" points="479.8,190.1 577.8,190.1 479.8,288 								"/>
								<polygon id="XMLID_1554_" class="st42" points="577.8,-5.7 675.6,92.2 577.8,92.2 								"/>
								<polygon id="XMLID_1553_" class="st43" points="675.6,92.2 675.6,190.1 577.8,190.1 								"/>
								<polygon id="XMLID_1552_" class="st44" points="577.8,385.9 675.6,483.8 577.8,483.8 								"/>
								<polygon id="XMLID_1551_" class="st45" points="675.6,483.8 675.6,581.6 577.8,581.6 								"/>
								<polygon id="XMLID_1550_" class="st46" points="577.8,288 675.6,288 577.8,385.9 								"/>
								<polygon id="XMLID_1549_" class="st47" points="577.8,-5.7 577.8,92.2 479.8,92.2 								"/>
								<polygon id="XMLID_1548_" class="st48" points="479.8,92.2 577.8,190.1 479.8,190.1 								"/>
								<polygon id="XMLID_1547_" class="st49" points="675.6,190.1 675.6,288 577.8,190.1 								"/>
								<polygon id="XMLID_1546_" class="st50" points="479.8,483.8 577.8,581.6 479.8,581.6 								"/>
								<polygon id="XMLID_1545_" class="st51" points="577.8,385.9 577.8,483.8 479.8,483.8 								"/>
								<polygon id="XMLID_1544_" class="st52" points="577.8,288 577.8,385.9 479.8,288 								"/>
								<polygon id="XMLID_1543_" class="st53" points="479.8,190.1 479.8,288 381.9,190.1 								"/>
								<polygon id="XMLID_1542_" class="st54" points="577.8,190.1 577.8,288 479.8,288 								"/>
								<polygon id="XMLID_1541_" class="st55" points="577.8,92.2 675.6,92.2 577.8,190.1 								"/>
								<polygon id="XMLID_1540_" class="st56" points="577.8,483.8 675.6,483.8 577.8,581.6 								"/>
								<polygon id="XMLID_1539_" class="st57" points="577.8,92.2 577.8,190.1 479.8,92.2 								"/>
								<polygon id="XMLID_1538_" class="st58" points="479.8,92.2 479.8,190.1 381.9,190.1 								"/>
								<polygon id="XMLID_1537_" class="st59" points="577.8,483.8 577.8,581.6 479.8,483.8 								"/>
								<polygon id="XMLID_1536_" class="st60" points="479.8,485 479.8,582.9 381.9,582.9 								"/>
								<polygon id="XMLID_1535_" class="st43" points="577.8,190.1 675.6,288 577.8,288 								"/>
								<polygon id="XMLID_1534_" class="st61" points="284,385.9 284,288 186.2,385.9 								"/>
								<polygon id="XMLID_1533_" class="st62" points="88.3,679.5 -9.6,679.5 88.3,581.6 								"/>
								<polygon id="XMLID_1532_" class="st63" points="186.2,581.6 186.2,679.5 88.3,581.6 								"/>
								<polygon id="XMLID_1531_" class="st64" points="-9.6,385.9 88.3,385.9 -9.6,483.8 								"/>
								<polygon id="XMLID_1530_" class="st65" points="-9.6,581.6 -9.6,679.5 -107.5,581.6 								"/>
								<polygon id="XMLID_1529_" class="st66" points="88.3,190.1 186.2,190.1 186.2,288 								"/>
								<polygon id="XMLID_1528_" class="st67" points="88.3,190.1 -9.6,288 -9.6,190.1 								"/>
								<polygon id="XMLID_1527_" class="st35" points="186.2,190.1 186.2,92.2 284,190.1 								"/>
								<polygon id="XMLID_1526_" class="st68" points="-9.6,92.2 88.3,-5.7 88.3,92.2 								"/>
								<polygon id="XMLID_1525_" class="st69" points="-9.6,288 -107.5,288 -107.5,190.1 								"/>
								<polygon id="XMLID_478_" class="st70" points="-9.6,581.6 -9.6,483.8 88.3,581.6 								"/>
								<polygon id="XMLID_477_" class="st71" points="-107.5,483.8 -9.6,483.8 -107.5,581.6 								"/>
								<polygon id="XMLID_476_" class="st72" points="-9.6,288 88.3,288 88.3,385.9 								"/>
								<polygon id="XMLID_475_" class="st6" points="88.3,190.1 186.2,92.2 186.2,190.1 								"/>
							</g>
							<g>
								<polygon id="XMLID_474_" class="st13" points="675.3,-5.7 675.3,92.2 773.1,-5.7 								"/>
								<polygon id="XMLID_473_" class="st18" points="675.3,385.9 675.3,483.8 773.1,385.9 								"/>
								<polygon id="XMLID_472_" class="st31" points="675.3,288 675.3,385.9 773.1,385.9 								"/>
								<polygon id="XMLID_471_" class="st42" points="773.1,-5.7 675.3,92.2 773.1,92.2 								"/>
								<polygon id="XMLID_334_" class="st43" points="675.3,92.2 675.3,190.1 773.1,190.1 								"/>
								<polygon id="XMLID_328_" class="st44" points="773.1,385.9 675.3,483.8 773.1,483.8 								"/>
								<polygon id="XMLID_323_" class="st45" points="675.3,483.8 675.3,581.6 773.1,581.6 								"/>
								<polygon id="XMLID_322_" class="st46" points="773.1,288 675.3,288 773.1,385.9 								"/>
								<polygon id="XMLID_320_" class="st49" points="675.3,190.1 675.3,288 773.1,190.1 								"/>
								<polygon id="XMLID_312_" class="st55" points="773.1,92.2 675.3,92.2 773.1,190.1 								"/>
								<polygon id="XMLID_308_" class="st56" points="773.1,483.8 675.3,483.8 773.1,581.6 								"/>
								<polygon id="XMLID_306_" class="st43" points="773.1,190.1 675.3,288 773.1,288 								"/>
							</g>
							<g>
								<g>
									<g>
										<g>
											<defs>
												<rect id="SVGID_3_" x="88.3" y="281" width="620.4" height="300.7"/>
											</defs>
											<clipPath id="SVGID_4_">
												<use xlink:href="#SVGID_3_"  style="overflow:visible;"/>
											</clipPath>
											<g id="XMLID_1669_" class="st73">
												<polygon id="XMLID_1682_" class="st74" points="689.8,436.9 679.3,451.9 574.8,425.2 												"/>
												<polygon id="XMLID_1681_" class="st74" points="597.5,360.5 689.8,436.9 574.8,425.2 												"/>
												<polygon id="XMLID_1680_" class="st74" points="445.4,459.9 597.5,360.5 445.4,585 												"/>
												<polygon id="XMLID_1679_" class="st74" points="252.9,472.7 445.4,585 445.4,459.9 												"/>
												<polygon id="XMLID_1678_" class="st74" points="597.5,360.5 574.8,425.2 521.5,570.7 445.4,585 												"/>
												<polygon id="XMLID_1677_" class="st74" points="252.9,472.7 145.4,499.6 244,511.7 												"/>
												<polygon id="XMLID_1676_" class="st74" points="100.9,555.4 145.4,499.6 181.2,504 												"/>
												<polygon id="XMLID_1675_" class="st74" points="521.5,570.7 515,707.3 504.5,707.3 504.5,665 482.5,578 												"/>
												<polygon id="XMLID_1674_" class="st74" points="228.7,589.3 269.9,621.7 304.8,587.8 												"/>
												<polygon id="XMLID_1673_" class="st74" points="199.1,730.9 210.9,730.9 269.9,621.7 228.7,589.3 218.2,689.6 
																									"/>
												<polygon id="XMLID_1672_" class="st74" points="304.8,587.8 298.3,670.2 288.5,726 277.3,726 282,671.8 269.9,621.7 
																									"/>
												<polygon id="XMLID_1671_" class="st74" points="252.9,472.7 228.7,589.3 445.4,585 												"/>
												<polygon id="XMLID_1670_" class="st74" points="445.4,585 449.5,690.5 445.4,716.3 456.9,716.3 460.8,689.6 482.5,578 
																									"/>
											</g>
										</g>
									</g>
									<g>
										<polygon id="XMLID_305_" class="st14" points="773.1,817.6 693.6,817.6 773.1,738.2 										"/>
										<polygon id="XMLID_304_" class="st39" points="693.6,817.6 693.6,738.2 773.1,738.2 										"/>
										<polygon id="XMLID_303_" class="st62" points="614.3,738.2 614.3,658.7 693.6,738.2 										"/>
										<polygon id="XMLID_302_" class="st63" points="693.6,817.6 614.3,817.6 693.6,738.2 										"/>
										<polygon id="XMLID_301_" class="st63" points="534.5,818 455.1,818 534.5,738.5 										"/>
										<polygon id="XMLID_300_" class="st65" points="693.6,658.7 614.3,658.7 693.6,579.3 										"/>
										<polygon id="XMLID_299_" class="st70" points="693.6,658.7 773.1,658.7 693.6,738.2 										"/>
										<polygon id="XMLID_298_" class="st71" points="773.1,579.3 773.1,658.7 693.6,579.3 										"/>
									</g>
								</g>
							</g>
						</g>
					</g>
				</g>
			</g>
		</g>
	</g>
</g>
<g>
</g>
<g>
</g>
<g>
</g>
<g>
</g>
<g>
</g>
<g>
</g>
</svg>
