<?xml version="1.0" encoding="utf-8"?>
<!-- Generator: Adobe Illustrator 22.0.1, SVG Export Plug-In . SVG Version: 6.00 Build 0)  -->
<svg version="1.1" id="Layer_1" xmlns="http://www.w3.org/2000/svg" xmlns:xlink="http://www.w3.org/1999/xlink" x="0px" y="0px"
	 viewBox="0 0 1366 768" style="enable-background:new 0 0 1366 768;" xml:space="preserve">
<style type="text/css">
	.st0{fill:#FF8A45;}
	.st1{fill:#FF804D;}
	.st2{fill:#FF820B;}
	.st3{fill:#FF881A;}
	.st4{fill:#FF8528;}
	.st5{fill:#FF8D28;}
	.st6{fill:#FF7935;}
	.st7{fill:#FF9D50;}
	.st8{fill:#91072E;}
	.st9{fill:#FF4A2E;}
	.st10{fill:#D32121;}
	.st11{fill:#FFA051;}
	.st12{fill:#FF714A;}
	.st13{fill:#FF7214;}
	.st14{fill:#FFA352;}
	.st15{fill:#FF652D;}
	.st16{fill:#FF6943;}
	.st17{fill:#FF922D;}
	.st18{fill:#FF6C62;}
	.st19{fill:#FF564B;}
	.st20{fill:#FF392F;}
	.st21{fill:#FF5B45;}
	.st22{fill:#F75724;}
	.st23{fill:#FF4133;}
	.st24{fill:#FF8B47;}
	.st25{fill:#FF7149;}
	.st26{fill:#FF5643;}
	.st27{fill:#FF4E3B;}
	.st28{fill:#FF9C41;}
	.st29{fill:#FF934A;}
	.st30{fill:#FF8146;}
	.st31{fill:#FF7324;}
	.st32{fill:#FF6518;}
	.st33{fill:#F8404E;}
	.st34{fill:#FD4E1D;}
	.st35{fill:#FF5E2E;}
	.st36{fill:#FF5344;}
	.st37{fill:#FB4155;}
	.st38{fill:#FF7A3E;}
	.st39{fill:#FF7024;}
	.st40{fill:#FF4A4E;}
	.st41{fill:#FF2C72;}
	.st42{fill:#FF6343;}
	.st43{fill:#FF862C;}
	.st44{fill:#FF9734;}
	.st45{fill:#FF7F10;}
	.st46{fill:#F85F2C;}
	.st47{fill:#F2422D;}
	.st48{fill:#FF6515;}
	.st49{fill:#FF8A23;}
	.st50{fill:#FF7312;}
	.st51{fill:#F44F3D;}
	.st52{fill:#F7491E;}
	.st53{fill:#FF732F;}
	.st54{fill:#FF7933;}
	.st55{fill:#FF6E11;}
	.st56{fill:#E2462D;}
	.st57{fill:#FF4A2A;}
	.st58{fill:#FF5E4A;}
	.st59{fill:#FF5B34;}
	.st60{fill:#FF3A5C;}
	.st61{fill:#FF414B;}
	.st62{fill:#FF315F;}
	.st63{fill:#E61E6F;}
	.st64{fill:#FF7031;}
	.st65{fill:#FF6537;}
	.st66{fill:#FF6646;}
	.st67{fill:#FF5C56;}
	.st68{fill:#FF3845;}
	.st69{fill:#FF4E48;}
	.st70{fill:#FF4E4D;}
	.st71{clip-path:url(#SVGID_2_);}
	.st72{fill:none;stroke:#FFFFFF;stroke-width:3;stroke-linejoin:round;stroke-miterlimit:10;}
	.st73{fill:#DF101C;}
</style>
<g>
	<polygon id="XMLID_1894_" class="st0" points="1134.2,25 1210.8,25 1134.2,101.6 	"/>
	<polygon id="XMLID_1893_" class="st1" points="1134.2,25 1134.2,101.6 1057.7,25 	"/>
	<polygon id="XMLID_1892_" class="st0" points="1057.7,25 1134.2,101.6 1057.7,101.6 	"/>
	<polygon id="XMLID_1891_" class="st2" points="1210.8,25 1287.4,101.6 1210.8,101.6 	"/>
	<polygon id="XMLID_1890_" class="st3" points="1287.4,25 1363.9,25 1287.4,101.6 	"/>
	<polygon id="XMLID_1889_" class="st4" points="1287.4,25 1287.4,101.6 1210.8,25 	"/>
	<polyline id="XMLID_1888_" class="st5" points="1210.8,25 1210.8,101.6 1134.2,101.6 	"/>
	<polygon id="XMLID_1887_" class="st6" points="981.1,101.6 981.1,25 1057.7,101.6 	"/>
	<polygon id="XMLID_1886_" class="st7" points="904.5,101.6 981.1,25 981.1,101.6 	"/>
</g>
<g>
	<g id="XMLID_1597_">
		<polygon id="XMLID_1610_" class="st8" points="1301.9,445.8 1293.7,457.5 1212,436.6 		"/>
		<polygon id="XMLID_1609_" class="st9" points="1229.8,386 1301.9,445.8 1212,436.6 		"/>
		<polygon id="XMLID_1608_" class="st9" points="1110.8,463.8 1229.8,386 1110.8,561.6 		"/>
		<polygon id="XMLID_1607_" class="st10" points="960.3,473.8 1110.8,561.6 1110.8,463.8 		"/>
		<polygon id="XMLID_1606_" class="st8" points="1229.8,386 1212,436.6 1170.3,550.4 1110.8,561.6 		"/>
		<polygon id="XMLID_1605_" class="st8" points="960.3,473.8 876.2,494.8 953.3,504.3 		"/>
		<polygon id="XMLID_1604_" class="st10" points="841.3,538.4 876.2,494.8 904.2,498.2 		"/>
		<polygon id="XMLID_1603_" class="st10" points="1170.3,550.4 1165.2,657.3 1157,657.3 1157,624.2 1139.8,556.1 		"/>
		<polygon id="XMLID_1602_" class="st10" points="941.3,565 973.6,590.3 1000.7,563.8 		"/>
		<polygon id="XMLID_1601_" class="st9" points="918.2,675.7 927.4,675.7 973.6,590.3 941.3,565 933.1,643.4 		"/>
		<polygon id="XMLID_1600_" class="st8" points="1000.7,563.8 995.7,628.3 988.1,671.9 979.3,671.9 983,629.5 973.6,590.3 		"/>
		<polygon id="XMLID_1599_" class="st9" points="960.3,473.8 941.3,565 1110.8,561.6 		"/>
		<polygon id="XMLID_1598_" class="st9" points="1110.8,561.6 1114,644.1 1110.8,664.3 1119.8,664.3 1122.9,643.4 1139.8,556.1 		
			"/>
	</g>
	<g>
		<polygon id="XMLID_1596_" class="st11" points="1060,98.8 1060,175.3 983.5,175.3 		"/>
		<polygon id="XMLID_1595_" class="st7" points="906.9,98.8 983.5,98.8 983.5,175.3 		"/>
		<polygon id="XMLID_1594_" class="st12" points="983.5,328.5 1060,405 983.5,405 		"/>
		<polygon id="XMLID_1593_" class="st13" points="1060,251.9 1060,328.5 983.5,328.5 		"/>
		<polygon id="XMLID_1592_" class="st14" points="1136.6,98.8 1136.6,175.3 1060,98.8 		"/>
		<polygon id="XMLID_1591_" class="st0" points="1060,175.3 1136.6,175.3 1060,251.9 		"/>
		<polygon id="XMLID_1590_" class="st15" points="1136.6,328.5 1213.2,405 1136.6,405 		"/>
		<polygon id="XMLID_1589_" class="st16" points="1060,328.5 1136.6,328.5 1060,405 		"/>
		<polygon id="XMLID_1588_" class="st17" points="1289.7,98.8 1289.7,175.3 1213.2,98.8 		"/>
		<polygon id="XMLID_1587_" class="st18" points="983.5,405 983.5,481.6 906.9,405 		"/>
		<polygon id="XMLID_1586_" class="st19" points="1060,405 1060,481.6 983.5,481.6 		"/>
		<polygon id="XMLID_1585_" class="st20" points="1060,481.6 1136.6,481.6 1060,558.1 		"/>
		<polygon id="XMLID_1584_" class="st21" points="1136.6,405 1136.6,481.6 1060,405 		"/>
		<polygon id="XMLID_1583_" class="st22" points="1289.7,405 1289.7,481.6 1213.2,405 		"/>
		<polygon id="XMLID_1582_" class="st23" points="830.3,405 906.9,405 830.3,481.6 		"/>
		<polygon id="XMLID_1581_" class="st24" points="983.5,98.8 1060,98.8 983.5,175.3 		"/>
		<polygon id="XMLID_1580_" class="st1" points="1060,175.3 1060,251.9 983.5,175.3 		"/>
		<polygon id="XMLID_1579_" class="st25" points="1060,328.5 1060,405 983.5,328.5 		"/>
		<polygon id="XMLID_1578_" class="st26" points="983.5,405 1060,405 983.5,481.6 		"/>
		<polygon id="XMLID_1577_" class="st27" points="1060,481.6 1060,558.1 983.5,481.6 		"/>
		<polygon id="XMLID_1576_" class="st28" points="1136.6,98.8 1213.2,98.8 1136.6,175.3 		"/>
		<polygon id="XMLID_1575_" class="st29" points="1060,98.8 1136.6,175.3 1060,175.3 		"/>
		<polygon id="XMLID_1574_" class="st30" points="1060,251.9 1136.6,328.5 1060,328.5 		"/>
		<polygon id="XMLID_1573_" class="st31" points="1136.6,328.5 1136.6,405 1060,405 		"/>
		<polygon id="XMLID_1572_" class="st32" points="1136.6,405 1213.2,405 1136.6,481.6 		"/>
		<polygon id="XMLID_1571_" class="st33" points="1060,405 1136.6,481.6 1060,481.6 		"/>
		<polygon id="XMLID_1570_" class="st34" points="1289.7,328.5 1289.7,405 1213.2,405 		"/>
		<polygon id="XMLID_1569_" class="st1" points="906.9,175.3 906.9,98.8 983.5,175.3 		"/>
		<polygon id="XMLID_1568_" class="st26" points="906.9,405 983.5,481.6 906.9,481.6 		"/>
		<polygon id="XMLID_1567_" class="st35" points="906.9,328.5 983.5,328.5 906.9,405 		"/>
		<polygon id="XMLID_1566_" class="st36" points="983.5,481.6 983.5,558.1 906.9,558.1 		"/>
		<polygon id="XMLID_1565_" class="st0" points="983.5,175.3 1060,251.9 983.5,251.9 		"/>
		<polygon id="XMLID_1564_" class="st37" points="906.9,481.6 983.5,481.6 906.9,558.1 		"/>
		<polygon id="XMLID_1563_" class="st33" points="983.5,481.6 1060,558.1 983.5,558.1 		"/>
		<polygon id="XMLID_1562_" class="st18" points="906.9,481.6 906.9,558.1 830.3,481.6 		"/>
		<polygon id="XMLID_1561_" class="st6" points="983.5,251.9 1060,251.9 983.5,328.5 		"/>
		<polygon id="XMLID_1560_" class="st38" points="906.9,251.9 983.5,328.5 906.9,328.5 		"/>
		<polygon id="XMLID_1559_" class="st39" points="983.5,251.9 983.5,328.5 906.9,251.9 		"/>
		<polygon id="XMLID_1558_" class="st40" points="906.9,405 906.9,481.6 830.3,481.6 		"/>
		<polygon id="XMLID_1557_" class="st41" points="906.9,558.1 830.3,558.1 830.3,481.6 		"/>
		<polygon id="XMLID_1556_" class="st42" points="906.9,328.5 906.9,405 830.3,328.5 		"/>
		<polygon id="XMLID_1555_" class="st43" points="1136.6,251.9 1213.2,251.9 1136.6,328.5 		"/>
		<polygon id="XMLID_1554_" class="st44" points="1213.2,98.8 1289.7,175.3 1213.2,175.3 		"/>
		<polygon id="XMLID_1553_" class="st45" points="1289.7,175.3 1289.7,251.9 1213.2,251.9 		"/>
		<polygon id="XMLID_1552_" class="st46" points="1213.2,405 1289.7,481.6 1213.2,481.6 		"/>
		<polygon id="XMLID_1551_" class="st47" points="1289.7,481.6 1289.7,558.1 1213.2,558.1 		"/>
		<polygon id="XMLID_1550_" class="st48" points="1213.2,328.5 1289.7,328.5 1213.2,405 		"/>
		<polygon id="XMLID_1549_" class="st49" points="1213.2,98.8 1213.2,175.3 1136.6,175.3 		"/>
		<polygon id="XMLID_1548_" class="st2" points="1136.6,175.3 1213.2,251.9 1136.6,251.9 		"/>
		<polygon id="XMLID_1547_" class="st50" points="1289.7,251.9 1289.7,328.5 1213.2,251.9 		"/>
		<polygon id="XMLID_1546_" class="st51" points="1136.6,481.6 1213.2,558.1 1136.6,558.1 		"/>
		<polygon id="XMLID_1545_" class="st52" points="1213.2,405 1213.2,481.6 1136.6,481.6 		"/>
		<polygon id="XMLID_1544_" class="st53" points="1213.2,328.5 1213.2,405 1136.6,328.5 		"/>
		<polygon id="XMLID_1543_" class="st54" points="1136.6,251.9 1136.6,328.5 1060,251.9 		"/>
		<polygon id="XMLID_1542_" class="st55" points="1213.2,251.9 1213.2,328.5 1136.6,328.5 		"/>
		<polygon id="XMLID_1541_" class="st3" points="1213.2,175.3 1289.7,175.3 1213.2,251.9 		"/>
		<polygon id="XMLID_1540_" class="st56" points="1213.2,481.6 1289.7,481.6 1213.2,558.1 		"/>
		<polygon id="XMLID_1539_" class="st4" points="1213.2,175.3 1213.2,251.9 1136.6,175.3 		"/>
		<polygon id="XMLID_1538_" class="st5" points="1136.6,175.3 1136.6,251.9 1060,251.9 		"/>
		<polygon id="XMLID_1537_" class="st57" points="1213.2,481.6 1213.2,558.1 1136.6,481.6 		"/>
		<polygon id="XMLID_1536_" class="st58" points="1136.6,482.5 1136.6,559.1 1060,559.1 		"/>
		<polygon id="XMLID_1535_" class="st45" points="1213.2,251.9 1289.7,328.5 1213.2,328.5 		"/>
		<polygon id="XMLID_1534_" class="st59" points="983.5,405 983.5,328.5 906.9,405 		"/>
		<polygon id="XMLID_1533_" class="st60" points="830.3,634.7 753.8,634.7 830.3,558.1 		"/>
		<polygon id="XMLID_1532_" class="st61" points="906.9,558.1 906.9,634.7 830.3,558.1 		"/>
		<polygon id="XMLID_1531_" class="st62" points="753.8,405 830.3,405 753.8,481.6 		"/>
		<polygon id="XMLID_1530_" class="st63" points="753.8,558.1 753.8,634.7 677.2,558.1 		"/>
		<polygon id="XMLID_1529_" class="st64" points="830.3,251.9 906.9,251.9 906.9,328.5 		"/>
		<polygon id="XMLID_1528_" class="st65" points="830.3,251.9 753.8,328.5 753.8,251.9 		"/>
		<polygon id="XMLID_1527_" class="st6" points="906.9,251.9 906.9,175.3 983.5,251.9 		"/>
		<polygon id="XMLID_1526_" class="st66" points="753.8,175.3 830.3,98.8 830.3,175.3 		"/>
		<polygon id="XMLID_1525_" class="st67" points="753.8,328.5 677.2,328.5 677.2,251.9 		"/>
		<polygon id="XMLID_478_" class="st68" points="753.8,558.1 753.8,481.6 830.3,558.1 		"/>
		<polygon id="XMLID_477_" class="st69" points="677.2,481.6 753.8,481.6 677.2,558.1 		"/>
		<polygon id="XMLID_476_" class="st70" points="753.8,328.5 830.3,328.5 830.3,405 		"/>
		<polygon id="XMLID_475_" class="st7" points="830.3,251.9 906.9,175.3 906.9,251.9 		"/>
	</g>
	<g>
		<polygon id="XMLID_474_" class="st17" points="1289.4,98.8 1289.4,175.3 1366,98.8 		"/>
		<polygon id="XMLID_473_" class="st22" points="1289.4,405 1289.4,481.6 1366,405 		"/>
		<polygon id="XMLID_472_" class="st34" points="1289.4,328.5 1289.4,405 1366,405 		"/>
		<polygon id="XMLID_471_" class="st44" points="1366,98.8 1289.4,175.3 1366,175.3 		"/>
		<polygon id="XMLID_334_" class="st45" points="1289.4,175.3 1289.4,251.9 1366,251.9 		"/>
		<polygon id="XMLID_328_" class="st46" points="1366,405 1289.4,481.6 1366,481.6 		"/>
		<polygon id="XMLID_323_" class="st47" points="1289.4,481.6 1289.4,558.1 1366,558.1 		"/>
		<polygon id="XMLID_322_" class="st48" points="1366,328.5 1289.4,328.5 1366,405 		"/>
		<polygon id="XMLID_320_" class="st50" points="1289.4,251.9 1289.4,328.5 1366,251.9 		"/>
		<polygon id="XMLID_312_" class="st3" points="1366,175.3 1289.4,175.3 1366,251.9 		"/>
		<polygon id="XMLID_308_" class="st56" points="1366,481.6 1289.4,481.6 1366,558.1 		"/>
		<polygon id="XMLID_306_" class="st45" points="1366,251.9 1289.4,328.5 1366,328.5 		"/>
	</g>
	<g>
		<defs>
			<rect id="SVGID_1_" x="830.3" y="323" width="485.3" height="235.2"/>
		</defs>
		<clipPath id="SVGID_2_">
			<use xlink:href="#SVGID_1_"  style="overflow:visible;"/>
		</clipPath>
		<g id="XMLID_1669_" class="st71">
			<polygon id="XMLID_1682_" class="st72" points="1300.7,444.9 1292.5,456.6 1210.9,435.8 			"/>
			<polygon id="XMLID_1681_" class="st72" points="1228.6,385.1 1300.7,444.9 1210.9,435.8 			"/>
			<polygon id="XMLID_1680_" class="st72" points="1109.7,463 1228.6,385.1 1109.7,560.7 			"/>
			<polygon id="XMLID_1679_" class="st72" points="959.1,472.9 1109.7,560.7 1109.7,463 			"/>
			<polygon id="XMLID_1678_" class="st72" points="1228.6,385.1 1210.9,435.8 1169.1,549.6 1109.7,560.7 			"/>
			<polygon id="XMLID_1677_" class="st72" points="959.1,472.9 875,494 952.2,503.4 			"/>
			<polygon id="XMLID_1676_" class="st72" points="840.2,537.6 875,494 903,497.4 			"/>
			<polygon id="XMLID_1675_" class="st72" points="1169.1,549.6 1164.1,656.4 1155.9,656.4 1155.9,623.4 1138.7,555.3 			"/>
			<polygon id="XMLID_1674_" class="st72" points="940.2,564.2 972.4,589.5 999.6,563 			"/>
			<polygon id="XMLID_1673_" class="st72" points="917.1,674.9 926.2,674.9 972.4,589.5 940.2,564.2 931.9,642.6 			"/>
			<polygon id="XMLID_1672_" class="st72" points="999.6,563 994.6,627.4 987,671.1 978.1,671.1 981.9,628.7 972.4,589.5 			"/>
			<polygon id="XMLID_1671_" class="st72" points="959.1,472.9 940.2,564.2 1109.7,560.7 			"/>
			<polygon id="XMLID_1670_" class="st72" points="1109.7,560.7 1112.9,643.3 1109.7,663.5 1118.7,663.5 1121.7,642.6 1138.7,555.3 
							"/>
		</g>
	</g>
</g>
<g>
	<polygon id="XMLID_305_" class="st18" points="1366,742.7 1303.9,742.7 1366,680.6 	"/>
	<polygon id="XMLID_304_" class="st41" points="1303.9,742.7 1303.9,680.6 1366,680.6 	"/>
	<polygon id="XMLID_303_" class="st60" points="1241.7,680.6 1241.7,618.4 1303.9,680.6 	"/>
	<polygon id="XMLID_302_" class="st61" points="1303.9,742.7 1241.7,742.7 1303.9,680.6 	"/>
	<polygon id="XMLID_301_" class="st61" points="1179.4,743 1117.2,743 1179.4,680.9 	"/>
	<polygon id="XMLID_300_" class="st63" points="1303.9,618.4 1241.7,618.4 1303.9,556.3 	"/>
	<polygon id="XMLID_299_" class="st68" points="1303.9,618.4 1366,618.4 1303.9,680.6 	"/>
	<polygon id="XMLID_298_" class="st69" points="1366,556.3 1366,618.4 1303.9,556.3 	"/>
</g>
<g>
	<g>
		<polygon class="st73" points="284,333.5 293.7,333.5 293.7,371.5 310.8,371.5 310.8,379.3 284,379.3 		"/>
		<path class="st73" d="M315.7,370.7c0-8.7,9-11.9,17.9-11.9h1.2v-1.9c0-3.2-1.4-4.7-5.4-4.7c-3.6,0-6.5,1.6-8.5,3.2l-4-5.6
			c2.7-2.5,7.2-4.8,13.5-4.8c9.1,0,13.5,3.5,13.5,12.4v12c0,4.5,0.5,7.8,1,9.9h-9c-0.3-0.8-0.5-2.5-0.6-3.6
			c-1.8,2.2-5.1,4.4-9.4,4.4C320.1,380.2,315.7,376.7,315.7,370.7 M334.8,370.5v-6.1h-1.2c-5.4,0-9.1,1.6-9.1,5.5
			c0,2.5,2,3.5,4.1,3.5C331.4,373.5,333.3,372.2,334.8,370.5"/>
		<path class="st73" d="M349.8,377l3.1-6.4c1.3,0.9,4.5,2.8,8.3,2.8c3.5,0,5.5-1,5.5-3c0-2.3-3.7-2.9-8.5-5.2
			c-4.7-2.2-7.5-4.8-7.5-9.9c0-6.3,5-10.2,12.5-10.2c5.7,0,9.2,1.8,10.7,2.7l-3.2,6.3c-1.3-0.8-3.9-2.1-7.2-2.1
			c-3.2,0-4.6,1.2-4.6,3c0,2.3,3,2.9,6.9,4.4c5.3,2.2,9.1,4.6,9.1,10.2c0,7-5,10.7-13.3,10.7C355.7,380.2,351.9,378.4,349.8,377"/>
		<path class="st73" d="M379.3,362.4c0-10.6,7.3-17.4,16.6-17.4c9.5,0,14.6,6.1,14.6,16.5c0,1-0.1,2.1-0.1,3.2h-21.2
			c0.4,5,3,8.7,8.5,8.7c4.5,0,7.1-1.5,8.7-2.3l3,5.9c-2.2,1.2-5.6,3.2-12.5,3.2C385.6,380.2,379.3,373.1,379.3,362.4 M401.5,358.5
			c-0.1-3.8-1.6-6.9-5.8-6.9c-3.9,0-6.1,2.5-6.7,6.9H401.5z"/>
		<path class="st73" d="M417.4,345.8h9.1v4.5c1.4-2.5,4.2-5.4,8.5-5.4c2.5,0,3.8,0.5,4.5,0.9l-2.2,8c-0.5-0.3-1.6-0.8-3.5-0.8
			c-4.1,0-6.5,3.6-7.3,5.1v21.1h-9.1V345.8z"/>
		<polygon class="st73" points="466.7,341.5 454.1,341.5 454.1,333.5 489.1,333.5 489.1,341.5 476.5,341.5 476.5,379.3 466.7,379.3 
					"/>
		<path class="st73" d="M487.7,362.4c0-10.6,7.3-17.4,16.6-17.4c9.5,0,14.6,6.1,14.6,16.5c0,1-0.1,2.1-0.1,3.2h-21.2
			c0.4,5,3,8.7,8.5,8.7c4.5,0,7.1-1.5,8.7-2.3l3,5.9c-2.2,1.2-5.6,3.2-12.5,3.2C494,380.2,487.7,373.1,487.7,362.4 M509.9,358.5
			c-0.1-3.8-1.6-6.9-5.8-6.9c-3.9,0-6.1,2.5-6.7,6.9H509.9z"/>
		<path class="st73" d="M523.4,362.6c0-11.3,7.5-17.6,17.6-17.6c5.4,0,8.7,1.6,10.2,2.7l-3,6.3c-1.5-1-3.6-2-7-2
			c-5.4,0-8.2,4.2-8.2,10.4c0,6.2,2.7,10.7,8.4,10.7c3.9,0,6.2-1.4,7.2-2.1l2.8,6.1c-1.6,1-4.7,3-10.8,3
			C530,380.2,523.4,373,523.4,362.6"/>
		<path class="st73" d="M557.1,329.8h9.1v20.1c1.7-1.9,5-4.9,10.5-4.9c7.4,0,10,4.7,10,10.9v23.5h-9.1v-21.6c0-3.4-1.2-5.1-4.4-5.1
			c-3.6,0-6.3,3.3-6.9,4.2v22.5h-9.1V329.8z"/>
	</g>
	<rect x="534" y="391.9" class="st73" width="52.8" height="4.5"/>
</g>
<g>
	<path class="st73" d="M357.2,440.6c0,2.7-0.4,4.9-1.2,6.5c-0.8,1.7-1.8,2.9-2.9,3.9c-1.2,0.9-2.4,1.5-3.8,1.8
		c-1.3,0.3-2.6,0.5-3.7,0.5c-1.1,0-2.2-0.1-3.2-0.3c-1.1-0.2-2-0.5-3-0.9c-0.9-0.4-1.8-0.9-2.6-1.4c-0.8-0.6-1.4-1.2-2-1.9l2.2-2.1
		c1,1.4,2.3,2.5,3.8,3.1c1.5,0.7,3.1,1,4.8,1c1.4,0,2.7-0.2,3.6-0.6c1-0.4,1.8-0.9,2.5-1.5c0.6-0.6,1.1-1.3,1.5-2
		c0.4-0.7,0.6-1.5,0.8-2.2s0.3-1.4,0.3-2.1c0-0.7,0-1.2,0-1.6v-3h-0.1c-0.8,1.3-1.9,2.4-3.3,3.1c-1.4,0.7-3,1.1-4.9,1.1
		c-1.6,0-3.1-0.3-4.5-0.9c-1.4-0.6-2.6-1.4-3.7-2.4c-1.1-1-1.9-2.2-2.5-3.5c-0.6-1.3-0.9-2.8-0.9-4.3c0-1.5,0.3-3,0.9-4.3
		c0.6-1.3,1.4-2.5,2.5-3.5c1-1,2.3-1.8,3.7-2.4c1.4-0.6,2.9-0.9,4.5-0.9c1.9,0,3.5,0.4,4.9,1.1c1.4,0.7,2.5,1.8,3.3,3.1h0.1v-3.7
		h2.8V440.6z M354.5,430.9c0-1.2-0.2-2.3-0.7-3.4c-0.5-1.1-1.1-2-1.8-2.7c-0.8-0.8-1.7-1.4-2.7-1.8c-1.1-0.5-2.2-0.7-3.4-0.7
		s-2.3,0.2-3.4,0.7c-1,0.5-2,1.1-2.7,1.8c-0.8,0.8-1.4,1.7-1.8,2.7c-0.5,1.1-0.7,2.2-0.7,3.4c0,1.2,0.2,2.3,0.7,3.4
		c0.5,1.1,1.1,2,1.8,2.7c0.8,0.8,1.7,1.4,2.7,1.8c1.1,0.5,2.2,0.7,3.4,0.7s2.3-0.2,3.4-0.7c1-0.5,2-1.1,2.7-1.8
		c0.8-0.8,1.4-1.7,1.8-2.7C354.2,433.2,354.5,432.1,354.5,430.9"/>
	<path class="st73" d="M357.2,440.6c0,2.7-0.4,4.9-1.2,6.5c-0.8,1.7-1.8,2.9-2.9,3.9c-1.2,0.9-2.4,1.5-3.8,1.8
		c-1.3,0.3-2.6,0.5-3.7,0.5c-1.1,0-2.2-0.1-3.2-0.3c-1.1-0.2-2-0.5-3-0.9c-0.9-0.4-1.8-0.9-2.6-1.4c-0.8-0.6-1.4-1.2-2-1.9l2.2-2.1
		c1,1.4,2.3,2.5,3.8,3.1c1.5,0.7,3.1,1,4.8,1c1.4,0,2.7-0.2,3.6-0.6c1-0.4,1.8-0.9,2.5-1.5c0.6-0.6,1.1-1.3,1.5-2
		c0.4-0.7,0.6-1.5,0.8-2.2s0.3-1.4,0.3-2.1c0-0.7,0-1.2,0-1.6v-3h-0.1c-0.8,1.3-1.9,2.4-3.3,3.1c-1.4,0.7-3,1.1-4.9,1.1
		c-1.6,0-3.1-0.3-4.5-0.9c-1.4-0.6-2.6-1.4-3.7-2.4c-1.1-1-1.9-2.2-2.5-3.5c-0.6-1.3-0.9-2.8-0.9-4.3c0-1.5,0.3-3,0.9-4.3
		c0.6-1.3,1.4-2.5,2.5-3.5c1-1,2.3-1.8,3.7-2.4c1.4-0.6,2.9-0.9,4.5-0.9c1.9,0,3.5,0.4,4.9,1.1c1.4,0.7,2.5,1.8,3.3,3.1h0.1v-3.7
		h2.8V440.6z M354.5,430.9c0-1.2-0.2-2.3-0.7-3.4c-0.5-1.1-1.1-2-1.8-2.7c-0.8-0.8-1.7-1.4-2.7-1.8c-1.1-0.5-2.2-0.7-3.4-0.7
		s-2.3,0.2-3.4,0.7c-1,0.5-2,1.1-2.7,1.8c-0.8,0.8-1.4,1.7-1.8,2.7c-0.5,1.1-0.7,2.2-0.7,3.4c0,1.2,0.2,2.3,0.7,3.4
		c0.5,1.1,1.1,2,1.8,2.7c0.8,0.8,1.7,1.4,2.7,1.8c1.1,0.5,2.2,0.7,3.4,0.7s2.3-0.2,3.4-0.7c1-0.5,2-1.1,2.7-1.8
		c0.8-0.8,1.4-1.7,1.8-2.7C354.2,433.2,354.5,432.1,354.5,430.9z"/>
	<path class="st73" d="M378.2,426.4c0-0.4,0-0.9,0-1.5c0-0.6-0.1-1.2-0.1-1.8c0-0.6,0-1.1-0.1-1.7c0-0.5-0.1-0.9-0.1-1.2h2.8
		c0,0.8,0.1,1.6,0.1,2.4c0,0.7,0.1,1.2,0.1,1.5c0.7-1.3,1.6-2.3,2.8-3.2c1.1-0.8,2.5-1.2,4.1-1.2c0.3,0,0.6,0,0.8,0.1
		c0.3,0,0.5,0.1,0.8,0.2l-0.3,2.8c-0.4-0.1-0.7-0.2-1.1-0.2c-1.2,0-2.3,0.2-3.2,0.6c-0.9,0.4-1.6,0.9-2.2,1.6
		c-0.6,0.7-1,1.5-1.3,2.4c-0.3,0.9-0.4,1.9-0.4,3V442h-2.8V426.4z"/>
	<path class="st73" d="M378.2,426.4c0-0.4,0-0.9,0-1.5c0-0.6-0.1-1.2-0.1-1.8c0-0.6,0-1.1-0.1-1.7c0-0.5-0.1-0.9-0.1-1.2h2.8
		c0,0.8,0.1,1.6,0.1,2.4c0,0.7,0.1,1.2,0.1,1.5c0.7-1.3,1.6-2.3,2.8-3.2c1.1-0.8,2.5-1.2,4.1-1.2c0.3,0,0.6,0,0.8,0.1
		c0.3,0,0.5,0.1,0.8,0.2l-0.3,2.8c-0.4-0.1-0.7-0.2-1.1-0.2c-1.2,0-2.3,0.2-3.2,0.6c-0.9,0.4-1.6,0.9-2.2,1.6
		c-0.6,0.7-1,1.5-1.3,2.4c-0.3,0.9-0.4,1.9-0.4,3V442h-2.8V426.4z"/>
	<path class="st73" d="M424.9,432.9c0,1.1,0,2,0,2.9c0,0.8,0,1.6,0.1,2.4c0,0.7,0.1,1.4,0.1,2c0,0.6,0.1,1.3,0.2,1.9h-2.6
		c-0.2-1.1-0.3-2.3-0.3-3.5h-0.1c-0.8,1.4-1.8,2.4-3,3.1c-1.2,0.7-2.7,1-4.6,1c-0.9,0-1.9-0.1-2.8-0.4c-0.9-0.2-1.7-0.6-2.4-1.1
		c-0.7-0.5-1.3-1.2-1.8-2c-0.5-0.8-0.7-1.8-0.7-3c0-1.7,0.4-3,1.3-3.9c0.8-1,1.9-1.7,3.1-2.2c1.2-0.5,2.6-0.8,4-0.9
		c1.4-0.1,2.6-0.2,3.7-0.2h3.3v-1.3c0-1.9-0.6-3.2-1.7-4c-1.2-0.8-2.6-1.2-4.4-1.2c-2.5,0-4.7,0.8-6.6,2.4l-1.6-1.9
		c1-1,2.3-1.8,3.9-2.3c1.5-0.5,3-0.8,4.4-0.8c2.6,0,4.7,0.6,6.3,1.9c1.6,1.2,2.4,3.2,2.4,6V432.9z M419.2,431.1
		c-1.2,0-2.3,0.1-3.4,0.2c-1.1,0.2-2.1,0.4-3,0.8c-0.9,0.4-1.6,0.9-2.1,1.5c-0.5,0.6-0.8,1.4-0.8,2.4c0,0.7,0.1,1.2,0.4,1.8
		c0.3,0.5,0.7,0.9,1.1,1.3c0.5,0.3,1,0.6,1.6,0.7c0.6,0.2,1.2,0.3,1.8,0.3c1.5,0,2.7-0.2,3.7-0.7c1-0.4,1.8-1,2.3-1.7
		c0.6-0.7,1-1.5,1.2-2.4c0.2-0.9,0.3-1.8,0.3-2.7v-1.5H419.2z"/>
	<path class="st73" d="M424.9,432.9c0,1.1,0,2,0,2.9c0,0.8,0,1.6,0.1,2.4c0,0.7,0.1,1.4,0.1,2c0,0.6,0.1,1.3,0.2,1.9h-2.6
		c-0.2-1.1-0.3-2.3-0.3-3.5h-0.1c-0.8,1.4-1.8,2.4-3,3.1c-1.2,0.7-2.7,1-4.6,1c-0.9,0-1.9-0.1-2.8-0.4c-0.9-0.2-1.7-0.6-2.4-1.1
		c-0.7-0.5-1.3-1.2-1.8-2c-0.5-0.8-0.7-1.8-0.7-3c0-1.7,0.4-3,1.3-3.9c0.8-1,1.9-1.7,3.1-2.2c1.2-0.5,2.6-0.8,4-0.9
		c1.4-0.1,2.6-0.2,3.7-0.2h3.3v-1.3c0-1.9-0.6-3.2-1.7-4c-1.2-0.8-2.6-1.2-4.4-1.2c-2.5,0-4.7,0.8-6.6,2.4l-1.6-1.9
		c1-1,2.3-1.8,3.9-2.3c1.5-0.5,3-0.8,4.4-0.8c2.6,0,4.7,0.6,6.3,1.9c1.6,1.2,2.4,3.2,2.4,6V432.9z M419.2,431.1
		c-1.2,0-2.3,0.1-3.4,0.2c-1.1,0.2-2.1,0.4-3,0.8c-0.9,0.4-1.6,0.9-2.1,1.5c-0.5,0.6-0.8,1.4-0.8,2.4c0,0.7,0.1,1.2,0.4,1.8
		c0.3,0.5,0.7,0.9,1.1,1.3c0.5,0.3,1,0.6,1.6,0.7c0.6,0.2,1.2,0.3,1.8,0.3c1.5,0,2.7-0.2,3.7-0.7c1-0.4,1.8-1,2.3-1.7
		c0.6-0.7,1-1.5,1.2-2.4c0.2-0.9,0.3-1.8,0.3-2.7v-1.5H419.2z"/>
	<path class="st73" d="M445.9,406.5h2.8v17.6h0.1c0.4-0.8,1-1.4,1.6-2c0.7-0.6,1.4-1,2.1-1.4c0.8-0.4,1.6-0.6,2.4-0.8
		c0.8-0.2,1.7-0.3,2.5-0.3c1.7,0,3.2,0.3,4.6,0.8c1.4,0.6,2.6,1.4,3.6,2.4c1,1,1.8,2.2,2.4,3.6c0.6,1.4,0.8,2.9,0.8,4.6
		c0,1.7-0.3,3.2-0.8,4.6c-0.6,1.4-1.3,2.6-2.4,3.6c-1,1-2.2,1.8-3.6,2.4c-1.4,0.6-2.9,0.9-4.6,0.9c-0.8,0-1.6-0.1-2.5-0.3
		c-0.9-0.2-1.7-0.4-2.4-0.8c-0.8-0.4-1.5-0.8-2.1-1.4c-0.7-0.6-1.2-1.2-1.6-2h-0.1v3.8h-2.8V406.5z M448.4,431.2
		c0,1.2,0.2,2.4,0.7,3.5c0.5,1.1,1.1,2,1.9,2.8c0.8,0.8,1.8,1.4,2.9,1.9c1.1,0.5,2.3,0.7,3.6,0.7c1.3,0,2.5-0.2,3.6-0.7
		c1.1-0.5,2-1.1,2.7-1.9c0.7-0.8,1.3-1.7,1.7-2.8c0.4-1.1,0.6-2.2,0.6-3.5c0-1.2-0.2-2.4-0.6-3.5c-0.4-1.1-1-2-1.7-2.8
		c-0.7-0.8-1.7-1.4-2.7-1.9c-1.1-0.5-2.3-0.7-3.6-0.7c-1.3,0-2.5,0.2-3.6,0.7c-1.1,0.5-2,1.1-2.9,1.9c-0.8,0.8-1.5,1.7-1.9,2.8
		C448.7,428.8,448.4,429.9,448.4,431.2"/>
	<path class="st73" d="M445.9,406.5h2.8v17.6h0.1c0.4-0.8,1-1.4,1.6-2c0.7-0.6,1.4-1,2.1-1.4c0.8-0.4,1.6-0.6,2.4-0.8
		c0.8-0.2,1.7-0.3,2.5-0.3c1.7,0,3.2,0.3,4.6,0.8c1.4,0.6,2.6,1.4,3.6,2.4c1,1,1.8,2.2,2.4,3.6c0.6,1.4,0.8,2.9,0.8,4.6
		c0,1.7-0.3,3.2-0.8,4.6c-0.6,1.4-1.3,2.6-2.4,3.6c-1,1-2.2,1.8-3.6,2.4c-1.4,0.6-2.9,0.9-4.6,0.9c-0.8,0-1.6-0.1-2.5-0.3
		c-0.9-0.2-1.7-0.4-2.4-0.8c-0.8-0.4-1.5-0.8-2.1-1.4c-0.7-0.6-1.2-1.2-1.6-2h-0.1v3.8h-2.8V406.5z M448.4,431.2
		c0,1.2,0.2,2.4,0.7,3.5c0.5,1.1,1.1,2,1.9,2.8c0.8,0.8,1.8,1.4,2.9,1.9c1.1,0.5,2.3,0.7,3.6,0.7c1.3,0,2.5-0.2,3.6-0.7
		c1.1-0.5,2-1.1,2.7-1.9c0.7-0.8,1.3-1.7,1.7-2.8c0.4-1.1,0.6-2.2,0.6-3.5c0-1.2-0.2-2.4-0.6-3.5c-0.4-1.1-1-2-1.7-2.8
		c-0.7-0.8-1.7-1.4-2.7-1.9c-1.1-0.5-2.3-0.7-3.6-0.7c-1.3,0-2.5,0.2-3.6,0.7c-1.1,0.5-2,1.1-2.9,1.9c-0.8,0.8-1.5,1.7-1.9,2.8
		C448.7,428.8,448.4,429.9,448.4,431.2z"/>
	<path class="st73" d="M506.2,432.9c0,1.1,0,2,0,2.9c0,0.8,0,1.6,0.1,2.4c0,0.7,0.1,1.4,0.1,2c0,0.6,0.1,1.3,0.2,1.9H504
		c-0.2-1.1-0.3-2.3-0.3-3.5h-0.1c-0.8,1.4-1.8,2.4-3,3.1c-1.2,0.7-2.7,1-4.6,1c-0.9,0-1.9-0.1-2.8-0.4c-0.9-0.2-1.7-0.6-2.4-1.1
		c-0.7-0.5-1.3-1.2-1.8-2c-0.5-0.8-0.7-1.8-0.7-3c0-1.7,0.4-3,1.3-3.9c0.8-1,1.9-1.7,3.1-2.2c1.2-0.5,2.6-0.8,4-0.9
		c1.4-0.1,2.6-0.2,3.7-0.2h3.3v-1.3c0-1.9-0.6-3.2-1.7-4c-1.2-0.8-2.6-1.2-4.4-1.2c-2.5,0-4.7,0.8-6.6,2.4l-1.6-1.9
		c1-1,2.3-1.8,3.9-2.3c1.5-0.5,3-0.8,4.4-0.8c2.6,0,4.7,0.6,6.3,1.9c1.6,1.2,2.4,3.2,2.4,6V432.9z M500.6,431.1
		c-1.2,0-2.3,0.1-3.4,0.2c-1.1,0.2-2.1,0.4-3,0.8c-0.9,0.4-1.6,0.9-2.1,1.5c-0.5,0.6-0.8,1.4-0.8,2.4c0,0.7,0.1,1.2,0.4,1.8
		c0.3,0.5,0.7,0.9,1.1,1.3c0.5,0.3,1,0.6,1.6,0.7c0.6,0.2,1.2,0.3,1.8,0.3c1.5,0,2.7-0.2,3.7-0.7c1-0.4,1.8-1,2.3-1.7
		c0.6-0.7,1-1.5,1.2-2.4c0.2-0.9,0.3-1.8,0.3-2.7v-1.5H500.6z"/>
	<path class="st73" d="M506.2,432.9c0,1.1,0,2,0,2.9c0,0.8,0,1.6,0.1,2.4c0,0.7,0.1,1.4,0.1,2c0,0.6,0.1,1.3,0.2,1.9H504
		c-0.2-1.1-0.3-2.3-0.3-3.5h-0.1c-0.8,1.4-1.8,2.4-3,3.1c-1.2,0.7-2.7,1-4.6,1c-0.9,0-1.9-0.1-2.8-0.4c-0.9-0.2-1.7-0.6-2.4-1.1
		c-0.7-0.5-1.3-1.2-1.8-2c-0.5-0.8-0.7-1.8-0.7-3c0-1.7,0.4-3,1.3-3.9c0.8-1,1.9-1.7,3.1-2.2c1.2-0.5,2.6-0.8,4-0.9
		c1.4-0.1,2.6-0.2,3.7-0.2h3.3v-1.3c0-1.9-0.6-3.2-1.7-4c-1.2-0.8-2.6-1.2-4.4-1.2c-2.5,0-4.7,0.8-6.6,2.4l-1.6-1.9
		c1-1,2.3-1.8,3.9-2.3c1.5-0.5,3-0.8,4.4-0.8c2.6,0,4.7,0.6,6.3,1.9c1.6,1.2,2.4,3.2,2.4,6V432.9z M500.6,431.1
		c-1.2,0-2.3,0.1-3.4,0.2c-1.1,0.2-2.1,0.4-3,0.8c-0.9,0.4-1.6,0.9-2.1,1.5c-0.5,0.6-0.8,1.4-0.8,2.4c0,0.7,0.1,1.2,0.4,1.8
		c0.3,0.5,0.7,0.9,1.1,1.3c0.5,0.3,1,0.6,1.6,0.7c0.6,0.2,1.2,0.3,1.8,0.3c1.5,0,2.7-0.2,3.7-0.7c1-0.4,1.8-1,2.3-1.7
		c0.6-0.7,1-1.5,1.2-2.4c0.2-0.9,0.3-1.8,0.3-2.7v-1.5H500.6z"/>
	<path class="st73" d="M546.9,438.2L546.9,438.2c-0.5,0.8-1.1,1.4-1.7,2c-0.7,0.5-1.4,1-2.1,1.4c-0.8,0.4-1.6,0.6-2.4,0.8
		c-0.8,0.2-1.7,0.3-2.5,0.3c-1.7,0-3.2-0.3-4.6-0.9c-1.4-0.6-2.6-1.4-3.6-2.4c-1-1-1.8-2.2-2.4-3.6c-0.6-1.4-0.8-2.9-0.8-4.6
		c0-1.7,0.3-3.2,0.8-4.6c0.6-1.4,1.4-2.6,2.4-3.6c1-1,2.2-1.8,3.6-2.4c1.4-0.6,2.9-0.8,4.6-0.8c0.8,0,1.6,0.1,2.5,0.3
		c0.9,0.2,1.7,0.4,2.4,0.8c0.8,0.4,1.5,0.8,2.1,1.4c0.7,0.6,1.2,1.2,1.6,2h0.1v-17.6h2.8V442h-2.8V438.2z M547.2,431.2
		c0-1.2-0.2-2.4-0.7-3.5s-1.1-2-1.9-2.8c-0.8-0.8-1.8-1.4-2.9-1.9c-1.1-0.5-2.3-0.7-3.6-0.7c-1.3,0-2.5,0.2-3.6,0.7
		c-1.1,0.5-2,1.1-2.7,1.9c-0.7,0.8-1.3,1.7-1.7,2.8s-0.6,2.2-0.6,3.5c0,1.2,0.2,2.4,0.6,3.5c0.4,1.1,1,2,1.7,2.8
		c0.7,0.8,1.7,1.4,2.7,1.9c1.1,0.5,2.3,0.7,3.6,0.7c1.3,0,2.5-0.2,3.6-0.7c1.1-0.5,2-1.1,2.9-1.9c0.8-0.8,1.5-1.7,1.9-2.8
		C546.9,433.5,547.2,432.4,547.2,431.2"/>
	<path class="st73" d="M546.9,438.2L546.9,438.2c-0.5,0.8-1.1,1.4-1.7,2c-0.7,0.5-1.4,1-2.1,1.4c-0.8,0.4-1.6,0.6-2.4,0.8
		c-0.8,0.2-1.7,0.3-2.5,0.3c-1.7,0-3.2-0.3-4.6-0.9c-1.4-0.6-2.6-1.4-3.6-2.4c-1-1-1.8-2.2-2.4-3.6c-0.6-1.4-0.8-2.9-0.8-4.6
		c0-1.7,0.3-3.2,0.8-4.6c0.6-1.4,1.4-2.6,2.4-3.6c1-1,2.2-1.8,3.6-2.4c1.4-0.6,2.9-0.8,4.6-0.8c0.8,0,1.6,0.1,2.5,0.3
		c0.9,0.2,1.7,0.4,2.4,0.8c0.8,0.4,1.5,0.8,2.1,1.4c0.7,0.6,1.2,1.2,1.6,2h0.1v-17.6h2.8V442h-2.8V438.2z M547.2,431.2
		c0-1.2-0.2-2.4-0.7-3.5s-1.1-2-1.9-2.8c-0.8-0.8-1.8-1.4-2.9-1.9c-1.1-0.5-2.3-0.7-3.6-0.7c-1.3,0-2.5,0.2-3.6,0.7
		c-1.1,0.5-2,1.1-2.7,1.9c-0.7,0.8-1.3,1.7-1.7,2.8s-0.6,2.2-0.6,3.5c0,1.2,0.2,2.4,0.6,3.5c0.4,1.1,1,2,1.7,2.8
		c0.7,0.8,1.7,1.4,2.7,1.9c1.1,0.5,2.3,0.7,3.6,0.7c1.3,0,2.5-0.2,3.6-0.7c1.1-0.5,2-1.1,2.9-1.9c0.8-0.8,1.5-1.7,1.9-2.8
		C546.9,433.5,547.2,432.4,547.2,431.2z"/>
	<path class="st73" d="M569.5,431.2c0-1.7,0.3-3.2,0.8-4.6s1.4-2.6,2.4-3.6c1-1,2.2-1.8,3.6-2.4c1.4-0.6,2.9-0.8,4.6-0.8
		c1.7,0,3.2,0.3,4.6,0.8c1.4,0.6,2.6,1.4,3.6,2.4c1,1,1.8,2.2,2.4,3.6s0.8,2.9,0.8,4.6c0,1.7-0.3,3.2-0.8,4.6
		c-0.6,1.4-1.3,2.6-2.4,3.6c-1,1-2.2,1.8-3.6,2.4c-1.4,0.6-2.9,0.9-4.6,0.9c-1.7,0-3.2-0.3-4.6-0.9c-1.4-0.6-2.6-1.4-3.6-2.4
		c-1-1-1.8-2.2-2.4-3.6C569.8,434.4,569.5,432.8,569.5,431.2 M572.3,431.2c0,1.2,0.2,2.4,0.6,3.5c0.4,1.1,1,2,1.7,2.8
		c0.7,0.8,1.7,1.4,2.7,1.9c1.1,0.5,2.3,0.7,3.6,0.7c1.3,0,2.5-0.2,3.6-0.7c1.1-0.5,2-1.1,2.7-1.9c0.7-0.8,1.3-1.7,1.7-2.8
		c0.4-1.1,0.6-2.2,0.6-3.5c0-1.2-0.2-2.4-0.6-3.5c-0.4-1.1-1-2-1.7-2.8c-0.8-0.8-1.7-1.4-2.7-1.9c-1.1-0.5-2.3-0.7-3.6-0.7
		c-1.3,0-2.5,0.2-3.6,0.7c-1.1,0.5-2,1.1-2.7,1.9c-0.7,0.8-1.3,1.7-1.7,2.8C572.5,428.8,572.3,429.9,572.3,431.2"/>
	<path class="st73" d="M569.5,431.2c0-1.7,0.3-3.2,0.8-4.6s1.4-2.6,2.4-3.6c1-1,2.2-1.8,3.6-2.4c1.4-0.6,2.9-0.8,4.6-0.8
		c1.7,0,3.2,0.3,4.6,0.8c1.4,0.6,2.6,1.4,3.6,2.4c1,1,1.8,2.2,2.4,3.6s0.8,2.9,0.8,4.6c0,1.7-0.3,3.2-0.8,4.6
		c-0.6,1.4-1.3,2.6-2.4,3.6c-1,1-2.2,1.8-3.6,2.4c-1.4,0.6-2.9,0.9-4.6,0.9c-1.7,0-3.2-0.3-4.6-0.9c-1.4-0.6-2.6-1.4-3.6-2.4
		c-1-1-1.8-2.2-2.4-3.6C569.8,434.4,569.5,432.8,569.5,431.2z M572.3,431.2c0,1.2,0.2,2.4,0.6,3.5c0.4,1.1,1,2,1.7,2.8
		c0.7,0.8,1.7,1.4,2.7,1.9c1.1,0.5,2.3,0.7,3.6,0.7c1.3,0,2.5-0.2,3.6-0.7c1.1-0.5,2-1.1,2.7-1.9c0.7-0.8,1.3-1.7,1.7-2.8
		c0.4-1.1,0.6-2.2,0.6-3.5c0-1.2-0.2-2.4-0.6-3.5c-0.4-1.1-1-2-1.7-2.8c-0.8-0.8-1.7-1.4-2.7-1.9c-1.1-0.5-2.3-0.7-3.6-0.7
		c-1.3,0-2.5,0.2-3.6,0.7c-1.1,0.5-2,1.1-2.7,1.9c-0.7,0.8-1.3,1.7-1.7,2.8C572.5,428.8,572.3,429.9,572.3,431.2z"/>
</g>
</svg>
