<?xml version="1.0" encoding="utf-8"?>
<!-- Generator: Adobe Illustrator 22.0.1, SVG Export Plug-In . SVG Version: 6.00 Build 0)  -->
<svg version="1.1" id="Layer_1" xmlns="http://www.w3.org/2000/svg" xmlns:xlink="http://www.w3.org/1999/xlink" x="0px" y="0px"
	 viewBox="0 0 1366 768" style="enable-background:new 0 0 1366 768;" xml:space="preserve">
<style type="text/css">
	.st0{fill:#91072E;}
	.st1{fill:#FF4A2E;}
	.st2{fill:#D32121;}
	.st3{fill:#FFA051;}
	.st4{fill:#FF9D50;}
	.st5{fill:#FF714A;}
	.st6{fill:#FF7214;}
	.st7{fill:#FFA352;}
	.st8{fill:#FF8A45;}
	.st9{fill:#FF652D;}
	.st10{fill:#FF6943;}
	.st11{fill:#FF922D;}
	.st12{fill:#FF6C62;}
	.st13{fill:#FF564B;}
	.st14{fill:#FF392F;}
	.st15{fill:#FF5B45;}
	.st16{fill:#F75724;}
	.st17{fill:#FF4133;}
	.st18{fill:#FF8B47;}
	.st19{fill:#FF804D;}
	.st20{fill:#FF7149;}
	.st21{fill:#FF5643;}
	.st22{fill:#FF4E3B;}
	.st23{fill:#FF9C41;}
	.st24{fill:#FF934A;}
	.st25{fill:#FF8146;}
	.st26{fill:#FF7324;}
	.st27{fill:#FF6518;}
	.st28{fill:#F8404E;}
	.st29{fill:#FD4E1D;}
	.st30{fill:#FF5E2E;}
	.st31{fill:#FF5344;}
	.st32{fill:#FB4155;}
	.st33{fill:#FF7935;}
	.st34{fill:#FF7A3E;}
	.st35{fill:#FF7024;}
	.st36{fill:#FF4A4E;}
	.st37{fill:#FF2C72;}
	.st38{fill:#FF6343;}
	.st39{fill:#FF862C;}
	.st40{fill:#FF9734;}
	.st41{fill:#FF7F10;}
	.st42{fill:#F85F2C;}
	.st43{fill:#F2422D;}
	.st44{fill:#FF6515;}
	.st45{fill:#FF8A23;}
	.st46{fill:#FF820B;}
	.st47{fill:#FF7312;}
	.st48{fill:#F44F3D;}
	.st49{fill:#F7491E;}
	.st50{fill:#FF732F;}
	.st51{fill:#FF7933;}
	.st52{fill:#FF6E11;}
	.st53{fill:#FF881A;}
	.st54{fill:#E2462D;}
	.st55{fill:#FF8528;}
	.st56{fill:#FF8D28;}
	.st57{fill:#FF4A2A;}
	.st58{fill:#FF5E4A;}
	.st59{fill:#FF5B34;}
	.st60{fill:#FF3A5C;}
	.st61{fill:#FF414B;}
	.st62{fill:#FF315F;}
	.st63{fill:#E61E6F;}
	.st64{fill:#FF7031;}
	.st65{fill:#FF6537;}
	.st66{fill:#FF6646;}
	.st67{fill:#FF5C56;}
	.st68{fill:#FF3845;}
	.st69{fill:#FF4E48;}
	.st70{fill:#FF4E4D;}
	.st71{clip-path:url(#SVGID_2_);}
	.st72{fill:none;stroke:#FFFFFF;stroke-width:3;stroke-linejoin:round;stroke-miterlimit:10;}
	.st73{fill:#DF101C;}
</style>
<g>
	<g>
		<g id="XMLID_1597_">
			<polygon id="XMLID_1610_" class="st0" points="1303.9,471.8 1295.7,483.5 1214,462.6 			"/>
			<polygon id="XMLID_1609_" class="st1" points="1231.8,412 1303.9,471.8 1214,462.6 			"/>
			<polygon id="XMLID_1608_" class="st1" points="1112.8,489.8 1231.8,412 1112.8,587.6 			"/>
			<polygon id="XMLID_1607_" class="st2" points="962.3,499.8 1112.8,587.6 1112.8,489.8 			"/>
			<polygon id="XMLID_1606_" class="st0" points="1231.8,412 1214,462.6 1172.3,576.4 1112.8,587.6 			"/>
			<polygon id="XMLID_1605_" class="st0" points="962.3,499.8 878.2,520.8 955.3,530.3 			"/>
			<polygon id="XMLID_1604_" class="st2" points="843.3,564.4 878.2,520.8 906.2,524.2 			"/>
			<polygon id="XMLID_1603_" class="st2" points="1172.3,576.4 1167.2,683.3 1159,683.3 1159,650.2 1141.8,582.1 			"/>
			<polygon id="XMLID_1602_" class="st2" points="943.3,591 975.6,616.3 1002.7,589.8 			"/>
			<polygon id="XMLID_1601_" class="st1" points="920.2,701.7 929.4,701.7 975.6,616.3 943.3,591 935.1,669.4 			"/>
			<polygon id="XMLID_1600_" class="st0" points="1002.7,589.8 997.7,654.3 990.1,697.9 981.3,697.9 985,655.5 975.6,616.3 			"/>
			<polygon id="XMLID_1599_" class="st1" points="962.3,499.8 943.3,591 1112.8,587.6 			"/>
			<polygon id="XMLID_1598_" class="st1" points="1112.8,587.6 1116,670.1 1112.8,690.3 1121.8,690.3 1124.9,669.4 1141.8,582.1 			
				"/>
		</g>
		<g>
			<polygon id="XMLID_1596_" class="st3" points="1062,124.8 1062,201.3 985.5,201.3 			"/>
			<polygon id="XMLID_1595_" class="st4" points="908.9,124.8 985.5,124.8 985.5,201.3 			"/>
			<polygon id="XMLID_1594_" class="st5" points="985.5,354.5 1062,431 985.5,431 			"/>
			<polygon id="XMLID_1593_" class="st6" points="1062,277.9 1062,354.5 985.5,354.5 			"/>
			<polygon id="XMLID_1592_" class="st7" points="1138.6,124.8 1138.6,201.3 1062,124.8 			"/>
			<polygon id="XMLID_1591_" class="st8" points="1062,201.3 1138.6,201.3 1062,277.9 			"/>
			<polygon id="XMLID_1590_" class="st9" points="1138.6,354.5 1215.2,431 1138.6,431 			"/>
			<polygon id="XMLID_1589_" class="st10" points="1062,354.5 1138.6,354.5 1062,431 			"/>
			<polygon id="XMLID_1588_" class="st11" points="1291.7,124.8 1291.7,201.3 1215.2,124.8 			"/>
			<polygon id="XMLID_1587_" class="st12" points="985.5,431 985.5,507.6 908.9,431 			"/>
			<polygon id="XMLID_1586_" class="st13" points="1062,431 1062,507.6 985.5,507.6 			"/>
			<polygon id="XMLID_1585_" class="st14" points="1062,507.6 1138.6,507.6 1062,584.1 			"/>
			<polygon id="XMLID_1584_" class="st15" points="1138.6,431 1138.6,507.6 1062,431 			"/>
			<polygon id="XMLID_1583_" class="st16" points="1291.7,431 1291.7,507.6 1215.2,431 			"/>
			<polygon id="XMLID_1582_" class="st17" points="832.3,431 908.9,431 832.3,507.6 			"/>
			<polygon id="XMLID_1581_" class="st18" points="985.5,124.8 1062,124.8 985.5,201.3 			"/>
			<polygon id="XMLID_1580_" class="st19" points="1062,201.3 1062,277.9 985.5,201.3 			"/>
			<polygon id="XMLID_1579_" class="st20" points="1062,354.5 1062,431 985.5,354.5 			"/>
			<polygon id="XMLID_1578_" class="st21" points="985.5,431 1062,431 985.5,507.6 			"/>
			<polygon id="XMLID_1577_" class="st22" points="1062,507.6 1062,584.1 985.5,507.6 			"/>
			<polygon id="XMLID_1576_" class="st23" points="1138.6,124.8 1215.2,124.8 1138.6,201.3 			"/>
			<polygon id="XMLID_1575_" class="st24" points="1062,124.8 1138.6,201.3 1062,201.3 			"/>
			<polygon id="XMLID_1574_" class="st25" points="1062,277.9 1138.6,354.5 1062,354.5 			"/>
			<polygon id="XMLID_1573_" class="st26" points="1138.6,354.5 1138.6,431 1062,431 			"/>
			<polygon id="XMLID_1572_" class="st27" points="1138.6,431 1215.2,431 1138.6,507.6 			"/>
			<polygon id="XMLID_1571_" class="st28" points="1062,431 1138.6,507.6 1062,507.6 			"/>
			<polygon id="XMLID_1570_" class="st29" points="1291.7,354.5 1291.7,431 1215.2,431 			"/>
			<polygon id="XMLID_1569_" class="st19" points="908.9,201.3 908.9,124.8 985.5,201.3 			"/>
			<polygon id="XMLID_1568_" class="st21" points="908.9,431 985.5,507.6 908.9,507.6 			"/>
			<polygon id="XMLID_1567_" class="st30" points="908.9,354.5 985.5,354.5 908.9,431 			"/>
			<polygon id="XMLID_1566_" class="st31" points="985.5,507.6 985.5,584.1 908.9,584.1 			"/>
			<polygon id="XMLID_1565_" class="st8" points="985.5,201.3 1062,277.9 985.5,277.9 			"/>
			<polygon id="XMLID_1564_" class="st32" points="908.9,507.6 985.5,507.6 908.9,584.1 			"/>
			<polygon id="XMLID_1563_" class="st28" points="985.5,507.6 1062,584.1 985.5,584.1 			"/>
			<polygon id="XMLID_1562_" class="st12" points="908.9,507.6 908.9,584.1 832.3,507.6 			"/>
			<polygon id="XMLID_1561_" class="st33" points="985.5,277.9 1062,277.9 985.5,354.5 			"/>
			<polygon id="XMLID_1560_" class="st34" points="908.9,277.9 985.5,354.5 908.9,354.5 			"/>
			<polygon id="XMLID_1559_" class="st35" points="985.5,277.9 985.5,354.5 908.9,277.9 			"/>
			<polygon id="XMLID_1558_" class="st36" points="908.9,431 908.9,507.6 832.3,507.6 			"/>
			<polygon id="XMLID_1557_" class="st37" points="908.9,584.1 832.3,584.1 832.3,507.6 			"/>
			<polygon id="XMLID_1556_" class="st38" points="908.9,354.5 908.9,431 832.3,354.5 			"/>
			<polygon id="XMLID_1555_" class="st39" points="1138.6,277.9 1215.2,277.9 1138.6,354.5 			"/>
			<polygon id="XMLID_1554_" class="st40" points="1215.2,124.8 1291.7,201.3 1215.2,201.3 			"/>
			<polygon id="XMLID_1553_" class="st41" points="1291.7,201.3 1291.7,277.9 1215.2,277.9 			"/>
			<polygon id="XMLID_1552_" class="st42" points="1215.2,431 1291.7,507.6 1215.2,507.6 			"/>
			<polygon id="XMLID_1551_" class="st43" points="1291.7,507.6 1291.7,584.1 1215.2,584.1 			"/>
			<polygon id="XMLID_1550_" class="st44" points="1215.2,354.5 1291.7,354.5 1215.2,431 			"/>
			<polygon id="XMLID_1549_" class="st45" points="1215.2,124.8 1215.2,201.3 1138.6,201.3 			"/>
			<polygon id="XMLID_1548_" class="st46" points="1138.6,201.3 1215.2,277.9 1138.6,277.9 			"/>
			<polygon id="XMLID_1547_" class="st47" points="1291.7,277.9 1291.7,354.5 1215.2,277.9 			"/>
			<polygon id="XMLID_1546_" class="st48" points="1138.6,507.6 1215.2,584.1 1138.6,584.1 			"/>
			<polygon id="XMLID_1545_" class="st49" points="1215.2,431 1215.2,507.6 1138.6,507.6 			"/>
			<polygon id="XMLID_1544_" class="st50" points="1215.2,354.5 1215.2,431 1138.6,354.5 			"/>
			<polygon id="XMLID_1543_" class="st51" points="1138.6,277.9 1138.6,354.5 1062,277.9 			"/>
			<polygon id="XMLID_1542_" class="st52" points="1215.2,277.9 1215.2,354.5 1138.6,354.5 			"/>
			<polygon id="XMLID_1541_" class="st53" points="1215.2,201.3 1291.7,201.3 1215.2,277.9 			"/>
			<polygon id="XMLID_1540_" class="st54" points="1215.2,507.6 1291.7,507.6 1215.2,584.1 			"/>
			<polygon id="XMLID_1539_" class="st55" points="1215.2,201.3 1215.2,277.9 1138.6,201.3 			"/>
			<polygon id="XMLID_1538_" class="st56" points="1138.6,201.3 1138.6,277.9 1062,277.9 			"/>
			<polygon id="XMLID_1537_" class="st57" points="1215.2,507.6 1215.2,584.1 1138.6,507.6 			"/>
			<polygon id="XMLID_1536_" class="st58" points="1138.6,508.5 1138.6,585.1 1062,585.1 			"/>
			<polygon id="XMLID_1535_" class="st41" points="1215.2,277.9 1291.7,354.5 1215.2,354.5 			"/>
			<polygon id="XMLID_1534_" class="st59" points="985.5,431 985.5,354.5 908.9,431 			"/>
			<polygon id="XMLID_1533_" class="st60" points="832.3,660.7 755.8,660.7 832.3,584.1 			"/>
			<polygon id="XMLID_1532_" class="st61" points="908.9,584.1 908.9,660.7 832.3,584.1 			"/>
			<polygon id="XMLID_1531_" class="st62" points="755.8,431 832.3,431 755.8,507.6 			"/>
			<polygon id="XMLID_1530_" class="st63" points="755.8,584.1 755.8,660.7 679.2,584.1 			"/>
			<polygon id="XMLID_1529_" class="st64" points="832.3,277.9 908.9,277.9 908.9,354.5 			"/>
			<polygon id="XMLID_1528_" class="st65" points="832.3,277.9 755.8,354.5 755.8,277.9 			"/>
			<polygon id="XMLID_1527_" class="st33" points="908.9,277.9 908.9,201.3 985.5,277.9 			"/>
			<polygon id="XMLID_1526_" class="st66" points="755.8,201.3 832.3,124.8 832.3,201.3 			"/>
			<polygon id="XMLID_1525_" class="st67" points="755.8,354.5 679.2,354.5 679.2,277.9 			"/>
			<polygon id="XMLID_478_" class="st68" points="755.8,584.1 755.8,507.6 832.3,584.1 			"/>
			<polygon id="XMLID_477_" class="st69" points="679.2,507.6 755.8,507.6 679.2,584.1 			"/>
			<polygon id="XMLID_476_" class="st70" points="755.8,354.5 832.3,354.5 832.3,431 			"/>
			<polygon id="XMLID_475_" class="st4" points="832.3,277.9 908.9,201.3 908.9,277.9 			"/>
		</g>
		<g>
			<polygon id="XMLID_474_" class="st11" points="1291.4,124.8 1291.4,201.3 1368,124.8 			"/>
			<polygon id="XMLID_473_" class="st16" points="1291.4,431 1291.4,507.6 1368,431 			"/>
			<polygon id="XMLID_472_" class="st29" points="1291.4,354.5 1291.4,431 1368,431 			"/>
			<polygon id="XMLID_471_" class="st40" points="1368,124.8 1291.4,201.3 1368,201.3 			"/>
			<polygon id="XMLID_334_" class="st41" points="1291.4,201.3 1291.4,277.9 1368,277.9 			"/>
			<polygon id="XMLID_328_" class="st42" points="1368,431 1291.4,507.6 1368,507.6 			"/>
			<polygon id="XMLID_323_" class="st43" points="1291.4,507.6 1291.4,584.1 1368,584.1 			"/>
			<polygon id="XMLID_322_" class="st44" points="1368,354.5 1291.4,354.5 1368,431 			"/>
			<polygon id="XMLID_320_" class="st47" points="1291.4,277.9 1291.4,354.5 1368,277.9 			"/>
			<polygon id="XMLID_312_" class="st53" points="1368,201.3 1291.4,201.3 1368,277.9 			"/>
			<polygon id="XMLID_308_" class="st54" points="1368,507.6 1291.4,507.6 1368,584.1 			"/>
			<polygon id="XMLID_306_" class="st41" points="1368,277.9 1291.4,354.5 1368,354.5 			"/>
		</g>
		<g>
			<defs>
				<rect id="SVGID_1_" x="832.3" y="349" width="485.3" height="235.2"/>
			</defs>
			<clipPath id="SVGID_2_">
				<use xlink:href="#SVGID_1_"  style="overflow:visible;"/>
			</clipPath>
			<g id="XMLID_1669_" class="st71">
				<polygon id="XMLID_1682_" class="st72" points="1302.7,470.9 1294.5,482.6 1212.9,461.8 				"/>
				<polygon id="XMLID_1681_" class="st72" points="1230.6,411.2 1302.7,470.9 1212.9,461.8 				"/>
				<polygon id="XMLID_1680_" class="st72" points="1111.7,489 1230.6,411.2 1111.7,586.7 				"/>
				<polygon id="XMLID_1679_" class="st72" points="961.1,498.9 1111.7,586.7 1111.7,489 				"/>
				<polygon id="XMLID_1678_" class="st72" points="1230.6,411.2 1212.9,461.8 1171.1,575.6 1111.7,586.7 				"/>
				<polygon id="XMLID_1677_" class="st72" points="961.1,498.9 877,520 954.2,529.4 				"/>
				<polygon id="XMLID_1676_" class="st72" points="842.2,563.6 877,520 905,523.4 				"/>
				<polygon id="XMLID_1675_" class="st72" points="1171.1,575.6 1166.1,682.4 1157.9,682.4 1157.9,649.4 1140.7,581.3 				"/>
				<polygon id="XMLID_1674_" class="st72" points="942.2,590.2 974.4,615.5 1001.6,589 				"/>
				<polygon id="XMLID_1673_" class="st72" points="919.1,700.9 928.2,700.9 974.4,615.5 942.2,590.2 933.9,668.6 				"/>
				<polygon id="XMLID_1672_" class="st72" points="1001.6,589 996.6,653.4 989,697.1 980.1,697.1 983.9,654.7 974.4,615.5 				"/>
				<polygon id="XMLID_1671_" class="st72" points="961.1,498.9 942.2,590.2 1111.7,586.7 				"/>
				<polygon id="XMLID_1670_" class="st72" points="1111.7,586.7 1114.9,669.3 1111.7,689.5 1120.7,689.5 1123.7,668.6 
					1140.7,581.3 				"/>
			</g>
		</g>
	</g>
	<g>
		<polygon id="XMLID_305_" class="st12" points="1368,768.7 1305.9,768.7 1368,706.6 		"/>
		<polygon id="XMLID_304_" class="st37" points="1305.9,768.7 1305.9,706.6 1368,706.6 		"/>
		<polygon id="XMLID_303_" class="st60" points="1243.7,706.6 1243.7,644.4 1305.9,706.6 		"/>
		<polygon id="XMLID_302_" class="st61" points="1305.9,768.7 1243.7,768.7 1305.9,706.6 		"/>
		<polygon id="XMLID_301_" class="st61" points="1181.4,769 1119.2,769 1181.4,706.9 		"/>
		<polygon id="XMLID_300_" class="st63" points="1305.9,644.4 1243.7,644.4 1305.9,582.3 		"/>
		<polygon id="XMLID_299_" class="st68" points="1305.9,644.4 1368,644.4 1305.9,706.6 		"/>
		<polygon id="XMLID_298_" class="st69" points="1368,582.3 1368,644.4 1305.9,582.3 		"/>
	</g>
	<g>
		<g>
			<polygon class="st73" points="286,359.5 295.7,359.5 295.7,397.5 312.8,397.5 312.8,405.3 286,405.3 			"/>
			<path class="st73" d="M317.7,396.7c0-8.7,9-11.9,17.9-11.9h1.2v-1.9c0-3.2-1.4-4.7-5.4-4.7c-3.6,0-6.5,1.6-8.5,3.2l-4-5.6
				c2.7-2.5,7.2-4.8,13.5-4.8c9.1,0,13.5,3.5,13.5,12.4v12c0,4.5,0.5,7.8,1,9.9h-9c-0.3-0.8-0.5-2.5-0.6-3.6
				c-1.8,2.2-5.1,4.4-9.4,4.4C322.1,406.2,317.7,402.7,317.7,396.7 M336.8,396.5v-6.1h-1.2c-5.4,0-9.1,1.6-9.1,5.5
				c0,2.5,2,3.5,4.1,3.5C333.4,399.5,335.3,398.2,336.8,396.5"/>
			<path class="st73" d="M351.8,403l3.1-6.4c1.3,0.9,4.5,2.8,8.3,2.8c3.5,0,5.5-1,5.5-3c0-2.3-3.7-2.9-8.5-5.2
				c-4.7-2.2-7.5-4.8-7.5-9.9c0-6.3,5-10.2,12.5-10.2c5.7,0,9.2,1.8,10.7,2.7l-3.2,6.3c-1.3-0.8-3.9-2.1-7.2-2.1
				c-3.2,0-4.6,1.2-4.6,3c0,2.3,3,2.9,6.9,4.4c5.3,2.2,9.1,4.6,9.1,10.2c0,7-5,10.7-13.3,10.7C357.7,406.2,353.9,404.4,351.8,403"/>
			<path class="st73" d="M381.3,388.4c0-10.6,7.3-17.4,16.6-17.4c9.5,0,14.6,6.1,14.6,16.5c0,1-0.1,2.1-0.1,3.2h-21.2
				c0.4,5,3,8.7,8.5,8.7c4.5,0,7.1-1.5,8.7-2.3l3,5.9c-2.2,1.2-5.6,3.2-12.5,3.2C387.6,406.2,381.3,399.1,381.3,388.4 M403.5,384.5
				c-0.1-3.8-1.6-6.9-5.8-6.9c-3.9,0-6.1,2.5-6.7,6.9H403.5z"/>
			<path class="st73" d="M419.4,371.8h9.1v4.5c1.4-2.5,4.2-5.4,8.5-5.4c2.5,0,3.8,0.5,4.5,0.9l-2.2,8c-0.5-0.3-1.6-0.8-3.5-0.8
				c-4.1,0-6.5,3.6-7.3,5.1v21.1h-9.1V371.8z"/>
			<polygon class="st73" points="468.7,367.5 456.1,367.5 456.1,359.5 491.1,359.5 491.1,367.5 478.5,367.5 478.5,405.3 
				468.7,405.3 			"/>
			<path class="st73" d="M489.7,388.4c0-10.6,7.3-17.4,16.6-17.4c9.5,0,14.6,6.1,14.6,16.5c0,1-0.1,2.1-0.1,3.2h-21.2
				c0.4,5,3,8.7,8.5,8.7c4.5,0,7.1-1.5,8.7-2.3l3,5.9c-2.2,1.2-5.6,3.2-12.5,3.2C496,406.2,489.7,399.1,489.7,388.4 M511.9,384.5
				c-0.1-3.8-1.6-6.9-5.8-6.9c-3.9,0-6.1,2.5-6.7,6.9H511.9z"/>
			<path class="st73" d="M525.4,388.6c0-11.3,7.5-17.6,17.6-17.6c5.4,0,8.7,1.6,10.2,2.7l-3,6.3c-1.5-1-3.6-2-7-2
				c-5.4,0-8.2,4.2-8.2,10.4c0,6.2,2.7,10.7,8.4,10.7c3.9,0,6.2-1.4,7.2-2.1l2.8,6.1c-1.6,1-4.7,3-10.8,3
				C532,406.2,525.4,399,525.4,388.6"/>
			<path class="st73" d="M559.1,355.8h9.1v20.1c1.7-1.9,5-4.9,10.5-4.9c7.4,0,10,4.7,10,10.9v23.5h-9.1v-21.6c0-3.4-1.2-5.1-4.4-5.1
				c-3.6,0-6.3,3.3-6.9,4.2v22.5h-9.1V355.8z"/>
		</g>
		<rect x="536" y="417.9" class="st73" width="52.8" height="4.5"/>
	</g>
	<g>
		<path class="st73" d="M359.2,466.6c0,2.7-0.4,4.9-1.2,6.5c-0.8,1.7-1.8,2.9-2.9,3.9c-1.2,0.9-2.4,1.5-3.8,1.8
			c-1.3,0.3-2.6,0.5-3.7,0.5c-1.1,0-2.2-0.1-3.2-0.3c-1.1-0.2-2-0.5-3-0.9c-0.9-0.4-1.8-0.9-2.6-1.4c-0.8-0.6-1.4-1.2-2-1.9l2.2-2.1
			c1,1.4,2.3,2.5,3.8,3.1c1.5,0.7,3.1,1,4.8,1c1.4,0,2.7-0.2,3.6-0.6c1-0.4,1.8-0.9,2.5-1.5c0.6-0.6,1.1-1.3,1.5-2
			c0.4-0.7,0.6-1.5,0.8-2.2c0.2-0.7,0.3-1.4,0.3-2.1c0-0.7,0-1.2,0-1.6v-3h-0.1c-0.8,1.3-1.9,2.4-3.3,3.1c-1.4,0.7-3,1.1-4.9,1.1
			c-1.6,0-3.1-0.3-4.5-0.9c-1.4-0.6-2.6-1.4-3.7-2.4c-1.1-1-1.9-2.2-2.5-3.5c-0.6-1.3-0.9-2.8-0.9-4.3c0-1.5,0.3-3,0.9-4.3
			c0.6-1.3,1.4-2.5,2.5-3.5c1-1,2.3-1.8,3.7-2.4c1.4-0.6,2.9-0.9,4.5-0.9c1.9,0,3.5,0.4,4.9,1.1c1.4,0.7,2.5,1.8,3.3,3.1h0.1v-3.7
			h2.8V466.6z M356.5,456.9c0-1.2-0.2-2.3-0.7-3.4c-0.5-1.1-1.1-2-1.8-2.7c-0.8-0.8-1.7-1.4-2.7-1.8c-1.1-0.5-2.2-0.7-3.4-0.7
			s-2.3,0.2-3.4,0.7c-1,0.5-2,1.1-2.7,1.8c-0.8,0.8-1.4,1.7-1.8,2.7c-0.5,1.1-0.7,2.2-0.7,3.4c0,1.2,0.2,2.3,0.7,3.4
			c0.5,1.1,1.1,2,1.8,2.7c0.8,0.8,1.7,1.4,2.7,1.8c1.1,0.5,2.2,0.7,3.4,0.7s2.3-0.2,3.4-0.7c1-0.5,2-1.1,2.7-1.8
			c0.8-0.8,1.4-1.7,1.8-2.7C356.2,459.2,356.5,458.1,356.5,456.9"/>
		<path class="st73" d="M359.2,466.6c0,2.7-0.4,4.9-1.2,6.5c-0.8,1.7-1.8,2.9-2.9,3.9c-1.2,0.9-2.4,1.5-3.8,1.8
			c-1.3,0.3-2.6,0.5-3.7,0.5c-1.1,0-2.2-0.1-3.2-0.3c-1.1-0.2-2-0.5-3-0.9c-0.9-0.4-1.8-0.9-2.6-1.4c-0.8-0.6-1.4-1.2-2-1.9l2.2-2.1
			c1,1.4,2.3,2.5,3.8,3.1c1.5,0.7,3.1,1,4.8,1c1.4,0,2.7-0.2,3.6-0.6c1-0.4,1.8-0.9,2.5-1.5c0.6-0.6,1.1-1.3,1.5-2
			c0.4-0.7,0.6-1.5,0.8-2.2c0.2-0.7,0.3-1.4,0.3-2.1c0-0.7,0-1.2,0-1.6v-3h-0.1c-0.8,1.3-1.9,2.4-3.3,3.1c-1.4,0.7-3,1.1-4.9,1.1
			c-1.6,0-3.1-0.3-4.5-0.9c-1.4-0.6-2.6-1.4-3.7-2.4c-1.1-1-1.9-2.2-2.5-3.5c-0.6-1.3-0.9-2.8-0.9-4.3c0-1.5,0.3-3,0.9-4.3
			c0.6-1.3,1.4-2.5,2.5-3.5c1-1,2.3-1.8,3.7-2.4c1.4-0.6,2.9-0.9,4.5-0.9c1.9,0,3.5,0.4,4.9,1.1c1.4,0.7,2.5,1.8,3.3,3.1h0.1v-3.7
			h2.8V466.6z M356.5,456.9c0-1.2-0.2-2.3-0.7-3.4c-0.5-1.1-1.1-2-1.8-2.7c-0.8-0.8-1.7-1.4-2.7-1.8c-1.1-0.5-2.2-0.7-3.4-0.7
			s-2.3,0.2-3.4,0.7c-1,0.5-2,1.1-2.7,1.8c-0.8,0.8-1.4,1.7-1.8,2.7c-0.5,1.1-0.7,2.2-0.7,3.4c0,1.2,0.2,2.3,0.7,3.4
			c0.5,1.1,1.1,2,1.8,2.7c0.8,0.8,1.7,1.4,2.7,1.8c1.1,0.5,2.2,0.7,3.4,0.7s2.3-0.2,3.4-0.7c1-0.5,2-1.1,2.7-1.8
			c0.8-0.8,1.4-1.7,1.8-2.7C356.2,459.2,356.5,458.1,356.5,456.9z"/>
		<path class="st73" d="M380.2,452.4c0-0.4,0-0.9,0-1.5c0-0.6-0.1-1.2-0.1-1.8c0-0.6,0-1.1-0.1-1.7c0-0.5-0.1-0.9-0.1-1.2h2.8
			c0,0.8,0.1,1.6,0.1,2.4c0,0.7,0.1,1.2,0.1,1.5c0.7-1.3,1.6-2.3,2.8-3.2c1.1-0.8,2.5-1.2,4.1-1.2c0.3,0,0.6,0,0.8,0.1
			c0.3,0,0.5,0.1,0.8,0.2l-0.3,2.8c-0.4-0.1-0.7-0.2-1.1-0.2c-1.2,0-2.3,0.2-3.2,0.6c-0.9,0.4-1.6,0.9-2.2,1.6
			c-0.6,0.7-1,1.5-1.3,2.4c-0.3,0.9-0.4,1.9-0.4,3V468h-2.8V452.4z"/>
		<path class="st73" d="M380.2,452.4c0-0.4,0-0.9,0-1.5c0-0.6-0.1-1.2-0.1-1.8c0-0.6,0-1.1-0.1-1.7c0-0.5-0.1-0.9-0.1-1.2h2.8
			c0,0.8,0.1,1.6,0.1,2.4c0,0.7,0.1,1.2,0.1,1.5c0.7-1.3,1.6-2.3,2.8-3.2c1.1-0.8,2.5-1.2,4.1-1.2c0.3,0,0.6,0,0.8,0.1
			c0.3,0,0.5,0.1,0.8,0.2l-0.3,2.8c-0.4-0.1-0.7-0.2-1.1-0.2c-1.2,0-2.3,0.2-3.2,0.6c-0.9,0.4-1.6,0.9-2.2,1.6
			c-0.6,0.7-1,1.5-1.3,2.4c-0.3,0.9-0.4,1.9-0.4,3V468h-2.8V452.4z"/>
		<path class="st73" d="M426.9,458.9c0,1.1,0,2,0,2.9c0,0.8,0,1.6,0.1,2.4c0,0.7,0.1,1.4,0.1,2c0,0.6,0.1,1.3,0.2,1.9h-2.6
			c-0.2-1.1-0.3-2.3-0.3-3.5h-0.1c-0.8,1.4-1.8,2.4-3,3.1c-1.2,0.7-2.7,1-4.6,1c-0.9,0-1.9-0.1-2.8-0.4c-0.9-0.2-1.7-0.6-2.4-1.1
			c-0.7-0.5-1.3-1.2-1.8-2c-0.5-0.8-0.7-1.8-0.7-3c0-1.7,0.4-3,1.3-3.9c0.8-1,1.9-1.7,3.1-2.2c1.2-0.5,2.6-0.8,4-0.9
			c1.4-0.1,2.6-0.2,3.7-0.2h3.3v-1.3c0-1.9-0.6-3.2-1.7-4c-1.2-0.8-2.6-1.2-4.4-1.2c-2.5,0-4.7,0.8-6.6,2.4l-1.6-1.9
			c1-1,2.3-1.8,3.9-2.3c1.5-0.5,3-0.8,4.4-0.8c2.6,0,4.7,0.6,6.3,1.9c1.6,1.2,2.4,3.2,2.4,6V458.9z M421.2,457.1
			c-1.2,0-2.3,0.1-3.4,0.2c-1.1,0.2-2.1,0.4-3,0.8c-0.9,0.4-1.6,0.9-2.1,1.5c-0.5,0.6-0.8,1.4-0.8,2.4c0,0.7,0.1,1.2,0.4,1.8
			c0.3,0.5,0.7,0.9,1.1,1.3c0.5,0.3,1,0.6,1.6,0.7c0.6,0.2,1.2,0.3,1.8,0.3c1.5,0,2.7-0.2,3.7-0.7c1-0.4,1.8-1,2.3-1.7
			c0.6-0.7,1-1.5,1.2-2.4c0.2-0.9,0.3-1.8,0.3-2.7v-1.5H421.2z"/>
		<path class="st73" d="M426.9,458.9c0,1.1,0,2,0,2.9c0,0.8,0,1.6,0.1,2.4c0,0.7,0.1,1.4,0.1,2c0,0.6,0.1,1.3,0.2,1.9h-2.6
			c-0.2-1.1-0.3-2.3-0.3-3.5h-0.1c-0.8,1.4-1.8,2.4-3,3.1c-1.2,0.7-2.7,1-4.6,1c-0.9,0-1.9-0.1-2.8-0.4c-0.9-0.2-1.7-0.6-2.4-1.1
			c-0.7-0.5-1.3-1.2-1.8-2c-0.5-0.8-0.7-1.8-0.7-3c0-1.7,0.4-3,1.3-3.9c0.8-1,1.9-1.7,3.1-2.2c1.2-0.5,2.6-0.8,4-0.9
			c1.4-0.1,2.6-0.2,3.7-0.2h3.3v-1.3c0-1.9-0.6-3.2-1.7-4c-1.2-0.8-2.6-1.2-4.4-1.2c-2.5,0-4.7,0.8-6.6,2.4l-1.6-1.9
			c1-1,2.3-1.8,3.9-2.3c1.5-0.5,3-0.8,4.4-0.8c2.6,0,4.7,0.6,6.3,1.9c1.6,1.2,2.4,3.2,2.4,6V458.9z M421.2,457.1
			c-1.2,0-2.3,0.1-3.4,0.2c-1.1,0.2-2.1,0.4-3,0.8c-0.9,0.4-1.6,0.9-2.1,1.5c-0.5,0.6-0.8,1.4-0.8,2.4c0,0.7,0.1,1.2,0.4,1.8
			c0.3,0.5,0.7,0.9,1.1,1.3c0.5,0.3,1,0.6,1.6,0.7c0.6,0.2,1.2,0.3,1.8,0.3c1.5,0,2.7-0.2,3.7-0.7c1-0.4,1.8-1,2.3-1.7
			c0.6-0.7,1-1.5,1.2-2.4c0.2-0.9,0.3-1.8,0.3-2.7v-1.5H421.2z"/>
		<path class="st73" d="M447.9,432.5h2.8v17.6h0.1c0.4-0.8,1-1.4,1.6-2c0.7-0.6,1.4-1,2.1-1.4c0.8-0.4,1.6-0.6,2.4-0.8
			c0.8-0.2,1.7-0.3,2.5-0.3c1.7,0,3.2,0.3,4.6,0.8c1.4,0.6,2.6,1.4,3.6,2.4c1,1,1.8,2.2,2.4,3.6c0.6,1.4,0.8,2.9,0.8,4.6
			c0,1.7-0.3,3.2-0.8,4.6c-0.6,1.4-1.3,2.6-2.4,3.6c-1,1-2.2,1.8-3.6,2.4c-1.4,0.6-2.9,0.9-4.6,0.9c-0.8,0-1.6-0.1-2.5-0.3
			c-0.9-0.2-1.7-0.4-2.4-0.8c-0.8-0.4-1.5-0.8-2.1-1.4c-0.7-0.6-1.2-1.2-1.6-2h-0.1v3.8h-2.8V432.5z M450.4,457.2
			c0,1.2,0.2,2.4,0.7,3.5c0.5,1.1,1.1,2,1.9,2.8c0.8,0.8,1.8,1.4,2.9,1.9c1.1,0.5,2.3,0.7,3.6,0.7c1.3,0,2.5-0.2,3.6-0.7
			c1.1-0.5,2-1.1,2.7-1.9c0.7-0.8,1.3-1.7,1.7-2.8c0.4-1.1,0.6-2.2,0.6-3.5c0-1.2-0.2-2.4-0.6-3.5c-0.4-1.1-1-2-1.7-2.8
			c-0.7-0.8-1.7-1.4-2.7-1.9c-1.1-0.5-2.3-0.7-3.6-0.7c-1.3,0-2.5,0.2-3.6,0.7c-1.1,0.5-2,1.1-2.9,1.9c-0.8,0.8-1.5,1.7-1.9,2.8
			C450.7,454.8,450.4,455.9,450.4,457.2"/>
		<path class="st73" d="M447.9,432.5h2.8v17.6h0.1c0.4-0.8,1-1.4,1.6-2c0.7-0.6,1.4-1,2.1-1.4c0.8-0.4,1.6-0.6,2.4-0.8
			c0.8-0.2,1.7-0.3,2.5-0.3c1.7,0,3.2,0.3,4.6,0.8c1.4,0.6,2.6,1.4,3.6,2.4c1,1,1.8,2.2,2.4,3.6c0.6,1.4,0.8,2.9,0.8,4.6
			c0,1.7-0.3,3.2-0.8,4.6c-0.6,1.4-1.3,2.6-2.4,3.6c-1,1-2.2,1.8-3.6,2.4c-1.4,0.6-2.9,0.9-4.6,0.9c-0.8,0-1.6-0.1-2.5-0.3
			c-0.9-0.2-1.7-0.4-2.4-0.8c-0.8-0.4-1.5-0.8-2.1-1.4c-0.7-0.6-1.2-1.2-1.6-2h-0.1v3.8h-2.8V432.5z M450.4,457.2
			c0,1.2,0.2,2.4,0.7,3.5c0.5,1.1,1.1,2,1.9,2.8c0.8,0.8,1.8,1.4,2.9,1.9c1.1,0.5,2.3,0.7,3.6,0.7c1.3,0,2.5-0.2,3.6-0.7
			c1.1-0.5,2-1.1,2.7-1.9c0.7-0.8,1.3-1.7,1.7-2.8c0.4-1.1,0.6-2.2,0.6-3.5c0-1.2-0.2-2.4-0.6-3.5c-0.4-1.1-1-2-1.7-2.8
			c-0.7-0.8-1.7-1.4-2.7-1.9c-1.1-0.5-2.3-0.7-3.6-0.7c-1.3,0-2.5,0.2-3.6,0.7c-1.1,0.5-2,1.1-2.9,1.9c-0.8,0.8-1.5,1.7-1.9,2.8
			C450.7,454.8,450.4,455.9,450.4,457.2z"/>
		<path class="st73" d="M508.2,458.9c0,1.1,0,2,0,2.9c0,0.8,0,1.6,0.1,2.4c0,0.7,0.1,1.4,0.1,2c0,0.6,0.1,1.3,0.2,1.9H506
			c-0.2-1.1-0.3-2.3-0.3-3.5h-0.1c-0.8,1.4-1.8,2.4-3,3.1c-1.2,0.7-2.7,1-4.6,1c-0.9,0-1.9-0.1-2.8-0.4c-0.9-0.2-1.7-0.6-2.4-1.1
			c-0.7-0.5-1.3-1.2-1.8-2c-0.5-0.8-0.7-1.8-0.7-3c0-1.7,0.4-3,1.3-3.9c0.8-1,1.9-1.7,3.1-2.2c1.2-0.5,2.6-0.8,4-0.9
			c1.4-0.1,2.6-0.2,3.7-0.2h3.3v-1.3c0-1.9-0.6-3.2-1.7-4c-1.2-0.8-2.6-1.2-4.4-1.2c-2.5,0-4.7,0.8-6.6,2.4l-1.6-1.9
			c1-1,2.3-1.8,3.9-2.3c1.5-0.5,3-0.8,4.4-0.8c2.6,0,4.7,0.6,6.3,1.9c1.6,1.2,2.4,3.2,2.4,6V458.9z M502.6,457.1
			c-1.2,0-2.3,0.1-3.4,0.2c-1.1,0.2-2.1,0.4-3,0.8c-0.9,0.4-1.6,0.9-2.1,1.5c-0.5,0.6-0.8,1.4-0.8,2.4c0,0.7,0.1,1.2,0.4,1.8
			c0.3,0.5,0.7,0.9,1.1,1.3c0.5,0.3,1,0.6,1.6,0.7c0.6,0.2,1.2,0.3,1.8,0.3c1.5,0,2.7-0.2,3.7-0.7c1-0.4,1.8-1,2.3-1.7
			c0.6-0.7,1-1.5,1.2-2.4c0.2-0.9,0.3-1.8,0.3-2.7v-1.5H502.6z"/>
		<path class="st73" d="M508.2,458.9c0,1.1,0,2,0,2.9c0,0.8,0,1.6,0.1,2.4c0,0.7,0.1,1.4,0.1,2c0,0.6,0.1,1.3,0.2,1.9H506
			c-0.2-1.1-0.3-2.3-0.3-3.5h-0.1c-0.8,1.4-1.8,2.4-3,3.1c-1.2,0.7-2.7,1-4.6,1c-0.9,0-1.9-0.1-2.8-0.4c-0.9-0.2-1.7-0.6-2.4-1.1
			c-0.7-0.5-1.3-1.2-1.8-2c-0.5-0.8-0.7-1.8-0.7-3c0-1.7,0.4-3,1.3-3.9c0.8-1,1.9-1.7,3.1-2.2c1.2-0.5,2.6-0.8,4-0.9
			c1.4-0.1,2.6-0.2,3.7-0.2h3.3v-1.3c0-1.9-0.6-3.2-1.7-4c-1.2-0.8-2.6-1.2-4.4-1.2c-2.5,0-4.7,0.8-6.6,2.4l-1.6-1.9
			c1-1,2.3-1.8,3.9-2.3c1.5-0.5,3-0.8,4.4-0.8c2.6,0,4.7,0.6,6.3,1.9c1.6,1.2,2.4,3.2,2.4,6V458.9z M502.6,457.1
			c-1.2,0-2.3,0.1-3.4,0.2c-1.1,0.2-2.1,0.4-3,0.8c-0.9,0.4-1.6,0.9-2.1,1.5c-0.5,0.6-0.8,1.4-0.8,2.4c0,0.7,0.1,1.2,0.4,1.8
			c0.3,0.5,0.7,0.9,1.1,1.3c0.5,0.3,1,0.6,1.6,0.7c0.6,0.2,1.2,0.3,1.8,0.3c1.5,0,2.7-0.2,3.7-0.7c1-0.4,1.8-1,2.3-1.7
			c0.6-0.7,1-1.5,1.2-2.4c0.2-0.9,0.3-1.8,0.3-2.7v-1.5H502.6z"/>
		<path class="st73" d="M548.9,464.2L548.9,464.2c-0.5,0.8-1.1,1.4-1.7,2c-0.7,0.5-1.4,1-2.1,1.4c-0.8,0.4-1.6,0.6-2.4,0.8
			c-0.8,0.2-1.7,0.3-2.5,0.3c-1.7,0-3.2-0.3-4.6-0.9c-1.4-0.6-2.6-1.4-3.6-2.4c-1-1-1.8-2.2-2.4-3.6c-0.6-1.4-0.8-2.9-0.8-4.6
			c0-1.7,0.3-3.2,0.8-4.6c0.6-1.4,1.4-2.6,2.4-3.6c1-1,2.2-1.8,3.6-2.4c1.4-0.6,2.9-0.8,4.6-0.8c0.8,0,1.6,0.1,2.5,0.3
			c0.9,0.2,1.7,0.4,2.4,0.8c0.8,0.4,1.5,0.8,2.1,1.4c0.7,0.6,1.2,1.2,1.6,2h0.1v-17.6h2.8V468h-2.8V464.2z M549.2,457.2
			c0-1.2-0.2-2.4-0.7-3.5s-1.1-2-1.9-2.8c-0.8-0.8-1.8-1.4-2.9-1.9c-1.1-0.5-2.3-0.7-3.6-0.7c-1.3,0-2.5,0.2-3.6,0.7
			c-1.1,0.5-2,1.1-2.7,1.9c-0.7,0.8-1.3,1.7-1.7,2.8s-0.6,2.2-0.6,3.5c0,1.2,0.2,2.4,0.6,3.5c0.4,1.1,1,2,1.7,2.8
			c0.7,0.8,1.7,1.4,2.7,1.9c1.1,0.5,2.3,0.7,3.6,0.7c1.3,0,2.5-0.2,3.6-0.7c1.1-0.5,2-1.1,2.9-1.9c0.8-0.8,1.5-1.7,1.9-2.8
			C548.9,459.5,549.2,458.4,549.2,457.2"/>
		<path class="st73" d="M548.9,464.2L548.9,464.2c-0.5,0.8-1.1,1.4-1.7,2c-0.7,0.5-1.4,1-2.1,1.4c-0.8,0.4-1.6,0.6-2.4,0.8
			c-0.8,0.2-1.7,0.3-2.5,0.3c-1.7,0-3.2-0.3-4.6-0.9c-1.4-0.6-2.6-1.4-3.6-2.4c-1-1-1.8-2.2-2.4-3.6c-0.6-1.4-0.8-2.9-0.8-4.6
			c0-1.7,0.3-3.2,0.8-4.6c0.6-1.4,1.4-2.6,2.4-3.6c1-1,2.2-1.8,3.6-2.4c1.4-0.6,2.9-0.8,4.6-0.8c0.8,0,1.6,0.1,2.5,0.3
			c0.9,0.2,1.7,0.4,2.4,0.8c0.8,0.4,1.5,0.8,2.1,1.4c0.7,0.6,1.2,1.2,1.6,2h0.1v-17.6h2.8V468h-2.8V464.2z M549.2,457.2
			c0-1.2-0.2-2.4-0.7-3.5s-1.1-2-1.9-2.8c-0.8-0.8-1.8-1.4-2.9-1.9c-1.1-0.5-2.3-0.7-3.6-0.7c-1.3,0-2.5,0.2-3.6,0.7
			c-1.1,0.5-2,1.1-2.7,1.9c-0.7,0.8-1.3,1.7-1.7,2.8s-0.6,2.2-0.6,3.5c0,1.2,0.2,2.4,0.6,3.5c0.4,1.1,1,2,1.7,2.8
			c0.7,0.8,1.7,1.4,2.7,1.9c1.1,0.5,2.3,0.7,3.6,0.7c1.3,0,2.5-0.2,3.6-0.7c1.1-0.5,2-1.1,2.9-1.9c0.8-0.8,1.5-1.7,1.9-2.8
			C548.9,459.5,549.2,458.4,549.2,457.2z"/>
		<path class="st73" d="M571.5,457.2c0-1.7,0.3-3.2,0.8-4.6c0.6-1.4,1.4-2.6,2.4-3.6c1-1,2.2-1.8,3.6-2.4c1.4-0.6,2.9-0.8,4.6-0.8
			c1.7,0,3.2,0.3,4.6,0.8c1.4,0.6,2.6,1.4,3.6,2.4c1,1,1.8,2.2,2.4,3.6c0.6,1.4,0.8,2.9,0.8,4.6c0,1.7-0.3,3.2-0.8,4.6
			c-0.6,1.4-1.3,2.6-2.4,3.6c-1,1-2.2,1.8-3.6,2.4c-1.4,0.6-2.9,0.9-4.6,0.9c-1.7,0-3.2-0.3-4.6-0.9c-1.4-0.6-2.6-1.4-3.6-2.4
			c-1-1-1.8-2.2-2.4-3.6C571.8,460.4,571.5,458.8,571.5,457.2 M574.3,457.2c0,1.2,0.2,2.4,0.6,3.5c0.4,1.1,1,2,1.7,2.8
			c0.7,0.8,1.7,1.4,2.7,1.9c1.1,0.5,2.3,0.7,3.6,0.7c1.3,0,2.5-0.2,3.6-0.7c1.1-0.5,2-1.1,2.7-1.9c0.7-0.8,1.3-1.7,1.7-2.8
			c0.4-1.1,0.6-2.2,0.6-3.5c0-1.2-0.2-2.4-0.6-3.5c-0.4-1.1-1-2-1.7-2.8c-0.8-0.8-1.7-1.4-2.7-1.9c-1.1-0.5-2.3-0.7-3.6-0.7
			c-1.3,0-2.5,0.2-3.6,0.7c-1.1,0.5-2,1.1-2.7,1.9c-0.7,0.8-1.3,1.7-1.7,2.8C574.5,454.8,574.3,455.9,574.3,457.2"/>
		<path class="st73" d="M571.5,457.2c0-1.7,0.3-3.2,0.8-4.6c0.6-1.4,1.4-2.6,2.4-3.6c1-1,2.2-1.8,3.6-2.4c1.4-0.6,2.9-0.8,4.6-0.8
			c1.7,0,3.2,0.3,4.6,0.8c1.4,0.6,2.6,1.4,3.6,2.4c1,1,1.8,2.2,2.4,3.6c0.6,1.4,0.8,2.9,0.8,4.6c0,1.7-0.3,3.2-0.8,4.6
			c-0.6,1.4-1.3,2.6-2.4,3.6c-1,1-2.2,1.8-3.6,2.4c-1.4,0.6-2.9,0.9-4.6,0.9c-1.7,0-3.2-0.3-4.6-0.9c-1.4-0.6-2.6-1.4-3.6-2.4
			c-1-1-1.8-2.2-2.4-3.6C571.8,460.4,571.5,458.8,571.5,457.2z M574.3,457.2c0,1.2,0.2,2.4,0.6,3.5c0.4,1.1,1,2,1.7,2.8
			c0.7,0.8,1.7,1.4,2.7,1.9c1.1,0.5,2.3,0.7,3.6,0.7c1.3,0,2.5-0.2,3.6-0.7c1.1-0.5,2-1.1,2.7-1.9c0.7-0.8,1.3-1.7,1.7-2.8
			c0.4-1.1,0.6-2.2,0.6-3.5c0-1.2-0.2-2.4-0.6-3.5c-0.4-1.1-1-2-1.7-2.8c-0.8-0.8-1.7-1.4-2.7-1.9c-1.1-0.5-2.3-0.7-3.6-0.7
			c-1.3,0-2.5,0.2-3.6,0.7c-1.1,0.5-2,1.1-2.7,1.9c-0.7,0.8-1.3,1.7-1.7,2.8C574.5,454.8,574.3,455.9,574.3,457.2z"/>
	</g>
</g>
<g>
</g>
<g>
</g>
<g>
</g>
<g>
</g>
<g>
</g>
<g>
</g>
</svg>
