<?xml version="1.0" encoding="utf-8"?>
<!-- Generator: Adobe Illustrator 22.0.1, SVG Export Plug-In . SVG Version: 6.00 Build 0)  -->
<svg version="1.1" id="Layer_1" xmlns="http://www.w3.org/2000/svg" xmlns:xlink="http://www.w3.org/1999/xlink" x="0px" y="0px"
	 viewBox="0 0 768 1232.9" style="enable-background:new 0 0 768 1232.9;" xml:space="preserve">
<style type="text/css">
	.st0{fill:#DD101C;}
	.st1{clip-path:url(#SVGID_2_);}
	.st2{fill:#FDA62E;}
	.st3{fill:#FD8110;}
	.st4{fill:#FDC564;}
	.st5{fill:#FC714A;}
	.st6{fill:#FC7214;}
	.st7{fill:#FD8845;}
	.st8{fill:#FD652D;}
	.st9{fill:#FC6943;}
	.st10{fill:#FD6C62;}
	.st11{fill:#FD564B;}
	.st12{fill:#F32D47;}
	.st13{fill:#F53348;}
	.st14{fill:#FD392F;}
	.st15{fill:#FD5B45;}
	.st16{fill:#EE274A;}
	.st17{fill:#E21A33;}
	.st18{fill:#C01346;}
	.st19{fill:#F55724;}
	.st20{fill:#C21738;}
	.st21{fill:#FD4133;}
	.st22{fill:#FC804D;}
	.st23{fill:#FC7149;}
	.st24{fill:#FD5643;}
	.st25{fill:#FD4E3B;}
	.st26{fill:#FD3A52;}
	.st27{fill:#FD9A41;}
	.st28{fill:#FD914A;}
	.st29{fill:#FC8046;}
	.st30{fill:#FD6518;}
	.st31{fill:#FD4A2F;}
	.st32{fill:#D21C42;}
	.st33{fill:#D9254C;}
	.st34{fill:#C0181D;}
	.st35{fill:#FC5E2E;}
	.st36{fill:#FC5344;}
	.st37{fill:#F94155;}
	.st38{fill:#F6404E;}
	.st39{fill:#FC7935;}
	.st40{fill:#FD7A3E;}
	.st41{fill:#FD3D47;}
	.st42{fill:#FD7024;}
	.st43{fill:#FD4A4E;}
	.st44{fill:#FD2C72;}
	.st45{fill:#FD6343;}
	.st46{fill:#FD842C;}
	.st47{fill:#E72526;}
	.st48{fill:#FD9535;}
	.st49{fill:#F55F2C;}
	.st50{fill:#F0422D;}
	.st51{fill:#FD6515;}
	.st52{fill:#C2181E;}
	.st53{fill:#FD800C;}
	.st54{fill:#FD7312;}
	.st55{fill:#F14F3D;}
	.st56{fill:#F5491E;}
	.st57{fill:#EB3628;}
	.st58{fill:#FD732F;}
	.st59{fill:#E8222E;}
	.st60{fill:#FC7933;}
	.st61{fill:#FD6E11;}
	.st62{fill:#FC861A;}
	.st63{fill:#DE3228;}
	.st64{fill:#F63C2B;}
	.st65{fill:#E0462D;}
	.st66{fill:#FD8328;}
	.st67{fill:#FD8B28;}
	.st68{fill:#FD4A2A;}
	.st69{fill:#FC5E4A;}
	.st70{fill:#FD7F10;}
	.st71{fill:#F12527;}
	.st72{fill:#FD5B34;}
	.st73{fill:#FD3A5C;}
	.st74{fill:#FD414B;}
	.st75{fill:#FD315F;}
	.st76{fill:#E31E6F;}
	.st77{fill:#FD7031;}
	.st78{fill:#FD6537;}
	.st79{fill:#FD6646;}
	.st80{fill:#FD5C56;}
	.st81{fill:#EF2048;}
	.st82{fill:#FD3845;}
	.st83{fill:#FD4E48;}
	.st84{fill:#FD4E4D;}
	.st85{fill:#FD9B50;}
	.st86{clip-path:url(#SVGID_4_);}
	.st87{fill:none;stroke:#FFFFFF;stroke-width:3;stroke-linejoin:round;stroke-miterlimit:10;}
</style>
<g>
	<g>
		<g>
			<polygon class="st0" points="204.6,905.5 216.1,905.5 216.1,950.2 236.2,950.2 236.2,959.4 204.6,959.4 			"/>
			<path class="st0" d="M242,949.3c0-10.3,10.6-14,21.1-14h1.4V933c0-3.8-1.7-5.5-6.4-5.5c-4.3,0-7.7,1.9-10,3.7l-4.7-6.6
				c3.2-2.9,8.5-5.7,16-5.7c10.8,0,15.9,4.1,15.9,14.6v14.2c0,5.3,0.6,9.2,1.1,11.7h-10.6c-0.3-1-0.6-3-0.6-4.2
				c-2.1,2.6-6,5.2-11.1,5.2C247.2,960.4,242,956.3,242,949.3 M264.4,949v-7.1H263c-6.3,0-10.7,1.9-10.7,6.5c0,2.9,2.3,4.1,4.8,4.1
				C260.5,952.5,262.7,951,264.4,949"/>
			<path class="st0" d="M282.1,956.7l3.6-7.5c1.5,1.1,5.3,3.2,9.7,3.2c4.1,0,6.5-1.2,6.5-3.6c0-2.7-4.4-3.4-10-6.1
				c-5.5-2.6-8.8-5.7-8.8-11.7c0-7.4,5.8-12.1,14.7-12.1c6.7,0,10.8,2.1,12.6,3.2l-3.8,7.4c-1.5-1-4.6-2.5-8.4-2.5s-5.4,1.4-5.4,3.5
				c0,2.7,3.6,3.4,8.1,5.2c6.2,2.6,10.8,5.4,10.8,12.1c0,8.3-5.9,12.6-15.6,12.6C289.1,960.4,284.5,958.3,282.1,956.7"/>
			<path class="st0" d="M316.8,939.5c0-12.5,8.6-20.5,19.5-20.5c11.2,0,17.2,7.1,17.2,19.4c0,1.2-0.1,2.4-0.2,3.7h-24.9
				c0.5,5.8,3.5,10.2,10,10.2c5.3,0,8.3-1.8,10.3-2.8l3.5,7c-2.6,1.5-6.6,3.8-14.7,3.8C324.3,960.4,316.8,952,316.8,939.5
				 M343,934.9c-0.1-4.5-1.9-8.1-6.8-8.1c-4.6,0-7.1,3-7.9,8.1H343z"/>
			<path class="st0" d="M361.7,920h10.8v5.3c1.7-2.9,4.9-6.3,10-6.3c2.9,0,4.5,0.6,5.3,1.1l-2.6,9.4c-0.6-0.4-1.9-0.9-4.1-0.9
				c-4.8,0-7.6,4.2-8.6,6v24.9h-10.8V920z"/>
			<polygon class="st0" points="419.8,914.9 404.9,914.9 404.9,905.5 446.1,905.5 446.1,914.9 431.3,914.9 431.3,959.4 419.8,959.4 
							"/>
			<path class="st0" d="M444.4,939.5c0-12.5,8.6-20.5,19.5-20.5c11.2,0,17.2,7.1,17.2,19.4c0,1.2-0.1,2.4-0.2,3.7H456
				c0.5,5.8,3.5,10.2,10,10.2c5.3,0,8.3-1.8,10.3-2.8l3.5,7c-2.6,1.5-6.6,3.8-14.7,3.8C451.8,960.4,444.4,952,444.4,939.5
				 M470.5,934.9c-0.1-4.5-1.9-8.1-6.8-8.1c-4.6,0-7.1,3-7.9,8.1H470.5z"/>
			<path class="st0" d="M486.4,939.7c0-13.3,8.8-20.7,20.7-20.7c6.4,0,10.2,1.9,12.1,3.2l-3.5,7.4c-1.8-1.1-4.3-2.3-8.3-2.3
				c-6.3,0-9.6,4.9-9.6,12.2c0,7.3,3.2,12.6,9.9,12.6c4.5,0,7.3-1.7,8.5-2.4l3.3,7.2c-1.9,1.2-5.5,3.6-12.7,3.6
				C494.2,960.4,486.4,952,486.4,939.7"/>
			<path class="st0" d="M526.2,901.1H537v23.6c2-2.2,5.8-5.8,12.3-5.8c8.7,0,11.8,5.5,11.8,12.8v27.6h-10.8v-25.4c0-4-1.4-6-5.2-6
				c-4.2,0-7.4,3.9-8.2,4.9v26.5h-10.8v-58.2H526.2z"/>
		</g>
		<rect x="498.9" y="974.3" class="st0" width="62.2" height="5.3"/>
		<path class="st0" d="M268.5,1015.5c0-0.5,0-1-0.1-1.7c0-0.6-0.1-1.3-0.1-2s0-1.3-0.1-1.9c0-0.6-0.1-1-0.1-1.4h3.2
			c0,0.9,0.1,1.8,0.1,2.7c0,0.8,0.1,1.4,0.1,1.6h0.2c0.6-1.3,1.7-2.5,3.2-3.5s3.2-1.5,5.2-1.5c1.6,0,3.1,0.4,4.5,1.2
			c1.3,0.8,2.3,2.2,2.9,4.1c0.8-1.8,1.9-3.2,3.5-4c1.5-0.9,3.2-1.3,4.9-1.3c1.9,0,3.5,0.3,4.7,0.9s2.2,1.4,2.9,2.4
			c0.7,1,1.2,2.1,1.4,3.4c0.2,1.3,0.4,2.6,0.4,3.9v14.6h-3.2v-14.4c0-1-0.1-2-0.3-2.9c-0.2-0.9-0.5-1.8-0.9-2.5s-1.1-1.3-1.9-1.8
			c-0.8-0.4-1.8-0.7-3.1-0.7c-1.5,0-2.7,0.3-3.7,0.8c-0.9,0.6-1.7,1.3-2.3,2.1c-0.5,0.9-0.9,1.8-1.2,2.8c-0.2,1-0.3,1.9-0.3,2.8
			v13.8h-3.2v-14.6c0-2.3-0.4-4.1-1.3-5.5c-0.8-1.4-2.1-2.1-3.8-2.1c-1.2,0-2.3,0.2-3.3,0.6s-1.9,1-2.7,1.9
			c-0.8,0.8-1.4,1.9-1.8,3.1c-0.4,1.3-0.7,2.7-0.7,4.4v12.3h-3.2L268.5,1015.5L268.5,1015.5z"/>
		<path class="st0" d="M268.5,1015.5c0-0.5,0-1-0.1-1.7c0-0.6-0.1-1.3-0.1-2s0-1.3-0.1-1.9c0-0.6-0.1-1-0.1-1.4h3.2
			c0,0.9,0.1,1.8,0.1,2.7c0,0.8,0.1,1.4,0.1,1.6h0.2c0.6-1.3,1.7-2.5,3.2-3.5s3.2-1.5,5.2-1.5c1.6,0,3.1,0.4,4.5,1.2
			c1.3,0.8,2.3,2.2,2.9,4.1c0.8-1.8,1.9-3.2,3.5-4c1.5-0.9,3.2-1.3,4.9-1.3c1.9,0,3.5,0.3,4.7,0.9s2.2,1.4,2.9,2.4
			c0.7,1,1.2,2.1,1.4,3.4c0.2,1.3,0.4,2.6,0.4,3.9v14.6h-3.2v-14.4c0-1-0.1-2-0.3-2.9c-0.2-0.9-0.5-1.8-0.9-2.5s-1.1-1.3-1.9-1.8
			c-0.8-0.4-1.8-0.7-3.1-0.7c-1.5,0-2.7,0.3-3.7,0.8c-0.9,0.6-1.7,1.3-2.3,2.1c-0.5,0.9-0.9,1.8-1.2,2.8c-0.2,1-0.3,1.9-0.3,2.8
			v13.8h-3.2v-14.6c0-2.3-0.4-4.1-1.3-5.5c-0.8-1.4-2.1-2.1-3.8-2.1c-1.2,0-2.3,0.2-3.3,0.6s-1.9,1-2.7,1.9
			c-0.8,0.8-1.4,1.9-1.8,3.1c-0.4,1.3-0.7,2.7-0.7,4.4v12.3h-3.2L268.5,1015.5L268.5,1015.5z"/>
		<path class="st0" d="M348.7,1022.9c0,1.2,0,2.3,0,3.2c0,1,0,1.8,0.1,2.7c0,0.8,0.1,1.6,0.1,2.3c0.1,0.7,0.1,1.4,0.2,2.1h-3
			c-0.2-1.2-0.3-2.6-0.3-4h-0.1c-0.9,1.6-2.1,2.8-3.4,3.5c-1.4,0.7-3.1,1.1-5.2,1.1c-1.1,0-2.1-0.1-3.1-0.4s-1.9-0.7-2.8-1.3
			c-0.8-0.6-1.5-1.3-2-2.3c-0.5-0.9-0.8-2-0.8-3.3c0-1.9,0.5-3.4,1.4-4.4c1-1.1,2.1-1.9,3.5-2.5s2.9-0.9,4.5-1.1s3-0.2,4.2-0.2h3.7
			v-1.5c0-2.1-0.6-3.6-2-4.6c-1.3-0.9-3-1.4-4.9-1.4c-2.8,0-5.3,0.9-7.5,2.8l-1.9-2.2c1.2-1.1,2.6-2,4.4-2.6c1.7-0.6,3.4-0.9,5-0.9
			c3,0,5.3,0.7,7.1,2.1c1.8,1.4,2.7,3.7,2.7,6.8L348.7,1022.9L348.7,1022.9z M342.3,1020.8c-1.3,0-2.6,0.1-3.9,0.3
			c-1.3,0.2-2.4,0.5-3.4,0.9s-1.8,1-2.4,1.7s-0.9,1.6-0.9,2.7c0,0.7,0.2,1.4,0.5,2s0.8,1.1,1.3,1.4c0.5,0.4,1.1,0.7,1.8,0.8
			c0.6,0.2,1.3,0.3,2,0.3c1.7,0,3.1-0.2,4.2-0.7s2-1.1,2.6-1.9c0.7-0.8,1.1-1.7,1.4-2.7c0.2-1,0.4-2,0.4-3.1v-1.6h-3.6V1020.8z"/>
		<path class="st0" d="M348.7,1022.9c0,1.2,0,2.3,0,3.2c0,1,0,1.8,0.1,2.7c0,0.8,0.1,1.6,0.1,2.3c0.1,0.7,0.1,1.4,0.2,2.1h-3
			c-0.2-1.2-0.3-2.6-0.3-4h-0.1c-0.9,1.6-2.1,2.8-3.4,3.5c-1.4,0.7-3.1,1.1-5.2,1.1c-1.1,0-2.1-0.1-3.1-0.4s-1.9-0.7-2.8-1.3
			c-0.8-0.6-1.5-1.3-2-2.3c-0.5-0.9-0.8-2-0.8-3.3c0-1.9,0.5-3.4,1.4-4.4c1-1.1,2.1-1.9,3.5-2.5s2.9-0.9,4.5-1.1s3-0.2,4.2-0.2h3.7
			v-1.5c0-2.1-0.6-3.6-2-4.6c-1.3-0.9-3-1.4-4.9-1.4c-2.8,0-5.3,0.9-7.5,2.8l-1.9-2.2c1.2-1.1,2.6-2,4.4-2.6c1.7-0.6,3.4-0.9,5-0.9
			c3,0,5.3,0.7,7.1,2.1c1.8,1.4,2.7,3.7,2.7,6.8L348.7,1022.9L348.7,1022.9z M342.3,1020.8c-1.3,0-2.6,0.1-3.9,0.3
			c-1.3,0.2-2.4,0.5-3.4,0.9s-1.8,1-2.4,1.7s-0.9,1.6-0.9,2.7c0,0.7,0.2,1.4,0.5,2s0.8,1.1,1.3,1.4c0.5,0.4,1.1,0.7,1.8,0.8
			c0.6,0.2,1.3,0.3,2,0.3c1.7,0,3.1-0.2,4.2-0.7s2-1.1,2.6-1.9c0.7-0.8,1.1-1.7,1.4-2.7c0.2-1,0.4-2,0.4-3.1v-1.6h-3.6V1020.8z"/>
		<path class="st0" d="M373.1,1015.5c0-0.5,0-1-0.1-1.7c0-0.6-0.1-1.3-0.1-2s0-1.3-0.1-1.9c0-0.6-0.1-1-0.1-1.4h3.2
			c0,0.9,0.1,1.8,0.1,2.7c0,0.8,0.1,1.4,0.1,1.6c0.8-1.5,1.9-2.6,3.1-3.6c1.3-0.9,2.8-1.4,4.7-1.4c0.3,0,0.6,0,0.9,0.1
			s0.6,0.1,0.9,0.2l-0.4,3.1c-0.4-0.1-0.8-0.2-1.2-0.2c-1.4,0-2.6,0.2-3.6,0.7c-1,0.4-1.8,1.1-2.5,1.8c-0.7,0.8-1.1,1.7-1.5,2.7
			c-0.3,1-0.5,2.2-0.5,3.4v13.4h-3.2v-17.5H373.1z"/>
		<path class="st0" d="M373.1,1015.5c0-0.5,0-1-0.1-1.7c0-0.6-0.1-1.3-0.1-2s0-1.3-0.1-1.9c0-0.6-0.1-1-0.1-1.4h3.2
			c0,0.9,0.1,1.8,0.1,2.7c0,0.8,0.1,1.4,0.1,1.6c0.8-1.5,1.9-2.6,3.1-3.6c1.3-0.9,2.8-1.4,4.7-1.4c0.3,0,0.6,0,0.9,0.1
			s0.6,0.1,0.9,0.2l-0.4,3.1c-0.4-0.1-0.8-0.2-1.2-0.2c-1.4,0-2.6,0.2-3.6,0.7c-1,0.4-1.8,1.1-2.5,1.8c-0.7,0.8-1.1,1.7-1.5,2.7
			c-0.3,1-0.5,2.2-0.5,3.4v13.4h-3.2v-17.5H373.1z"/>
		<path class="st0" d="M426.3,1029.6c-1.2,1.5-2.6,2.5-4.1,3.2s-3.2,1-4.9,1c-1.9,0-3.6-0.3-5.2-1c-1.6-0.6-2.9-1.5-4.1-2.7
			c-1.1-1.2-2-2.5-2.7-4.1c-0.6-1.6-1-3.3-1-5.2s0.3-3.6,1-5.2c0.6-1.6,1.5-2.9,2.7-4.1s2.5-2,4.1-2.7c1.6-0.6,3.3-1,5.2-1
			c1.8,0,3.5,0.4,5,1.1s2.9,1.8,4.1,3.1l-2.5,1.9c-0.9-1-1.9-1.8-3-2.4s-2.3-0.9-3.6-0.9c-1.5,0-2.8,0.3-4,0.8s-2.2,1.2-3.1,2.1
			c-0.8,0.9-1.5,2-1.9,3.2s-0.7,2.5-0.7,3.9s0.2,2.7,0.7,3.9c0.5,1.2,1.1,2.3,1.9,3.2c0.9,0.9,1.9,1.6,3.1,2.1s2.5,0.8,4,0.8
			c1.3,0,2.6-0.3,3.7-0.9s2.1-1.4,2.9-2.5L426.3,1029.6z"/>
		<path class="st0" d="M426.3,1029.6c-1.2,1.5-2.6,2.5-4.1,3.2s-3.2,1-4.9,1c-1.9,0-3.6-0.3-5.2-1c-1.6-0.6-2.9-1.5-4.1-2.7
			c-1.1-1.2-2-2.5-2.7-4.1c-0.6-1.6-1-3.3-1-5.2s0.3-3.6,1-5.2c0.6-1.6,1.5-2.9,2.7-4.1s2.5-2,4.1-2.7c1.6-0.6,3.3-1,5.2-1
			c1.8,0,3.5,0.4,5,1.1s2.9,1.8,4.1,3.1l-2.5,1.9c-0.9-1-1.9-1.8-3-2.4s-2.3-0.9-3.6-0.9c-1.5,0-2.8,0.3-4,0.8s-2.2,1.2-3.1,2.1
			c-0.8,0.9-1.5,2-1.9,3.2s-0.7,2.5-0.7,3.9s0.2,2.7,0.7,3.9c0.5,1.2,1.1,2.3,1.9,3.2c0.9,0.9,1.9,1.6,3.1,2.1s2.5,0.8,4,0.8
			c1.3,0,2.6-0.3,3.7-0.9s2.1-1.4,2.9-2.5L426.3,1029.6z"/>
		<path class="st0" d="M466.3,1022.9c0,1.2,0,2.3,0,3.2c0,1,0,1.8,0.1,2.7c0,0.8,0.1,1.6,0.1,2.3c0.1,0.7,0.1,1.4,0.2,2.1h-3
			c-0.2-1.2-0.3-2.6-0.3-4h-0.1c-0.9,1.6-2.1,2.8-3.4,3.5c-1.4,0.7-3.1,1.1-5.2,1.1c-1.1,0-2.1-0.1-3.1-0.4s-1.9-0.7-2.8-1.3
			c-0.8-0.6-1.5-1.3-2-2.3c-0.5-0.9-0.8-2-0.8-3.3c0-1.9,0.5-3.4,1.4-4.4c1-1.1,2.1-1.9,3.5-2.5s2.9-0.9,4.5-1.1s3-0.2,4.2-0.2h3.7
			v-1.5c0-2.1-0.7-3.6-2-4.6c-1.3-0.9-3-1.4-4.9-1.4c-2.8,0-5.3,0.9-7.5,2.8l-1.9-2.2c1.2-1.1,2.6-2,4.4-2.6c1.7-0.6,3.4-0.9,5-0.9
			c3,0,5.3,0.7,7.1,2.1c1.8,1.4,2.7,3.7,2.7,6.8L466.3,1022.9L466.3,1022.9z M459.9,1020.8c-1.3,0-2.6,0.1-3.9,0.3
			c-1.3,0.2-2.4,0.5-3.4,0.9s-1.8,1-2.4,1.7s-0.9,1.6-0.9,2.7c0,0.7,0.2,1.4,0.5,2s0.8,1.1,1.3,1.4c0.5,0.4,1.1,0.7,1.8,0.8
			c0.6,0.2,1.3,0.3,2,0.3c1.7,0,3.1-0.2,4.2-0.7s2-1.1,2.6-1.9c0.7-0.8,1.1-1.7,1.4-2.7c0.2-1,0.4-2,0.4-3.1v-1.6h-3.6V1020.8z"/>
		<path class="st0" d="M466.3,1022.9c0,1.2,0,2.3,0,3.2c0,1,0,1.8,0.1,2.7c0,0.8,0.1,1.6,0.1,2.3c0.1,0.7,0.1,1.4,0.2,2.1h-3
			c-0.2-1.2-0.3-2.6-0.3-4h-0.1c-0.9,1.6-2.1,2.8-3.4,3.5c-1.4,0.7-3.1,1.1-5.2,1.1c-1.1,0-2.1-0.1-3.1-0.4s-1.9-0.7-2.8-1.3
			c-0.8-0.6-1.5-1.3-2-2.3c-0.5-0.9-0.8-2-0.8-3.3c0-1.9,0.5-3.4,1.4-4.4c1-1.1,2.1-1.9,3.5-2.5s2.9-0.9,4.5-1.1s3-0.2,4.2-0.2h3.7
			v-1.5c0-2.1-0.7-3.6-2-4.6c-1.3-0.9-3-1.4-4.9-1.4c-2.8,0-5.3,0.9-7.5,2.8l-1.9-2.2c1.2-1.1,2.6-2,4.4-2.6c1.7-0.6,3.4-0.9,5-0.9
			c3,0,5.3,0.7,7.1,2.1c1.8,1.4,2.7,3.7,2.7,6.8L466.3,1022.9L466.3,1022.9z M459.9,1020.8c-1.3,0-2.6,0.1-3.9,0.3
			c-1.3,0.2-2.4,0.5-3.4,0.9s-1.8,1-2.4,1.7s-0.9,1.6-0.9,2.7c0,0.7,0.2,1.4,0.5,2s0.8,1.1,1.3,1.4c0.5,0.4,1.1,0.7,1.8,0.8
			c0.6,0.2,1.3,0.3,2,0.3c1.7,0,3.1-0.2,4.2-0.7s2-1.1,2.6-1.9c0.7-0.8,1.1-1.7,1.4-2.7c0.2-1,0.4-2,0.4-3.1v-1.6h-3.6V1020.8z"/>
		<path class="st0" d="M512.1,1028.9L512.1,1028.9c-0.6,0.9-1.2,1.6-2,2.2c-0.7,0.6-1.5,1.1-2.4,1.5s-1.8,0.7-2.7,0.9
			c-1,0.2-1.9,0.3-2.8,0.3c-1.9,0-3.6-0.3-5.2-1c-1.6-0.6-2.9-1.5-4.1-2.7c-1.1-1.2-2-2.5-2.7-4.1c-0.6-1.6-1-3.3-1-5.2
			s0.3-3.6,1-5.2c0.6-1.6,1.5-2.9,2.7-4.1s2.5-2,4.1-2.7c1.6-0.6,3.3-1,5.2-1c0.9,0,1.9,0.1,2.8,0.3c1,0.2,1.9,0.5,2.7,0.9
			c0.9,0.4,1.7,0.9,2.4,1.5c0.7,0.6,1.4,1.3,1.9,2.2h0.1v-19.9h3.2v40.1h-3.2V1028.9L512.1,1028.9z M512.4,1020.9
			c0-1.4-0.3-2.7-0.8-3.9c-0.5-1.2-1.3-2.3-2.2-3.2c-0.9-0.9-2-1.6-3.2-2.1s-2.6-0.8-4-0.8c-1.5,0-2.8,0.3-4,0.8s-2.2,1.2-3.1,2.1
			c-0.8,0.9-1.5,2-1.9,3.2s-0.7,2.5-0.7,3.9s0.2,2.7,0.7,3.9c0.4,1.2,1.1,2.3,1.9,3.2c0.8,0.9,1.9,1.6,3.1,2.1s2.5,0.8,4,0.8
			c1.4,0,2.8-0.3,4-0.8s2.3-1.2,3.2-2.1c0.9-0.9,1.6-2,2.2-3.2C512.2,1023.6,512.4,1022.3,512.4,1020.9"/>
		<path class="st0" d="M512.1,1028.9L512.1,1028.9c-0.6,0.9-1.2,1.6-2,2.2c-0.7,0.6-1.5,1.1-2.4,1.5s-1.8,0.7-2.7,0.9
			c-1,0.2-1.9,0.3-2.8,0.3c-1.9,0-3.6-0.3-5.2-1c-1.6-0.6-2.9-1.5-4.1-2.7c-1.1-1.2-2-2.5-2.7-4.1c-0.6-1.6-1-3.3-1-5.2
			s0.3-3.6,1-5.2c0.6-1.6,1.5-2.9,2.7-4.1s2.5-2,4.1-2.7c1.6-0.6,3.3-1,5.2-1c0.9,0,1.9,0.1,2.8,0.3c1,0.2,1.9,0.5,2.7,0.9
			c0.9,0.4,1.7,0.9,2.4,1.5c0.7,0.6,1.4,1.3,1.9,2.2h0.1v-19.9h3.2v40.1h-3.2V1028.9L512.1,1028.9z M512.4,1020.9
			c0-1.4-0.3-2.7-0.8-3.9c-0.5-1.2-1.3-2.3-2.2-3.2c-0.9-0.9-2-1.6-3.2-2.1s-2.6-0.8-4-0.8c-1.5,0-2.8,0.3-4,0.8s-2.2,1.2-3.1,2.1
			c-0.8,0.9-1.5,2-1.9,3.2s-0.7,2.5-0.7,3.9s0.2,2.7,0.7,3.9c0.4,1.2,1.1,2.3,1.9,3.2c0.8,0.9,1.9,1.6,3.1,2.1s2.5,0.8,4,0.8
			c1.4,0,2.8-0.3,4-0.8s2.3-1.2,3.2-2.1c0.9-0.9,1.6-2,2.2-3.2C512.2,1023.6,512.4,1022.3,512.4,1020.9z"/>
		<path class="st0" d="M537.6,1020.9c0-1.9,0.3-3.6,0.9-5.2s1.5-2.9,2.7-4.1c1.1-1.2,2.5-2,4.1-2.7c1.6-0.6,3.3-1,5.2-1
			s3.6,0.3,5.2,1c1.6,0.6,3,1.5,4.1,2.7s2,2.5,2.7,4.1s1,3.3,1,5.2s-0.3,3.6-1,5.2s-1.5,2.9-2.7,4.1c-1.1,1.1-2.5,2-4.1,2.7
			c-1.6,0.6-3.3,1-5.2,1s-3.6-0.3-5.2-1c-1.6-0.6-2.9-1.5-4.1-2.7c-1.1-1.2-2-2.5-2.7-4.1S537.6,1022.8,537.6,1020.9 M540.8,1020.9
			c0,1.4,0.2,2.7,0.7,3.9c0.4,1.2,1.1,2.3,1.9,3.2c0.8,0.9,1.9,1.6,3.1,2.1c1.2,0.5,2.5,0.8,4,0.8s2.8-0.3,4-0.8s2.2-1.2,3.1-2.1
			c0.8-0.9,1.5-2,1.9-3.2s0.7-2.5,0.7-3.9s-0.2-2.7-0.7-3.9c-0.4-1.2-1.1-2.3-1.9-3.2c-0.9-0.9-1.9-1.6-3.1-2.1
			c-1.2-0.5-2.6-0.8-4-0.8c-1.5,0-2.8,0.3-4,0.8s-2.2,1.2-3.1,2.1s-1.5,2-1.9,3.2C541,1018.2,540.8,1019.5,540.8,1020.9"/>
		<path class="st0" d="M537.6,1020.9c0-1.9,0.3-3.6,0.9-5.2s1.5-2.9,2.7-4.1c1.1-1.2,2.5-2,4.1-2.7c1.6-0.6,3.3-1,5.2-1
			s3.6,0.3,5.2,1c1.6,0.6,3,1.5,4.1,2.7s2,2.5,2.7,4.1s1,3.3,1,5.2s-0.3,3.6-1,5.2s-1.5,2.9-2.7,4.1c-1.1,1.1-2.5,2-4.1,2.7
			c-1.6,0.6-3.3,1-5.2,1s-3.6-0.3-5.2-1c-1.6-0.6-2.9-1.5-4.1-2.7c-1.1-1.2-2-2.5-2.7-4.1S537.6,1022.8,537.6,1020.9z M540.8,1020.9
			c0,1.4,0.2,2.7,0.7,3.9c0.4,1.2,1.1,2.3,1.9,3.2c0.8,0.9,1.9,1.6,3.1,2.1c1.2,0.5,2.5,0.8,4,0.8s2.8-0.3,4-0.8s2.2-1.2,3.1-2.1
			c0.8-0.9,1.5-2,1.9-3.2s0.7-2.5,0.7-3.9s-0.2-2.7-0.7-3.9c-0.4-1.2-1.1-2.3-1.9-3.2c-0.9-0.9-1.9-1.6-3.1-2.1
			c-1.2-0.5-2.6-0.8-4-0.8c-1.5,0-2.8,0.3-4,0.8s-2.2,1.2-3.1,2.1s-1.5,2-1.9,3.2C541,1018.2,540.8,1019.5,540.8,1020.9z"/>
	</g>
	<g>
		<g>
			<defs>
				<rect id="SVGID_1_" x="-0.3" y="-212.7" width="768.6" height="1367.1"/>
			</defs>
			<clipPath id="SVGID_2_">
				<use xlink:href="#SVGID_1_"  style="overflow:visible;"/>
			</clipPath>
			<g class="st1">
				<g id="XMLID_249_">
					<polygon id="XMLID_264_" class="st2" points="653.1,794.3 614.9,673.5 660.3,701 					"/>
					<polygon id="XMLID_263_" class="st3" points="608.9,509.8 660.3,701 614.9,673.5 497.8,623.4 					"/>
					<polygon id="XMLID_262_" class="st2" points="677,561.2 643,553.5 619.2,548.2 608.9,509.8 					"/>
					<polygon id="XMLID_261_" class="st4" points="686.4,605.4 642.8,553.5 676.9,561.2 					"/>
					<polygon id="XMLID_258_" class="st4" points="608.9,509.8 384.2,484.7 497.8,623.4 					"/>
					<polygon id="XMLID_257_" class="st3" points="324.5,629.3 497.8,623.4 294.6,502.7 					"/>
					<polygon id="XMLID_256_" class="st2" points="384.2,484.7 294.6,502.7 497.8,623.4 					"/>
					<polygon id="XMLID_255_" class="st2" points="324.5,629.3 332.8,794.3 384.2,627.3 					"/>
					<polygon id="XMLID_254_" class="st3" points="653.1,794.3 637.6,794.3 637.6,745.2 					"/>
					<polygon id="XMLID_253_" class="st3" points="279,267.2 294.6,502.7 384.2,484.7 					"/>
					<polygon id="XMLID_252_" class="st2" points="321.5,138.2 279,267.2 314.2,339.9 					"/>
					<polygon id="XMLID_251_" class="st3" points="242.3,162.1 251.6,182.4 306.9,182.4 321.5,138.2 					"/>
					<polygon id="XMLID_250_" class="st3" points="332.8,794.3 310.1,794.3 329.7,733.9 					"/>
				</g>
				<g>
					<polygon id="XMLID_248_" class="st5" points="29.7,294.9 127,392.2 29.7,392.2 					"/>
					<polygon id="XMLID_247_" class="st6" points="127,197.6 127,294.9 29.7,294.9 					"/>
					<polygon id="XMLID_246_" class="st7" points="127,100.3 224.3,100.3 127,197.6 					"/>
					<polygon id="XMLID_245_" class="st8" points="224.3,294.9 321.6,392.2 224.3,392.2 					"/>
					<polygon id="XMLID_244_" class="st9" points="127,294.9 224.3,294.9 127,392.2 					"/>
					<polygon id="XMLID_243_" class="st10" points="29.7,392.2 29.7,489.5 -67.6,392.2 					"/>
					<polygon id="XMLID_242_" class="st11" points="127,392.2 127,489.5 29.7,489.5 					"/>
					<polygon id="XMLID_241_" class="st12" points="127,781.4 29.7,781.4 29.7,684.1 					"/>
					<polygon id="XMLID_240_" class="st13" points="127,586.8 127,684.1 29.7,684.1 					"/>
					<polygon id="XMLID_239_" class="st14" points="127,489.5 224.3,489.5 127,586.8 					"/>
					<polygon id="XMLID_238_" class="st15" points="224.3,392.2 224.3,489.5 127,392.2 					"/>
					<polygon id="XMLID_237_" class="st16" points="127,684.1 224.3,684.1 127,781.4 					"/>
					<polygon id="XMLID_236_" class="st17" points="224.3,684.1 321.6,781.4 224.3,781.4 					"/>
					<polygon id="XMLID_235_" class="st18" points="224.3,781.4 224.3,878.7 127,781.4 					"/>
					<polygon id="XMLID_234_" class="st19" points="418.9,392.2 418.9,489.5 321.6,392.2 					"/>
					<polygon id="XMLID_233_" class="st20" points="418.9,781.4 418.9,878.7 321.6,781.4 					"/>
					<polygon id="XMLID_232_" class="st21" points="-164.9,392.2 -67.6,392.2 -164.9,489.5 					"/>
					<polygon id="XMLID_231_" class="st22" points="127,100.3 127,197.6 29.7,100.3 					"/>
					<polygon id="XMLID_230_" class="st23" points="127,294.9 127,392.2 29.7,294.9 					"/>
					<polygon id="XMLID_229_" class="st24" points="29.7,392.2 127,392.2 29.7,489.5 					"/>
					<polygon id="XMLID_209_" class="st25" points="127,489.5 127,586.8 29.7,489.5 					"/>
					<polygon id="XMLID_207_" class="st26" points="127,684.1 127,781.4 29.7,684.1 					"/>
					<polygon id="XMLID_206_" class="st27" points="224.3,2.9 321.6,2.9 224.3,100.3 					"/>
					<polygon id="XMLID_205_" class="st28" points="127,2.9 224.3,100.3 127,100.3 					"/>
					<polygon id="XMLID_204_" class="st29" points="127,197.6 224.3,294.9 127,294.9 					"/>
					<polygon id="XMLID_203_" class="st30" points="224.3,392.2 321.6,392.2 224.3,489.5 					"/>
					<polygon id="XMLID_202_" class="st31" points="127,586.8 224.3,684.1 127,684.1 					"/>
					<polygon id="XMLID_201_" class="st32" points="224.3,684.1 224.3,781.4 127,781.4 					"/>
					<polygon id="XMLID_200_" class="st33" points="224.3,781.4 321.6,781.4 224.3,878.7 					"/>
					<polygon id="XMLID_199_" class="st34" points="418.9,684.1 418.9,781.4 321.6,781.4 					"/>
					<polygon id="XMLID_198_" class="st22" points="-67.6,100.3 -67.6,2.9 29.7,100.3 					"/>
					<polygon id="XMLID_197_" class="st24" points="-67.6,392.2 29.7,489.5 -67.6,489.5 					"/>
					<polygon id="XMLID_196_" class="st35" points="-67.6,294.9 29.7,294.9 -67.6,392.2 					"/>
					<polygon id="XMLID_186_" class="st10" points="29.7,684.1 -67.6,781.4 -67.6,684.1 					"/>
					<polygon id="XMLID_171_" class="st36" points="29.7,489.5 29.7,586.8 -67.6,586.8 					"/>
					<polygon id="XMLID_155_" class="st7" points="29.7,100.3 127,197.6 29.7,197.6 					"/>
					<polygon id="XMLID_151_" class="st37" points="-67.6,489.5 29.7,489.5 -67.6,586.8 					"/>
					<polygon id="XMLID_150_" class="st38" points="29.7,489.5 127,586.8 29.7,586.8 					"/>
					<polygon id="XMLID_149_" class="st10" points="-67.6,489.5 -67.6,586.8 -164.9,489.5 					"/>
					<polygon id="XMLID_146_" class="st39" points="29.7,197.6 127,197.6 29.7,294.9 					"/>
					<polygon id="XMLID_145_" class="st40" points="-67.6,197.6 29.7,294.9 -67.6,294.9 					"/>
					<polygon id="XMLID_144_" class="st41" points="29.7,586.8 127,586.8 29.7,684.1 					"/>
					<polygon id="XMLID_143_" class="st42" points="29.7,197.6 29.7,294.9 -67.6,197.6 					"/>
					<polygon id="XMLID_142_" class="st43" points="-67.6,392.2 -67.6,489.5 -164.9,489.5 					"/>
					<polygon id="XMLID_141_" class="st44" points="-67.6,586.8 -164.9,586.8 -164.9,489.5 					"/>
					<polygon id="XMLID_121_" class="st45" points="-67.6,294.9 -67.6,392.2 -164.9,294.9 					"/>
					<polygon id="XMLID_107_" class="st46" points="224.3,197.6 321.6,197.6 224.3,294.9 					"/>
					<polygon id="XMLID_106_" class="st47" points="224.3,586.8 321.6,586.8 224.3,684.1 					"/>
					<polygon id="XMLID_105_" class="st48" points="321.6,2.9 418.9,100.3 321.6,100.3 					"/>
					<polygon id="XMLID_104_" class="st49" points="321.6,392.2 418.9,489.5 321.6,489.5 					"/>
					<polygon id="XMLID_103_" class="st50" points="418.9,489.5 418.9,586.8 321.6,586.8 					"/>
					<polygon id="XMLID_102_" class="st51" points="321.6,294.9 418.9,294.9 321.6,392.2 					"/>
					<polygon id="XMLID_101_" class="st52" points="321.6,684.1 418.9,684.1 321.6,781.4 					"/>
					<polygon id="XMLID_100_" class="st53" points="224.3,100.3 321.6,197.6 224.3,197.6 					"/>
					<polygon id="XMLID_99_" class="st54" points="418.9,197.6 418.9,294.9 321.6,197.6 					"/>
					<polygon id="XMLID_98_" class="st55" points="224.3,489.5 321.6,586.8 224.3,586.8 					"/>
					<polygon id="XMLID_97_" class="st56" points="321.6,392.2 321.6,489.5 224.3,489.5 					"/>
					<polygon id="XMLID_96_" class="st57" points="418.9,586.8 418.9,684.1 321.6,586.8 					"/>
					<polygon id="XMLID_94_" class="st58" points="321.6,294.9 321.6,392.2 224.3,294.9 					"/>
					<polygon id="XMLID_93_" class="st59" points="321.6,684.1 321.6,781.4 224.3,684.1 					"/>
					<polygon id="XMLID_92_" class="st60" points="224.3,197.6 224.3,294.9 127,197.6 					"/>
					<polygon id="XMLID_89_" class="st61" points="321.6,197.6 321.6,294.9 224.3,294.9 					"/>
					<polygon id="XMLID_88_" class="st62" points="321.6,100.3 418.9,100.3 321.6,197.6 					"/>
					<polygon id="XMLID_87_" class="st63" points="321.6,586.8 321.6,684.1 224.3,684.1 					"/>
					<polygon id="XMLID_86_" class="st64" points="224.3,586.8 224.3,684.1 127,586.8 					"/>
					<polygon id="XMLID_85_" class="st31" points="128.9,781.4 128.9,880.5 29.8,781.4 					"/>
					<polygon id="XMLID_83_" class="st31" points="323.4,878.4 224.3,878.4 323.4,779.3 					"/>
					<polygon id="XMLID_82_" class="st65" points="321.6,489.5 418.9,489.5 321.6,586.8 					"/>
					<polygon id="XMLID_79_" class="st66" points="321.6,100.3 321.6,197.6 224.3,100.3 					"/>
					<polyline id="XMLID_77_" class="st67" points="224.3,100.3 224.3,197.6 127,197.6 					"/>
					<polygon id="XMLID_76_" class="st68" points="321.6,489.5 321.6,586.8 224.3,489.5 					"/>
					<polygon id="XMLID_75_" class="st69" points="224.3,490.7 224.3,588 127,588 					"/>
					<polygon id="XMLID_74_" class="st70" points="321.6,197.6 418.9,294.9 321.6,294.9 					"/>
					<polygon id="XMLID_73_" class="st71" points="321.6,586.8 418.9,684.1 321.6,684.1 					"/>
					<polygon id="XMLID_72_" class="st72" points="29.7,392.2 29.7,294.9 -67.6,392.2 					"/>
					<polygon id="XMLID_71_" class="st73" points="-164.9,684.1 -262.2,684.1 -164.9,586.8 					"/>
					<polygon id="XMLID_69_" class="st74" points="-67.6,586.8 -67.6,684.1 -164.9,586.8 					"/>
					<polygon id="XMLID_68_" class="st74" points="-67.2,781.7 -67.2,879 -164.5,781.7 					"/>
					<polygon id="XMLID_64_" class="st75" points="-262.2,392.2 -164.9,392.2 -262.2,489.5 					"/>
					<polygon id="XMLID_63_" class="st76" points="-262.2,586.8 -262.2,684.1 -359.5,586.8 					"/>
					<polygon id="XMLID_61_" class="st77" points="-164.9,197.6 -67.6,197.6 -67.6,294.9 					"/>
					<polygon id="XMLID_60_" class="st77" points="-67.6,781.5 29.7,781.5 29.7,878.8 					"/>
					<polygon id="XMLID_59_" class="st78" points="-164.9,197.6 -262.2,294.9 -262.2,197.6 					"/>
					<polygon id="XMLID_58_" class="st39" points="-67.6,197.6 -67.6,100.3 29.7,197.6 					"/>
					<polygon id="XMLID_57_" class="st79" points="-262.2,100.3 -164.9,2.9 -164.9,100.3 					"/>
					<polygon id="XMLID_56_" class="st80" points="-262.2,294.9 -359.5,294.9 -359.5,197.6 					"/>
					<polygon id="XMLID_55_" class="st81" points="127,878.7 29.7,878.7 29.7,781.4 					"/>
					<polygon id="XMLID_52_" class="st82" points="-262.2,586.8 -262.2,489.5 -164.9,586.8 					"/>
					<polygon id="XMLID_51_" class="st83" points="-359.5,489.5 -262.2,489.5 -359.5,586.8 					"/>
					<polygon id="XMLID_50_" class="st84" points="-262.2,294.9 -164.9,294.9 -164.9,392.2 					"/>
					<polygon id="XMLID_49_" class="st85" points="-164.9,197.6 -67.6,100.3 -67.6,197.6 					"/>
				</g>
				<g>
					<g>
						<defs>
							<rect id="SVGID_3_" x="193.7" y="85.7" width="225.3" height="785.9"/>
						</defs>
						<clipPath id="SVGID_4_">
							<use xlink:href="#SVGID_3_"  style="overflow:visible;"/>
						</clipPath>
						<g id="XMLID_14_" class="st86">
							<polygon id="XMLID_48_" class="st87" points="653.1,794.3 614.9,673.5 660.3,701 							"/>
							<polygon id="XMLID_47_" class="st87" points="608.9,509.8 660.3,701 614.9,673.5 497.8,623.4 							"/>
							<polygon id="XMLID_45_" class="st87" points="677,561.2 643,553.5 619.2,548.2 608.9,509.8 							"/>
							<polygon id="XMLID_24_" class="st87" points="686.4,605.4 642.8,553.5 676.9,561.2 							"/>
							<polygon id="XMLID_23_" class="st87" points="608.9,509.8 384.2,484.7 497.8,623.4 							"/>
							<polygon id="XMLID_22_" class="st87" points="324.5,629.3 497.8,623.4 294.6,502.7 							"/>
							<polygon id="XMLID_21_" class="st87" points="384.2,484.7 294.6,502.7 497.8,623.4 							"/>
							<polygon id="XMLID_20_" class="st87" points="324.5,629.3 332.8,794.3 384.2,627.3 							"/>
							<polygon id="XMLID_19_" class="st87" points="653.1,794.3 637.6,794.3 637.6,745.2 							"/>
							<polygon id="XMLID_18_" class="st87" points="279,267.2 294.6,502.7 384.2,484.7 							"/>
							<polygon id="XMLID_17_" class="st87" points="321.5,138.2 279,267.2 314.2,339.9 							"/>
							<polygon id="XMLID_16_" class="st87" points="242.3,162.1 251.6,182.4 306.9,182.4 321.5,138.2 							"/>
							<polygon id="XMLID_15_" class="st87" points="332.8,794.3 310.1,794.3 329.7,733.9 							"/>
						</g>
					</g>
				</g>
			</g>
		</g>
	</g>
</g>
<g>
</g>
<g>
</g>
<g>
</g>
<g>
</g>
<g>
</g>
<g>
</g>
</svg>
