<?xml version="1.0" encoding="utf-8"?>
<!-- Generator: Adobe Illustrator 22.0.1, SVG Export Plug-In . SVG Version: 6.00 Build 0)  -->
<svg version="1.1" id="Layer_1" xmlns="http://www.w3.org/2000/svg" xmlns:xlink="http://www.w3.org/1999/xlink" x="0px" y="0px"
	 viewBox="0 0 1366 768" style="enable-background:new 0 0 1366 768;" xml:space="preserve">
<style type="text/css">
	.st0{fill:#EC252E;}
	.st1{fill:#FF7216;}
	.st2{fill:#FF8F29;}
	.st3{fill:#FFA051;}
	.st4{fill:#FF9D50;}
	.st5{fill:#FF714A;}
	.st6{fill:#FF7214;}
	.st7{fill:#FFA352;}
	.st8{fill:#FF8A45;}
	.st9{fill:#FF652D;}
	.st10{fill:#FF6943;}
	.st11{fill:#FF922D;}
	.st12{fill:#FF6C62;}
	.st13{fill:#FF564B;}
	.st14{fill:#F52D47;}
	.st15{fill:#F73348;}
	.st16{fill:#FF392F;}
	.st17{fill:#FF5B45;}
	.st18{fill:#F0274A;}
	.st19{fill:#E41A33;}
	.st20{fill:#F75724;}
	.st21{fill:#FF4133;}
	.st22{fill:#FF8B47;}
	.st23{fill:#FF804D;}
	.st24{fill:#FF7149;}
	.st25{fill:#FF5643;}
	.st26{fill:#FF4E3B;}
	.st27{fill:#FF3A52;}
	.st28{fill:#FF9C41;}
	.st29{fill:#FF934A;}
	.st30{fill:#FF8146;}
	.st31{fill:#FF7324;}
	.st32{fill:#FF6518;}
	.st33{fill:#F8404E;}
	.st34{fill:#FF4A2F;}
	.st35{fill:#D12050;}
	.st36{fill:#FD4E1D;}
	.st37{fill:#C2181D;}
	.st38{fill:#FF5E2E;}
	.st39{fill:#FF5344;}
	.st40{fill:#FB4155;}
	.st41{fill:#FF7935;}
	.st42{fill:#FF7A3E;}
	.st43{fill:#FF3D47;}
	.st44{fill:#FF7024;}
	.st45{fill:#FF4A4E;}
	.st46{fill:#FF2C72;}
	.st47{fill:#FF6343;}
	.st48{fill:#FF862C;}
	.st49{fill:#E92526;}
	.st50{fill:#FF9734;}
	.st51{fill:#FF7F10;}
	.st52{fill:#F85F2C;}
	.st53{fill:#F2422D;}
	.st54{fill:#CF1E29;}
	.st55{fill:#FF6515;}
	.st56{fill:#C5181E;}
	.st57{fill:#FF8A23;}
	.st58{fill:#FF820B;}
	.st59{fill:#FF7312;}
	.st60{fill:#F44F3D;}
	.st61{fill:#F7491E;}
	.st62{fill:#EE3628;}
	.st63{fill:#FF732F;}
	.st64{fill:#FF7933;}
	.st65{fill:#FF6E11;}
	.st66{fill:#FF881A;}
	.st67{fill:#E03228;}
	.st68{fill:#F83C2B;}
	.st69{fill:#E2462D;}
	.st70{fill:#FF8528;}
	.st71{fill:#FF8D28;}
	.st72{fill:#FF4A2A;}
	.st73{fill:#FF5E4A;}
	.st74{fill:#F32527;}
	.st75{fill:#FF5B34;}
	.st76{fill:#FF3A5C;}
	.st77{fill:#FF414B;}
	.st78{fill:#FF315F;}
	.st79{fill:#E61E6F;}
	.st80{fill:#FF7031;}
	.st81{fill:#FF6537;}
	.st82{fill:#FF6646;}
	.st83{fill:#FF5C56;}
	.st84{fill:#F12048;}
	.st85{fill:#FF3845;}
	.st86{fill:#FF4E48;}
	.st87{fill:#FF4E4D;}
	.st88{fill:#C21346;}
	.st89{fill:#C41738;}
	.st90{fill:#EA222E;}
	.st91{fill:none;stroke:#FFFFFF;stroke-width:3;stroke-linejoin:round;stroke-miterlimit:10;}
	.st92{fill:#DF101C;}
</style>
<g>
	<g id="XMLID_1773_">
		<polygon id="XMLID_1780_" class="st0" points="357.9,319.7 333.5,283.9 287.7,325.1 		"/>
		<polygon id="XMLID_1779_" class="st1" points="332,283.7 455,294.2 401.1,380.3 		"/>
		<polygon id="XMLID_1778_" class="st2" points="606.1,360.7 401.1,380.3 518.3,193.1 		"/>
		<polygon id="XMLID_1777_" class="st0" points="606.1,360.7 659.4,563.1 568.2,489 		"/>
		<polygon id="XMLID_1776_" class="st1" points="742.3,142.9 606.1,360.7 518.3,193.1 		"/>
		<polygon id="XMLID_1775_" class="st0" points="724.2,171.6 789.1,169 606.1,360.7 		"/>
		<polygon id="XMLID_1774_" class="st1" points="606.1,360.7 576.7,460.3 420.6,411 401.1,380.3 		"/>
	</g>
	<g>
		<g>
			<polygon id="XMLID_1772_" class="st3" points="558,352.8 495.9,352.8 495.9,290.8 			"/>
			<polygon id="XMLID_1771_" class="st4" points="558,228.7 558,290.8 495.9,290.8 			"/>
			<polygon id="XMLID_1770_" class="st5" points="371.7,290.8 309.6,352.8 309.6,290.8 			"/>
			<polygon id="XMLID_1769_" class="st6" points="433.8,352.8 371.7,352.8 371.7,290.8 			"/>
			<polygon id="XMLID_1768_" class="st7" points="558,414.9 495.9,414.9 558,352.8 			"/>
			<polygon id="XMLID_1767_" class="st8" points="495.9,352.8 495.9,414.9 433.8,352.8 			"/>
			<polygon id="XMLID_1766_" class="st9" points="371.7,414.9 309.6,477 309.6,414.9 			"/>
			<polygon id="XMLID_1765_" class="st10" points="371.7,352.8 371.7,414.9 309.6,352.8 			"/>
			<polygon id="XMLID_1764_" class="st11" points="558,539.1 495.9,539.1 558,477 			"/>
			<polygon id="XMLID_1763_" class="st12" points="309.6,290.8 247.5,290.8 309.6,228.7 			"/>
			<polygon id="XMLID_1762_" class="st13" points="309.6,352.8 247.5,352.8 247.5,290.8 			"/>
			<polygon id="XMLID_1761_" class="st14" points="61.3,352.8 61.3,290.8 123.3,290.8 			"/>
			<polygon id="XMLID_1760_" class="st15" points="185.4,352.8 123.3,352.8 123.3,290.8 			"/>
			<polygon id="XMLID_1759_" class="st16" points="247.5,352.8 247.5,414.9 185.4,352.8 			"/>
			<polygon id="XMLID_1758_" class="st17" points="309.6,414.9 247.5,414.9 309.6,352.8 			"/>
			<polygon id="XMLID_1757_" class="st18" points="123.3,352.8 123.3,414.9 61.3,352.8 			"/>
			<polygon id="XMLID_1756_" class="st19" points="123.3,414.9 61.3,477 61.3,414.9 			"/>
			<polygon id="XMLID_1755_" class="st20" points="309.6,539.1 247.5,539.1 309.6,477 			"/>
			<polygon id="XMLID_1754_" class="st21" points="309.6,166.6 309.6,228.7 247.5,166.6 			"/>
			<polygon id="XMLID_1753_" class="st22" points="558,290.8 558,352.8 495.9,290.8 			"/>
			<polygon id="XMLID_1752_" class="st23" points="495.9,352.8 433.8,352.8 495.9,290.8 			"/>
			<polygon id="XMLID_1751_" class="st24" points="371.7,352.8 309.6,352.8 371.7,290.8 			"/>
			<polygon id="XMLID_1750_" class="st25" points="309.6,290.8 309.6,352.8 247.5,290.8 			"/>
			<polygon id="XMLID_1749_" class="st26" points="247.5,352.8 185.4,352.8 247.5,290.8 			"/>
			<polygon id="XMLID_1748_" class="st27" points="123.3,352.8 61.3,352.8 123.3,290.8 			"/>
			<polygon id="XMLID_1747_" class="st28" points="558,414.9 558,477 495.9,414.9 			"/>
			<polygon id="XMLID_1746_" class="st29" points="558,352.8 495.9,414.9 495.9,352.8 			"/>
			<polygon id="XMLID_1745_" class="st30" points="433.8,352.8 371.7,414.9 371.7,352.8 			"/>
			<polygon id="XMLID_1744_" class="st31" points="371.7,414.9 309.6,414.9 309.6,352.8 			"/>
			<polygon id="XMLID_1743_" class="st32" points="309.6,414.9 309.6,477 247.5,414.9 			"/>
			<polygon id="XMLID_1742_" class="st33" points="309.6,352.8 247.5,414.9 247.5,352.8 			"/>
			<polygon id="XMLID_1741_" class="st34" points="185.4,352.8 123.3,414.9 123.3,352.8 			"/>
			<polygon id="XMLID_1740_" class="st35" points="-0.8,414.9 -0.8,352.8 61.3,352.8 			"/>
			<polygon id="XMLID_1739_" class="st36" points="371.7,539.1 309.6,539.1 309.6,477 			"/>
			<polygon id="XMLID_1738_" class="st37" points="123.3,539.1 61.3,539.1 61.3,477 			"/>
			<polygon id="XMLID_1737_" class="st23" points="495.9,228.7 558,228.7 495.9,290.8 			"/>
			<polygon id="XMLID_1736_" class="st25" points="309.6,228.7 247.5,290.8 247.5,228.7 			"/>
			<polygon id="XMLID_1735_" class="st38" points="371.7,228.7 371.7,290.8 309.6,228.7 			"/>
			<polygon id="XMLID_1734_" class="st12" points="123.3,290.8 61.3,228.7 123.3,228.7 			"/>
			<polygon id="XMLID_1733_" class="st39" points="247.5,290.8 185.4,290.8 185.4,228.7 			"/>
			<polygon id="XMLID_1732_" class="st8" points="495.9,290.8 433.8,352.8 433.8,290.8 			"/>
			<polygon id="XMLID_1731_" class="st40" points="247.5,228.7 247.5,290.8 185.4,228.7 			"/>
			<polygon id="XMLID_1730_" class="st33" points="247.5,290.8 185.4,352.8 185.4,290.8 			"/>
			<polygon id="XMLID_1729_" class="st12" points="247.5,228.7 185.4,228.7 247.5,166.6 			"/>
			<polygon id="XMLID_1728_" class="st41" points="433.8,290.8 433.8,352.8 371.7,290.8 			"/>
			<polygon id="XMLID_1727_" class="st42" points="433.8,228.7 371.7,290.8 371.7,228.7 			"/>
			<polygon id="XMLID_1726_" class="st43" points="185.4,290.8 185.4,352.8 123.3,290.8 			"/>
			<polygon id="XMLID_1725_" class="st44" points="433.8,290.8 371.7,290.8 433.8,228.7 			"/>
			<polygon id="XMLID_1724_" class="st45" points="309.6,228.7 247.5,228.7 247.5,166.6 			"/>
			<polygon id="XMLID_1723_" class="st46" points="185.4,228.7 185.4,166.6 247.5,166.6 			"/>
			<polygon id="XMLID_1722_" class="st47" points="371.7,228.7 309.6,228.7 371.7,166.6 			"/>
			<polygon id="XMLID_1721_" class="st48" points="433.8,414.9 433.8,477 371.7,414.9 			"/>
			<polygon id="XMLID_1720_" class="st49" points="185.4,414.9 185.4,477 123.3,414.9 			"/>
			<polygon id="XMLID_1719_" class="st50" points="558,477 495.9,539.1 495.9,477 			"/>
			<polygon id="XMLID_1718_" class="st51" points="495.9,539.1 433.8,539.1 433.8,477 			"/>
			<polygon id="XMLID_1717_" class="st52" points="309.6,477 247.5,539.1 247.5,477 			"/>
			<polygon id="XMLID_1716_" class="st53" points="247.5,539.1 185.4,539.1 185.4,477 			"/>
			<polygon id="XMLID_1715_" class="st54" points="61.3,477 -0.8,539.1 -0.8,477 			"/>
			<polygon id="XMLID_1714_" class="st55" points="371.7,477 371.7,539.1 309.6,477 			"/>
			<polygon id="XMLID_1713_" class="st56" points="123.3,477 123.3,539.1 61.3,477 			"/>
			<polygon id="XMLID_1712_" class="st57" points="558,477 495.9,477 495.9,414.9 			"/>
			<polygon id="XMLID_1711_" class="st58" points="495.9,414.9 433.8,477 433.8,414.9 			"/>
			<polygon id="XMLID_1710_" class="st59" points="433.8,539.1 371.7,539.1 433.8,477 			"/>
			<polygon id="XMLID_1709_" class="st60" points="247.5,414.9 185.4,477 185.4,414.9 			"/>
			<polygon id="XMLID_1708_" class="st61" points="309.6,477 247.5,477 247.5,414.9 			"/>
			<polygon id="XMLID_1707_" class="st62" points="185.4,539.1 123.3,539.1 185.4,477 			"/>
			<polygon id="XMLID_1706_" class="st63" points="371.7,477 309.6,477 371.7,414.9 			"/>
			<polygon id="XMLID_1705_" class="st64" points="433.8,414.9 371.7,414.9 433.8,352.8 			"/>
			<polygon id="XMLID_1704_" class="st65" points="433.8,477 371.7,477 371.7,414.9 			"/>
			<polygon id="XMLID_1703_" class="st66" points="495.9,477 495.9,539.1 433.8,477 			"/>
			<polygon id="XMLID_1702_" class="st67" points="185.4,477 123.3,477 123.3,414.9 			"/>
			<polygon id="XMLID_1701_" class="st68" points="185.4,414.9 123.3,414.9 185.4,352.8 			"/>
			<polygon id="XMLID_1700_" class="st34" points="61.2,354 -2,354 61.2,290.8 			"/>
			<polygon id="XMLID_1699_" class="st69" points="247.5,477 247.5,539.1 185.4,477 			"/>
			<polygon id="XMLID_1698_" class="st70" points="495.9,477 433.8,477 495.9,414.9 			"/>
			<polygon id="XMLID_1697_" class="st71" points="495.9,414.9 433.8,414.9 433.8,352.8 			"/>
			<polygon id="XMLID_1696_" class="st72" points="247.5,477 185.4,477 247.5,414.9 			"/>
			<polygon id="XMLID_1695_" class="st73" points="246.8,414.9 184.7,414.9 184.7,352.8 			"/>
			<polygon id="XMLID_1694_" class="st51" points="433.8,477 371.7,539.1 371.7,477 			"/>
			<polygon id="XMLID_1693_" class="st74" points="185.4,477 123.3,539.1 123.3,477 			"/>
			<polygon id="XMLID_1692_" class="st75" points="309.6,290.8 371.7,290.8 309.6,228.7 			"/>
			<polygon id="XMLID_1691_" class="st76" points="123.3,166.6 123.3,104.5 185.4,166.6 			"/>
			<polygon id="XMLID_1690_" class="st77" points="185.4,228.7 123.3,228.7 185.4,166.6 			"/>
			<polygon id="XMLID_1689_" class="st77" points="61.1,228.9 -1,228.9 61.1,166.9 			"/>
			<polygon id="XMLID_1688_" class="st78" points="309.6,104.5 309.6,166.6 247.5,104.5 			"/>
			<polygon id="XMLID_1687_" class="st79" points="185.4,104.5 123.3,104.5 185.4,42.4 			"/>
			<polygon id="XMLID_1686_" class="st80" points="433.8,166.6 433.8,228.7 371.7,228.7 			"/>
			<polygon id="XMLID_1685_" class="st80" points="61.2,228.7 61.2,290.7 -0.9,290.7 			"/>
			<polygon id="XMLID_1684_" class="st81" points="433.8,166.6 371.7,104.5 433.8,104.5 			"/>
			<polygon id="XMLID_1683_" class="st41" points="433.8,228.7 495.9,228.7 433.8,290.8 			"/>
			<polygon id="XMLID_1668_" class="st82" points="495.9,104.5 558,166.6 495.9,166.6 			"/>
			<polygon id="XMLID_1667_" class="st83" points="371.7,104.5 371.7,42.4 433.8,42.4 			"/>
			<polygon id="XMLID_1666_" class="st84" points="-0.8,352.8 -0.8,290.8 61.3,290.8 			"/>
			<polygon id="XMLID_1665_" class="st85" points="185.4,104.5 247.5,104.5 185.4,166.6 			"/>
			<polygon id="XMLID_1664_" class="st86" points="247.5,42.4 247.5,104.5 185.4,42.4 			"/>
			<polygon id="XMLID_1663_" class="st87" points="371.7,104.5 371.7,166.6 309.6,166.6 			"/>
			<polygon id="XMLID_1662_" class="st4" points="433.8,166.6 495.9,228.7 433.8,228.7 			"/>
		</g>
		<g>
			<polygon id="XMLID_1661_" class="st7" points="558,663.5 495.9,663.5 558,725.6 			"/>
			<polygon id="XMLID_1660_" class="st8" points="495.9,725.6 495.9,663.5 433.8,725.6 			"/>
			<polygon id="XMLID_1659_" class="st9" points="371.7,663.5 309.6,601.4 309.6,663.5 			"/>
			<polygon id="XMLID_1658_" class="st19" points="123.3,663.5 61.3,601.4 61.3,663.5 			"/>
			<polygon id="XMLID_1657_" class="st88" points="61.3,663.5 -0.8,663.5 61.3,725.6 			"/>
			<polygon id="XMLID_1656_" class="st20" points="309.6,539.3 247.5,539.3 309.6,601.4 			"/>
			<polygon id="XMLID_1655_" class="st89" points="61.3,539.3 -0.8,539.3 61.3,601.4 			"/>
			<polygon id="XMLID_1654_" class="st32" points="309.6,663.5 309.6,601.4 247.5,663.5 			"/>
			<polygon id="XMLID_1653_" class="st36" points="371.7,539.3 309.6,539.3 309.6,601.4 			"/>
			<polygon id="XMLID_1652_" class="st50" points="558,601.4 495.9,539.3 495.9,601.4 			"/>
			<polygon id="XMLID_1651_" class="st51" points="495.9,539.3 433.8,539.3 433.8,601.4 			"/>
			<polygon id="XMLID_1650_" class="st52" points="309.6,601.4 247.5,539.3 247.5,601.4 			"/>
			<polygon id="XMLID_1649_" class="st53" points="247.5,539.3 185.4,539.3 185.4,601.4 			"/>
			<polygon id="XMLID_1648_" class="st55" points="371.7,601.4 371.7,539.3 309.6,601.4 			"/>
			<polygon id="XMLID_1647_" class="st56" points="123.3,601.4 123.3,539.3 61.3,601.4 			"/>
			<polygon id="XMLID_1646_" class="st57" points="558,601.4 495.9,601.4 495.9,663.5 			"/>
			<polygon id="XMLID_1645_" class="st58" points="495.9,663.5 433.8,601.4 433.8,663.5 			"/>
			<polygon id="XMLID_1644_" class="st59" points="433.8,539.3 371.7,539.3 433.8,601.4 			"/>
			<polygon id="XMLID_1643_" class="st60" points="247.5,663.5 185.4,601.4 185.4,663.5 			"/>
			<polygon id="XMLID_1642_" class="st61" points="309.6,601.4 247.5,601.4 247.5,663.5 			"/>
			<polygon id="XMLID_1641_" class="st62" points="185.4,539.3 123.3,539.3 185.4,601.4 			"/>
			<polygon id="XMLID_1640_" class="st63" points="371.7,601.4 309.6,601.4 371.7,663.5 			"/>
			<polygon id="XMLID_1639_" class="st90" points="123.3,601.4 61.3,601.4 123.3,663.5 			"/>
			<polygon id="XMLID_1638_" class="st65" points="433.8,601.4 371.7,601.4 371.7,663.5 			"/>
			<polygon id="XMLID_1637_" class="st66" points="495.9,601.4 495.9,539.3 433.8,601.4 			"/>
			<polygon id="XMLID_1636_" class="st34" points="-0.6,600.3 -0.6,663.5 62.6,600.3 			"/>
			<polygon id="XMLID_1635_" class="st69" points="247.5,601.4 247.5,539.3 185.4,601.4 			"/>
			<polygon id="XMLID_1634_" class="st72" points="247.5,601.4 185.4,601.4 247.5,663.5 			"/>
			<polygon id="XMLID_1633_" class="st74" points="185.4,601.4 123.3,539.3 123.3,601.4 			"/>
		</g>
	</g>
	<g id="XMLID_1625_">
		<polygon id="XMLID_1632_" class="st91" points="358.1,319.7 333.8,284 288.1,325.2 		"/>
		<polygon id="XMLID_1631_" class="st91" points="332.3,283.8 455.1,294.4 401.3,380.3 		"/>
		<polygon id="XMLID_1630_" class="st91" points="606,360.8 401.3,380.3 518.4,193.3 		"/>
		<polygon id="XMLID_1629_" class="st91" points="606,360.8 659.3,562.9 568.2,488.9 		"/>
		<polygon id="XMLID_1627_" class="st91" points="724,171.9 788.8,169.3 606,360.8 		"/>
		<polygon id="XMLID_1626_" class="st91" points="606,360.8 576.7,460.2 420.8,411 401.3,380.3 		"/>
	</g>
	<g>
		<g>
			<polygon class="st92" points="719.8,316.7 729.5,316.7 729.5,354.7 746.6,354.7 746.6,362.6 719.8,362.6 			"/>
			<path class="st92" d="M751.5,354c0-8.7,9-11.9,17.9-11.9h1.2v-1.9c0-3.2-1.4-4.7-5.4-4.7c-3.6,0-6.5,1.6-8.5,3.2l-4-5.6
				c2.7-2.5,7.2-4.8,13.5-4.8c9.1,0,13.5,3.5,13.5,12.4v12c0,4.5,0.5,7.8,1,9.9h-9c-0.3-0.8-0.5-2.5-0.6-3.6
				c-1.8,2.2-5.1,4.4-9.4,4.4C755.9,363.4,751.5,359.9,751.5,354 M770.6,353.7v-6.1h-1.2c-5.4,0-9.1,1.6-9.1,5.5
				c0,2.5,2,3.5,4.1,3.5C767.2,356.7,769.1,355.4,770.6,353.7"/>
			<path class="st92" d="M785.6,360.2l3.1-6.4c1.3,0.9,4.5,2.8,8.3,2.8c3.5,0,5.5-1,5.5-3c0-2.3-3.7-2.9-8.5-5.2
				c-4.7-2.2-7.5-4.8-7.5-9.9c0-6.3,5-10.2,12.5-10.2c5.7,0,9.2,1.8,10.7,2.7l-3.2,6.3c-1.3-0.8-3.9-2.1-7.2-2.1
				c-3.2,0-4.6,1.2-4.6,3c0,2.3,3,2.9,6.9,4.4c5.3,2.2,9.1,4.6,9.1,10.2c0,7-5,10.7-13.3,10.7C791.5,363.4,787.7,361.6,785.6,360.2"
				/>
			<path class="st92" d="M815.1,345.6c0-10.6,7.3-17.4,16.6-17.4c9.5,0,14.6,6.1,14.6,16.5c0,1-0.1,2.1-0.1,3.2H825
				c0.4,5,3,8.7,8.5,8.7c4.5,0,7.1-1.5,8.7-2.3l3,5.9c-2.2,1.2-5.6,3.2-12.5,3.2C821.4,363.4,815.1,356.3,815.1,345.6 M837.3,341.7
				c-0.1-3.8-1.6-6.9-5.8-6.9c-3.9,0-6.1,2.5-6.7,6.9H837.3z"/>
			<path class="st92" d="M853.2,329.1h9.1v4.5c1.4-2.5,4.2-5.4,8.5-5.4c2.5,0,3.8,0.5,4.5,0.9l-2.2,8c-0.5-0.3-1.6-0.8-3.5-0.8
				c-4.1,0-6.5,3.6-7.3,5.1v21.1h-9.1V329.1z"/>
			<polygon class="st92" points="902.5,324.7 889.9,324.7 889.9,316.7 924.9,316.7 924.9,324.7 912.3,324.7 912.3,362.6 
				902.5,362.6 			"/>
			<path class="st92" d="M923.5,345.6c0-10.6,7.3-17.4,16.6-17.4c9.5,0,14.6,6.1,14.6,16.5c0,1-0.1,2.1-0.1,3.2h-21.2
				c0.4,5,3,8.7,8.5,8.7c4.5,0,7.1-1.5,8.7-2.3l3,5.9c-2.2,1.2-5.6,3.2-12.5,3.2C929.8,363.4,923.5,356.3,923.5,345.6 M945.7,341.7
				c-0.1-3.8-1.6-6.9-5.8-6.9c-3.9,0-6.1,2.5-6.7,6.9H945.7z"/>
			<path class="st92" d="M959.2,345.8c0-11.3,7.5-17.6,17.6-17.6c5.4,0,8.7,1.6,10.2,2.7l-3,6.3c-1.5-1-3.6-2-7-2
				c-5.4,0-8.2,4.2-8.2,10.4c0,6.2,2.7,10.7,8.4,10.7c3.9,0,6.2-1.4,7.2-2.1l2.8,6.1c-1.6,1-4.7,3-10.8,3
				C965.8,363.4,959.2,356.2,959.2,345.8"/>
			<path class="st92" d="M992.9,313h9.1v20.1c1.7-1.9,5-4.9,10.5-4.9c7.4,0,10,4.7,10,10.9v23.5h-9.1V341c0-3.4-1.2-5.1-4.4-5.1
				c-3.6,0-6.3,3.3-6.9,4.2v22.5H993L992.9,313L992.9,313z"/>
		</g>
		<rect x="969.8" y="375.2" class="st92" width="52.8" height="4.5"/>
	</g>
	<g>
		<path class="st92" d="M866.7,406.1c-0.6-0.9-1.4-1.7-2.5-2.3c-1.1-0.6-2.2-0.9-3.6-0.9c-1.4,0-2.7,0.2-3.8,0.7s-2.1,1.2-2.9,2
			c-0.8,0.9-1.4,1.9-1.8,3.1c-0.4,1.2-0.6,2.5-0.6,3.8c0,1.4,0.2,2.7,0.6,3.8c0.4,1.2,1,2.2,1.8,3.1s1.7,1.5,2.9,2
			c1.1,0.5,2.4,0.7,3.8,0.7c1.3,0,2.5-0.3,3.6-0.9c1-0.6,1.9-1.4,2.5-2.3l2.8,2.1c-1.2,1.4-2.6,2.5-4.1,3.1c-1.5,0.7-3.1,1-4.7,1.1
			c-2,0-3.7-0.3-5.3-0.9s-2.9-1.5-4-2.7s-2-2.5-2.6-4c-0.6-1.6-0.9-3.3-0.9-5.1c0-1.8,0.3-3.5,0.9-5.1c0.6-1.6,1.4-2.9,2.6-4
			c1.1-1.1,2.5-2,4-2.7c1.6-0.6,3.3-0.9,5.3-0.9c1.7,0,3.2,0.4,4.7,1.1s2.9,1.7,4.1,3.1L866.7,406.1z"/>
		<path class="st92" d="M866.7,406.1c-0.6-0.9-1.4-1.7-2.5-2.3c-1.1-0.6-2.2-0.9-3.6-0.9c-1.4,0-2.7,0.2-3.8,0.7s-2.1,1.2-2.9,2
			c-0.8,0.9-1.4,1.9-1.8,3.1c-0.4,1.2-0.6,2.5-0.6,3.8c0,1.4,0.2,2.7,0.6,3.8c0.4,1.2,1,2.2,1.8,3.1s1.7,1.5,2.9,2
			c1.1,0.5,2.4,0.7,3.8,0.7c1.3,0,2.5-0.3,3.6-0.9c1-0.6,1.9-1.4,2.5-2.3l2.8,2.1c-1.2,1.4-2.6,2.5-4.1,3.1c-1.5,0.7-3.1,1-4.7,1.1
			c-2,0-3.7-0.3-5.3-0.9s-2.9-1.5-4-2.7s-2-2.5-2.6-4c-0.6-1.6-0.9-3.3-0.9-5.1c0-1.8,0.3-3.5,0.9-5.1c0.6-1.6,1.4-2.9,2.6-4
			c1.1-1.1,2.5-2,4-2.7c1.6-0.6,3.3-0.9,5.3-0.9c1.7,0,3.2,0.4,4.7,1.1s2.9,1.7,4.1,3.1L866.7,406.1z"/>
		<path class="st92" d="M913.9,412.5c0,1.8-0.3,3.5-0.9,5.1c-0.6,1.5-1.5,2.9-2.7,4c-1.1,1.1-2.5,2-4.1,2.7c-1.6,0.6-3.3,1-5.2,1
			s-3.6-0.3-5.1-1c-1.6-0.6-2.9-1.5-4.1-2.7c-1.1-1.1-2-2.5-2.7-4c-0.6-1.5-0.9-3.2-0.9-5.1c0-1.8,0.3-3.5,0.9-5
			c0.6-1.5,1.5-2.9,2.7-4c1.1-1.1,2.5-2,4.1-2.7c1.6-0.6,3.3-0.9,5.1-0.9c1.9,0,3.6,0.3,5.2,0.9c1.6,0.6,2.9,1.5,4.1,2.7
			c1.1,1.1,2,2.5,2.7,4C913.5,409,913.9,410.6,913.9,412.5 M910.1,412.5c0-1.3-0.2-2.6-0.6-3.8c-0.4-1.2-1-2.2-1.8-3s-1.7-1.5-2.9-2
			c-1.1-0.5-2.4-0.7-3.8-0.7c-1.4,0-2.6,0.2-3.8,0.7c-1.1,0.5-2.1,1.2-2.9,2s-1.4,1.9-1.8,3c-0.4,1.2-0.6,2.4-0.6,3.8
			c0,1.3,0.2,2.6,0.6,3.8c0.4,1.2,1,2.2,1.8,3c0.8,0.9,1.7,1.5,2.9,2c1.1,0.5,2.4,0.7,3.8,0.7c1.4,0,2.7-0.2,3.8-0.7s2.1-1.2,2.9-2
			c0.8-0.9,1.4-1.9,1.8-3C909.9,415.1,910.1,413.8,910.1,412.5"/>
		<path class="st92" d="M913.9,412.5c0,1.8-0.3,3.5-0.9,5.1c-0.6,1.5-1.5,2.9-2.7,4c-1.1,1.1-2.5,2-4.1,2.7c-1.6,0.6-3.3,1-5.2,1
			s-3.6-0.3-5.1-1c-1.6-0.6-2.9-1.5-4.1-2.7c-1.1-1.1-2-2.5-2.7-4c-0.6-1.5-0.9-3.2-0.9-5.1c0-1.8,0.3-3.5,0.9-5
			c0.6-1.5,1.5-2.9,2.7-4c1.1-1.1,2.5-2,4.1-2.7c1.6-0.6,3.3-0.9,5.1-0.9c1.9,0,3.6,0.3,5.2,0.9c1.6,0.6,2.9,1.5,4.1,2.7
			c1.1,1.1,2,2.5,2.7,4C913.5,409,913.9,410.6,913.9,412.5z M910.1,412.5c0-1.3-0.2-2.6-0.6-3.8c-0.4-1.2-1-2.2-1.8-3
			s-1.7-1.5-2.9-2c-1.1-0.5-2.4-0.7-3.8-0.7c-1.4,0-2.6,0.2-3.8,0.7c-1.1,0.5-2.1,1.2-2.9,2s-1.4,1.9-1.8,3
			c-0.4,1.2-0.6,2.4-0.6,3.8c0,1.3,0.2,2.6,0.6,3.8c0.4,1.2,1,2.2,1.8,3c0.8,0.9,1.7,1.5,2.9,2c1.1,0.5,2.4,0.7,3.8,0.7
			c1.4,0,2.7-0.2,3.8-0.7s2.1-1.2,2.9-2c0.8-0.9,1.4-1.9,1.8-3C909.9,415.1,910.1,413.8,910.1,412.5z"/>
		<path class="st92" d="M935.9,407.9c0-0.5,0-1.1,0-1.6s0-1.1-0.1-1.6c0-0.6,0-1.2-0.1-1.9c0-0.7,0-1.5-0.1-2.4h3.3v4.5h0.1
			c0.2-0.6,0.6-1.3,1-1.9s1-1.1,1.6-1.6s1.4-0.9,2.2-1.2c0.8-0.3,1.8-0.4,2.9-0.4c1,0,1.8,0.1,2.5,0.3l-0.7,3.3
			c-0.5-0.2-1.1-0.3-2-0.3c-1.3,0-2.4,0.3-3.3,0.8c-1,0.5-1.7,1.1-2.4,1.9c-0.6,0.8-1.1,1.6-1.4,2.5c-0.3,0.9-0.4,1.8-0.4,2.6v13.6
			h-3.4v-16.6H935.9z"/>
		<path class="st92" d="M935.9,407.9c0-0.5,0-1.1,0-1.6s0-1.1-0.1-1.6c0-0.6,0-1.2-0.1-1.9c0-0.7,0-1.5-0.1-2.4h3.3v4.5h0.1
			c0.2-0.6,0.6-1.3,1-1.9s1-1.1,1.6-1.6s1.4-0.9,2.2-1.2c0.8-0.3,1.8-0.4,2.9-0.4c1,0,1.8,0.1,2.5,0.3l-0.7,3.3
			c-0.5-0.2-1.1-0.3-2-0.3c-1.3,0-2.4,0.3-3.3,0.8c-1,0.5-1.7,1.1-2.4,1.9c-0.6,0.8-1.1,1.6-1.4,2.5c-0.3,0.9-0.4,1.8-0.4,2.6v13.6
			h-3.4v-16.6H935.9z"/>
		<path class="st92" d="M980.6,403.5h-7v14.2c0,0.9,0.1,1.6,0.3,2.2s0.4,1,0.7,1.3s0.7,0.5,1.1,0.6c0.4,0.1,0.9,0.2,1.4,0.2
			c0.6,0,1.2-0.1,1.8-0.3c0.6-0.2,1.2-0.4,1.7-0.7l0.2,3.1c-1.3,0.6-2.8,0.9-4.6,0.9c-0.7,0-1.3-0.1-2-0.3c-0.7-0.2-1.3-0.5-1.9-1
			c-0.6-0.5-1.1-1.1-1.4-2c-0.4-0.8-0.6-1.9-0.6-3.2v-15.2h-5.1v-3.1h5.1v-6.8h3.4v6.8h7v3.3H980.6z"/>
		<path class="st92" d="M980.6,403.5h-7v14.2c0,0.9,0.1,1.6,0.3,2.2s0.4,1,0.7,1.3s0.7,0.5,1.1,0.6c0.4,0.1,0.9,0.2,1.4,0.2
			c0.6,0,1.2-0.1,1.8-0.3c0.6-0.2,1.2-0.4,1.7-0.7l0.2,3.1c-1.3,0.6-2.8,0.9-4.6,0.9c-0.7,0-1.3-0.1-2-0.3c-0.7-0.2-1.3-0.5-1.9-1
			c-0.6-0.5-1.1-1.1-1.4-2c-0.4-0.8-0.6-1.9-0.6-3.2v-15.2h-5.1v-3.1h5.1v-6.8h3.4v6.8h7v3.3H980.6z"/>
		<path class="st92" d="M1003.1,413.4c0.1,1.2,0.4,2.3,0.9,3.4s1.1,2,1.9,2.8c0.8,0.8,1.7,1.4,2.7,1.8c1,0.5,2.2,0.7,3.4,0.7
			c1.8,0,3.4-0.4,4.7-1.3c1.3-0.8,2.3-1.8,3-2.9l2.6,2.2c-1.4,1.8-3,3.1-4.8,3.9c-1.7,0.8-3.6,1.2-5.6,1.2c-1.8,0-3.5-0.3-5-1
			c-1.5-0.6-2.8-1.5-3.9-2.7c-1.1-1.1-2-2.5-2.6-4s-1-3.2-1-5.1c0-1.8,0.3-3.5,0.9-5c0.6-1.5,1.5-2.9,2.6-4s2.4-2,3.9-2.7
			c1.5-0.6,3.1-0.9,4.8-0.9c1.8,0,3.5,0.3,4.9,1s2.7,1.5,3.6,2.6c1,1.1,1.7,2.4,2.2,3.8c0.5,1.5,0.8,3,0.8,4.7v1.5H1003.1z
			 M1019.5,410.6c0-2.3-0.7-4.2-2.1-5.6s-3.3-2.1-5.8-2.1c-1.1,0-2.2,0.2-3.2,0.6s-1.9,1-2.7,1.7s-1.4,1.5-1.9,2.5
			c-0.5,0.9-0.7,1.9-0.7,2.9H1019.5z"/>
		<path class="st92" d="M1003.1,413.4c0.1,1.2,0.4,2.3,0.9,3.4s1.1,2,1.9,2.8c0.8,0.8,1.7,1.4,2.7,1.8c1,0.5,2.2,0.7,3.4,0.7
			c1.8,0,3.4-0.4,4.7-1.3c1.3-0.8,2.3-1.8,3-2.9l2.6,2.2c-1.4,1.8-3,3.1-4.8,3.9c-1.7,0.8-3.6,1.2-5.6,1.2c-1.8,0-3.5-0.3-5-1
			c-1.5-0.6-2.8-1.5-3.9-2.7c-1.1-1.1-2-2.5-2.6-4s-1-3.2-1-5.1c0-1.8,0.3-3.5,0.9-5c0.6-1.5,1.5-2.9,2.6-4s2.4-2,3.9-2.7
			c1.5-0.6,3.1-0.9,4.8-0.9c1.8,0,3.5,0.3,4.9,1s2.7,1.5,3.6,2.6c1,1.1,1.7,2.4,2.2,3.8c0.5,1.5,0.8,3,0.8,4.7v1.5H1003.1z
			 M1019.5,410.6c0-2.3-0.7-4.2-2.1-5.6s-3.3-2.1-5.8-2.1c-1.1,0-2.2,0.2-3.2,0.6s-1.9,1-2.7,1.7s-1.4,1.5-1.9,2.5
			c-0.5,0.9-0.7,1.9-0.7,2.9H1019.5z"/>
	</g>
	<polygon id="XMLID_1628_" class="st91" points="742,143.2 606,360.8 518.4,193.3 	"/>
</g>
</svg>
