<?xml version="1.0" encoding="utf-8"?>
<!-- Generator: Adobe Illustrator 22.0.1, SVG Export Plug-In . SVG Version: 6.00 Build 0)  -->
<svg version="1.1" id="Layer_1" xmlns="http://www.w3.org/2000/svg" xmlns:xlink="http://www.w3.org/1999/xlink" x="0px" y="0px"
	 viewBox="0 0 182.7 120" style="enable-background:new 0 0 182.7 120;" xml:space="preserve">
<style type="text/css">
	.st0{fill:#45B4FF;}
</style>
<g>
	<path class="st0" d="M118.6,80c-1-5.2-2.6-10.2-4.6-15.1c-3.5-8.8-7.8-17.1-12.7-25.2c-1.3-2.1-2.6-4.2-4.1-6.3
		c-0.1,0.2-0.1,0.4-0.1,0.5c0.2,1.1,0,2.2-0.1,3.3c-0.7,5-1.9,9.8-3,14.7c-1,4-2,8-3,12c-1.3,4.9-2.6,9.9-3.9,14.8
		c-1.2,4.3-2.2,8.6-2.3,13c-0.1,3.5,0.2,7,1.3,10.3c2.7,8,9.7,12.4,17.5,11.5c5.5-0.6,9.7-3.3,12.6-8.1c2.5-4.1,3.5-8.6,3.7-13.4
		C119.8,88,119.4,84,118.6,80z M115.7,99.8c-0.5,1.7-1.1,3.2-2.3,4.5c-0.7,0.7-0.7,0.7-1.3,0c-1-1-2-2.1-3.1-3.1
		c-0.2-0.2-0.2-0.4,0-0.6c0.8-1.1,1.5-2.3,2-3.5c0.2-0.4,0.3-0.9,0.4-1.4c1.4,1.1,2.8,2.2,4.1,3.5C115.7,99.4,115.8,99.6,115.7,99.8
		z M117,90.3c-0.1,1.9-0.2,3.7-0.5,5.6c0,0.1,0,0.2-0.1,0.3c-1.1-0.8-2.2-1.6-3.2-2.3c-0.3-0.3-0.9-0.4-1-0.8
		c-0.1-0.3,0.2-0.7,0.4-1.1c1-2.6,1.5-5.2,1.6-8c0.4-5.4-0.3-10.7-1.6-16c-0.2-0.3-0.2-0.6-0.3-0.9c0.2,0.2,0.3,0.4,0.4,0.7
		c1.4,3.1,2.4,6.4,3.1,9.7C116.8,81.7,117.1,86,117,90.3z"/>
	<path class="st0" d="M89.4,37.2c-0.3-3.8-0.8-7.6-1.5-11.3c-0.8-4.2-1.8-8.4-3.1-12.6c-0.2-0.7-0.4-1.4-0.7-2.1
		c-0.3,0.4-0.3,0.9-0.5,1.3c-0.7,1.7-1.5,3.3-2.3,4.8c-3.8,7.1-8,14-12.2,20.9c-1.7,2.8-3.5,5.6-4.7,8.8c-1.2,3.1-1.8,6.3-1.4,9.7
		c1.2,8.6,10.3,12.1,17,8.6c2.9-1.5,4.8-4,6.2-6.8c2-3.9,2.8-8.2,3.1-12.6C89.7,43.1,89.6,40.2,89.4,37.2z M83.5,60
		c-0.7,1-1.4,1.9-2.5,2.5c-0.3,0.2-0.5,0.1-0.6-0.2c-0.4-0.9-0.9-1.8-1.4-2.6c-0.2-0.4-0.2-0.5,0.1-0.8c0.9-0.8,1.8-1.6,2.5-2.7
		c0.7,1,1.4,2,2,3C83.7,59.5,83.7,59.7,83.5,60z M84.8,57.5c-0.8-1-1.5-1.9-2.2-2.8c-0.1-0.1,0-0.2,0-0.3c3.2-4.2,4.4-9.1,5-14.2
		c0.1-0.5,0.1-1,0.1-1.5c0-0.5,0-1,0.1-1.5C88.8,44.2,87.8,50.9,84.8,57.5z"/>
	<path class="st0" d="M103.1,24.1c-0.1-2.2-1-4.2-2.2-6c-1.7-2.6-3.8-4.8-6.1-6.8c-2.1-1.8-4.3-3.5-6.6-4.9c0.2,0.4,0.3,0.7,0.3,1.1
		c0.1,0.4,0.2,0.7,0.3,1.1c1,4.4,1.6,8.9,2.2,13.4c0.3,1.9,0.8,3.8,1.9,5.4c1,1.5,2.3,2.6,4.2,2.8C100,30.5,103.3,28.1,103.1,24.1z
		 M97.2,14.7c0,0,0-0.1-0.1-0.2c2.2,1.9,4.3,5.6,4.8,8c-0.5-0.1-1-0.2-1.5-0.3c-0.1,0-0.2-0.1-0.2-0.2
		C100.1,19.2,98.9,16.9,97.2,14.7z M102.1,25.5c-0.1,0.2-0.2,0.2-0.4,0.1c-0.4-0.2-0.8-0.3-1.2-0.5c-0.2-0.1-0.3-0.2-0.2-0.4
		c0.1-0.5,0.2-1,0.1-1.6c0.6,0.1,1.1,0.3,1.6,0.4c0.1,0,0.2,0.1,0.2,0.2C102.3,24.3,102.3,24.9,102.1,25.5z"/>
</g>
<g>
</g>
<g>
</g>
<g>
</g>
<g>
</g>
<g>
</g>
<g>
</g>
</svg>
